<?xml version="1.0" encoding="UTF-8" standalone="no"?>
<!DOCTYPE svg PUBLIC "-//W3C//DTD SVG 1.1//EN" "http://www.w3.org/Graphics/SVG/1.1/DTD/svg11.dtd">
<!-- Created with Vectornator (http://vectornator.io/) -->
<svg height="40.0px" stroke-miterlimit="10" style="fill-rule:nonzero;clip-rule:evenodd;stroke-linecap:round;stroke-linejoin:round;" version="1.1" viewBox="0 0 40 40" width="40.0px" xml:space="preserve" xmlns="http://www.w3.org/2000/svg" xmlns:xlink="http://www.w3.org/1999/xlink">
<defs/>
<g id="surface1">
<path d="M21.494 33.6276C21.331 33.69 21.1681 33.5732 21.1681 33.3994L21.1681 32.0875C21.1681 31.3269 21.1681 27.66 21.1681 27.66C21.1681 27.0353 20.6601 26.5273 20.0354 26.5273L18.1802 26.5273C16.0615 26.5273 14.315 24.8351 14.2878 22.7246C14.2688 20.5896 15.9991 18.8512 18.1259 18.8512L21.8009 18.8512C22.6158 18.8512 23.3139 18.2075 23.3329 17.3926C23.3601 16.5506 22.681 15.8525 21.839 15.8525L20.0191 15.8634C18.0987 15.8634 16.5423 14.3043 16.5423 12.3866L16.5423 10.1756C15.7628 10.5749 14.8039 11.0366 13.8424 11.4441C12.6934 11.933 11.3353 12.3757 10.4933 12.6392C10.3928 14.4048 10.1945 18.7317 10.5286 21.9831C10.7296 23.8219 11.5879 25.7396 12.9732 27.3884C14.3503 29.0263 16.1349 30.2947 18.0172 30.9656C18.4871 31.1178 18.8239 31.5632 18.8239 32.0793L18.8239 33.3912C18.8239 33.5542 18.661 33.671 18.498 33.6167L17.2648 33.1821C14.9832 32.3781 12.8292 30.857 11.1805 28.8904C9.50726 26.8913 8.44793 24.5173 8.20347 22.2275C7.74985 17.8544 8.1926 11.914 8.21161 11.6614L8.27409 10.8546L9.0618 10.6292C9.08081 10.621 11.3 9.98544 12.9297 9.29823C15.0022 8.41002 17.1019 7.21488 17.129 7.19858L18.5143 6.40001C18.6773 6.31037 18.8783 6.42717 18.8783 6.61731L18.8783 12.3866C18.8783 13.0113 19.3835 13.5165 20.0082 13.5165L21.839 13.5084C23.9658 13.5084 25.696 15.2549 25.677 17.3845C25.658 19.5031 23.9033 21.1872 21.7928 21.1872L18.1612 21.1872C17.3463 21.1872 16.651 21.8282 16.6319 22.6431C16.6048 23.4851 17.2838 24.1832 18.1259 24.1832L20.0354 24.1832C21.9476 24.1832 23.5122 25.7396 23.5122 27.66C23.5122 27.66 23.504 29.0453 23.504 30.2866C24.8078 29.5695 26.0301 28.5645 27.027 27.3693C28.4123 25.7043 29.2815 23.7758 29.4797 21.9287C29.8138 18.6883 29.5965 14.3857 29.4797 12.6392C28.6377 12.3757 27.2606 11.933 26.1116 11.4441C24.0554 10.5667 22.0454 9.41503 21.7385 9.24391C21.3663 9.04562 21.1137 8.65448 21.1137 8.21174L21.1137 6.60101C21.1137 6.41087 21.3229 6.29136 21.4859 6.39186L22.8711 7.19858C22.8983 7.20673 24.9708 8.41002 27.027 9.29008C28.6459 9.97729 30.8922 10.621 30.9112 10.6292L31.688 10.8465L31.7532 11.6532C31.7804 11.9058 32.2585 17.8001 31.8076 22.1732C31.3078 26.8723 27.4969 31.5089 22.7245 33.193L21.494 33.6276Z" fill="#242424" fill-rule="nonzero" opacity="1" stroke="none"/>
</g>
</svg>
