<?xml version="1.0" encoding="UTF-8" standalone="no"?>
<!DOCTYPE svg PUBLIC "-//W3C//DTD SVG 1.1//EN" "http://www.w3.org/Graphics/SVG/1.1/DTD/svg11.dtd">
<!-- Created with Vectornator (http://vectornator.io/) -->
<svg height="50.0pt" stroke-miterlimit="10" style="fill-rule:nonzero;clip-rule:evenodd;stroke-linecap:round;stroke-linejoin:round;" version="1.1" viewBox="0 0 50 50" width="50.0pt" xml:space="preserve" xmlns="http://www.w3.org/2000/svg" xmlns:xlink="http://www.w3.org/1999/xlink">
<defs/>
<g id="Untitled">
<g opacity="1">
<path d="M40.3157 28.8198C38.2068 37.2788 29.6392 42.4269 21.1792 40.3174C12.7227 38.2085 7.57467 29.6404 9.68461 21.1819C11.7926 12.7219 20.3601 7.57339 28.8177 9.68235C37.2772 11.7913 42.4247 20.3603 40.3157 28.8198Z" fill="#d6d2d2" fill-rule="nonzero" opacity="1" stroke="none"/>
<path d="M31.9618 22.7506C32.2762 20.6495 30.6764 19.52 28.489 18.7665L29.1986 15.9204L27.4661 15.4886L26.7753 18.2598C26.3199 18.1463 25.8521 18.0392 25.3873 17.9331L26.083 15.1437L24.3516 14.712L23.6415 17.5571C23.2645 17.4713 22.8944 17.3864 22.5352 17.2971L22.5372 17.2882L20.148 16.6916L19.6871 18.542C19.6871 18.542 20.9725 18.8366 20.9454 18.8549C21.647 19.03 21.7738 19.4944 21.7526 19.8625L20.9444 23.1048C20.9927 23.1172 21.0554 23.1349 21.1245 23.1626C21.0667 23.1483 21.0051 23.1325 20.9414 23.1172L19.8085 27.6593C19.7226 27.8724 19.505 28.1922 19.0145 28.0708C19.0318 28.096 17.7553 27.7565 17.7553 27.7565L16.8952 29.7396L19.1497 30.3016C19.5692 30.4067 19.9802 30.5168 20.3848 30.6204L19.6678 33.4991L21.3983 33.9309L22.1084 31.0827C22.5811 31.211 23.04 31.3295 23.489 31.441L22.7814 34.2758L24.5139 34.7075L25.2309 31.8342C28.1851 32.3933 30.4065 32.1678 31.3416 29.4958C32.0951 27.3445 31.3041 26.1035 29.7498 25.2942C30.8817 25.0332 31.7344 24.2886 31.9618 22.7506ZM28.0035 28.3012C27.4681 30.4526 23.8458 29.2896 22.6714 28.998L23.6228 25.1842C24.7971 25.4773 28.563 26.0576 28.0035 28.3012ZM28.5394 22.7195C28.0509 24.6764 25.036 23.6822 24.058 23.4384L24.9205 19.9794C25.8985 20.2232 29.0481 20.6781 28.5394 22.7195Z" fill="#242424" fill-rule="nonzero" opacity="1" stroke="none"/>
</g>
</g>
</svg>
