<svg width="50" height="50" viewBox="0 0 50 50" fill="none" xmlns="http://www.w3.org/2000/svg">
<g clip-path="url(#clip0_3323_17112)">
<path fill-rule="evenodd" clip-rule="evenodd" d="M25.6399 7.17173C25.2437 6.94276 24.7554 6.94276 24.3591 7.17173L17.1591 11.3322C16.7633 11.561 16.5195 11.9834 16.5195 12.4405V20.7634C16.5195 21.2206 16.7633 21.643 17.1591 21.8718L22.0415 24.693C22.4373 24.9218 22.6811 25.3442 22.6811 25.8013V41.7198C22.6811 42.4267 23.2542 42.9998 23.9611 42.9998H26.038C26.7449 42.9998 27.318 42.4267 27.318 41.7198V25.8013C27.318 25.3442 27.5618 24.9218 27.9575 24.693L32.8399 21.8718C33.2358 21.643 33.4795 21.2206 33.4795 20.7634V12.4405C33.4795 11.9834 33.2358 11.561 32.8399 11.3322L25.6399 7.17173ZM30.2859 34.0713C29.6459 33.6981 28.8423 34.1598 28.8423 34.9006V35.469V39.9481V40.5166C28.8423 41.2574 29.6459 41.719 30.2859 41.3458L32.2065 40.2258C32.5015 40.0538 32.683 39.7381 32.683 39.3966V36.0206C32.683 35.679 32.5015 35.3633 32.2065 35.1912L30.2859 34.0713ZM25.4851 12.4493C25.1863 12.275 24.8168 12.275 24.518 12.4493L21.6373 14.129C21.3423 14.301 21.1608 14.6168 21.1608 14.9583V18.3344C21.1608 18.6758 21.3423 18.9917 21.6373 19.1637L24.518 20.8434C24.8168 21.0177 25.1863 21.0177 25.4851 20.8434L28.3658 19.1637C28.6608 18.9917 28.8423 18.6758 28.8423 18.3344V14.9583C28.8423 14.6168 28.6608 14.301 28.3658 14.129L25.4851 12.4493Z" fill="#D6D2D2"/>
</g>
<defs>
<clipPath id="clip0_3323_17112">
<rect width="16.96" height="36" fill="white" transform="translate(16.5195 7)"/>
</clipPath>
</defs>
</svg>
