<svg width="50" height="50" viewBox="0 0 50 50" fill="none" xmlns="http://www.w3.org/2000/svg">
<g clip-path="url(#clip0_3323_17111)">
<path fill-rule="evenodd" clip-rule="evenodd" d="M25.6409 7.17173C25.2447 6.94276 24.7563 6.94276 24.3601 7.17173L17.1601 11.3322C16.7643 11.561 16.5205 11.9834 16.5205 12.4405V20.7634C16.5205 21.2206 16.7643 21.643 17.1601 21.8718L22.0425 24.693C22.4383 24.9218 22.6821 25.3442 22.6821 25.8013V41.7198C22.6821 42.4267 23.2551 42.9998 23.9621 42.9998H26.039C26.7459 42.9998 27.319 42.4267 27.319 41.7198V25.8013C27.319 25.3442 27.5627 24.9218 27.9585 24.693L32.8409 21.8718C33.2367 21.643 33.4805 21.2206 33.4805 20.7634V12.4405C33.4805 11.9834 33.2367 11.561 32.8409 11.3322L25.6409 7.17173ZM30.2868 34.0713C29.6468 33.6981 28.8432 34.1598 28.8432 34.9006V35.469V39.9481V40.5166C28.8432 41.2574 29.6468 41.719 30.2868 41.3458L32.2075 40.2258C32.5025 40.0538 32.6839 39.7381 32.6839 39.3966V36.0206C32.6839 35.679 32.5025 35.3633 32.2075 35.1912L30.2868 34.0713ZM25.4861 12.4493C25.1872 12.275 24.8178 12.275 24.5189 12.4493L21.6383 14.129C21.3432 14.301 21.1618 14.6168 21.1618 14.9583V18.3344C21.1618 18.6758 21.3432 18.9917 21.6383 19.1637L24.5189 20.8434C24.8178 21.0177 25.1872 21.0177 25.4861 20.8434L28.3667 19.1637C28.6618 18.9917 28.8432 18.6758 28.8432 18.3344V14.9583C28.8432 14.6168 28.6618 14.301 28.3667 14.129L25.4861 12.4493Z" fill="#242424"/>
</g>
<defs>
<clipPath id="clip0_3323_17111">
<rect width="16.96" height="36" fill="white" transform="translate(16.5205 7)"/>
</clipPath>
</defs>
</svg>
