<?xml version="1.0" encoding="UTF-8" standalone="no"?>
<!DOCTYPE svg PUBLIC "-//W3C//DTD SVG 1.1//EN" "http://www.w3.org/Graphics/SVG/1.1/DTD/svg11.dtd">
<!-- Created with Vectornator (http://vectornator.io/) -->
<svg height="50.0px" stroke-miterlimit="10" style="fill-rule:nonzero;clip-rule:evenodd;stroke-linecap:round;stroke-linejoin:round;" version="1.1" viewBox="0 0 50 50" width="50.0px" xml:space="preserve" xmlns="http://www.w3.org/2000/svg" xmlns:xlink="http://www.w3.org/1999/xlink">
<defs/>
<g id="Layer-1">
<path d="M8.0762 17.17C8.0762 12.0774 12.2046 7.94903 17.2972 7.94903L32.7028 7.94903C37.7954 7.94903 41.9238 12.0774 41.9238 17.17L41.9238 32.83C41.9238 37.9226 37.7954 42.051 32.7028 42.051L17.2972 42.051C12.2046 42.051 8.0762 37.9226 8.0762 32.83L8.0762 17.17Z" fill="#242424" fill-rule="nonzero" opacity="1" stroke="none"/>
<path d="M8.0762 25.1933C8.0762 20.0389 12.2547 15.8604 17.4091 15.8604L32.5909 15.8604C37.7453 15.8604 41.9238 20.0389 41.9238 25.1933L41.9238 32.718C41.9238 37.8725 37.7453 42.051 32.5909 42.051L17.4091 42.051C12.2547 42.051 8.0762 37.8725 8.0762 32.718L8.0762 25.1933Z" fill="#8b8b8b" fill-rule="nonzero" opacity="1" stroke="none"/>
<path d="M8.0762 32.307C8.0762 27.2907 12.1427 23.2242 17.1591 23.2242L32.8409 23.2242C37.8573 23.2242 41.9238 27.2907 41.9238 32.307L41.9238 32.9681C41.9238 37.9844 37.8573 42.051 32.8409 42.051L17.1591 42.051C12.1427 42.051 8.0762 37.9844 8.0762 32.9681L8.0762 32.307Z" fill="#d6d2d2" fill-rule="nonzero" opacity="1" stroke="none"/>
<g opacity="1">
<path d="M26.4327 30.5201L26.4327 32.0523C26.6456 31.9 26.8868 31.8238 27.1563 31.8238C27.3966 31.8238 27.6148 31.8829 27.8111 32.0011C28.0074 32.1192 28.1597 32.2853 28.2681 32.4991C28.3765 32.713 28.4307 32.9518 28.4307 33.2154C28.4307 33.6647 28.2969 34.0187 28.0294 34.2774C27.7618 34.5362 27.3956 34.6656 26.9307 34.6656C26.5128 34.6656 26.1065 34.5885 25.712 34.4342L25.712 30.5201L26.4327 30.5201ZM26.4327 34.0416C26.587 34.0943 26.7667 34.1207 26.9717 34.1207C27.1925 34.1207 27.3677 34.0401 27.4976 33.879C27.6275 33.7179 27.6925 33.4947 27.6925 33.2096C27.6925 32.9518 27.627 32.7462 27.4962 32.5929C27.3653 32.4396 27.1925 32.3629 26.9776 32.3629C26.878 32.3629 26.7862 32.3815 26.7022 32.4186C26.6182 32.4557 26.5284 32.5133 26.4327 32.5914L26.4327 34.0416Z" fill="#242424" fill-rule="nonzero" opacity="1" stroke="none"/>
<path d="M29.7491 30.5201L29.7491 34.6129L29.0284 34.6129L29.0284 30.5201L29.7491 30.5201Z" fill="#242424" fill-rule="nonzero" opacity="1" stroke="none"/>
<path d="M31.1876 31.8766L31.1876 33.5699C31.1876 33.7477 31.232 33.8829 31.3209 33.9757C31.4097 34.0685 31.5274 34.1148 31.6739 34.1148C31.795 34.1148 31.9112 34.0777 32.0225 34.0035C32.1339 33.9293 32.2237 33.8248 32.2921 33.69L32.2921 31.8766L33.0128 31.8766L33.0128 34.6129L32.2921 34.6129L32.2921 34.2408C32.0323 34.524 31.751 34.6656 31.4483 34.6656C31.1553 34.6656 30.919 34.5699 30.7393 34.3785C30.5596 34.1871 30.4698 33.9371 30.4698 33.6285L30.4698 31.8766L31.1876 31.8766Z" fill="#242424" fill-rule="nonzero" opacity="1" stroke="none"/>
<path d="M34.9581 31.8238C35.3604 31.8238 35.6788 31.9527 35.9132 32.2106C36.1475 32.4684 36.2647 32.8248 36.2647 33.2799L36.2647 33.3883L34.3282 33.3883C34.3575 33.6324 34.4488 33.8204 34.6021 33.9523C34.7554 34.0841 34.9659 34.15 35.2335 34.15C35.4053 34.15 35.5709 34.1202 35.7301 34.0606C35.8892 34.0011 36.0538 33.9107 36.2237 33.7897L36.2237 34.3258C35.9034 34.5523 35.5147 34.6656 35.0577 34.6656C34.626 34.6656 34.2735 34.5357 34.0001 34.276C33.7266 34.0162 33.5899 33.6705 33.5899 33.2389C33.5899 32.8229 33.7164 32.483 33.9693 32.2193C34.2222 31.9557 34.5518 31.8238 34.9581 31.8238ZM35.588 32.9518C35.5684 32.7525 35.5079 32.5968 35.4063 32.4845C35.3048 32.3722 35.1651 32.316 34.9874 32.316C34.8057 32.316 34.6597 32.3697 34.5494 32.4772C34.439 32.5846 34.3692 32.7428 34.3399 32.9518L35.588 32.9518Z" fill="#242424" fill-rule="nonzero" opacity="1" stroke="none"/>
</g>
</g>
</svg>
