<?xml version="1.0" encoding="UTF-8" standalone="no"?>
<!DOCTYPE svg PUBLIC "-//W3C//DTD SVG 1.1//EN" "http://www.w3.org/Graphics/SVG/1.1/DTD/svg11.dtd">
<!-- Created with Vectornator (http://vectornator.io/) -->
<svg height="50.0pt" stroke-miterlimit="10" style="fill-rule:nonzero;clip-rule:evenodd;stroke-linecap:round;stroke-linejoin:round;" version="1.1" viewBox="0 0 50 50" width="50.0pt" xml:space="preserve" xmlns="http://www.w3.org/2000/svg" xmlns:xlink="http://www.w3.org/1999/xlink">
<defs/>
<g id="Untitled">
<path d="M17.2176 13.0624C19.1713 13.0624 20.7551 14.7326 20.7551 16.7929C20.7551 18.8532 19.1713 20.5234 17.2176 20.5234C15.264 20.5234 13.6802 18.8532 13.6802 16.7929C13.6802 14.7326 15.264 13.0624 17.2176 13.0624ZM33.4899 13.0624C35.4435 13.0624 37.0273 14.7326 37.0273 16.7929C37.0273 18.8532 35.4435 20.5234 33.4899 20.5234C31.5362 20.5234 29.9524 18.8532 29.9524 16.7929C29.9524 14.7326 31.5362 13.0624 33.4899 13.0624ZM10.8502 26.9912C10.8502 24.2446 12.9639 22.0156 15.5683 22.0156L17.4564 22.0156C18.1595 22.0156 18.8272 22.1788 19.4285 22.4679C19.3711 22.8037 19.3445 23.1534 19.3445 23.5078C19.3445 25.2891 20.0874 26.8886 21.2592 27.9844C21.2503 27.9844 21.2415 27.9844 21.2282 27.9844L11.7921 27.9844C11.2747 27.9844 10.8502 27.5367 10.8502 26.9912ZM28.7718 27.9844C28.7629 27.9844 28.7541 27.9844 28.7408 27.9844C29.917 26.8886 30.6555 25.2891 30.6555 23.5078C30.6555 23.1534 30.6245 22.8083 30.5715 22.4679C31.1728 22.1741 31.8405 22.0156 32.5436 22.0156L34.4317 22.0156C37.0361 22.0156 39.1498 24.2446 39.1498 26.9912C39.1498 27.5414 38.7253 27.9844 38.2079 27.9844L28.7762 27.9844L28.7718 27.9844ZM20.7551 23.5078C20.7551 21.0354 22.6556 19.0312 25 19.0312C27.3444 19.0312 29.2449 21.0354 29.2449 23.5078C29.2449 25.9802 27.3444 27.9844 25 27.9844C22.6556 27.9844 20.7551 25.9802 20.7551 23.5078ZM16.5101 35.6926C16.5101 32.2605 19.15 29.4766 22.4044 29.4766L27.5912 29.4766C30.85 29.4766 33.4899 32.2605 33.4899 35.6926C33.4899 36.3781 32.9637 36.9376 32.3092 36.9376L17.6863 36.9376C17.0363 36.9376 16.5057 36.3827 16.5057 35.6926L16.5101 35.6926Z" fill="#d6d2d2" fill-rule="nonzero" opacity="1" stroke="none"/>
</g>
</svg>
