<?xml version="1.0" encoding="UTF-8" standalone="no"?>
<!DOCTYPE svg PUBLIC "-//W3C//DTD SVG 1.1//EN" "http://www.w3.org/Graphics/SVG/1.1/DTD/svg11.dtd">
<!-- Created with Vectornator (http://vectornator.io/) -->
<svg height="50.0pt" stroke-miterlimit="10" style="fill-rule:nonzero;clip-rule:evenodd;stroke-linecap:round;stroke-linejoin:round;" version="1.1" viewBox="0 0 50 50" width="50.0pt" xml:space="preserve" xmlns="http://www.w3.org/2000/svg" xmlns:xlink="http://www.w3.org/1999/xlink">
<defs/>
<g id="Untitled">
<g opacity="1">
<clipPath clip-rule="nonzero" id="ClipPath">
<path d="M9.20796 9.20796L40.792 9.20796L40.792 9.20796L40.792 40.792L40.792 40.792L9.20796 40.792L9.20796 40.792L9.20796 9.20796L9.20796 9.20796Z"/>
</clipPath>
<g clip-path="url(#ClipPath)">
<path d="M25 40.792C33.7217 40.792 40.792 33.7217 40.792 25C40.792 16.2783 33.7217 9.20796 25 9.20796C16.2783 9.20796 9.20796 16.2783 9.20796 25C9.20796 33.7217 16.2783 40.792 25 40.792Z" fill="#ffffff" fill-rule="nonzero" opacity="1" stroke="none"/>
<path d="M21.3482 30.5666C19.9901 32.6236 18.9478 34.6094 18.1543 36.39C20.152 37.5941 22.4971 38.285 25.0002 38.285C32.3395 38.285 38.2892 32.3353 38.2892 24.996C38.2892 24.7551 38.2813 24.5144 38.2694 24.2735L36.7691 24.2735C31.8736 24.2735 25.5805 24.1511 21.3482 30.5627L21.3482 30.5666Z" fill="#cfcfcf" fill-rule="nonzero" opacity="1" stroke="none"/>
<path d="M38.147 23.0655L30.5905 23.0655C21.4588 23.0655 16.2396 27.1082 13.2864 31.2812C12.2797 29.4099 11.7112 27.2701 11.7112 25C11.7112 17.6606 17.6609 11.711 25.0002 11.711C31.6802 11.711 37.2114 16.642 38.147 23.0655Z" fill="#242424" fill-rule="nonzero" opacity="1" stroke="none"/>
<path d="M25.1025 15.1103L25.3394 15.8406C25.5999 16.6342 26.2237 17.258 27.0173 17.5185L27.7476 17.7554C27.8266 17.783 27.8266 17.8936 27.7476 17.9173L27.0173 18.1542C26.2237 18.4147 25.5999 19.0385 25.3394 19.8321L25.1025 20.5624C25.0749 20.6414 24.9643 20.6414 24.9407 20.5624L24.7038 19.8321C24.4432 19.0385 23.8194 18.4147 23.0258 18.1542L22.2955 17.9173C22.2165 17.8897 22.2165 17.7791 22.2955 17.7554L23.0258 17.5185C23.8194 17.258 24.4432 16.6342 24.7038 15.8406L24.9407 15.1103C24.9682 15.0313 25.0788 15.0313 25.1025 15.1103L25.1025 15.1103Z" fill="#ffffff" fill-rule="nonzero" opacity="1" stroke="none"/>
</g>
</g>
</g>
</svg>
