<?xml version="1.0" encoding="UTF-8" standalone="no"?>
<!DOCTYPE svg PUBLIC "-//W3C//DTD SVG 1.1//EN" "http://www.w3.org/Graphics/SVG/1.1/DTD/svg11.dtd">
<!-- Created with Vectornator (http://vectornator.io/) -->
<svg height="50.0pt" stroke-miterlimit="10" style="fill-rule:nonzero;clip-rule:evenodd;stroke-linecap:round;stroke-linejoin:round;" version="1.1" viewBox="0 0 50 50" width="50.0pt" xml:space="preserve" xmlns="http://www.w3.org/2000/svg" xmlns:xlink="http://www.w3.org/1999/xlink">
<defs/>
<g id="Untitled">
<g opacity="1">
<path d="M24.7213 26.2007L24.7213 26.2059L24.7213 26.1901C24.7213 26.1901 24.7213 26.1954 24.7213 26.2007M11.5066 22.7721C10.1657 23.3295 9.27696 24.6126 9.22438 26.0587L9.22438 26.3216C9.27696 27.7677 10.1657 29.0508 11.5066 29.6082C12.8896 30.1814 14.4829 29.8659 15.5399 28.8036L19.589 24.7546C20.2726 24.0709 21.3506 23.9658 22.1551 24.5021C22.9597 25.0385 23.2752 26.0744 22.9018 26.9684C22.5285 27.8624 21.5767 28.3724 20.6302 28.1831C19.6784 27.9938 18.9947 27.163 18.9947 26.1901L18.9947 26.1323L17.5855 27.5416C18.2323 29.198 19.9676 30.1603 21.7134 29.829C23.4592 29.4978 24.7213 27.9728 24.7213 26.2007C24.7213 24.7072 23.8221 23.361 22.4391 22.7931C21.0561 22.2199 19.468 22.5407 18.411 23.5977L14.3515 27.631C13.5574 28.425 12.2691 28.4198 11.475 27.6257C10.681 26.8317 10.681 25.5433 11.475 24.7493C12.2691 23.9553 13.5574 23.9553 14.3515 24.744C14.5618 24.9544 14.8668 25.0385 15.156 24.9649C15.4452 24.8913 15.6713 24.6652 15.745 24.3812C15.8238 24.0972 15.745 23.787 15.5346 23.5766C14.8247 22.8667 13.8782 22.4934 12.9159 22.4934C12.4479 22.4934 11.9641 22.5828 11.5066 22.7721M26.9404 26.1901C26.9404 25.0648 27.8501 24.1551 28.9755 24.1551C30.1008 24.1551 31.0105 25.0648 31.0105 26.1901C31.0105 26.7318 30.7949 27.2471 30.4163 27.631C30.0324 28.0096 29.5171 28.2199 28.9755 28.2199C28.9755 28.2199 28.9755 28.2199 28.9702 28.2199C27.8501 28.2199 26.9404 27.3102 26.9404 26.1901M26.0885 20.106C25.9465 20.1113 25.7993 20.1481 25.6731 20.227C25.4102 20.39 25.2524 20.6844 25.2734 20.9947L25.2734 26.1849C25.2734 27.6836 26.1779 29.0403 27.5662 29.6082C28.9544 30.1761 30.5478 29.8501 31.6047 28.7826L35.6433 24.7546C36.3269 24.0709 37.3996 23.9658 38.2095 24.5021C39.014 25.0385 39.3295 26.0744 38.9562 26.9684C38.5881 27.8624 37.6363 28.3724 36.6845 28.1831C35.7327 27.9938 35.0491 27.163 35.0491 26.1901L35.0491 26.1323L33.6398 27.5416C34.2918 29.198 36.0219 30.1551 37.7677 29.8238C39.5136 29.4925 40.7756 27.9675 40.7756 26.1901C40.7756 24.6967 39.8712 23.3453 38.4934 22.7773C37.1104 22.2042 35.5223 22.5249 34.4654 23.5819L32.5986 25.4487C32.3514 24.2497 31.5258 23.2454 30.39 22.7773C29.2542 22.3093 27.9658 22.4303 26.9404 23.1034L26.9404 20.9947C26.9614 20.6844 26.8089 20.39 26.5408 20.227C26.4145 20.1481 26.2726 20.1113 26.1253 20.106L26.0885 20.106Z" fill="#d6d2d2" fill-rule="nonzero" opacity="1" stroke="none"/>
</g>
</g>
</svg>
