<?xml version="1.0" encoding="UTF-8" standalone="no"?>
<!DOCTYPE svg PUBLIC "-//W3C//DTD SVG 1.1//EN" "http://www.w3.org/Graphics/SVG/1.1/DTD/svg11.dtd">
<!-- Created with Vectornator (http://vectornator.io/) -->
<svg height="15.0pt" stroke-miterlimit="10" style="fill-rule:nonzero;clip-rule:evenodd;stroke-linecap:round;stroke-linejoin:round;" version="1.1" viewBox="0 0 15 15" width="15.0pt" xml:space="preserve" xmlns="http://www.w3.org/2000/svg" xmlns:xlink="http://www.w3.org/1999/xlink">
<defs/>
<g id="Untitled">
<g opacity="1">
<path d="M7.39201 7.9652L7.39201 7.96724L7.39201 7.96113C7.39201 7.96113 7.39201 7.96316 7.39201 7.9652M2.27189 6.63678C1.75234 6.85275 1.40801 7.34989 1.38764 7.91019L1.38764 8.01206C1.40801 8.57236 1.75234 9.0695 2.27189 9.28547C2.80774 9.50755 3.42509 9.38531 3.83462 8.97374L5.40346 7.4049C5.66833 7.14003 6.08601 7.09928 6.39774 7.3071C6.70947 7.51492 6.83171 7.9163 6.68706 8.26267C6.5424 8.60904 6.17362 8.80667 5.80688 8.73332C5.4381 8.65997 5.17323 8.33805 5.17323 7.96113L5.17323 7.93871L4.62719 8.48475C4.8778 9.12655 5.55016 9.4994 6.22659 9.37104C6.90303 9.24268 7.39201 8.65182 7.39201 7.9652C7.39201 7.38656 7.04361 6.86498 6.50776 6.64493C5.97191 6.42285 5.3566 6.54713 4.94707 6.95666L3.37415 8.51939C3.0665 8.82704 2.56732 8.82501 2.25967 8.51735C1.95201 8.2097 1.95201 7.71052 2.25967 7.40286C2.56732 7.09521 3.0665 7.09521 3.37415 7.40083C3.45565 7.48232 3.57383 7.51492 3.68589 7.4864C3.79795 7.45787 3.88556 7.37026 3.91408 7.26024C3.94464 7.15022 3.91408 7.03001 3.83258 6.94851C3.55753 6.67345 3.19078 6.5288 2.81793 6.5288C2.6366 6.5288 2.44915 6.56343 2.27189 6.63678M8.25182 7.96113C8.25182 7.52511 8.6043 7.17263 9.04032 7.17263C9.47633 7.17263 9.82881 7.52511 9.82881 7.96113C9.82881 8.17098 9.74527 8.37065 9.59858 8.51939C9.44984 8.66608 9.25017 8.74758 9.04032 8.74758C9.04032 8.74758 9.04032 8.74758 9.03828 8.74758C8.6043 8.74758 8.25182 8.3951 8.25182 7.96113M7.92175 5.60379C7.86674 5.60583 7.80969 5.62009 7.76079 5.65065C7.65892 5.71381 7.5978 5.82791 7.60595 5.94812L7.60595 7.95909C7.60595 8.53976 7.95639 9.06543 8.49428 9.28547C9.03217 9.50552 9.64951 9.37919 10.059 8.96559L11.6238 7.4049C11.8887 7.14003 12.3043 7.09928 12.6181 7.3071C12.9298 7.51492 13.0521 7.9163 12.9074 8.26267C12.7648 8.60904 12.396 8.80667 12.0272 8.73332C11.6584 8.65997 11.3936 8.33805 11.3936 7.96113L11.3936 7.93871L10.8475 8.48475C11.1002 9.12655 11.7705 9.49737 12.4469 9.36901C13.1234 9.24065 13.6124 8.64979 13.6124 7.96113C13.6124 7.38249 13.2619 6.85886 12.7281 6.63882C12.1923 6.41674 11.5769 6.54102 11.1674 6.95055L10.4441 7.67384C10.3484 7.2093 10.0285 6.82015 9.58839 6.63882C9.1483 6.45748 8.64912 6.50435 8.25182 6.76514L8.25182 5.94812C8.25997 5.82791 8.20088 5.71381 8.09697 5.65065C8.04808 5.62009 7.99306 5.60583 7.93602 5.60379L7.92175 5.60379Z" fill="#242424" fill-rule="nonzero" opacity="1" stroke="none"/>
</g>
</g>
</svg>
