<?xml version="1.0" encoding="UTF-8"?>
<svg xmlns="http://www.w3.org/2000/svg" xmlns:xlink="http://www.w3.org/1999/xlink" width="50px" height="50px" viewBox="0 0 50 50" version="1.1">
<g id="surface1">
<path style=" stroke:none;fill-rule:evenodd;fill:rgb(86.274511%,85.09804%,85.09804%);fill-opacity:1;" d="M 14.230469 23.359375 L 13.203125 24.402344 L 11.355469 24.402344 L 10.613281 23.644531 L 10.613281 19.140625 L 11.355469 18.398438 L 13.191406 18.398438 L 14.230469 19.441406 C 14.636719 19.832031 15.261719 19.832031 15.664062 19.441406 C 16.054688 19.050781 16.054688 18.410156 15.664062 18.019531 L 14.308594 16.667969 C 14.285156 16.652344 14.269531 16.628906 14.257812 16.613281 C 14.230469 16.601562 14.21875 16.601562 14.207031 16.589844 C 14.191406 16.574219 14.179688 16.5625 14.167969 16.5625 C 14.152344 16.550781 14.140625 16.535156 14.113281 16.523438 C 14.113281 16.523438 14.101562 16.511719 14.089844 16.511719 C 14.074219 16.496094 14.050781 16.496094 14.035156 16.484375 C 14.023438 16.484375 14.011719 16.472656 13.996094 16.472656 C 13.984375 16.457031 13.957031 16.457031 13.945312 16.445312 C 13.933594 16.445312 13.917969 16.433594 13.90625 16.433594 C 13.894531 16.433594 13.867188 16.417969 13.855469 16.417969 C 13.839844 16.417969 13.828125 16.417969 13.816406 16.40625 C 13.789062 16.40625 13.761719 16.40625 13.738281 16.394531 C 13.738281 16.394531 13.722656 16.394531 13.710938 16.394531 C 13.683594 16.394531 13.644531 16.394531 13.605469 16.394531 L 10.949219 16.394531 C 10.910156 16.394531 10.871094 16.394531 10.847656 16.394531 C 10.832031 16.394531 10.832031 16.394531 10.820312 16.394531 C 10.792969 16.40625 10.769531 16.40625 10.742188 16.40625 C 10.730469 16.40625 10.714844 16.417969 10.703125 16.417969 C 10.691406 16.417969 10.664062 16.433594 10.652344 16.433594 C 10.636719 16.433594 10.625 16.445312 10.613281 16.445312 C 10.597656 16.457031 10.574219 16.457031 10.558594 16.472656 C 10.546875 16.472656 10.535156 16.484375 10.519531 16.484375 C 10.507812 16.496094 10.480469 16.496094 10.46875 16.511719 C 10.457031 16.511719 10.457031 16.523438 10.441406 16.523438 C 10.417969 16.535156 10.402344 16.550781 10.390625 16.5625 C 10.378906 16.5625 10.363281 16.574219 10.351562 16.589844 C 10.339844 16.601562 10.324219 16.601562 10.3125 16.613281 C 10.285156 16.628906 10.273438 16.652344 10.261719 16.667969 C 10.246094 16.667969 10.246094 16.679688 10.234375 16.679688 L 8.90625 18.019531 C 8.878906 18.046875 8.855469 18.074219 8.828125 18.097656 C 8.828125 18.097656 8.816406 18.113281 8.816406 18.125 C 8.800781 18.136719 8.789062 18.152344 8.777344 18.175781 C 8.761719 18.191406 8.761719 18.191406 8.75 18.203125 C 8.738281 18.230469 8.738281 18.242188 8.722656 18.253906 C 8.710938 18.269531 8.710938 18.28125 8.710938 18.292969 C 8.699219 18.308594 8.683594 18.332031 8.683594 18.347656 C 8.671875 18.359375 8.671875 18.371094 8.671875 18.386719 C 8.660156 18.398438 8.660156 18.425781 8.644531 18.4375 C 8.644531 18.449219 8.644531 18.464844 8.632812 18.476562 C 8.632812 18.488281 8.632812 18.515625 8.621094 18.527344 C 8.621094 18.542969 8.621094 18.554688 8.621094 18.566406 C 8.621094 18.59375 8.605469 18.605469 8.605469 18.632812 C 8.605469 18.660156 8.605469 18.671875 8.605469 18.699219 C 8.605469 18.710938 8.605469 18.722656 8.605469 18.722656 L 8.605469 24.0625 C 8.605469 24.074219 8.605469 24.074219 8.605469 24.074219 C 8.605469 24.101562 8.605469 24.140625 8.605469 24.167969 C 8.605469 24.179688 8.621094 24.207031 8.621094 24.21875 C 8.621094 24.230469 8.621094 24.246094 8.621094 24.269531 C 8.632812 24.285156 8.632812 24.296875 8.632812 24.324219 C 8.644531 24.335938 8.644531 24.347656 8.644531 24.363281 C 8.660156 24.375 8.660156 24.402344 8.671875 24.414062 C 8.671875 24.425781 8.671875 24.441406 8.683594 24.453125 C 8.683594 24.464844 8.699219 24.480469 8.699219 24.503906 C 8.710938 24.519531 8.710938 24.53125 8.722656 24.542969 C 8.738281 24.558594 8.738281 24.570312 8.75 24.582031 C 8.761719 24.597656 8.761719 24.609375 8.777344 24.621094 C 8.789062 24.648438 8.800781 24.660156 8.816406 24.675781 C 8.816406 24.6875 8.828125 24.699219 8.828125 24.699219 C 8.855469 24.726562 8.878906 24.753906 8.90625 24.777344 L 10.234375 26.121094 C 10.261719 26.132812 10.285156 26.160156 10.3125 26.183594 C 10.3125 26.183594 10.324219 26.199219 10.339844 26.199219 C 10.351562 26.210938 10.363281 26.222656 10.390625 26.238281 C 10.402344 26.25 10.417969 26.25 10.429688 26.261719 C 10.441406 26.277344 10.457031 26.277344 10.46875 26.289062 C 10.480469 26.300781 10.496094 26.300781 10.507812 26.316406 C 10.535156 26.316406 10.546875 26.328125 10.558594 26.328125 C 10.574219 26.339844 10.585938 26.339844 10.597656 26.339844 C 10.625 26.355469 10.636719 26.355469 10.652344 26.367188 C 10.664062 26.367188 10.675781 26.367188 10.691406 26.378906 C 10.714844 26.378906 10.730469 26.378906 10.753906 26.394531 C 10.769531 26.394531 10.78125 26.394531 10.792969 26.394531 C 10.820312 26.394531 10.832031 26.40625 10.847656 26.40625 C 10.871094 26.40625 10.910156 26.40625 10.9375 26.40625 C 10.9375 26.40625 10.9375 26.40625 10.949219 26.40625 L 13.621094 26.40625 C 13.644531 26.40625 13.683594 26.40625 13.710938 26.40625 C 13.722656 26.40625 13.75 26.394531 13.761719 26.394531 C 13.777344 26.394531 13.789062 26.394531 13.816406 26.394531 C 13.828125 26.378906 13.839844 26.378906 13.867188 26.378906 C 13.878906 26.367188 13.894531 26.367188 13.90625 26.367188 C 13.917969 26.355469 13.945312 26.355469 13.957031 26.339844 C 13.972656 26.339844 13.984375 26.339844 13.996094 26.328125 C 14.011719 26.328125 14.035156 26.316406 14.050781 26.316406 C 14.0625 26.300781 14.074219 26.300781 14.089844 26.289062 C 14.101562 26.277344 14.113281 26.277344 14.128906 26.261719 C 14.140625 26.25 14.152344 26.25 14.167969 26.238281 C 14.191406 26.222656 14.207031 26.210938 14.21875 26.199219 C 14.230469 26.199219 14.246094 26.183594 14.246094 26.183594 C 14.269531 26.160156 14.296875 26.132812 14.324219 26.121094 L 15.664062 24.777344 C 16.054688 24.386719 16.054688 23.75 15.664062 23.359375 C 15.261719 22.96875 14.636719 22.96875 14.230469 23.359375 Z M 14.230469 23.359375 "/>
<path style=" stroke:none;fill-rule:evenodd;fill:rgb(86.274511%,85.09804%,85.09804%);fill-opacity:1;" d="M 24.464844 18.632812 C 24.464844 18.605469 24.464844 18.59375 24.453125 18.566406 C 24.453125 18.554688 24.453125 18.542969 24.453125 18.542969 C 24.453125 18.515625 24.441406 18.488281 24.441406 18.476562 C 24.441406 18.464844 24.425781 18.449219 24.425781 18.4375 C 24.425781 18.425781 24.414062 18.398438 24.414062 18.386719 C 24.402344 18.371094 24.402344 18.359375 24.402344 18.347656 C 24.386719 18.332031 24.375 18.308594 24.375 18.292969 C 24.363281 18.28125 24.363281 18.269531 24.347656 18.253906 C 24.347656 18.242188 24.335938 18.230469 24.324219 18.203125 C 24.324219 18.203125 24.308594 18.191406 24.308594 18.175781 C 24.296875 18.152344 24.285156 18.136719 24.269531 18.125 C 24.257812 18.113281 24.257812 18.097656 24.246094 18.097656 C 24.21875 18.074219 24.207031 18.046875 24.179688 18.019531 L 22.839844 16.679688 C 22.824219 16.667969 22.800781 16.640625 22.785156 16.628906 C 22.773438 16.628906 22.773438 16.628906 22.773438 16.613281 C 22.746094 16.601562 22.734375 16.589844 22.707031 16.574219 L 22.695312 16.5625 C 22.667969 16.550781 22.65625 16.535156 22.628906 16.523438 C 22.628906 16.523438 22.617188 16.511719 22.605469 16.511719 C 22.589844 16.496094 22.566406 16.484375 22.550781 16.484375 C 22.539062 16.472656 22.527344 16.472656 22.527344 16.472656 C 22.5 16.457031 22.472656 16.457031 22.460938 16.445312 C 22.449219 16.445312 22.433594 16.433594 22.433594 16.433594 C 22.410156 16.433594 22.382812 16.417969 22.371094 16.417969 C 22.355469 16.417969 22.34375 16.40625 22.332031 16.40625 C 22.304688 16.40625 22.277344 16.40625 22.253906 16.394531 L 22.238281 16.394531 C 22.199219 16.394531 22.160156 16.394531 22.136719 16.394531 L 19.464844 16.394531 C 19.441406 16.394531 19.402344 16.394531 19.363281 16.394531 C 19.363281 16.394531 19.347656 16.394531 19.335938 16.394531 C 19.308594 16.40625 19.296875 16.40625 19.269531 16.40625 C 19.257812 16.40625 19.246094 16.417969 19.230469 16.417969 C 19.207031 16.417969 19.191406 16.433594 19.179688 16.433594 C 19.152344 16.433594 19.140625 16.445312 19.128906 16.445312 C 19.113281 16.457031 19.101562 16.457031 19.074219 16.472656 C 19.0625 16.472656 19.050781 16.472656 19.050781 16.484375 C 19.023438 16.496094 19.011719 16.496094 18.996094 16.511719 C 18.984375 16.511719 18.972656 16.523438 18.957031 16.523438 C 18.945312 16.535156 18.917969 16.550781 18.90625 16.5625 C 18.894531 16.5625 18.878906 16.574219 18.867188 16.589844 C 18.855469 16.601562 18.839844 16.601562 18.828125 16.613281 C 18.816406 16.628906 18.789062 16.652344 18.777344 16.667969 C 18.761719 16.667969 18.761719 16.679688 18.75 16.679688 L 17.421875 18.019531 C 17.394531 18.046875 17.371094 18.058594 17.355469 18.097656 C 17.34375 18.097656 17.34375 18.113281 17.332031 18.125 C 17.316406 18.136719 17.304688 18.152344 17.292969 18.175781 C 17.292969 18.175781 17.277344 18.191406 17.277344 18.203125 C 17.265625 18.230469 17.253906 18.242188 17.238281 18.253906 C 17.238281 18.269531 17.238281 18.28125 17.226562 18.292969 C 17.214844 18.308594 17.214844 18.332031 17.199219 18.347656 C 17.199219 18.359375 17.1875 18.371094 17.1875 18.386719 C 17.1875 18.398438 17.175781 18.425781 17.175781 18.4375 C 17.160156 18.449219 17.160156 18.464844 17.160156 18.476562 C 17.160156 18.488281 17.148438 18.515625 17.148438 18.527344 C 17.148438 18.542969 17.148438 18.554688 17.136719 18.566406 C 17.136719 18.59375 17.136719 18.605469 17.136719 18.632812 C 17.136719 18.644531 17.136719 18.671875 17.136719 18.699219 C 17.136719 18.710938 17.121094 18.710938 17.121094 18.722656 L 17.121094 24.0625 C 17.121094 24.074219 17.121094 24.074219 17.121094 24.074219 C 17.121094 24.101562 17.136719 24.140625 17.136719 24.167969 C 17.136719 24.179688 17.136719 24.191406 17.136719 24.21875 C 17.136719 24.230469 17.148438 24.246094 17.148438 24.257812 C 17.148438 24.285156 17.160156 24.296875 17.160156 24.324219 C 17.160156 24.335938 17.160156 24.347656 17.175781 24.363281 C 17.175781 24.375 17.1875 24.386719 17.1875 24.414062 C 17.1875 24.425781 17.199219 24.441406 17.199219 24.453125 C 17.214844 24.464844 17.214844 24.480469 17.226562 24.503906 C 17.226562 24.519531 17.238281 24.53125 17.238281 24.542969 C 17.253906 24.558594 17.265625 24.570312 17.277344 24.582031 C 17.277344 24.597656 17.292969 24.609375 17.292969 24.621094 C 17.304688 24.648438 17.316406 24.660156 17.332031 24.675781 C 17.34375 24.6875 17.34375 24.699219 17.355469 24.699219 C 17.371094 24.726562 17.394531 24.753906 17.421875 24.777344 L 18.75 26.105469 C 18.777344 26.132812 18.800781 26.160156 18.828125 26.183594 C 18.839844 26.183594 18.839844 26.199219 18.855469 26.199219 C 18.878906 26.210938 18.894531 26.222656 18.90625 26.238281 C 18.917969 26.25 18.933594 26.25 18.945312 26.261719 C 18.957031 26.277344 18.984375 26.277344 18.996094 26.289062 C 19.011719 26.300781 19.023438 26.300781 19.035156 26.316406 C 19.050781 26.316406 19.0625 26.328125 19.089844 26.328125 C 19.101562 26.339844 19.113281 26.339844 19.128906 26.339844 C 19.140625 26.355469 19.152344 26.355469 19.179688 26.367188 C 19.191406 26.367188 19.207031 26.367188 19.21875 26.378906 C 19.230469 26.378906 19.257812 26.378906 19.269531 26.394531 C 19.285156 26.394531 19.296875 26.394531 19.308594 26.394531 C 19.335938 26.394531 19.347656 26.40625 19.375 26.40625 C 19.386719 26.40625 19.414062 26.40625 19.425781 26.40625 C 19.441406 26.40625 19.453125 26.40625 19.464844 26.40625 L 22.136719 26.40625 C 22.175781 26.40625 22.199219 26.40625 22.238281 26.40625 C 22.253906 26.40625 22.265625 26.394531 22.277344 26.394531 C 22.292969 26.394531 22.316406 26.394531 22.332031 26.394531 C 22.34375 26.378906 22.371094 26.378906 22.382812 26.378906 C 22.394531 26.367188 22.410156 26.367188 22.421875 26.367188 C 22.449219 26.355469 22.460938 26.355469 22.472656 26.355469 C 22.488281 26.339844 22.5 26.339844 22.527344 26.328125 C 22.539062 26.328125 22.550781 26.316406 22.566406 26.316406 C 22.578125 26.300781 22.589844 26.300781 22.605469 26.289062 C 22.617188 26.277344 22.628906 26.277344 22.644531 26.261719 C 22.65625 26.261719 22.683594 26.25 22.695312 26.238281 C 22.707031 26.222656 22.722656 26.222656 22.734375 26.210938 C 22.746094 26.199219 22.761719 26.199219 22.773438 26.183594 C 22.800781 26.160156 22.8125 26.144531 22.824219 26.132812 C 22.839844 26.121094 22.839844 26.121094 22.851562 26.121094 L 24.179688 24.777344 C 24.207031 24.753906 24.230469 24.726562 24.246094 24.699219 C 24.257812 24.699219 24.257812 24.6875 24.269531 24.675781 C 24.285156 24.660156 24.296875 24.648438 24.308594 24.621094 C 24.308594 24.609375 24.324219 24.597656 24.324219 24.582031 C 24.335938 24.570312 24.347656 24.558594 24.363281 24.542969 C 24.363281 24.53125 24.375 24.519531 24.375 24.503906 C 24.386719 24.480469 24.386719 24.464844 24.402344 24.453125 C 24.402344 24.441406 24.402344 24.425781 24.414062 24.414062 C 24.414062 24.402344 24.425781 24.375 24.425781 24.363281 C 24.441406 24.347656 24.441406 24.335938 24.441406 24.324219 C 24.441406 24.296875 24.453125 24.285156 24.453125 24.257812 C 24.453125 24.246094 24.464844 24.230469 24.464844 24.21875 C 24.464844 24.207031 24.464844 24.179688 24.464844 24.167969 C 24.480469 24.140625 24.480469 24.113281 24.480469 24.089844 C 24.480469 24.074219 24.480469 24.074219 24.480469 24.0625 L 24.480469 18.722656 C 24.480469 18.710938 24.480469 18.699219 24.480469 18.683594 C 24.464844 18.671875 24.464844 18.644531 24.464844 18.632812 Z M 19.882812 24.402344 L 19.128906 23.644531 L 19.128906 19.140625 L 19.882812 18.398438 L 21.71875 18.398438 L 22.460938 19.140625 L 22.460938 23.644531 L 21.71875 24.402344 Z M 19.882812 24.402344 "/>
<path style=" stroke:none;fill-rule:evenodd;fill:rgb(86.274511%,85.09804%,85.09804%);fill-opacity:1;" d="M 31.980469 24.402344 L 27.65625 24.402344 L 27.65625 17.394531 C 27.65625 16.835938 27.199219 16.394531 26.652344 16.394531 C 26.09375 16.394531 25.636719 16.835938 25.636719 17.394531 L 25.636719 25.402344 C 25.636719 25.964844 26.09375 26.40625 26.652344 26.40625 L 31.992188 26.40625 C 32.539062 26.40625 32.996094 25.964844 32.996094 25.402344 C 32.996094 24.84375 32.539062 24.402344 31.980469 24.402344 Z M 31.980469 24.402344 "/>
<path style=" stroke:none;fill-rule:evenodd;fill:rgb(86.274511%,85.09804%,85.09804%);fill-opacity:1;" d="M 41.417969 24.660156 C 41.417969 24.648438 41.433594 24.636719 41.433594 24.621094 C 41.445312 24.609375 41.457031 24.597656 41.472656 24.570312 C 41.472656 24.570312 41.484375 24.558594 41.484375 24.542969 C 41.496094 24.53125 41.511719 24.503906 41.511719 24.492188 C 41.523438 24.480469 41.523438 24.464844 41.535156 24.453125 C 41.535156 24.441406 41.550781 24.414062 41.550781 24.402344 C 41.550781 24.386719 41.5625 24.375 41.5625 24.363281 C 41.574219 24.335938 41.574219 24.324219 41.574219 24.296875 C 41.589844 24.296875 41.589844 24.285156 41.589844 24.269531 C 41.589844 24.246094 41.601562 24.21875 41.601562 24.191406 C 41.601562 24.179688 41.601562 24.179688 41.601562 24.167969 C 41.601562 24.128906 41.601562 24.101562 41.601562 24.0625 L 41.601562 18.738281 C 41.601562 18.699219 41.601562 18.660156 41.601562 18.632812 C 41.601562 18.621094 41.601562 18.605469 41.601562 18.59375 C 41.589844 18.582031 41.589844 18.554688 41.589844 18.527344 C 41.589844 18.515625 41.574219 18.503906 41.574219 18.488281 C 41.574219 18.476562 41.5625 18.449219 41.5625 18.4375 C 41.5625 18.425781 41.550781 18.410156 41.550781 18.398438 C 41.550781 18.386719 41.535156 18.359375 41.535156 18.347656 C 41.523438 18.332031 41.523438 18.320312 41.511719 18.308594 C 41.511719 18.292969 41.496094 18.269531 41.484375 18.253906 C 41.484375 18.242188 41.472656 18.230469 41.472656 18.230469 C 41.457031 18.203125 41.445312 18.191406 41.433594 18.175781 C 41.433594 18.164062 41.417969 18.152344 41.40625 18.136719 C 41.40625 18.125 41.394531 18.113281 41.378906 18.097656 C 41.367188 18.074219 41.355469 18.058594 41.328125 18.046875 C 41.328125 18.035156 41.316406 18.035156 41.316406 18.019531 L 39.988281 16.679688 C 39.972656 16.679688 39.972656 16.667969 39.960938 16.667969 C 39.949219 16.652344 39.921875 16.628906 39.910156 16.613281 C 39.894531 16.601562 39.882812 16.601562 39.871094 16.589844 C 39.855469 16.574219 39.84375 16.5625 39.832031 16.5625 C 39.816406 16.550781 39.792969 16.535156 39.777344 16.523438 C 39.765625 16.523438 39.753906 16.511719 39.738281 16.511719 C 39.726562 16.496094 39.714844 16.496094 39.6875 16.484375 C 39.675781 16.484375 39.660156 16.472656 39.648438 16.472656 C 39.636719 16.457031 39.621094 16.457031 39.597656 16.445312 C 39.582031 16.445312 39.570312 16.433594 39.558594 16.433594 C 39.542969 16.433594 39.53125 16.417969 39.503906 16.417969 C 39.492188 16.417969 39.480469 16.417969 39.464844 16.40625 C 39.441406 16.40625 39.425781 16.40625 39.402344 16.40625 C 39.386719 16.394531 39.375 16.394531 39.375 16.394531 C 39.335938 16.394531 39.296875 16.394531 39.269531 16.394531 L 35.261719 16.394531 C 34.714844 16.394531 34.257812 16.835938 34.257812 17.394531 L 34.257812 25.402344 C 34.257812 25.964844 34.714844 26.40625 35.261719 26.40625 L 39.269531 26.40625 C 39.285156 26.40625 39.296875 26.40625 39.296875 26.40625 C 39.324219 26.40625 39.347656 26.40625 39.363281 26.40625 C 39.386719 26.40625 39.402344 26.394531 39.425781 26.394531 C 39.441406 26.394531 39.453125 26.394531 39.464844 26.394531 C 39.480469 26.378906 39.503906 26.378906 39.519531 26.378906 C 39.53125 26.367188 39.542969 26.367188 39.558594 26.367188 C 39.582031 26.355469 39.597656 26.355469 39.609375 26.339844 C 39.621094 26.339844 39.636719 26.339844 39.648438 26.328125 C 39.675781 26.328125 39.6875 26.316406 39.699219 26.316406 C 39.714844 26.300781 39.726562 26.300781 39.738281 26.289062 C 39.753906 26.277344 39.777344 26.277344 39.792969 26.261719 C 39.804688 26.25 39.816406 26.25 39.832031 26.238281 C 39.84375 26.222656 39.855469 26.210938 39.882812 26.199219 C 39.882812 26.199219 39.894531 26.183594 39.910156 26.183594 C 39.933594 26.160156 39.960938 26.132812 39.972656 26.105469 L 41.316406 24.777344 C 41.316406 24.777344 41.328125 24.765625 41.328125 24.753906 C 41.339844 24.738281 41.367188 24.726562 41.378906 24.699219 C 41.394531 24.6875 41.40625 24.675781 41.417969 24.660156 Z M 36.277344 24.402344 L 36.277344 18.398438 L 38.855469 18.398438 L 39.597656 19.140625 L 39.597656 23.660156 L 38.855469 24.402344 Z M 36.277344 24.402344 "/>
<path style=" stroke:none;fill-rule:evenodd;fill:rgb(86.274511%,85.09804%,85.09804%);fill-opacity:1;" d="M 14.230469 34.960938 L 13.203125 36.003906 L 11.355469 36.003906 L 10.613281 35.246094 L 10.613281 30.742188 L 11.355469 30 L 13.203125 30 L 14.230469 31.042969 C 14.636719 31.433594 15.261719 31.433594 15.664062 31.042969 C 16.054688 30.652344 16.054688 30.011719 15.664062 29.621094 L 14.308594 28.269531 C 14.285156 28.253906 14.269531 28.230469 14.257812 28.214844 C 14.230469 28.203125 14.21875 28.191406 14.207031 28.191406 C 14.191406 28.175781 14.179688 28.164062 14.167969 28.164062 C 14.152344 28.152344 14.140625 28.136719 14.128906 28.125 C 14.113281 28.125 14.101562 28.113281 14.089844 28.113281 C 14.074219 28.097656 14.050781 28.097656 14.035156 28.085938 C 14.023438 28.074219 14.011719 28.074219 13.996094 28.074219 C 13.984375 28.058594 13.957031 28.058594 13.945312 28.046875 C 13.933594 28.046875 13.917969 28.035156 13.90625 28.035156 C 13.894531 28.035156 13.867188 28.019531 13.855469 28.019531 C 13.839844 28.019531 13.828125 28.007812 13.816406 28.007812 C 13.789062 28.007812 13.761719 28.007812 13.75 27.996094 C 13.738281 27.996094 13.722656 27.996094 13.710938 27.996094 C 13.683594 27.996094 13.644531 27.996094 13.605469 27.996094 L 10.949219 27.996094 C 10.910156 27.996094 10.871094 27.996094 10.847656 27.996094 C 10.832031 27.996094 10.832031 27.996094 10.820312 27.996094 C 10.792969 28.007812 10.769531 28.007812 10.742188 28.007812 C 10.730469 28.007812 10.714844 28.019531 10.703125 28.019531 C 10.691406 28.019531 10.664062 28.035156 10.652344 28.035156 C 10.636719 28.035156 10.625 28.046875 10.613281 28.046875 C 10.597656 28.046875 10.574219 28.058594 10.558594 28.074219 C 10.546875 28.074219 10.535156 28.074219 10.519531 28.085938 C 10.507812 28.085938 10.480469 28.097656 10.46875 28.113281 C 10.457031 28.113281 10.457031 28.125 10.441406 28.125 C 10.417969 28.136719 10.402344 28.152344 10.390625 28.164062 C 10.378906 28.164062 10.363281 28.175781 10.351562 28.175781 C 10.339844 28.191406 10.324219 28.203125 10.3125 28.214844 C 10.285156 28.230469 10.273438 28.242188 10.261719 28.269531 C 10.246094 28.269531 10.246094 28.28125 10.234375 28.28125 L 8.90625 29.621094 C 8.878906 29.636719 8.855469 29.660156 8.828125 29.6875 C 8.828125 29.699219 8.816406 29.714844 8.816406 29.714844 C 8.800781 29.738281 8.789062 29.753906 8.777344 29.765625 C 8.761719 29.777344 8.761719 29.792969 8.75 29.804688 C 8.738281 29.816406 8.738281 29.84375 8.722656 29.855469 C 8.722656 29.871094 8.710938 29.882812 8.710938 29.894531 C 8.699219 29.910156 8.683594 29.921875 8.683594 29.949219 C 8.671875 29.960938 8.671875 29.972656 8.671875 29.988281 C 8.660156 30 8.660156 30.011719 8.644531 30.039062 C 8.644531 30.050781 8.644531 30.066406 8.644531 30.066406 C 8.632812 30.089844 8.632812 30.117188 8.621094 30.128906 C 8.621094 30.144531 8.621094 30.15625 8.621094 30.167969 C 8.621094 30.183594 8.605469 30.207031 8.605469 30.234375 C 8.605469 30.246094 8.605469 30.261719 8.605469 30.273438 C 8.605469 30.300781 8.605469 30.3125 8.605469 30.324219 L 8.605469 35.664062 C 8.605469 35.675781 8.605469 35.675781 8.605469 35.691406 C 8.605469 35.714844 8.605469 35.742188 8.605469 35.769531 C 8.605469 35.78125 8.621094 35.792969 8.621094 35.820312 C 8.621094 35.832031 8.621094 35.847656 8.621094 35.859375 C 8.632812 35.886719 8.632812 35.898438 8.644531 35.925781 C 8.644531 35.9375 8.644531 35.949219 8.644531 35.964844 C 8.660156 35.976562 8.660156 35.988281 8.671875 36.015625 C 8.671875 36.027344 8.671875 36.042969 8.683594 36.054688 C 8.683594 36.066406 8.699219 36.082031 8.710938 36.105469 C 8.710938 36.121094 8.722656 36.132812 8.722656 36.144531 C 8.738281 36.160156 8.75 36.171875 8.75 36.183594 C 8.761719 36.199219 8.761719 36.210938 8.777344 36.222656 C 8.789062 36.238281 8.800781 36.261719 8.816406 36.277344 C 8.816406 36.289062 8.828125 36.289062 8.828125 36.300781 C 8.855469 36.328125 8.878906 36.355469 8.90625 36.378906 L 10.234375 37.707031 C 10.261719 37.734375 10.285156 37.761719 10.3125 37.785156 C 10.3125 37.785156 10.324219 37.800781 10.339844 37.800781 C 10.351562 37.8125 10.363281 37.824219 10.390625 37.839844 C 10.402344 37.851562 10.417969 37.851562 10.429688 37.863281 C 10.441406 37.863281 10.457031 37.878906 10.46875 37.890625 C 10.480469 37.890625 10.496094 37.902344 10.507812 37.902344 C 10.535156 37.917969 10.546875 37.929688 10.558594 37.929688 C 10.574219 37.941406 10.585938 37.941406 10.597656 37.941406 C 10.625 37.957031 10.636719 37.957031 10.652344 37.96875 C 10.664062 37.96875 10.675781 37.96875 10.691406 37.96875 C 10.714844 37.980469 10.730469 37.980469 10.753906 37.980469 C 10.769531 37.996094 10.78125 37.996094 10.792969 37.996094 C 10.820312 37.996094 10.832031 37.996094 10.847656 38.007812 C 10.871094 38.007812 10.910156 38.007812 10.9375 38.007812 L 13.621094 38.007812 C 13.621094 38.007812 13.632812 38.007812 13.644531 38.007812 C 13.671875 38.007812 13.683594 38.007812 13.710938 38.007812 C 13.738281 37.996094 13.75 37.996094 13.761719 37.996094 C 13.777344 37.996094 13.789062 37.996094 13.800781 37.980469 C 13.828125 37.980469 13.839844 37.980469 13.867188 37.96875 C 13.878906 37.96875 13.894531 37.96875 13.90625 37.96875 C 13.917969 37.957031 13.945312 37.957031 13.957031 37.941406 C 13.972656 37.941406 13.984375 37.941406 13.996094 37.929688 C 14.011719 37.929688 14.035156 37.917969 14.050781 37.902344 C 14.0625 37.902344 14.074219 37.890625 14.089844 37.890625 C 14.101562 37.878906 14.113281 37.863281 14.128906 37.863281 C 14.140625 37.851562 14.152344 37.851562 14.167969 37.839844 C 14.191406 37.824219 14.207031 37.8125 14.21875 37.800781 C 14.230469 37.785156 14.246094 37.785156 14.246094 37.773438 C 14.269531 37.761719 14.296875 37.734375 14.324219 37.707031 L 15.652344 36.378906 C 16.054688 35.988281 16.054688 35.351562 15.652344 34.960938 C 15.261719 34.558594 14.636719 34.570312 14.230469 34.960938 Z M 14.230469 34.960938 "/>
<path style=" stroke:none;fill-rule:evenodd;fill:rgb(86.274511%,85.09804%,85.09804%);fill-opacity:1;" d="M 24.464844 31.5625 C 24.464844 31.550781 24.464844 31.523438 24.453125 31.511719 C 24.453125 31.496094 24.453125 31.484375 24.453125 31.472656 C 24.453125 31.445312 24.441406 31.433594 24.441406 31.40625 C 24.441406 31.394531 24.425781 31.378906 24.425781 31.367188 C 24.425781 31.355469 24.414062 31.339844 24.414062 31.316406 C 24.402344 31.300781 24.402344 31.289062 24.402344 31.277344 C 24.386719 31.261719 24.386719 31.25 24.375 31.238281 C 24.363281 31.222656 24.363281 31.210938 24.347656 31.199219 C 24.347656 31.171875 24.335938 31.160156 24.324219 31.144531 C 24.324219 31.132812 24.308594 31.121094 24.308594 31.105469 C 24.296875 31.09375 24.285156 31.066406 24.269531 31.054688 C 24.257812 31.042969 24.257812 31.042969 24.246094 31.027344 C 24.21875 31.003906 24.207031 30.976562 24.179688 30.949219 L 21.511719 28.28125 C 21.121094 27.890625 20.480469 27.890625 20.089844 28.28125 L 17.421875 30.949219 C 17.394531 30.976562 17.371094 31.003906 17.355469 31.027344 C 17.34375 31.042969 17.34375 31.042969 17.332031 31.054688 C 17.316406 31.066406 17.304688 31.09375 17.292969 31.105469 C 17.277344 31.121094 17.277344 31.132812 17.265625 31.144531 C 17.265625 31.160156 17.253906 31.171875 17.238281 31.199219 C 17.238281 31.210938 17.226562 31.222656 17.226562 31.238281 C 17.214844 31.25 17.214844 31.261719 17.199219 31.277344 C 17.199219 31.289062 17.1875 31.300781 17.1875 31.316406 C 17.175781 31.339844 17.175781 31.355469 17.160156 31.367188 C 17.160156 31.378906 17.160156 31.394531 17.160156 31.40625 C 17.148438 31.433594 17.148438 31.445312 17.148438 31.472656 C 17.136719 31.484375 17.136719 31.496094 17.136719 31.511719 C 17.136719 31.523438 17.136719 31.550781 17.136719 31.5625 C 17.121094 31.589844 17.121094 31.601562 17.121094 31.628906 C 17.121094 31.640625 17.121094 31.652344 17.121094 31.667969 L 17.121094 37.003906 C 17.121094 37.550781 17.578125 38.007812 18.125 38.007812 C 18.683594 38.007812 19.140625 37.550781 19.140625 37.003906 L 19.140625 34.011719 L 22.460938 34.011719 L 22.460938 37.003906 C 22.460938 37.550781 22.917969 38.007812 23.464844 38.007812 C 24.023438 38.007812 24.464844 37.550781 24.464844 37.003906 L 24.464844 31.667969 C 24.464844 31.652344 24.464844 31.640625 24.464844 31.628906 C 24.464844 31.613281 24.464844 31.589844 24.464844 31.5625 Z M 20.792969 30.417969 L 22.371094 31.992188 L 19.21875 31.992188 Z M 20.792969 30.417969 "/>
<path style=" stroke:none;fill-rule:evenodd;fill:rgb(86.274511%,85.09804%,85.09804%);fill-opacity:1;" d="M 32.980469 30.234375 C 32.980469 30.207031 32.980469 30.195312 32.980469 30.167969 C 32.96875 30.15625 32.96875 30.144531 32.96875 30.128906 C 32.96875 30.117188 32.957031 30.089844 32.957031 30.078125 C 32.957031 30.066406 32.957031 30.050781 32.941406 30.039062 C 32.941406 30.027344 32.929688 30 32.929688 29.988281 C 32.929688 29.972656 32.917969 29.960938 32.917969 29.949219 C 32.902344 29.933594 32.902344 29.910156 32.890625 29.894531 C 32.890625 29.882812 32.878906 29.871094 32.878906 29.855469 C 32.863281 29.84375 32.851562 29.832031 32.839844 29.804688 C 32.839844 29.792969 32.824219 29.792969 32.824219 29.777344 C 32.8125 29.753906 32.800781 29.738281 32.785156 29.726562 C 32.773438 29.714844 32.773438 29.699219 32.761719 29.699219 C 32.746094 29.675781 32.722656 29.648438 32.695312 29.621094 L 31.367188 28.28125 C 31.355469 28.28125 31.339844 28.269531 31.339844 28.269531 C 31.328125 28.253906 31.300781 28.230469 31.289062 28.214844 C 31.277344 28.203125 31.261719 28.203125 31.238281 28.191406 C 31.238281 28.175781 31.222656 28.164062 31.210938 28.164062 C 31.199219 28.152344 31.171875 28.136719 31.160156 28.125 C 31.144531 28.125 31.132812 28.113281 31.121094 28.113281 C 31.105469 28.097656 31.09375 28.097656 31.066406 28.085938 C 31.054688 28.085938 31.054688 28.074219 31.042969 28.074219 C 31.015625 28.058594 31.003906 28.058594 30.976562 28.046875 C 30.976562 28.046875 30.964844 28.046875 30.949219 28.035156 C 30.925781 28.035156 30.910156 28.019531 30.886719 28.019531 C 30.871094 28.019531 30.859375 28.019531 30.847656 28.007812 C 30.820312 28.007812 30.792969 28.007812 30.78125 28.007812 C 30.769531 27.996094 30.753906 27.996094 30.753906 27.996094 C 30.714844 27.996094 30.675781 27.996094 30.652344 27.996094 L 26.652344 27.996094 C 26.09375 27.996094 25.636719 28.4375 25.636719 28.996094 L 25.636719 37.003906 C 25.636719 37.566406 26.09375 38.007812 26.652344 38.007812 C 27.199219 38.007812 27.65625 37.566406 27.65625 37.003906 L 27.65625 35.339844 L 28.90625 35.339844 L 31.277344 37.722656 C 31.667969 38.113281 32.304688 38.113281 32.695312 37.722656 C 33.085938 37.332031 33.085938 36.691406 32.695312 36.289062 L 31.40625 35 C 31.484375 34.921875 32.695312 33.710938 32.695312 33.710938 C 32.707031 33.710938 32.707031 33.699219 32.707031 33.699219 C 32.734375 33.683594 32.746094 33.660156 32.761719 33.644531 C 32.773438 33.632812 32.785156 33.621094 32.800781 33.59375 C 32.800781 33.582031 32.8125 33.582031 32.824219 33.554688 C 32.824219 33.542969 32.839844 33.527344 32.851562 33.515625 C 32.851562 33.503906 32.863281 33.488281 32.878906 33.476562 C 32.878906 33.464844 32.890625 33.449219 32.890625 33.425781 C 32.902344 33.410156 32.902344 33.398438 32.917969 33.386719 C 32.917969 33.371094 32.929688 33.359375 32.929688 33.347656 C 32.941406 33.320312 32.941406 33.308594 32.941406 33.292969 C 32.957031 33.28125 32.957031 33.269531 32.957031 33.253906 C 32.96875 33.230469 32.96875 33.214844 32.96875 33.203125 C 32.96875 33.175781 32.980469 33.164062 32.980469 33.152344 C 32.980469 33.136719 32.980469 33.113281 32.980469 33.097656 C 32.996094 33.074219 32.996094 33.046875 32.996094 33.019531 C 32.996094 33.007812 32.996094 33.007812 32.996094 32.996094 L 32.996094 30.324219 C 32.996094 30.3125 32.996094 30.300781 32.996094 30.285156 C 32.980469 30.261719 32.980469 30.246094 32.980469 30.234375 Z M 27.65625 30 L 30.234375 30 L 30.976562 30.742188 L 30.976562 32.578125 L 30.234375 33.332031 L 27.65625 33.332031 Z M 27.65625 30 "/>
<path style=" stroke:none;fill-rule:evenodd;fill:rgb(86.274511%,85.09804%,85.09804%);fill-opacity:1;" d="M 41.445312 36.222656 C 41.445312 36.210938 41.457031 36.199219 41.457031 36.183594 C 41.472656 36.171875 41.484375 36.160156 41.484375 36.144531 C 41.496094 36.132812 41.496094 36.121094 41.511719 36.105469 C 41.523438 36.082031 41.523438 36.066406 41.535156 36.054688 C 41.535156 36.042969 41.535156 36.027344 41.550781 36.015625 C 41.550781 35.988281 41.5625 35.976562 41.5625 35.964844 C 41.574219 35.949219 41.574219 35.9375 41.574219 35.925781 C 41.574219 35.898438 41.589844 35.886719 41.589844 35.859375 C 41.589844 35.847656 41.589844 35.832031 41.601562 35.820312 C 41.601562 35.808594 41.601562 35.78125 41.601562 35.769531 C 41.601562 35.742188 41.601562 35.714844 41.613281 35.691406 C 41.613281 35.675781 41.613281 35.675781 41.613281 35.664062 L 41.613281 30.324219 C 41.613281 30.3125 41.601562 30.300781 41.601562 30.285156 C 41.601562 30.261719 41.601562 30.246094 41.601562 30.234375 C 41.601562 30.207031 41.601562 30.195312 41.601562 30.167969 C 41.589844 30.15625 41.589844 30.144531 41.589844 30.128906 C 41.589844 30.117188 41.574219 30.089844 41.574219 30.078125 C 41.574219 30.066406 41.574219 30.050781 41.5625 30.039062 C 41.5625 30.027344 41.550781 30 41.550781 29.988281 C 41.535156 29.972656 41.535156 29.960938 41.535156 29.949219 C 41.523438 29.933594 41.523438 29.910156 41.511719 29.894531 C 41.496094 29.882812 41.496094 29.871094 41.496094 29.855469 C 41.484375 29.84375 41.472656 29.832031 41.457031 29.804688 C 41.457031 29.792969 41.445312 29.777344 41.445312 29.777344 C 41.433594 29.753906 41.417969 29.738281 41.40625 29.714844 C 41.394531 29.714844 41.394531 29.699219 41.378906 29.699219 C 41.355469 29.675781 41.339844 29.648438 41.316406 29.621094 L 39.988281 28.28125 C 39.960938 28.269531 39.933594 28.242188 39.921875 28.230469 C 39.910156 28.230469 39.910156 28.214844 39.910156 28.214844 C 39.882812 28.203125 39.871094 28.191406 39.84375 28.175781 L 39.832031 28.164062 C 39.804688 28.152344 39.792969 28.136719 39.765625 28.125 L 39.753906 28.113281 C 39.726562 28.097656 39.699219 28.085938 39.6875 28.085938 C 39.675781 28.074219 39.660156 28.074219 39.660156 28.074219 C 39.636719 28.058594 39.621094 28.058594 39.597656 28.046875 C 39.582031 28.046875 39.570312 28.035156 39.570312 28.035156 C 39.542969 28.035156 39.519531 28.019531 39.503906 28.019531 C 39.492188 28.019531 39.480469 28.007812 39.464844 28.007812 C 39.441406 28.007812 39.414062 28.007812 39.386719 27.996094 L 39.375 27.996094 C 39.335938 27.996094 39.308594 27.996094 39.269531 27.996094 L 35.273438 27.996094 C 34.714844 27.996094 34.257812 28.4375 34.257812 28.996094 L 34.257812 37.003906 C 34.257812 37.550781 34.714844 38.007812 35.273438 38.007812 L 39.269531 38.007812 C 39.308594 38.007812 39.335938 38.007812 39.375 38.007812 C 39.386719 38.007812 39.402344 37.996094 39.414062 37.996094 C 39.425781 37.996094 39.453125 37.996094 39.464844 37.996094 C 39.480469 37.980469 39.503906 37.980469 39.519531 37.980469 C 39.53125 37.96875 39.542969 37.96875 39.570312 37.96875 C 39.582031 37.957031 39.597656 37.957031 39.609375 37.957031 C 39.621094 37.941406 39.648438 37.941406 39.660156 37.929688 C 39.675781 37.929688 39.6875 37.917969 39.699219 37.917969 C 39.714844 37.902344 39.726562 37.902344 39.753906 37.890625 C 39.765625 37.878906 39.765625 37.878906 39.777344 37.863281 C 39.804688 37.863281 39.816406 37.851562 39.832031 37.839844 C 39.84375 37.824219 39.855469 37.824219 39.871094 37.8125 C 39.882812 37.800781 39.894531 37.785156 39.910156 37.785156 C 39.933594 37.761719 39.949219 37.746094 39.960938 37.734375 C 39.972656 37.722656 39.972656 37.722656 39.988281 37.722656 L 41.316406 36.378906 C 41.339844 36.355469 41.367188 36.328125 41.378906 36.300781 C 41.394531 36.300781 41.394531 36.289062 41.40625 36.277344 C 41.417969 36.261719 41.433594 36.25 41.445312 36.222656 Z M 36.277344 36.003906 L 36.277344 30 L 38.855469 30 C 39.113281 30.261719 39.335938 30.496094 39.597656 30.742188 L 39.597656 35.246094 L 38.855469 36.003906 Z M 36.277344 36.003906 "/>
<path style=" stroke:none;fill-rule:evenodd;fill:rgb(86.274511%,85.09804%,85.09804%);fill-opacity:1;" d="M 42.433594 39.582031 L 42.863281 39.152344 L 42.980469 39.269531 L 42.839844 39.414062 L 43.175781 39.753906 L 43.035156 39.894531 L 42.695312 39.558594 L 42.550781 39.699219 Z M 42.433594 39.582031 "/>
<path style=" stroke:none;fill-rule:evenodd;fill:rgb(86.274511%,85.09804%,85.09804%);fill-opacity:1;" d="M 42.929688 39.089844 L 43.113281 38.90625 L 43.464844 39.113281 L 43.253906 38.761719 L 43.4375 38.582031 L 43.894531 39.035156 L 43.777344 39.152344 L 43.4375 38.800781 L 43.699219 39.246094 L 43.59375 39.347656 L 43.152344 39.089844 L 43.503906 39.425781 L 43.386719 39.542969 Z M 42.929688 39.089844 "/>
<path style=" stroke:none;fill-rule:evenodd;fill:rgb(86.274511%,85.09804%,85.09804%);fill-opacity:1;" d="M 41.160156 14.855469 L 43.28125 16.980469 L 43.28125 37.382812 L 41.160156 39.503906 L 8.839844 39.503906 L 6.71875 37.382812 L 6.71875 16.980469 L 8.839844 14.855469 L 41.160156 14.855469 M 41.160156 14.152344 L 8.839844 14.152344 C 8.660156 14.152344 8.476562 14.230469 8.347656 14.363281 L 6.222656 16.484375 C 6.09375 16.613281 6.027344 16.796875 6.027344 16.980469 L 6.027344 37.382812 C 6.027344 37.578125 6.09375 37.746094 6.222656 37.878906 L 8.347656 40 C 8.476562 40.128906 8.660156 40.207031 8.839844 40.207031 L 41.160156 40.207031 C 41.339844 40.207031 41.523438 40.128906 41.652344 40 L 43.777344 37.878906 C 43.90625 37.746094 43.972656 37.578125 43.972656 37.382812 L 43.972656 16.980469 C 43.972656 16.796875 43.90625 16.613281 43.777344 16.484375 L 41.652344 14.363281 C 41.523438 14.230469 41.339844 14.152344 41.160156 14.152344 Z M 41.160156 14.152344 "/>
</g>
</svg>
