<?xml version="1.0" encoding="UTF-8"?>
<svg xmlns="http://www.w3.org/2000/svg" xmlns:xlink="http://www.w3.org/1999/xlink" width="15px" height="15px" viewBox="0 0 15 15" version="1.1">
<g id="surface1">
<path style=" stroke:none;fill-rule:evenodd;fill:rgb(86.27451%,85.098039%,85.098039%);fill-opacity:1;" d="M 4.269531 7.007812 L 3.960938 7.320312 L 3.40625 7.320312 L 3.183594 7.09375 L 3.183594 5.742188 L 3.40625 5.519531 L 3.957031 5.519531 L 4.269531 5.832031 C 4.390625 5.949219 4.578125 5.949219 4.699219 5.832031 C 4.816406 5.714844 4.816406 5.523438 4.699219 5.40625 L 4.292969 5 C 4.285156 4.996094 4.28125 4.988281 4.277344 4.984375 C 4.269531 4.980469 4.265625 4.980469 4.261719 4.976562 C 4.257812 4.972656 4.253906 4.96875 4.25 4.96875 C 4.246094 4.964844 4.242188 4.960938 4.234375 4.957031 C 4.234375 4.957031 4.230469 4.953125 4.226562 4.953125 C 4.222656 4.949219 4.214844 4.949219 4.210938 4.945312 C 4.207031 4.945312 4.203125 4.941406 4.199219 4.941406 C 4.195312 4.9375 4.1875 4.9375 4.183594 4.933594 C 4.179688 4.933594 4.175781 4.929688 4.171875 4.929688 C 4.167969 4.929688 4.160156 4.925781 4.15625 4.925781 C 4.152344 4.925781 4.148438 4.925781 4.144531 4.921875 C 4.136719 4.921875 4.128906 4.921875 4.121094 4.917969 C 4.121094 4.917969 4.117188 4.917969 4.113281 4.917969 C 4.105469 4.917969 4.09375 4.917969 4.082031 4.917969 L 3.285156 4.917969 C 3.273438 4.917969 3.261719 4.917969 3.253906 4.917969 C 3.25 4.917969 3.25 4.917969 3.246094 4.917969 C 3.238281 4.921875 3.230469 4.921875 3.222656 4.921875 C 3.21875 4.921875 3.214844 4.925781 3.210938 4.925781 C 3.207031 4.925781 3.199219 4.929688 3.195312 4.929688 C 3.191406 4.929688 3.1875 4.933594 3.183594 4.933594 C 3.179688 4.9375 3.171875 4.9375 3.167969 4.941406 C 3.164062 4.941406 3.160156 4.945312 3.15625 4.945312 C 3.152344 4.949219 3.144531 4.949219 3.140625 4.953125 C 3.136719 4.953125 3.136719 4.957031 3.132812 4.957031 C 3.125 4.960938 3.121094 4.964844 3.117188 4.96875 C 3.113281 4.96875 3.109375 4.972656 3.105469 4.976562 C 3.101562 4.980469 3.097656 4.980469 3.09375 4.984375 C 3.085938 4.988281 3.082031 4.996094 3.078125 5 C 3.074219 5 3.074219 5.003906 3.070312 5.003906 L 2.671875 5.40625 C 2.664062 5.414062 2.65625 5.421875 2.648438 5.429688 C 2.648438 5.429688 2.644531 5.433594 2.644531 5.4375 C 2.640625 5.441406 2.636719 5.445312 2.632812 5.453125 C 2.628906 5.457031 2.628906 5.457031 2.625 5.460938 C 2.621094 5.46875 2.621094 5.472656 2.617188 5.476562 C 2.613281 5.480469 2.613281 5.484375 2.613281 5.488281 C 2.609375 5.492188 2.605469 5.5 2.605469 5.503906 C 2.601562 5.507812 2.601562 5.511719 2.601562 5.515625 C 2.597656 5.519531 2.597656 5.527344 2.59375 5.53125 C 2.59375 5.535156 2.59375 5.539062 2.589844 5.542969 C 2.589844 5.546875 2.589844 5.554688 2.585938 5.558594 C 2.585938 5.5625 2.585938 5.566406 2.585938 5.570312 C 2.585938 5.578125 2.582031 5.582031 2.582031 5.589844 C 2.582031 5.597656 2.582031 5.601562 2.582031 5.609375 C 2.582031 5.613281 2.582031 5.617188 2.582031 5.617188 L 2.582031 7.21875 C 2.582031 7.222656 2.582031 7.222656 2.582031 7.222656 C 2.582031 7.230469 2.582031 7.242188 2.582031 7.25 C 2.582031 7.253906 2.585938 7.261719 2.585938 7.265625 C 2.585938 7.269531 2.585938 7.273438 2.585938 7.28125 C 2.589844 7.285156 2.589844 7.289062 2.589844 7.296875 C 2.59375 7.300781 2.59375 7.304688 2.59375 7.308594 C 2.597656 7.3125 2.597656 7.320312 2.601562 7.324219 C 2.601562 7.328125 2.601562 7.332031 2.605469 7.335938 C 2.605469 7.339844 2.609375 7.34375 2.609375 7.351562 C 2.613281 7.355469 2.613281 7.359375 2.617188 7.363281 C 2.621094 7.367188 2.621094 7.371094 2.625 7.375 C 2.628906 7.378906 2.628906 7.382812 2.632812 7.386719 C 2.636719 7.394531 2.640625 7.398438 2.644531 7.402344 C 2.644531 7.40625 2.648438 7.410156 2.648438 7.410156 C 2.65625 7.417969 2.664062 7.425781 2.671875 7.433594 L 3.070312 7.835938 C 3.078125 7.839844 3.085938 7.847656 3.09375 7.855469 C 3.09375 7.855469 3.097656 7.859375 3.101562 7.859375 C 3.105469 7.863281 3.109375 7.867188 3.117188 7.871094 C 3.121094 7.875 3.125 7.875 3.128906 7.878906 C 3.132812 7.882812 3.136719 7.882812 3.140625 7.886719 C 3.144531 7.890625 3.148438 7.890625 3.152344 7.894531 C 3.160156 7.894531 3.164062 7.898438 3.167969 7.898438 C 3.171875 7.902344 3.175781 7.902344 3.179688 7.902344 C 3.1875 7.90625 3.191406 7.90625 3.195312 7.910156 C 3.199219 7.910156 3.203125 7.910156 3.207031 7.914062 C 3.214844 7.914062 3.21875 7.914062 3.226562 7.917969 C 3.230469 7.917969 3.234375 7.917969 3.238281 7.917969 C 3.246094 7.917969 3.25 7.921875 3.253906 7.921875 C 3.261719 7.921875 3.273438 7.921875 3.28125 7.921875 C 3.28125 7.921875 3.28125 7.921875 3.285156 7.921875 L 4.085938 7.921875 C 4.09375 7.921875 4.105469 7.921875 4.113281 7.921875 C 4.117188 7.921875 4.125 7.917969 4.128906 7.917969 C 4.132812 7.917969 4.136719 7.917969 4.144531 7.917969 C 4.148438 7.914062 4.152344 7.914062 4.160156 7.914062 C 4.164062 7.910156 4.167969 7.910156 4.171875 7.910156 C 4.175781 7.90625 4.183594 7.90625 4.1875 7.902344 C 4.191406 7.902344 4.195312 7.902344 4.199219 7.898438 C 4.203125 7.898438 4.210938 7.894531 4.214844 7.894531 C 4.21875 7.890625 4.222656 7.890625 4.226562 7.886719 C 4.230469 7.882812 4.234375 7.882812 4.238281 7.878906 C 4.242188 7.875 4.246094 7.875 4.25 7.871094 C 4.257812 7.867188 4.261719 7.863281 4.265625 7.859375 C 4.269531 7.859375 4.273438 7.855469 4.273438 7.855469 C 4.28125 7.847656 4.289062 7.839844 4.296875 7.835938 L 4.699219 7.433594 C 4.816406 7.316406 4.816406 7.125 4.699219 7.007812 C 4.578125 6.890625 4.390625 6.890625 4.269531 7.007812 Z M 4.269531 7.007812 "/>
<path style=" stroke:none;fill-rule:evenodd;fill:rgb(86.27451%,85.098039%,85.098039%);fill-opacity:1;" d="M 7.339844 5.589844 C 7.339844 5.582031 7.339844 5.578125 7.335938 5.570312 C 7.335938 5.566406 7.335938 5.5625 7.335938 5.5625 C 7.335938 5.554688 7.332031 5.546875 7.332031 5.542969 C 7.332031 5.539062 7.328125 5.535156 7.328125 5.53125 C 7.328125 5.527344 7.324219 5.519531 7.324219 5.515625 C 7.320312 5.511719 7.320312 5.507812 7.320312 5.503906 C 7.316406 5.5 7.3125 5.492188 7.3125 5.488281 C 7.308594 5.484375 7.308594 5.480469 7.304688 5.476562 C 7.304688 5.472656 7.300781 5.46875 7.296875 5.460938 C 7.296875 5.460938 7.292969 5.457031 7.292969 5.453125 C 7.289062 5.445312 7.285156 5.441406 7.28125 5.4375 C 7.277344 5.433594 7.277344 5.429688 7.273438 5.429688 C 7.265625 5.421875 7.261719 5.414062 7.253906 5.40625 L 6.851562 5.003906 C 6.847656 5 6.839844 4.992188 6.835938 4.988281 C 6.832031 4.988281 6.832031 4.988281 6.832031 4.984375 C 6.824219 4.980469 6.820312 4.976562 6.8125 4.972656 L 6.808594 4.96875 C 6.800781 4.964844 6.796875 4.960938 6.789062 4.957031 C 6.789062 4.957031 6.785156 4.953125 6.78125 4.953125 C 6.777344 4.949219 6.769531 4.945312 6.765625 4.945312 C 6.761719 4.941406 6.757812 4.941406 6.757812 4.941406 C 6.75 4.9375 6.742188 4.9375 6.738281 4.933594 C 6.734375 4.933594 6.730469 4.929688 6.730469 4.929688 C 6.722656 4.929688 6.714844 4.925781 6.710938 4.925781 C 6.707031 4.925781 6.703125 4.921875 6.699219 4.921875 C 6.691406 4.921875 6.683594 4.921875 6.675781 4.917969 L 6.671875 4.917969 C 6.660156 4.917969 6.648438 4.917969 6.640625 4.917969 L 5.839844 4.917969 C 5.832031 4.917969 5.820312 4.917969 5.808594 4.917969 C 5.808594 4.917969 5.804688 4.917969 5.800781 4.917969 C 5.792969 4.921875 5.789062 4.921875 5.78125 4.921875 C 5.777344 4.921875 5.773438 4.925781 5.769531 4.925781 C 5.761719 4.925781 5.757812 4.929688 5.753906 4.929688 C 5.746094 4.929688 5.742188 4.933594 5.738281 4.933594 C 5.734375 4.9375 5.730469 4.9375 5.722656 4.941406 C 5.71875 4.941406 5.714844 4.941406 5.714844 4.945312 C 5.707031 4.949219 5.703125 4.949219 5.699219 4.953125 C 5.695312 4.953125 5.691406 4.957031 5.6875 4.957031 C 5.683594 4.960938 5.675781 4.964844 5.671875 4.96875 C 5.667969 4.96875 5.664062 4.972656 5.660156 4.976562 C 5.65625 4.980469 5.652344 4.980469 5.648438 4.984375 C 5.644531 4.988281 5.636719 4.996094 5.632812 5 C 5.628906 5 5.628906 5.003906 5.625 5.003906 L 5.226562 5.40625 C 5.21875 5.414062 5.210938 5.417969 5.207031 5.429688 C 5.203125 5.429688 5.203125 5.433594 5.199219 5.4375 C 5.195312 5.441406 5.191406 5.445312 5.1875 5.453125 C 5.1875 5.453125 5.183594 5.457031 5.183594 5.460938 C 5.179688 5.46875 5.175781 5.472656 5.171875 5.476562 C 5.171875 5.480469 5.171875 5.484375 5.167969 5.488281 C 5.164062 5.492188 5.164062 5.5 5.160156 5.503906 C 5.160156 5.507812 5.15625 5.511719 5.15625 5.515625 C 5.15625 5.519531 5.152344 5.527344 5.152344 5.53125 C 5.148438 5.535156 5.148438 5.539062 5.148438 5.542969 C 5.148438 5.546875 5.144531 5.554688 5.144531 5.558594 C 5.144531 5.5625 5.144531 5.566406 5.140625 5.570312 C 5.140625 5.578125 5.140625 5.582031 5.140625 5.589844 C 5.140625 5.59375 5.140625 5.601562 5.140625 5.609375 C 5.140625 5.613281 5.136719 5.613281 5.136719 5.617188 L 5.136719 7.21875 C 5.136719 7.222656 5.136719 7.222656 5.136719 7.222656 C 5.136719 7.230469 5.140625 7.242188 5.140625 7.25 C 5.140625 7.253906 5.140625 7.257812 5.140625 7.265625 C 5.140625 7.269531 5.144531 7.273438 5.144531 7.277344 C 5.144531 7.285156 5.148438 7.289062 5.148438 7.296875 C 5.148438 7.300781 5.148438 7.304688 5.152344 7.308594 C 5.152344 7.3125 5.15625 7.316406 5.15625 7.324219 C 5.15625 7.328125 5.160156 7.332031 5.160156 7.335938 C 5.164062 7.339844 5.164062 7.34375 5.167969 7.351562 C 5.167969 7.355469 5.171875 7.359375 5.171875 7.363281 C 5.175781 7.367188 5.179688 7.371094 5.183594 7.375 C 5.183594 7.378906 5.1875 7.382812 5.1875 7.386719 C 5.191406 7.394531 5.195312 7.398438 5.199219 7.402344 C 5.203125 7.40625 5.203125 7.410156 5.207031 7.410156 C 5.210938 7.417969 5.21875 7.425781 5.226562 7.433594 L 5.625 7.832031 C 5.632812 7.839844 5.640625 7.847656 5.648438 7.855469 C 5.652344 7.855469 5.652344 7.859375 5.65625 7.859375 C 5.664062 7.863281 5.667969 7.867188 5.671875 7.871094 C 5.675781 7.875 5.679688 7.875 5.683594 7.878906 C 5.6875 7.882812 5.695312 7.882812 5.699219 7.886719 C 5.703125 7.890625 5.707031 7.890625 5.710938 7.894531 C 5.714844 7.894531 5.71875 7.898438 5.726562 7.898438 C 5.730469 7.902344 5.734375 7.902344 5.738281 7.902344 C 5.742188 7.90625 5.746094 7.90625 5.753906 7.910156 C 5.757812 7.910156 5.761719 7.910156 5.765625 7.914062 C 5.769531 7.914062 5.777344 7.914062 5.78125 7.917969 C 5.785156 7.917969 5.789062 7.917969 5.792969 7.917969 C 5.800781 7.917969 5.804688 7.921875 5.8125 7.921875 C 5.816406 7.921875 5.824219 7.921875 5.828125 7.921875 C 5.832031 7.921875 5.835938 7.921875 5.839844 7.921875 L 6.640625 7.921875 C 6.652344 7.921875 6.660156 7.921875 6.671875 7.921875 C 6.675781 7.921875 6.679688 7.917969 6.683594 7.917969 C 6.6875 7.917969 6.695312 7.917969 6.699219 7.917969 C 6.703125 7.914062 6.710938 7.914062 6.714844 7.914062 C 6.71875 7.910156 6.722656 7.910156 6.726562 7.910156 C 6.734375 7.90625 6.738281 7.90625 6.742188 7.90625 C 6.746094 7.902344 6.75 7.902344 6.757812 7.898438 C 6.761719 7.898438 6.765625 7.894531 6.769531 7.894531 C 6.773438 7.890625 6.777344 7.890625 6.78125 7.886719 C 6.785156 7.882812 6.789062 7.882812 6.792969 7.878906 C 6.796875 7.878906 6.804688 7.875 6.808594 7.871094 C 6.8125 7.867188 6.816406 7.867188 6.820312 7.863281 C 6.824219 7.859375 6.828125 7.859375 6.832031 7.855469 C 6.839844 7.847656 6.84375 7.84375 6.847656 7.839844 C 6.851562 7.835938 6.851562 7.835938 6.855469 7.835938 L 7.253906 7.433594 C 7.261719 7.425781 7.269531 7.417969 7.273438 7.410156 C 7.277344 7.410156 7.277344 7.40625 7.28125 7.402344 C 7.285156 7.398438 7.289062 7.394531 7.292969 7.386719 C 7.292969 7.382812 7.296875 7.378906 7.296875 7.375 C 7.300781 7.371094 7.304688 7.367188 7.308594 7.363281 C 7.308594 7.359375 7.3125 7.355469 7.3125 7.351562 C 7.316406 7.34375 7.316406 7.339844 7.320312 7.335938 C 7.320312 7.332031 7.320312 7.328125 7.324219 7.324219 C 7.324219 7.320312 7.328125 7.3125 7.328125 7.308594 C 7.332031 7.304688 7.332031 7.300781 7.332031 7.296875 C 7.332031 7.289062 7.335938 7.285156 7.335938 7.277344 C 7.335938 7.273438 7.339844 7.269531 7.339844 7.265625 C 7.339844 7.261719 7.339844 7.253906 7.339844 7.25 C 7.34375 7.242188 7.34375 7.234375 7.34375 7.226562 C 7.34375 7.222656 7.34375 7.222656 7.34375 7.21875 L 7.34375 5.617188 C 7.34375 5.613281 7.34375 5.609375 7.34375 5.605469 C 7.339844 5.601562 7.339844 5.59375 7.339844 5.589844 Z M 5.964844 7.320312 L 5.738281 7.09375 L 5.738281 5.742188 L 5.964844 5.519531 L 6.515625 5.519531 L 6.738281 5.742188 L 6.738281 7.09375 L 6.515625 7.320312 Z M 5.964844 7.320312 "/>
<path style=" stroke:none;fill-rule:evenodd;fill:rgb(86.27451%,85.098039%,85.098039%);fill-opacity:1;" d="M 9.59375 7.320312 L 8.296875 7.320312 L 8.296875 5.21875 C 8.296875 5.050781 8.160156 4.917969 7.996094 4.917969 C 7.828125 4.917969 7.691406 5.050781 7.691406 5.21875 L 7.691406 7.621094 C 7.691406 7.789062 7.828125 7.921875 7.996094 7.921875 L 9.597656 7.921875 C 9.761719 7.921875 9.898438 7.789062 9.898438 7.621094 C 9.898438 7.453125 9.761719 7.320312 9.59375 7.320312 Z M 9.59375 7.320312 "/>
<path style=" stroke:none;fill-rule:evenodd;fill:rgb(86.27451%,85.098039%,85.098039%);fill-opacity:1;" d="M 12.425781 7.398438 C 12.425781 7.394531 12.429688 7.390625 12.429688 7.386719 C 12.433594 7.382812 12.4375 7.378906 12.441406 7.371094 C 12.441406 7.371094 12.445312 7.367188 12.445312 7.363281 C 12.449219 7.359375 12.453125 7.351562 12.453125 7.347656 C 12.457031 7.34375 12.457031 7.339844 12.460938 7.335938 C 12.460938 7.332031 12.464844 7.324219 12.464844 7.320312 C 12.464844 7.316406 12.46875 7.3125 12.46875 7.308594 C 12.472656 7.300781 12.472656 7.296875 12.472656 7.289062 C 12.476562 7.289062 12.476562 7.285156 12.476562 7.28125 C 12.476562 7.273438 12.480469 7.265625 12.480469 7.257812 C 12.480469 7.253906 12.480469 7.253906 12.480469 7.25 C 12.480469 7.238281 12.480469 7.230469 12.480469 7.21875 L 12.480469 5.621094 C 12.480469 5.609375 12.480469 5.597656 12.480469 5.589844 C 12.480469 5.585938 12.480469 5.582031 12.480469 5.578125 C 12.476562 5.574219 12.476562 5.566406 12.476562 5.558594 C 12.476562 5.554688 12.472656 5.550781 12.472656 5.546875 C 12.472656 5.542969 12.46875 5.535156 12.46875 5.53125 C 12.46875 5.527344 12.464844 5.523438 12.464844 5.519531 C 12.464844 5.515625 12.460938 5.507812 12.460938 5.503906 C 12.457031 5.5 12.457031 5.496094 12.453125 5.492188 C 12.453125 5.488281 12.449219 5.480469 12.445312 5.476562 C 12.445312 5.472656 12.441406 5.46875 12.441406 5.46875 C 12.4375 5.460938 12.433594 5.457031 12.429688 5.453125 C 12.429688 5.449219 12.425781 5.445312 12.421875 5.441406 C 12.421875 5.4375 12.417969 5.433594 12.414062 5.429688 C 12.410156 5.421875 12.40625 5.417969 12.398438 5.414062 C 12.398438 5.410156 12.394531 5.410156 12.394531 5.40625 L 11.996094 5.003906 C 11.992188 5.003906 11.992188 5 11.988281 5 C 11.984375 4.996094 11.976562 4.988281 11.972656 4.984375 C 11.96875 4.980469 11.964844 4.980469 11.960938 4.976562 C 11.957031 4.972656 11.953125 4.96875 11.949219 4.96875 C 11.945312 4.964844 11.9375 4.960938 11.933594 4.957031 C 11.929688 4.957031 11.925781 4.953125 11.921875 4.953125 C 11.917969 4.949219 11.914062 4.949219 11.90625 4.945312 C 11.902344 4.945312 11.898438 4.941406 11.894531 4.941406 C 11.890625 4.9375 11.886719 4.9375 11.878906 4.933594 C 11.875 4.933594 11.871094 4.929688 11.867188 4.929688 C 11.863281 4.929688 11.859375 4.925781 11.851562 4.925781 C 11.847656 4.925781 11.84375 4.925781 11.839844 4.921875 C 11.832031 4.921875 11.828125 4.921875 11.820312 4.921875 C 11.816406 4.917969 11.8125 4.917969 11.8125 4.917969 C 11.800781 4.917969 11.789062 4.917969 11.78125 4.917969 L 10.578125 4.917969 C 10.414062 4.917969 10.277344 5.050781 10.277344 5.21875 L 10.277344 7.621094 C 10.277344 7.789062 10.414062 7.921875 10.578125 7.921875 L 11.78125 7.921875 C 11.785156 7.921875 11.789062 7.921875 11.789062 7.921875 C 11.796875 7.921875 11.804688 7.921875 11.808594 7.921875 C 11.816406 7.921875 11.820312 7.917969 11.828125 7.917969 C 11.832031 7.917969 11.835938 7.917969 11.839844 7.917969 C 11.84375 7.914062 11.851562 7.914062 11.855469 7.914062 C 11.859375 7.910156 11.863281 7.910156 11.867188 7.910156 C 11.875 7.90625 11.878906 7.90625 11.882812 7.902344 C 11.886719 7.902344 11.890625 7.902344 11.894531 7.898438 C 11.902344 7.898438 11.90625 7.894531 11.910156 7.894531 C 11.914062 7.890625 11.917969 7.890625 11.921875 7.886719 C 11.925781 7.882812 11.933594 7.882812 11.9375 7.878906 C 11.941406 7.875 11.945312 7.875 11.949219 7.871094 C 11.953125 7.867188 11.957031 7.863281 11.964844 7.859375 C 11.964844 7.859375 11.96875 7.855469 11.972656 7.855469 C 11.980469 7.847656 11.988281 7.839844 11.992188 7.832031 L 12.394531 7.433594 C 12.394531 7.433594 12.398438 7.429688 12.398438 7.425781 C 12.402344 7.421875 12.410156 7.417969 12.414062 7.410156 C 12.417969 7.40625 12.421875 7.402344 12.425781 7.398438 Z M 10.882812 7.320312 L 10.882812 5.519531 L 11.65625 5.519531 L 11.878906 5.742188 L 11.878906 7.097656 L 11.65625 7.320312 Z M 10.882812 7.320312 "/>
<path style=" stroke:none;fill-rule:evenodd;fill:rgb(86.27451%,85.098039%,85.098039%);fill-opacity:1;" d="M 4.269531 10.488281 L 3.960938 10.800781 L 3.40625 10.800781 L 3.183594 10.574219 L 3.183594 9.222656 L 3.40625 9 L 3.960938 9 L 4.269531 9.3125 C 4.390625 9.429688 4.578125 9.429688 4.699219 9.3125 C 4.816406 9.195312 4.816406 9.003906 4.699219 8.886719 L 4.292969 8.480469 C 4.285156 8.476562 4.28125 8.46875 4.277344 8.464844 C 4.269531 8.460938 4.265625 8.457031 4.261719 8.457031 C 4.257812 8.453125 4.253906 8.449219 4.25 8.449219 C 4.246094 8.445312 4.242188 8.441406 4.238281 8.4375 C 4.234375 8.4375 4.230469 8.433594 4.226562 8.433594 C 4.222656 8.429688 4.214844 8.429688 4.210938 8.425781 C 4.207031 8.421875 4.203125 8.421875 4.199219 8.421875 C 4.195312 8.417969 4.1875 8.417969 4.183594 8.414062 C 4.179688 8.414062 4.175781 8.410156 4.171875 8.410156 C 4.167969 8.410156 4.160156 8.40625 4.15625 8.40625 C 4.152344 8.40625 4.148438 8.402344 4.144531 8.402344 C 4.136719 8.402344 4.128906 8.402344 4.125 8.398438 C 4.121094 8.398438 4.117188 8.398438 4.113281 8.398438 C 4.105469 8.398438 4.09375 8.398438 4.082031 8.398438 L 3.285156 8.398438 C 3.273438 8.398438 3.261719 8.398438 3.253906 8.398438 C 3.25 8.398438 3.25 8.398438 3.246094 8.398438 C 3.238281 8.402344 3.230469 8.402344 3.222656 8.402344 C 3.21875 8.402344 3.214844 8.40625 3.210938 8.40625 C 3.207031 8.40625 3.199219 8.410156 3.195312 8.410156 C 3.191406 8.410156 3.1875 8.414062 3.183594 8.414062 C 3.179688 8.414062 3.171875 8.417969 3.167969 8.421875 C 3.164062 8.421875 3.160156 8.421875 3.15625 8.425781 C 3.152344 8.425781 3.144531 8.429688 3.140625 8.433594 C 3.136719 8.433594 3.136719 8.4375 3.132812 8.4375 C 3.125 8.441406 3.121094 8.445312 3.117188 8.449219 C 3.113281 8.449219 3.109375 8.453125 3.105469 8.453125 C 3.101562 8.457031 3.097656 8.460938 3.09375 8.464844 C 3.085938 8.46875 3.082031 8.472656 3.078125 8.480469 C 3.074219 8.480469 3.074219 8.484375 3.070312 8.484375 L 2.671875 8.886719 C 2.664062 8.890625 2.65625 8.898438 2.648438 8.90625 C 2.648438 8.910156 2.644531 8.914062 2.644531 8.914062 C 2.640625 8.921875 2.636719 8.925781 2.632812 8.929688 C 2.628906 8.933594 2.628906 8.9375 2.625 8.941406 C 2.621094 8.945312 2.621094 8.953125 2.617188 8.957031 C 2.617188 8.960938 2.613281 8.964844 2.613281 8.96875 C 2.609375 8.972656 2.605469 8.976562 2.605469 8.984375 C 2.601562 8.988281 2.601562 8.992188 2.601562 8.996094 C 2.597656 9 2.597656 9.003906 2.59375 9.011719 C 2.59375 9.015625 2.59375 9.019531 2.59375 9.019531 C 2.589844 9.027344 2.589844 9.035156 2.585938 9.039062 C 2.585938 9.042969 2.585938 9.046875 2.585938 9.050781 C 2.585938 9.054688 2.582031 9.0625 2.582031 9.070312 C 2.582031 9.074219 2.582031 9.078125 2.582031 9.082031 C 2.582031 9.089844 2.582031 9.09375 2.582031 9.097656 L 2.582031 10.699219 C 2.582031 10.703125 2.582031 10.703125 2.582031 10.707031 C 2.582031 10.714844 2.582031 10.722656 2.582031 10.730469 C 2.582031 10.734375 2.585938 10.738281 2.585938 10.746094 C 2.585938 10.75 2.585938 10.753906 2.585938 10.757812 C 2.589844 10.765625 2.589844 10.769531 2.59375 10.777344 C 2.59375 10.78125 2.59375 10.785156 2.59375 10.789062 C 2.597656 10.792969 2.597656 10.796875 2.601562 10.804688 C 2.601562 10.808594 2.601562 10.8125 2.605469 10.816406 C 2.605469 10.820312 2.609375 10.824219 2.613281 10.832031 C 2.613281 10.835938 2.617188 10.839844 2.617188 10.84375 C 2.621094 10.847656 2.625 10.851562 2.625 10.855469 C 2.628906 10.859375 2.628906 10.863281 2.632812 10.867188 C 2.636719 10.871094 2.640625 10.878906 2.644531 10.882812 C 2.644531 10.886719 2.648438 10.886719 2.648438 10.890625 C 2.65625 10.898438 2.664062 10.90625 2.671875 10.914062 L 3.070312 11.3125 C 3.078125 11.320312 3.085938 11.328125 3.09375 11.335938 C 3.09375 11.335938 3.097656 11.339844 3.101562 11.339844 C 3.105469 11.34375 3.109375 11.347656 3.117188 11.351562 C 3.121094 11.355469 3.125 11.355469 3.128906 11.359375 C 3.132812 11.359375 3.136719 11.363281 3.140625 11.367188 C 3.144531 11.367188 3.148438 11.371094 3.152344 11.371094 C 3.160156 11.375 3.164062 11.378906 3.167969 11.378906 C 3.171875 11.382812 3.175781 11.382812 3.179688 11.382812 C 3.1875 11.386719 3.191406 11.386719 3.195312 11.390625 C 3.199219 11.390625 3.203125 11.390625 3.207031 11.390625 C 3.214844 11.394531 3.21875 11.394531 3.226562 11.394531 C 3.230469 11.398438 3.234375 11.398438 3.238281 11.398438 C 3.246094 11.398438 3.25 11.398438 3.253906 11.402344 C 3.261719 11.402344 3.273438 11.402344 3.28125 11.402344 L 4.085938 11.402344 C 4.085938 11.402344 4.089844 11.402344 4.09375 11.402344 C 4.101562 11.402344 4.105469 11.402344 4.113281 11.402344 C 4.121094 11.398438 4.125 11.398438 4.128906 11.398438 C 4.132812 11.398438 4.136719 11.398438 4.140625 11.394531 C 4.148438 11.394531 4.152344 11.394531 4.160156 11.390625 C 4.164062 11.390625 4.167969 11.390625 4.171875 11.390625 C 4.175781 11.386719 4.183594 11.386719 4.1875 11.382812 C 4.191406 11.382812 4.195312 11.382812 4.199219 11.378906 C 4.203125 11.378906 4.210938 11.375 4.214844 11.371094 C 4.21875 11.371094 4.222656 11.367188 4.226562 11.367188 C 4.230469 11.363281 4.234375 11.359375 4.238281 11.359375 C 4.242188 11.355469 4.246094 11.355469 4.25 11.351562 C 4.257812 11.347656 4.261719 11.34375 4.265625 11.339844 C 4.269531 11.335938 4.273438 11.335938 4.273438 11.332031 C 4.28125 11.328125 4.289062 11.320312 4.296875 11.3125 L 4.695312 10.914062 C 4.816406 10.796875 4.816406 10.605469 4.695312 10.488281 C 4.578125 10.367188 4.390625 10.371094 4.269531 10.488281 Z M 4.269531 10.488281 "/>
<path style=" stroke:none;fill-rule:evenodd;fill:rgb(86.27451%,85.098039%,85.098039%);fill-opacity:1;" d="M 7.339844 9.46875 C 7.339844 9.464844 7.339844 9.457031 7.335938 9.453125 C 7.335938 9.449219 7.335938 9.445312 7.335938 9.441406 C 7.335938 9.433594 7.332031 9.429688 7.332031 9.421875 C 7.332031 9.417969 7.328125 9.414062 7.328125 9.410156 C 7.328125 9.40625 7.324219 9.402344 7.324219 9.394531 C 7.320312 9.390625 7.320312 9.386719 7.320312 9.382812 C 7.316406 9.378906 7.316406 9.375 7.3125 9.371094 C 7.308594 9.367188 7.308594 9.363281 7.304688 9.359375 C 7.304688 9.351562 7.300781 9.347656 7.296875 9.34375 C 7.296875 9.339844 7.292969 9.335938 7.292969 9.332031 C 7.289062 9.328125 7.285156 9.320312 7.28125 9.316406 C 7.277344 9.3125 7.277344 9.3125 7.273438 9.308594 C 7.265625 9.300781 7.261719 9.292969 7.253906 9.285156 L 6.453125 8.484375 C 6.335938 8.367188 6.144531 8.367188 6.027344 8.484375 L 5.226562 9.285156 C 5.21875 9.292969 5.210938 9.300781 5.207031 9.308594 C 5.203125 9.3125 5.203125 9.3125 5.199219 9.316406 C 5.195312 9.320312 5.191406 9.328125 5.1875 9.332031 C 5.183594 9.335938 5.183594 9.339844 5.179688 9.34375 C 5.179688 9.347656 5.175781 9.351562 5.171875 9.359375 C 5.171875 9.363281 5.167969 9.367188 5.167969 9.371094 C 5.164062 9.375 5.164062 9.378906 5.160156 9.382812 C 5.160156 9.386719 5.15625 9.390625 5.15625 9.394531 C 5.152344 9.402344 5.152344 9.40625 5.148438 9.410156 C 5.148438 9.414062 5.148438 9.417969 5.148438 9.421875 C 5.144531 9.429688 5.144531 9.433594 5.144531 9.441406 C 5.140625 9.445312 5.140625 9.449219 5.140625 9.453125 C 5.140625 9.457031 5.140625 9.464844 5.140625 9.46875 C 5.136719 9.476562 5.136719 9.480469 5.136719 9.488281 C 5.136719 9.492188 5.136719 9.496094 5.136719 9.5 L 5.136719 11.101562 C 5.136719 11.265625 5.273438 11.402344 5.4375 11.402344 C 5.605469 11.402344 5.742188 11.265625 5.742188 11.101562 L 5.742188 10.203125 L 6.738281 10.203125 L 6.738281 11.101562 C 6.738281 11.265625 6.875 11.402344 7.039062 11.402344 C 7.207031 11.402344 7.339844 11.265625 7.339844 11.101562 L 7.339844 9.5 C 7.339844 9.496094 7.339844 9.492188 7.339844 9.488281 C 7.339844 9.484375 7.339844 9.476562 7.339844 9.46875 Z M 6.238281 9.125 L 6.710938 9.597656 L 5.765625 9.597656 Z M 6.238281 9.125 "/>
<path style=" stroke:none;fill-rule:evenodd;fill:rgb(86.27451%,85.098039%,85.098039%);fill-opacity:1;" d="M 9.894531 9.070312 C 9.894531 9.0625 9.894531 9.058594 9.894531 9.050781 C 9.890625 9.046875 9.890625 9.042969 9.890625 9.039062 C 9.890625 9.035156 9.886719 9.027344 9.886719 9.023438 C 9.886719 9.019531 9.886719 9.015625 9.882812 9.011719 C 9.882812 9.007812 9.878906 9 9.878906 8.996094 C 9.878906 8.992188 9.875 8.988281 9.875 8.984375 C 9.871094 8.980469 9.871094 8.972656 9.867188 8.96875 C 9.867188 8.964844 9.863281 8.960938 9.863281 8.957031 C 9.859375 8.953125 9.855469 8.949219 9.851562 8.941406 C 9.851562 8.9375 9.847656 8.9375 9.847656 8.933594 C 9.84375 8.925781 9.839844 8.921875 9.835938 8.917969 C 9.832031 8.914062 9.832031 8.910156 9.828125 8.910156 C 9.824219 8.902344 9.816406 8.894531 9.808594 8.886719 L 9.410156 8.484375 C 9.40625 8.484375 9.402344 8.480469 9.402344 8.480469 C 9.398438 8.476562 9.390625 8.46875 9.386719 8.464844 C 9.382812 8.460938 9.378906 8.460938 9.371094 8.457031 C 9.371094 8.453125 9.367188 8.449219 9.363281 8.449219 C 9.359375 8.445312 9.351562 8.441406 9.347656 8.4375 C 9.34375 8.4375 9.339844 8.433594 9.335938 8.433594 C 9.332031 8.429688 9.328125 8.429688 9.320312 8.425781 C 9.316406 8.425781 9.316406 8.421875 9.3125 8.421875 C 9.304688 8.417969 9.300781 8.417969 9.292969 8.414062 C 9.292969 8.414062 9.289062 8.414062 9.285156 8.410156 C 9.277344 8.410156 9.273438 8.40625 9.265625 8.40625 C 9.261719 8.40625 9.257812 8.40625 9.253906 8.402344 C 9.246094 8.402344 9.238281 8.402344 9.234375 8.402344 C 9.230469 8.398438 9.226562 8.398438 9.226562 8.398438 C 9.214844 8.398438 9.203125 8.398438 9.195312 8.398438 L 7.996094 8.398438 C 7.828125 8.398438 7.691406 8.53125 7.691406 8.699219 L 7.691406 11.101562 C 7.691406 11.269531 7.828125 11.402344 7.996094 11.402344 C 8.160156 11.402344 8.296875 11.269531 8.296875 11.101562 L 8.296875 10.601562 L 8.671875 10.601562 L 9.382812 11.316406 C 9.5 11.433594 9.691406 11.433594 9.808594 11.316406 C 9.925781 11.199219 9.925781 11.007812 9.808594 10.886719 L 9.421875 10.5 C 9.445312 10.476562 9.808594 10.113281 9.808594 10.113281 C 9.8125 10.113281 9.8125 10.109375 9.8125 10.109375 C 9.820312 10.105469 9.824219 10.097656 9.828125 10.09375 C 9.832031 10.089844 9.835938 10.085938 9.839844 10.078125 C 9.839844 10.074219 9.84375 10.074219 9.847656 10.066406 C 9.847656 10.0625 9.851562 10.058594 9.855469 10.054688 C 9.855469 10.050781 9.859375 10.046875 9.863281 10.042969 C 9.863281 10.039062 9.867188 10.035156 9.867188 10.027344 C 9.871094 10.023438 9.871094 10.019531 9.875 10.015625 C 9.875 10.011719 9.878906 10.007812 9.878906 10.003906 C 9.882812 9.996094 9.882812 9.992188 9.882812 9.988281 C 9.886719 9.984375 9.886719 9.980469 9.886719 9.976562 C 9.890625 9.96875 9.890625 9.964844 9.890625 9.960938 C 9.890625 9.953125 9.894531 9.949219 9.894531 9.945312 C 9.894531 9.941406 9.894531 9.933594 9.894531 9.929688 C 9.898438 9.921875 9.898438 9.914062 9.898438 9.90625 C 9.898438 9.902344 9.898438 9.902344 9.898438 9.898438 L 9.898438 9.097656 C 9.898438 9.09375 9.898438 9.089844 9.898438 9.085938 C 9.894531 9.078125 9.894531 9.074219 9.894531 9.070312 Z M 8.296875 9 L 9.070312 9 L 9.292969 9.222656 L 9.292969 9.773438 L 9.070312 10 L 8.296875 10 Z M 8.296875 9 "/>
<path style=" stroke:none;fill-rule:evenodd;fill:rgb(86.27451%,85.098039%,85.098039%);fill-opacity:1;" d="M 12.433594 10.867188 C 12.433594 10.863281 12.4375 10.859375 12.4375 10.855469 C 12.441406 10.851562 12.445312 10.847656 12.445312 10.84375 C 12.449219 10.839844 12.449219 10.835938 12.453125 10.832031 C 12.457031 10.824219 12.457031 10.820312 12.460938 10.816406 C 12.460938 10.8125 12.460938 10.808594 12.464844 10.804688 C 12.464844 10.796875 12.46875 10.792969 12.46875 10.789062 C 12.472656 10.785156 12.472656 10.78125 12.472656 10.777344 C 12.472656 10.769531 12.476562 10.765625 12.476562 10.757812 C 12.476562 10.753906 12.476562 10.75 12.480469 10.746094 C 12.480469 10.742188 12.480469 10.734375 12.480469 10.730469 C 12.480469 10.722656 12.480469 10.714844 12.484375 10.707031 C 12.484375 10.703125 12.484375 10.703125 12.484375 10.699219 L 12.484375 9.097656 C 12.484375 9.09375 12.480469 9.089844 12.480469 9.085938 C 12.480469 9.078125 12.480469 9.074219 12.480469 9.070312 C 12.480469 9.0625 12.480469 9.058594 12.480469 9.050781 C 12.476562 9.046875 12.476562 9.042969 12.476562 9.039062 C 12.476562 9.035156 12.472656 9.027344 12.472656 9.023438 C 12.472656 9.019531 12.472656 9.015625 12.46875 9.011719 C 12.46875 9.007812 12.464844 9 12.464844 8.996094 C 12.460938 8.992188 12.460938 8.988281 12.460938 8.984375 C 12.457031 8.980469 12.457031 8.972656 12.453125 8.96875 C 12.449219 8.964844 12.449219 8.960938 12.449219 8.957031 C 12.445312 8.953125 12.441406 8.949219 12.4375 8.941406 C 12.4375 8.9375 12.433594 8.933594 12.433594 8.933594 C 12.429688 8.925781 12.425781 8.921875 12.421875 8.914062 C 12.417969 8.914062 12.417969 8.910156 12.414062 8.910156 C 12.40625 8.902344 12.402344 8.894531 12.394531 8.886719 L 11.996094 8.484375 C 11.988281 8.480469 11.980469 8.472656 11.976562 8.46875 C 11.972656 8.46875 11.972656 8.464844 11.972656 8.464844 C 11.964844 8.460938 11.960938 8.457031 11.953125 8.453125 L 11.949219 8.449219 C 11.941406 8.445312 11.9375 8.441406 11.929688 8.4375 L 11.925781 8.433594 C 11.917969 8.429688 11.910156 8.425781 11.90625 8.425781 C 11.902344 8.421875 11.898438 8.421875 11.898438 8.421875 C 11.890625 8.417969 11.886719 8.417969 11.878906 8.414062 C 11.875 8.414062 11.871094 8.410156 11.871094 8.410156 C 11.863281 8.410156 11.855469 8.40625 11.851562 8.40625 C 11.847656 8.40625 11.84375 8.402344 11.839844 8.402344 C 11.832031 8.402344 11.824219 8.402344 11.816406 8.398438 L 11.8125 8.398438 C 11.800781 8.398438 11.792969 8.398438 11.78125 8.398438 L 10.582031 8.398438 C 10.414062 8.398438 10.277344 8.53125 10.277344 8.699219 L 10.277344 11.101562 C 10.277344 11.265625 10.414062 11.402344 10.582031 11.402344 L 11.78125 11.402344 C 11.792969 11.402344 11.800781 11.402344 11.8125 11.402344 C 11.816406 11.402344 11.820312 11.398438 11.824219 11.398438 C 11.828125 11.398438 11.835938 11.398438 11.839844 11.398438 C 11.84375 11.394531 11.851562 11.394531 11.855469 11.394531 C 11.859375 11.390625 11.863281 11.390625 11.871094 11.390625 C 11.875 11.386719 11.878906 11.386719 11.882812 11.386719 C 11.886719 11.382812 11.894531 11.382812 11.898438 11.378906 C 11.902344 11.378906 11.90625 11.375 11.910156 11.375 C 11.914062 11.371094 11.917969 11.371094 11.925781 11.367188 C 11.929688 11.363281 11.929688 11.363281 11.933594 11.359375 C 11.941406 11.359375 11.945312 11.355469 11.949219 11.351562 C 11.953125 11.347656 11.957031 11.347656 11.960938 11.34375 C 11.964844 11.339844 11.96875 11.335938 11.972656 11.335938 C 11.980469 11.328125 11.984375 11.324219 11.988281 11.320312 C 11.992188 11.316406 11.992188 11.316406 11.996094 11.316406 L 12.394531 10.914062 C 12.402344 10.90625 12.410156 10.898438 12.414062 10.890625 C 12.417969 10.890625 12.417969 10.886719 12.421875 10.882812 C 12.425781 10.878906 12.429688 10.875 12.433594 10.867188 Z M 10.882812 10.800781 L 10.882812 9 L 11.65625 9 C 11.734375 9.078125 11.800781 9.148438 11.878906 9.222656 L 11.878906 10.574219 L 11.65625 10.800781 Z M 10.882812 10.800781 "/>
<path style=" stroke:none;fill-rule:evenodd;fill:rgb(86.27451%,85.098039%,85.098039%);fill-opacity:1;" d="M 12.730469 11.875 L 12.859375 11.746094 L 12.894531 11.78125 L 12.851562 11.824219 L 12.953125 11.925781 L 12.910156 11.96875 L 12.808594 11.867188 L 12.765625 11.910156 Z M 12.730469 11.875 "/>
<path style=" stroke:none;fill-rule:evenodd;fill:rgb(86.27451%,85.098039%,85.098039%);fill-opacity:1;" d="M 12.878906 11.726562 L 12.933594 11.671875 L 13.039062 11.734375 L 12.976562 11.628906 L 13.03125 11.574219 L 13.167969 11.710938 L 13.132812 11.746094 L 13.03125 11.640625 L 13.109375 11.773438 L 13.078125 11.804688 L 12.945312 11.726562 L 13.050781 11.828125 L 13.015625 11.863281 Z M 12.878906 11.726562 "/>
<path style=" stroke:none;fill-rule:evenodd;fill:rgb(86.27451%,85.098039%,85.098039%);fill-opacity:1;" d="M 12.347656 4.457031 L 12.984375 5.09375 L 12.984375 11.214844 L 12.347656 11.851562 L 2.652344 11.851562 L 2.015625 11.214844 L 2.015625 5.09375 L 2.652344 4.457031 L 12.347656 4.457031 M 12.347656 4.246094 L 2.652344 4.246094 C 2.597656 4.246094 2.542969 4.269531 2.503906 4.308594 L 1.867188 4.945312 C 1.828125 4.984375 1.808594 5.039062 1.808594 5.09375 L 1.808594 11.214844 C 1.808594 11.273438 1.828125 11.324219 1.867188 11.363281 L 2.503906 12 C 2.542969 12.039062 2.597656 12.0625 2.652344 12.0625 L 12.347656 12.0625 C 12.402344 12.0625 12.457031 12.039062 12.496094 12 L 13.132812 11.363281 C 13.171875 11.324219 13.191406 11.273438 13.191406 11.214844 L 13.191406 5.09375 C 13.191406 5.039062 13.171875 4.984375 13.132812 4.945312 L 12.496094 4.308594 C 12.457031 4.269531 12.402344 4.246094 12.347656 4.246094 Z M 12.347656 4.246094 "/>
</g>
</svg>
