<?xml version="1.0" encoding="UTF-8" standalone="no"?>
<!DOCTYPE svg PUBLIC "-//W3C//DTD SVG 1.1//EN" "http://www.w3.org/Graphics/SVG/1.1/DTD/svg11.dtd">
<!-- Created with Vectornator (http://vectornator.io/) -->
<svg height="50.0pt" stroke-miterlimit="10" style="fill-rule:nonzero;clip-rule:evenodd;stroke-linecap:round;stroke-linejoin:round;" version="1.1" viewBox="0 0 50 50" width="50.0pt" xml:space="preserve" xmlns="http://www.w3.org/2000/svg" xmlns:xlink="http://www.w3.org/1999/xlink">
<defs/>
<g id="Untitled">
<path d="M14.135 33.3822C14.1477 32.6145 14.1656 32.2455 14.2094 31.8511C14.2268 31.6939 14.2451 31.5249 14.2499 31.4755L14.2587 31.3857L14.1264 31.3296C13.355 31.0028 12.5056 30.5729 11.9258 30.216C9.9576 29.0045 8.75417 27.5858 8.36719 26.021C8.28003 25.6685 8.25167 25.4179 8.25167 25.0003C8.25167 24.4263 8.30381 24.1334 8.50429 23.5812C8.60594 23.3012 8.79653 22.8849 8.93221 22.6465C9.52114 21.6115 10.4419 20.7313 11.8042 19.9011C12.2193 19.6481 12.4616 19.5155 13.2006 19.1372C13.914 18.7719 14.1144 18.6568 14.183 18.5729C14.2312 18.514 14.2331 18.4801 14.2014 18.2544C14.1435 17.842 14.1046 16.6531 14.1188 15.7243C14.1298 14.999 14.1447 14.7579 14.2018 14.377C14.4006 13.0518 14.818 11.9517 15.4285 11.1434C15.5756 10.9487 15.8851 10.6247 16.0729 10.4688C16.679 9.96573 17.3635 9.67049 18.2073 9.5481C18.5146 9.50354 19.1902 9.50826 19.5477 9.55745C20.7624 9.72463 21.9261 10.1825 23.233 11.0075C23.9061 11.4323 24.6222 11.9423 24.7806 12.1095C24.85 12.1828 24.8612 12.1886 24.9332 12.1886C25.0308 12.1886 25.1803 12.1139 25.3489 11.9808C26.0227 11.449 26.4079 11.1847 27.0385 10.8217C27.8922 10.3302 28.9129 9.88432 29.5525 9.7236C30.2389 9.55111 31.3559 9.47899 31.95 9.56881C32.8768 9.70896 33.828 10.284 34.5005 11.1108C35.2601 12.0446 35.6909 13.2541 35.8471 14.8914C35.8864 15.3036 35.8948 16.3973 35.8632 16.9981C35.8312 17.6049 35.7946 18.1488 35.7741 18.3205C35.7548 18.4824 35.7545 18.6401 35.7734 18.6709C35.7813 18.6837 35.8246 18.7039 35.8696 18.7158C36.277 18.8231 37.9131 19.7023 38.6672 20.2192C40.0246 21.1496 40.9873 22.2676 41.4475 23.4478C41.5868 23.805 41.6748 24.148 41.7285 24.543C41.7584 24.7624 41.7537 25.319 41.7201 25.5474C41.4213 27.5775 39.8103 29.3709 36.9972 30.8047C36.4835 31.0665 36.1754 31.2035 35.9407 31.2744L35.7416 31.3345L35.7501 31.4009C35.7547 31.4374 35.7764 31.6915 35.7982 31.9654C35.8432 32.5297 35.8694 33.1622 35.8695 33.6843L35.8697 34.0395L35.227 34.0395L34.5843 34.0395L34.5843 33.8231C34.5843 33.7041 34.5771 33.3973 34.5683 33.1413C34.5332 32.1194 34.4788 31.8675 34.2935 31.8675C34.274 31.8675 34.207 31.8926 34.1446 31.9234C33.9902 31.9996 33.7535 32.076 33.3386 32.1835C32.3457 32.441 31.3441 32.6504 29.9235 32.8976L29.4283 32.9838L29.0636 33.4586C28.863 33.7197 28.6788 33.9574 28.6542 33.9869L28.6096 34.0405L27.7553 34.0359L26.901 34.0313L27.0543 33.8598C27.3897 33.4846 27.5517 33.2802 27.5309 33.2587C27.5108 33.2379 26.7339 33.2265 25.2374 33.2251C23.6852 33.2235 22.4974 33.2435 22.4701 33.2717C22.4475 33.2949 22.5297 33.4101 22.7624 33.681C22.8712 33.8076 22.9843 33.9401 23.0138 33.9753L23.0674 34.0395L22.225 34.0395L21.3826 34.0395L20.9715 33.5121L20.5604 32.9847L19.9671 32.8825C18.4564 32.6223 17.5123 32.416 16.3264 32.0871C15.9555 31.9843 15.6345 31.9001 15.613 31.9001C15.521 31.9001 15.4907 32.0687 15.4069 33.0461C15.3845 33.3074 15.3668 33.6304 15.3668 33.7769L15.3668 34.0395L14.7455 34.0395L14.1242 34.0395L14.135 33.3822ZM26.983 31.836C28.1052 31.7905 28.498 31.7501 28.6764 31.6617C28.7272 31.6365 28.7945 31.581 28.851 31.5175C28.9529 31.403 29.5456 30.571 29.6894 30.3405C29.7399 30.2597 29.8574 30.0723 29.9507 29.9241C30.3702 29.2574 30.8793 28.3438 31.3974 27.3282C31.6333 26.8659 32.5054 25.0631 32.5054 25.0379C32.5054 25.0036 32.0941 24.1014 31.8368 23.5713C31.2928 22.4503 30.6458 21.2757 29.9616 20.1663C29.5014 19.4202 28.9862 18.6635 28.8037 18.4657C28.6805 18.3321 28.6049 18.2919 28.427 18.2654C28.0482 18.2091 26.762 18.179 24.7057 18.1785C22.8846 18.178 22.4116 18.1909 21.6773 18.2609L21.2196 18.3046L20.7202 19.0803C19.7736 20.5505 19.3413 21.2617 18.9562 21.9823C18.3905 23.0405 17.6315 24.6453 17.5547 24.9452C17.5369 25.0144 17.539 25.0314 17.5795 25.1493C17.7827 25.74 18.7486 27.6925 19.4327 28.8952C20.3069 30.4322 21.0128 31.5167 21.2279 31.6536C21.2884 31.6921 21.452 31.7149 22.1119 31.777C22.5189 31.8153 22.9636 31.8443 23.341 31.8573C23.6827 31.8691 26.5862 31.8521 26.983 31.836ZM19.3499 31.3532C19.3499 31.2986 19.2257 31.0561 19.0561 30.7794C18.149 29.3 17.8348 28.7422 17.2956 27.6541C16.9567 26.97 16.883 26.8383 16.8391 26.8378C16.7622 26.837 16.4775 27.6577 16.1678 28.7727C15.9315 29.6235 15.7889 30.2639 15.7983 30.4328L15.8032 30.5201L15.8904 30.5556C16.3549 30.7446 18.9531 31.3856 19.2825 31.3924C19.3441 31.3937 19.3499 31.3904 19.3499 31.3532ZM30.8944 31.3606C31.8379 31.192 34.0408 30.5777 34.1391 30.4558C34.1665 30.4219 34.0966 30.0621 33.9317 29.3883C33.5741 27.9269 33.2918 26.9391 33.1955 26.8121C33.1717 26.7807 33.1711 26.7807 33.1469 26.813C33.1006 26.8748 32.9459 27.1566 32.7793 27.4826C32.6875 27.6622 32.5373 27.9562 32.4456 28.1358C32.0399 28.93 31.6072 29.6906 30.9536 30.7583C30.7664 31.064 30.6329 31.3164 30.6329 31.3645C30.6329 31.4025 30.6619 31.4021 30.8944 31.3606ZM35.8266 29.8816C36.0684 29.7831 36.9044 29.3543 37.2405 29.1563C38.0671 28.6695 38.6764 28.1979 39.2266 27.619C39.6228 27.2021 39.9108 26.7993 40.1064 26.3884C40.3302 25.9182 40.4242 25.4977 40.424 24.968C40.4238 24.5787 40.3674 24.2769 40.2277 23.9193C39.7021 22.5734 38.2826 21.3124 36.1315 20.2803C35.7492 20.0969 35.5256 19.9948 35.5062 19.9948C35.472 19.9948 35.4293 20.1461 35.3053 20.7052C35.106 21.6042 34.6055 23.1916 34.086 24.5725C34.0022 24.7954 33.9336 24.9878 33.9336 25C33.9336 25.0123 34.0683 25.3922 34.233 25.8442C34.7398 27.2354 35.0297 28.1562 35.2501 29.0749C35.3978 29.6904 35.422 29.7847 35.4574 29.8811L35.4925 29.9769L35.5627 29.9687C35.6013 29.9643 35.72 29.9251 35.8266 29.8816ZM14.4584 29.92C14.5225 29.8495 14.5768 29.6856 14.7164 29.1402C15.0168 27.967 15.4618 26.5762 15.8972 25.4495L16.0644 25.0169L15.812 24.3227C15.2555 22.7919 14.8354 21.4233 14.6366 20.4929C14.5782 20.2197 14.5343 20.0621 14.5049 20.0208C14.4844 19.9919 14.4796 19.9917 14.4053 20.0171C14.128 20.112 12.5918 20.9462 12.1063 21.2655C11.3303 21.7759 10.3986 22.7277 9.98182 23.4359C9.87892 23.6108 9.72115 23.9653 9.67809 24.1184C9.58123 24.4628 9.58087 25.5531 9.67751 25.8962C9.72934 26.0803 9.87635 26.4101 9.99314 26.6043C10.3825 27.2518 11.1744 28.0844 11.9311 28.642C12.241 28.8703 12.8241 29.209 13.5589 29.5874C14.0656 29.8484 14.3025 29.9541 14.3841 29.9559C14.4068 29.9564 14.4398 29.9404 14.4584 29.92ZM33.236 23.0528C33.4442 22.5383 33.8527 21.1987 34.039 20.4194C34.0873 20.2173 34.1518 19.957 34.1823 19.8408C34.2256 19.6755 34.2341 19.6216 34.2212 19.5924C34.1685 19.4736 33.8324 19.3564 32.7355 19.0743C31.4959 18.7554 30.6882 18.5886 30.6186 18.637C30.5889 18.6576 30.6491 18.7692 30.9063 19.1706C31.3858 19.9189 32.1942 21.3629 32.7117 22.3955C33.024 23.0186 33.117 23.1794 33.165 23.1794C33.1759 23.1794 33.2079 23.1224 33.236 23.0528ZM17.0853 22.7384C17.7643 21.4015 18.5765 19.9626 19.1595 19.064C19.3844 18.7174 19.4055 18.6771 19.3796 18.645C19.3236 18.5755 18.7645 18.6789 17.5964 18.9747C16.4546 19.2638 15.8847 19.4571 15.7923 19.5866C15.7634 19.6271 15.7647 19.6337 15.9363 20.3297C16.2666 21.6684 16.6353 22.8941 16.773 23.1109C16.7901 23.1379 16.8091 23.1472 16.8395 23.1436C16.8778 23.1391 16.9028 23.0978 17.0853 22.7384ZM15.8036 18.0853C15.9081 18.0589 16.1221 17.9997 16.2792 17.9535C17.3827 17.6294 18.5676 17.3723 19.9986 17.1463C20.3074 17.0975 20.5651 17.0515 20.5714 17.0442C20.5776 17.0368 20.6458 16.9395 20.7229 16.8281C21.163 16.1916 21.8391 15.395 22.8794 14.2871C23.4663 13.662 23.7751 13.3033 23.8509 13.1585L23.8795 13.1038L23.8255 13.0465C23.6642 12.8753 22.5306 12.1247 21.8806 11.7588C21.327 11.4472 20.6158 11.1553 20.064 11.0134C19.6752 10.9133 19.2071 10.8365 18.8956 10.8215C18.6812 10.8112 18.442 10.8386 18.128 10.9093C17.1438 11.1312 16.2495 11.9892 15.851 13.0941C15.5602 13.9002 15.3488 15.2532 15.375 16.1407C15.4012 17.0299 15.4824 18.0319 15.5355 18.1202C15.5487 18.1423 15.6072 18.1347 15.8036 18.0853ZM34.4885 18.0852C34.4975 18.0678 34.505 18.0109 34.505 17.9586C34.5051 17.9064 34.5234 17.6138 34.5458 17.3084C34.634 16.1026 34.5757 14.8806 34.3856 13.9524C34.2825 13.4494 33.9532 12.6452 33.6296 12.1064C33.4198 11.757 33.0106 11.4091 32.5054 11.1505C32.3009 11.0459 32.1408 10.9931 31.8402 10.9314C31.5332 10.8683 31.3514 10.8495 31.0499 10.8495C30.5231 10.8495 29.9486 10.9633 29.3511 11.1862C28.3626 11.5548 27.0012 12.3515 26.2054 13.0272C26.1312 13.0901 26.0677 13.1439 26.0642 13.1466C26.0608 13.1493 26.2327 13.3372 26.4464 13.5642C27.8106 15.0135 28.3135 15.5886 29.0213 16.5082C29.2286 16.7776 29.4105 17.0112 29.4254 17.0272C29.4466 17.05 29.5743 17.0755 30.0157 17.1454C30.6347 17.2433 31.0921 17.3272 31.6247 17.4407C32.2953 17.5836 32.5409 17.6448 33.9098 18.0101C34.3382 18.1244 34.4599 18.1402 34.4885 18.0852ZM23.8329 16.769C25.5257 16.7282 25.9527 16.7241 26.4831 16.7433C27.5677 16.7828 27.6019 16.7834 27.6019 16.765C27.6019 16.7446 27.4273 16.5568 26.3328 15.3994C25.6043 14.629 25.0322 14.0503 24.999 14.0503C24.9271 14.0503 23.7826 15.2097 23.0914 15.9827C22.8848 16.2138 22.3968 16.788 22.3968 16.8C22.3968 16.8045 22.4985 16.8047 22.6229 16.8004C22.7473 16.7962 23.2918 16.7821 23.8329 16.769L23.8329 16.769Z" fill="#d6d2d2" fill-rule="nonzero" opacity="1" stroke="none"/>
<path d="M23.587 29.3525L23.587 28.6176L22.7082 28.6176L21.8295 28.6176L21.9074 28.2226C21.9502 28.0054 21.9939 27.8095 22.0046 27.7872C22.0372 27.7189 22.0985 27.6855 22.2235 27.668C22.7291 27.5972 22.8638 27.5647 22.8793 27.5096C22.9615 27.2185 23.0601 23.9323 23.001 23.4547C22.9594 23.1191 22.8678 22.976 22.6586 22.9201C22.6237 22.9107 22.4595 22.888 22.2936 22.8696C22.1278 22.8511 21.9582 22.8318 21.9167 22.8265L21.8414 22.817L21.8414 22.4348L21.8414 22.0525L21.9088 22.0522C22.137 22.0512 23.6083 22.0033 23.6148 21.9966C23.6225 21.9887 23.6644 20.9149 23.6657 20.6929L23.6663 20.5827L24.0626 20.5827L24.459 20.5827L24.452 20.6276C24.4408 20.7003 24.4069 21.9872 24.416 21.9965C24.4289 22.0098 24.9643 21.9562 25.0685 21.9312C25.1196 21.919 25.1716 21.8985 25.184 21.8857C25.2377 21.8305 25.2467 21.4614 25.2111 20.7746L25.2011 20.5827L25.6171 20.5827L26.033 20.5827L26.0241 20.7093C26.0085 20.9301 25.9789 21.9881 25.988 21.9976C25.9929 22.0025 26.0955 22.0208 26.2161 22.0381C26.8004 22.1221 27.1356 22.2272 27.4383 22.4214C27.7006 22.5896 27.96 22.9078 28.0336 23.1514C28.0651 23.2554 28.0692 23.3043 28.0693 23.5713C28.0694 24.187 27.9632 24.4316 27.5452 24.7785C27.4323 24.8721 27.3382 24.953 27.336 24.9583C27.3338 24.9635 27.4023 24.9923 27.4883 25.0222C28.0989 25.235 28.432 25.5544 28.5536 26.0439C28.6293 26.3484 28.5667 27.0083 28.4244 27.406C28.2553 27.8784 27.5994 28.3141 26.8192 28.4722C26.774 28.4813 26.5706 28.5095 26.3673 28.5348C26.164 28.5601 25.9937 28.585 25.9888 28.59C25.9806 28.5985 25.9376 29.6721 25.9362 29.9036L25.9356 30.0057L25.5468 30.0057L25.158 30.0057L25.158 29.3116L25.158 28.6175L24.7613 28.6175L24.3645 28.6175L24.3645 29.3524L24.3645 30.0873L23.9757 30.0873L23.5869 30.0873L23.587 29.3525ZM25.3167 27.5551C26.221 27.5003 26.6666 27.3189 26.8456 26.9328C26.9393 26.7306 26.972 26.5941 26.964 26.4378C26.958 26.319 26.9502 26.2902 26.9026 26.2082C26.7496 25.945 26.4612 25.7334 26.126 25.6386C25.8918 25.5723 25.3836 25.5312 24.797 25.5311L24.3646 25.531L24.3646 26.5623L24.3646 27.5935L24.7097 27.5823C24.8995 27.5761 25.1727 27.5639 25.3167 27.5551ZM25.3405 24.8213C25.9612 24.7681 26.2515 24.5586 26.3808 24.0707C26.4435 23.8339 26.3993 23.6679 26.2076 23.4202C26.0968 23.2769 26.0167 23.2109 25.8981 23.1653C25.7813 23.1203 25.4845 23.0544 25.2532 23.0222C25.0014 22.9871 24.5062 22.9817 24.4334 23.0133L24.3833 23.0351L24.3718 23.209C24.361 23.3712 24.3671 23.8018 24.3906 24.543L24.4005 24.8533L24.807 24.8428C25.0306 24.837 25.2707 24.8273 25.3405 24.8213Z" fill="#d6d2d2" fill-rule="nonzero" opacity="1" stroke="none"/>
<path d="M18.3085 40.4741C17.4842 40.4023 16.8414 40.1508 16.256 39.671C15.5471 39.09 15.0476 38.4248 14.7106 37.6127C14.482 37.062 14.2441 36.1666 14.2004 35.6923C14.177 35.4382 14.1385 34.7459 14.1303 34.3022L14.1251 34.0179C14.4768 34.102 15.3671 33.7791 15.3655 34.0481C15.3642 34.241 15.4337 35.0504 15.4792 35.3949C15.588 36.2176 15.7202 36.6779 16.0328 37.3227C16.2825 37.8376 16.5346 38.1893 16.8484 38.4603C17.7813 39.2659 19.0133 39.3922 20.5736 38.8422C21.3752 38.5596 22.1979 38.1212 23.1664 37.4604C23.6716 37.1158 23.8567 36.9715 23.8567 36.9225C23.8567 36.8393 23.5601 36.4783 22.9438 35.8114C22.3793 35.2006 21.4308 34.1257 21.3827 34.0388C21.9338 34.0297 22.5081 34.0388 23.0655 34.0373L23.1757 34.1497C24.0065 34.9975 24.8029 35.8444 24.9569 35.928C25.0002 35.9515 25.0045 35.95 25.0895 35.8826C25.2536 35.7523 25.9695 35.0235 26.7523 34.1899L26.9019 34.03C27.4819 34.0337 28.0432 34.018 28.6127 34.0344C28.6073 34.0623 27.8431 34.954 27.2639 35.5801C26.8754 36.0001 26.3158 36.6274 26.2105 36.7631C26.1148 36.8865 26.0972 36.9372 26.1351 36.9803C26.2091 37.0646 26.9853 37.5954 27.48 37.9003C28.0671 38.262 28.4301 38.4508 28.9587 38.6694C31.0611 39.5388 32.619 39.2947 33.603 37.9415C33.9175 37.5089 34.1299 37.0582 34.2905 36.4825C34.4534 35.8985 34.5343 35.3202 34.5711 34.4763L34.5836 34.0192L35.2291 34.0139L35.8694 34.0166L35.8616 34.2804C35.8253 35.5067 35.7777 35.8685 35.6373 36.4452C35.1417 38.4819 34.0981 39.7829 32.5451 40.3001C32.0835 40.4538 31.8848 40.4808 31.2121 40.4812C30.1712 40.482 29.5927 40.376 28.7206 40.025C27.5054 39.5358 26.0571 38.6609 25.3574 37.9935C25.1396 37.7857 25.0861 37.7525 25.0106 37.7781C24.9826 37.7877 24.8311 37.8955 24.674 38.0178C23.9937 38.5473 22.7751 39.3221 22.127 39.6373C21.0558 40.1582 20.3624 40.3727 19.4769 40.4571C19.2284 40.4807 18.5058 40.4913 18.3085 40.4741Z" fill="#d6d2d2" fill-rule="nonzero" opacity="1" stroke="none"/>
</g>
</svg>
