<?xml version="1.0" encoding="UTF-8" standalone="no"?>
<!DOCTYPE svg PUBLIC "-//W3C//DTD SVG 1.1//EN" "http://www.w3.org/Graphics/SVG/1.1/DTD/svg11.dtd">
<!-- Created with Vectornator (http://vectornator.io/) -->
<svg height="50.0px" stroke-miterlimit="10" style="fill-rule:nonzero;clip-rule:evenodd;stroke-linecap:round;stroke-linejoin:round;" version="1.1" viewBox="0 0 50 50" width="50.0px" xml:space="preserve" xmlns="http://www.w3.org/2000/svg" xmlns:xlink="http://www.w3.org/1999/xlink">
<defs/>
<g id="Layer-1">
<g opacity="1">
<path d="M8.98109 30.675L17.9463 30.675L17.9463 29.1771L10.7473 29.1771L10.7473 23.6996L16.2472 23.6996L16.2472 22.2017L10.7473 22.2017L10.7473 17.1713L17.8792 17.1713L17.8792 15.6734L8.98109 15.6734L8.98109 30.675Z" fill="#242424" fill-rule="nonzero" opacity="1" stroke="none"/>
<path d="M21.2552 30.675L23.0437 30.675L23.0437 24.661L26.1067 24.661C28.9684 24.661 30.8911 23.0512 30.8911 20.1001C30.8911 17.2831 29.259 15.6734 25.8831 15.6734L21.2552 15.6734L21.2552 30.675ZM23.0437 23.1854L23.0437 17.1713L25.7043 17.1713C28.1412 17.1713 28.9908 18.0879 28.9908 20.2119C28.9908 22.224 28.0741 23.1854 25.749 23.1854L23.0437 23.1854Z" fill="#242424" fill-rule="nonzero" opacity="1" stroke="none"/>
<path d="M36.8381 30.9433C40.3482 30.9433 41.8685 29.1995 41.8685 26.5837C41.8685 24.0573 40.46 23.1183 38.2466 22.3582L36.771 21.8887C35.0719 21.3074 34.5353 20.6814 34.5353 19.2505C34.5353 17.8197 35.5638 16.9254 37.3971 16.9254C39.0515 16.9254 40.2364 17.3502 41.1083 17.7526L41.1083 16.2547C40.2811 15.8522 39.2303 15.4274 37.4641 15.4274C34.3341 15.4274 32.7915 17.0819 32.7915 19.407C32.7915 21.6875 33.9764 22.7606 36.078 23.4537L37.5312 23.9679C39.3421 24.5492 40.0799 25.1752 40.0799 26.7178C40.0799 28.3499 39.0738 29.423 36.771 29.423C35.1837 29.423 33.7081 29.0206 32.5679 28.4393L32.5679 29.9372C33.574 30.4962 35.0048 30.9433 36.8381 30.9433Z" fill="#242424" fill-rule="nonzero" opacity="1" stroke="none"/>
</g>
</g>
</svg>
