<?xml version="1.0" encoding="UTF-8"?>
<svg xmlns="http://www.w3.org/2000/svg" xmlns:xlink="http://www.w3.org/1999/xlink" width="50px" height="50px" viewBox="0 0 50 50" version="1.1">
<g id="surface1">
<path style=" stroke:none;fill-rule:nonzero;fill:rgb(83.92157%,82.352942%,82.352942%);fill-opacity:1;" d="M 23.738281 10.359375 L 25 11.621094 L 26.261719 10.359375 L 39.640625 23.738281 L 38.378906 25 L 39.640625 26.265625 L 26.261719 39.640625 L 25 38.378906 L 23.738281 39.640625 L 10.363281 26.265625 L 11.621094 25.003906 L 10.359375 23.742188 Z M 26.265625 42.167969 L 27.527344 43.429688 L 43.429688 27.527344 L 42.167969 26.265625 L 43.429688 25 L 42.167969 23.738281 L 43.429688 22.472656 L 27.527344 6.570312 L 26.265625 7.832031 L 25 6.570312 L 23.734375 7.835938 L 22.472656 6.574219 L 6.570312 22.476562 L 7.832031 23.742188 L 6.570312 25.003906 L 7.828125 26.265625 L 6.570312 27.523438 L 22.472656 43.429688 L 23.734375 42.167969 L 25 43.433594 Z M 26.265625 42.167969 "/>
<path style=" stroke:none;fill-rule:nonzero;fill:rgb(83.92157%,82.352942%,82.352942%);fill-opacity:1;" d="M 22.421875 29.46875 L 16.75 23.792969 L 14.566406 25.976562 L 20.714844 32.125 L 22.421875 33.835938 L 29.703125 26.554688 L 27.519531 24.371094 Z M 22.421875 29.46875 "/>
<path style=" stroke:none;fill-rule:nonzero;fill:rgb(83.92157%,82.352942%,82.352942%);fill-opacity:1;" d="M 25.597656 18.957031 L 19.921875 24.632812 L 22.105469 26.816406 L 27.78125 21.144531 L 32.875 26.238281 L 35.058594 24.054688 L 27.78125 16.773438 Z M 25.597656 18.957031 "/>
</g>
</svg>
