<?xml version="1.0" encoding="UTF-8"?>
<svg xmlns="http://www.w3.org/2000/svg" xmlns:xlink="http://www.w3.org/1999/xlink" width="15px" height="15px" viewBox="0 0 15 15" version="1.1">
<g id="surface1">
<path style=" stroke:none;fill-rule:nonzero;fill:rgb(11.372549%,11.372549%,10.588235%);fill-opacity:1;" d="M 7.121094 3.109375 L 7.5 3.488281 L 7.878906 3.109375 L 11.890625 7.121094 L 11.511719 7.5 L 11.890625 7.878906 L 7.878906 11.890625 L 7.5 11.511719 L 7.121094 11.890625 L 3.109375 7.878906 L 3.488281 7.5 L 3.109375 7.121094 Z M 7.878906 12.648438 L 8.257812 13.027344 L 13.03125 8.257812 L 12.648438 7.878906 L 13.03125 7.5 L 12.648438 7.121094 L 13.03125 6.742188 L 8.257812 1.972656 L 7.878906 2.351562 L 7.5 1.96875 L 7.121094 2.351562 L 6.742188 1.972656 L 1.972656 6.742188 L 2.351562 7.121094 L 1.96875 7.5 L 2.347656 7.878906 L 1.972656 8.257812 L 6.742188 13.027344 L 7.121094 12.648438 L 7.5 13.03125 Z M 7.878906 12.648438 "/>
<path style=" stroke:none;fill-rule:nonzero;fill:rgb(11.372549%,11.372549%,10.588235%);fill-opacity:1;" d="M 6.726562 8.839844 L 5.023438 7.136719 L 4.371094 7.792969 L 6.214844 9.636719 L 6.726562 10.152344 L 8.910156 7.96875 L 8.253906 7.3125 Z M 6.726562 8.839844 "/>
<path style=" stroke:none;fill-rule:nonzero;fill:rgb(11.372549%,11.372549%,10.588235%);fill-opacity:1;" d="M 7.679688 5.6875 L 5.976562 7.390625 L 6.632812 8.042969 L 8.335938 6.34375 L 9.863281 7.871094 L 10.519531 7.214844 L 8.335938 5.03125 Z M 7.679688 5.6875 "/>
</g>
</svg>
