<?xml version="1.0" encoding="UTF-8" standalone="no"?>
<!DOCTYPE svg PUBLIC "-//W3C//DTD SVG 1.1//EN" "http://www.w3.org/Graphics/SVG/1.1/DTD/svg11.dtd">
<!-- Created with Vectornator (http://vectornator.io/) -->
<svg height="50.0px" stroke-miterlimit="10" style="fill-rule:nonzero;clip-rule:evenodd;stroke-linecap:round;stroke-linejoin:round;" version="1.1" viewBox="0 0 50 50" width="50.0px" xml:space="preserve" xmlns="http://www.w3.org/2000/svg" xmlns:xlink="http://www.w3.org/1999/xlink">
<defs/>
<g id="Layer-1">
<g opacity="1">
<path d="M9.20149 12.1076L10.475 12.1076L10.475 20.1728L13.9525 16.8096L15.7647 16.8096L12.0749 20.2871L16.1402 24.4503L14.2627 24.4503L10.475 20.4341L10.475 24.4503L9.20149 24.4503L9.20149 12.1076Z" fill="#242424" fill-rule="nonzero" opacity="1" stroke="none"/>
<path d="M23.2821 23.0626C22.825 23.6504 22.3243 24.0612 21.7801 24.2952C21.2359 24.5293 20.6046 24.6463 19.8862 24.6463C19.2876 24.6463 18.7488 24.5401 18.2699 24.3279C17.791 24.1157 17.3856 23.8299 17.0536 23.4708C16.7216 23.1116 16.4658 22.6871 16.2862 22.1973C16.1067 21.7075 16.0169 21.1851 16.0169 20.63C16.0169 20.0422 16.1148 19.5007 16.3107 19.0055C16.5066 18.5103 16.7788 18.0858 17.1271 17.732C17.4753 17.3783 17.8889 17.1035 18.3679 16.9076C18.8468 16.7116 19.3692 16.6137 19.9352 16.6137C20.4685 16.6137 20.9583 16.7035 21.4046 16.8831C21.8508 17.0627 22.2345 17.3239 22.5556 17.6667C22.8767 18.0096 23.1243 18.4286 23.2984 18.9239C23.4726 19.4191 23.5596 19.9824 23.5596 20.6136L23.5596 21.0218L17.3883 21.0218C17.41 21.3483 17.489 21.6613 17.625 21.9606C17.7611 22.2599 17.9379 22.5211 18.1556 22.7442C18.3733 22.9674 18.6291 23.1442 18.923 23.2748C19.2168 23.4055 19.5379 23.4708 19.8862 23.4708C20.4413 23.4708 20.9093 23.3728 21.2903 23.1769C21.6712 22.981 22.0141 22.6925 22.3188 22.3116L23.2821 23.0626ZM22.1882 19.9443C22.1665 19.2912 21.9542 18.7688 21.5515 18.3769C21.1488 17.9851 20.5937 17.7892 19.8862 17.7892C19.1787 17.7892 18.6073 17.9851 18.1719 18.3769C17.7366 18.7688 17.4753 19.2912 17.3883 19.9443L22.1882 19.9443Z" fill="#242424" fill-rule="nonzero" opacity="1" stroke="none"/>
<path d="M31.4526 23.0626C30.9954 23.6504 30.4947 24.0612 29.9505 24.2952C29.4063 24.5293 28.775 24.6463 28.0567 24.6463C27.458 24.6463 26.9193 24.5401 26.4404 24.3279C25.9614 24.1157 25.556 23.8299 25.224 23.4708C24.8921 23.1116 24.6363 22.6871 24.4567 22.1973C24.2771 21.7075 24.1873 21.1851 24.1873 20.63C24.1873 20.0422 24.2853 19.5007 24.4812 19.0055C24.6771 18.5103 24.9492 18.0858 25.2975 17.732C25.6458 17.3783 26.0594 17.1035 26.5383 16.9076C27.0172 16.7116 27.5397 16.6137 28.1056 16.6137C28.639 16.6137 29.1288 16.7035 29.575 16.8831C30.0213 17.0627 30.4049 17.3239 30.726 17.6667C31.0471 18.0096 31.2947 18.4286 31.4689 18.9239C31.643 19.4191 31.7301 19.9824 31.7301 20.6136L31.7301 21.0218L25.5587 21.0218C25.5805 21.3483 25.6594 21.6613 25.7955 21.9606C25.9315 22.2599 26.1084 22.5211 26.3261 22.7442C26.5438 22.9674 26.7995 23.1442 27.0934 23.2748C27.3873 23.4055 27.7084 23.4708 28.0567 23.4708C28.6118 23.4708 29.0798 23.3728 29.4607 23.1769C29.8417 22.981 30.1845 22.6925 30.4893 22.3116L31.4526 23.0626ZM30.3587 19.9443C30.3369 19.2912 30.1247 18.7688 29.722 18.3769C29.3192 17.9851 28.7641 17.7892 28.0567 17.7892C27.3492 17.7892 26.7778 17.9851 26.3424 18.3769C25.907 18.7688 25.6458 19.2912 25.5587 19.9443L30.3587 19.9443Z" fill="#242424" fill-rule="nonzero" opacity="1" stroke="none"/>
<path d="M32.7333 16.8096L34.0067 16.8096L34.0067 17.9198L34.0394 17.9198C34.3877 17.5062 34.7931 17.1851 35.2557 16.9565C35.7183 16.728 36.2271 16.6137 36.7822 16.6137C37.3808 16.6137 37.9278 16.7144 38.423 16.9157C38.9182 17.1171 39.34 17.3973 39.6883 17.7565C40.0366 18.1157 40.3087 18.5402 40.5046 19.03C40.7005 19.5198 40.7985 20.0531 40.7985 20.63C40.7985 21.2068 40.7005 21.7402 40.5046 22.23C40.3087 22.7197 40.0393 23.1442 39.6965 23.5034C39.3536 23.8626 38.9482 24.1429 38.4802 24.3442C38.0121 24.5456 37.5115 24.6463 36.9781 24.6463C36.2924 24.6463 35.6911 24.4966 35.1741 24.1973C34.6571 23.898 34.2788 23.5306 34.0394 23.0953L34.0067 23.0953L34.0067 28.1728L32.7333 28.1728L32.7333 16.8096ZM34.0067 20.63C34.0067 21.0327 34.0693 21.4055 34.1945 21.7483C34.3196 22.0912 34.502 22.3905 34.7414 22.6463C34.9809 22.9021 35.2666 23.1034 35.5985 23.2504C35.9305 23.3973 36.3033 23.4708 36.7169 23.4708C37.1305 23.4708 37.5033 23.3973 37.8353 23.2504C38.1672 23.1034 38.4529 22.9021 38.6924 22.6463C38.9319 22.3905 39.1142 22.0912 39.2393 21.7483C39.3645 21.4055 39.4271 21.0327 39.4271 20.63C39.4271 20.2273 39.3645 19.8545 39.2393 19.5116C39.1142 19.1688 38.9319 18.8694 38.6924 18.6137C38.4529 18.3579 38.1672 18.1565 37.8353 18.0096C37.5033 17.8626 37.1305 17.7892 36.7169 17.7892C36.3033 17.7892 35.9305 17.8626 35.5985 18.0096C35.2666 18.1565 34.9809 18.3579 34.7414 18.6137C34.502 18.8694 34.3196 19.1688 34.1945 19.5116C34.0693 19.8545 34.0067 20.2273 34.0067 20.63Z" fill="#242424" fill-rule="nonzero" opacity="1" stroke="none"/>
</g>
<g opacity="1">
<path d="M9.20149 21.6313L10.475 21.6313L10.475 29.6966L13.9525 26.3333L15.7647 26.3333L12.0749 29.8108L16.1402 33.9741L14.2627 33.9741L10.475 29.9578L10.475 33.9741L9.20149 33.9741L9.20149 21.6313Z" fill="#242424" fill-rule="nonzero" opacity="1" stroke="none"/>
<path d="M23.2821 32.5863C22.825 33.1741 22.3243 33.585 21.7801 33.819C21.2359 34.053 20.6046 34.17 19.8862 34.17C19.2876 34.17 18.7488 34.0639 18.2699 33.8516C17.791 33.6394 17.3856 33.3537 17.0536 32.9945C16.7216 32.6353 16.4658 32.2108 16.2862 31.721C16.1067 31.2312 16.0169 30.7088 16.0169 30.1537C16.0169 29.5659 16.1148 29.0245 16.3107 28.5292C16.5066 28.034 16.7788 27.6095 17.1271 27.2558C17.4753 26.902 17.8889 26.6272 18.3679 26.4313C18.8468 26.2354 19.3692 26.1374 19.9352 26.1374C20.4685 26.1374 20.9583 26.2272 21.4046 26.4068C21.8508 26.5864 22.2345 26.8476 22.5556 27.1905C22.8767 27.5333 23.1243 27.9524 23.2984 28.4476C23.4726 28.9428 23.5596 29.5061 23.5596 30.1374L23.5596 30.5455L17.3883 30.5455C17.41 30.8721 17.489 31.185 17.625 31.4843C17.7611 31.7836 17.9379 32.0448 18.1556 32.268C18.3733 32.4911 18.6291 32.668 18.923 32.7986C19.2168 32.9292 19.5379 32.9945 19.8862 32.9945C20.4413 32.9945 20.9093 32.8965 21.2903 32.7006C21.6712 32.5047 22.0141 32.2163 22.3188 31.8353L23.2821 32.5863ZM22.1882 29.468C22.1665 28.8149 21.9542 28.2925 21.5515 27.9007C21.1488 27.5088 20.5937 27.3129 19.8862 27.3129C19.1787 27.3129 18.6073 27.5088 18.1719 27.9007C17.7366 28.2925 17.4753 28.8149 17.3883 29.468L22.1882 29.468Z" fill="#242424" fill-rule="nonzero" opacity="1" stroke="none"/>
<path d="M27.4363 35.721C27.3056 36.0475 27.1723 36.3441 27.0363 36.6108C26.9002 36.8775 26.7369 37.106 26.5465 37.2965C26.356 37.487 26.1274 37.6339 25.8608 37.7373C25.5941 37.8407 25.2703 37.8924 24.8893 37.8924C24.7043 37.8924 24.5111 37.8815 24.3098 37.8598C24.1084 37.838 23.9206 37.7836 23.7465 37.6965L23.9098 36.5863C24.0404 36.6407 24.1764 36.6761 24.3179 36.6924C24.4594 36.7087 24.6227 36.7169 24.8077 36.7169C25.2213 36.7169 25.5261 36.6026 25.722 36.3741C25.9179 36.1455 26.0866 35.8407 26.2281 35.4598L26.7506 34.0231L23.5832 26.3333L25.0689 26.3333L27.4363 32.3251L27.4689 32.3251L29.7383 26.3333L31.126 26.3333L27.4363 35.721Z" fill="#242424" fill-rule="nonzero" opacity="1" stroke="none"/>
</g>
</g>
</svg>
