<?xml version="1.0" encoding="UTF-8"?>
<svg id="Livello_1" xmlns="http://www.w3.org/2000/svg" version="1.1" viewBox="0 0 15 15">
  <!-- Generator: Adobe Illustrator 29.5.1, SVG Export Plug-In . SVG Version: 2.1.0 Build 141)  -->
  <defs>
    <style>
      .st0 {
        fill: #1d1d1b;
      }
    </style>
  </defs>
  <path class="st0" d="M10.12,12.67l-1.65-2.42,1.53-1.74.22-.25h-1.65l-.05.05-1.2,1.38v-2.22c1.18-.33,1.99-1.4,1.99-2.64,0-1.51-1.22-2.74-2.73-2.74s-2.72,1.23-2.72,2.74c0,1.23.84,2.32,2.01,2.64v5.43h1.45v-1.36l.28-.32,1.08,1.61.04.07h1.54l-.16-.24ZM6.6,3.37c.8,0,1.45.66,1.45,1.46s-.65,1.46-1.45,1.46-1.45-.65-1.45-1.46.65-1.46,1.45-1.46Z"/>
</svg>