<?xml version="1.0" encoding="UTF-8"?>
<svg id="Livello_1" xmlns="http://www.w3.org/2000/svg" version="1.1" viewBox="0 0 50 50">
  <!-- Generator: Adobe Illustrator 29.5.1, SVG Export Plug-In . SVG Version: 2.1.0 Build 141)  -->
  <defs>
    <style>
      .st0 {
        fill: #1d1d1b;
      }
    </style>
  </defs>
  <path class="st0" d="M34.08,42.14l-5.46-8,5.08-5.76.73-.83h-5.45l-.15.17-3.99,4.56v-7.37c3.91-1.09,6.6-4.63,6.6-8.75,0-5.01-4.05-9.09-9.03-9.09s-9.03,4.08-9.03,9.09c0,4.08,2.78,7.7,6.66,8.76v18h4.8v-4.5l.93-1.05,3.58,5.34.15.22h5.12l-.53-.78ZM22.41,11.32c2.65,0,4.81,2.17,4.81,4.84s-2.16,4.84-4.81,4.84-4.81-2.17-4.81-4.84,2.16-4.84,4.81-4.84Z"/>
</svg>