<?xml version="1.0" encoding="UTF-8" standalone="no"?>
<!DOCTYPE svg PUBLIC "-//W3C//DTD SVG 1.1//EN" "http://www.w3.org/Graphics/SVG/1.1/DTD/svg11.dtd">
<!-- Created with Vectornator (http://vectornator.io/) -->
<svg height="50.0pt" stroke-miterlimit="10" style="fill-rule:nonzero;clip-rule:evenodd;stroke-linecap:round;stroke-linejoin:round;" version="1.1" viewBox="0 0 50 50" width="50.0pt" xml:space="preserve" xmlns="http://www.w3.org/2000/svg" xmlns:xlink="http://www.w3.org/1999/xlink">
<defs/>
<g id="Untitled">
<path d="M29.4409 14.1708L35.8214 20.6262C38.4375 23.2722 38.4375 27.5259 35.8214 30.172L30.2297 35.8286C29.7654 36.2979 29.0065 36.3029 28.5372 35.8386C28.0679 35.3743 28.063 34.6154 28.5273 34.1461L34.114 28.4895C35.8064 26.777 35.8064 24.0261 34.114 22.3137L27.7384 15.8583C27.2741 15.389 27.2791 14.6301 27.7484 14.1658C28.2177 13.7015 28.9766 13.7065 29.4409 14.1758L29.4409 14.1708ZM12.2165 23.6766L12.2165 16.2127C12.2165 14.8897 13.2899 13.8163 14.6129 13.8163L22.0768 13.8163C22.9256 13.8163 23.7394 14.1508 24.3385 14.7499L32.726 23.1374C33.9742 24.3856 33.9742 26.4076 32.726 27.6557L26.0609 34.3208C24.8128 35.569 22.7908 35.569 21.5426 34.3208L13.1551 25.9333C12.551 25.3342 12.2165 24.5254 12.2165 23.6766ZM19.4058 19.408C19.4058 18.5256 18.6905 17.8104 17.8082 17.8104C16.9258 17.8104 16.2106 18.5256 16.2106 19.408C16.2106 20.2903 16.9258 21.0056 17.8082 21.0056C18.6905 21.0056 19.4058 20.2903 19.4058 19.408Z" fill="#242424" fill-rule="nonzero" opacity="1" stroke="none"/>
</g>
</svg>
