<?xml version="1.0" encoding="UTF-8"?>
<svg xmlns="http://www.w3.org/2000/svg" xmlns:xlink="http://www.w3.org/1999/xlink" width="15px" height="15px" viewBox="0 0 15 15" version="1.1">
<g id="surface1">
<path style=" stroke:none;fill-rule:nonzero;fill:rgb(87.058824%,88.627451%,92.54902%);fill-opacity:1;" d="M 10.148438 2.742188 L 5.992188 2.742188 L 5.992188 8.351562 L 11.601562 8.351562 L 11.601562 4.195312 C 11.601562 3.390625 10.953125 2.742188 10.148438 2.742188 Z M 10.148438 2.742188 "/>
<path style=" stroke:none;fill-rule:nonzero;fill:rgb(87.058824%,88.627451%,92.54902%);fill-opacity:1;" d="M 4.699219 2.742188 L 3.984375 2.742188 C 3.179688 2.742188 2.53125 3.390625 2.53125 4.195312 L 2.53125 4.910156 L 4.699219 4.910156 Z M 4.699219 2.742188 "/>
<path style=" stroke:none;fill-rule:nonzero;fill:rgb(87.058824%,88.627451%,92.54902%);fill-opacity:1;" d="M 2.53125 6.207031 L 4.699219 6.207031 L 4.699219 8.371094 L 2.53125 8.371094 Z M 2.53125 6.207031 "/>
<path style=" stroke:none;fill-rule:nonzero;fill:rgb(87.058824%,88.627451%,92.54902%);fill-opacity:1;" d="M 9.457031 11.8125 L 10.171875 11.8125 C 10.976562 11.8125 11.625 11.167969 11.625 10.363281 L 11.625 9.667969 L 9.457031 9.667969 Z M 9.457031 11.8125 "/>
<path style=" stroke:none;fill-rule:nonzero;fill:rgb(87.058824%,88.627451%,92.54902%);fill-opacity:1;" d="M 5.992188 9.667969 L 8.160156 9.667969 L 8.160156 11.835938 L 5.992188 11.835938 Z M 5.992188 9.667969 "/>
<path style=" stroke:none;fill-rule:nonzero;fill:rgb(87.058824%,88.627451%,92.54902%);fill-opacity:1;" d="M 2.53125 9.667969 L 2.53125 10.382812 C 2.53125 11.1875 3.179688 11.835938 3.984375 11.835938 L 4.699219 11.835938 L 4.699219 9.667969 Z M 2.53125 9.667969 "/>
</g>
</svg>
