<?xml version="1.0" encoding="UTF-8" standalone="no"?>
<!DOCTYPE svg PUBLIC "-//W3C//DTD SVG 1.1//EN" "http://www.w3.org/Graphics/SVG/1.1/DTD/svg11.dtd">
<!-- Created with Vectornator (http://vectornator.io/) -->
<svg height="50.0pt" stroke-miterlimit="10" style="fill-rule:nonzero;clip-rule:evenodd;stroke-linecap:round;stroke-linejoin:round;" version="1.1" viewBox="0 0 50 50" width="50.0pt" xml:space="preserve" xmlns="http://www.w3.org/2000/svg" xmlns:xlink="http://www.w3.org/1999/xlink">
<defs/>
<g id="Untitled">
<path d="M25 39.0632C34.7087 39.0632 39.0632 34.7087 39.0632 25C39.0632 15.2914 34.7087 10.9368 25 10.9368C15.2914 10.9368 10.9368 15.2914 10.9368 25C10.9368 34.7087 15.2914 39.0632 25 39.0632ZM22.3583 16.9002L26.2706 16.9002L26.2706 23.3472L23.8449 23.3472L23.8449 18.9755L21.6719 18.9755L22.3583 16.9002ZM25 33.0998C27.4642 33.0998 29.4619 31.1023 29.4619 28.6381C29.4619 26.1739 27.4642 24.1763 25 24.1763C22.5358 24.1763 20.5383 26.1739 20.5383 28.6381C20.5383 31.1023 22.5358 33.0998 25 33.0998ZM25 31.0743C26.3456 31.0743 27.4363 29.9836 27.4363 28.6381C27.4363 27.2927 26.3456 26.2018 25 26.2018C23.6546 26.2018 22.5639 27.2927 22.5639 28.6381C22.5639 29.9836 23.6546 31.0743 25 31.0743Z" fill="#242424" fill-rule="evenodd" opacity="1" stroke="none"/>
</g>
</svg>
