<?xml version="1.0" encoding="UTF-8"?>
<svg xmlns="http://www.w3.org/2000/svg" xmlns:xlink="http://www.w3.org/1999/xlink" width="15px" height="15px" viewBox="0 0 15 15" version="1.1">
<defs>
<filter id="alpha" filterUnits="objectBoundingBox" x="0%" y="0%" width="100%" height="100%">
  <feColorMatrix type="matrix" in="SourceGraphic" values="0 0 0 0 1 0 0 0 0 1 0 0 0 0 1 0 0 0 1 0"/>
</filter>
<mask id="mask0">
  <g filter="url(#alpha)">
<rect x="0" y="0" width="15" height="15" style="fill:rgb(0%,0%,0%);fill-opacity:0.501961;stroke:none;"/>
  </g>
</mask>
<linearGradient id="linear0" gradientUnits="userSpaceOnUse" x1="250.739" y1="425.334" x2="249.65" y2="56.5871" gradientTransform="matrix(0.025,0,0,0.025,1.184508,1.206055)">
<stop offset="0.216102" style="stop-color:rgb(100%,100%,100%);stop-opacity:0;"/>
<stop offset="1" style="stop-color:rgb(0%,0%,0%);stop-opacity:1;"/>
</linearGradient>
<clipPath id="clip1">
  <rect x="0" y="0" width="15" height="15"/>
</clipPath>
<g id="surface5" clip-path="url(#clip1)">
<path style=" stroke:none;fill-rule:nonzero;fill:url(#linear0);" d="M 7.453125 9.8125 L 11.496094 9.8125 L 7.453125 2.625 Z M 7.453125 9.8125 "/>
</g>
<radialGradient id="radial0" gradientUnits="userSpaceOnUse" cx="0" cy="0" fx="0" fy="0" r="1" gradientTransform="matrix(5.0027,0,0,5.02615,7.425075,7.423)">
<stop offset="0.505613" style="stop-color:rgb(20.392157%,20.392157%,20%);stop-opacity:1;"/>
<stop offset="0.779241" style="stop-color:rgb(49.019608%,49.019608%,49.019608%);stop-opacity:1;"/>
<stop offset="1" style="stop-color:rgb(90.196078%,88.235294%,87.843137%);stop-opacity:1;"/>
</radialGradient>
<radialGradient id="radial1" gradientUnits="userSpaceOnUse" cx="0" cy="0" fx="0" fy="0" r="1" gradientTransform="matrix(5.001625,0,0,5.025075,7.43315,7.431125)">
<stop offset="0.5" style="stop-color:rgb(98.039216%,98.039216%,98.039216%);stop-opacity:1;"/>
<stop offset="0.75" style="stop-color:rgb(87.058824%,87.058824%,87.058824%);stop-opacity:1;"/>
<stop offset="1" style="stop-color:rgb(16.862745%,16.862745%,16.862745%);stop-opacity:1;"/>
</radialGradient>
<radialGradient id="radial2" gradientUnits="userSpaceOnUse" cx="0" cy="0" fx="0" fy="0" r="1" gradientTransform="matrix(5.008825,0,0,5.0323,7.43715,7.4291)">
<stop offset="0.5" style="stop-color:rgb(96.862745%,95.294118%,94.901961%);stop-opacity:1;"/>
<stop offset="0.75" style="stop-color:rgb(87.058824%,87.058824%,87.058824%);stop-opacity:1;"/>
<stop offset="1" style="stop-color:rgb(21.176471%,21.176471%,21.176471%);stop-opacity:1;"/>
</radialGradient>
<clipPath id="clip2">
  <path d="M 2 2 L 13 2 L 13 13 L 2 13 Z M 2 2 "/>
</clipPath>
<clipPath id="clip3">
  <path d="M 6.820312 2.457031 C 6.78125 2.457031 6.738281 2.460938 6.695312 2.46875 C 5.238281 2.695312 3.890625 3.539062 3.097656 4.921875 C 2.304688 6.300781 2.253906 7.898438 2.78125 9.277344 C 2.917969 9.625 3.109375 9.640625 3.296875 9.3125 C 3.296875 9.3125 6.054688 4.496094 6.980469 2.898438 C 7.148438 2.609375 7.082031 2.453125 6.820312 2.457031 Z M 8.039062 2.457031 C 7.773438 2.453125 7.707031 2.613281 7.875 2.898438 C 7.875 2.898438 10.648438 7.703125 11.558594 9.3125 C 11.746094 9.640625 11.941406 9.621094 12.074219 9.277344 C 12.605469 7.898438 12.554688 6.300781 11.757812 4.921875 C 10.964844 3.539062 9.617188 2.695312 8.164062 2.46875 C 8.117188 2.460938 8.078125 2.457031 8.039062 2.457031 Z M 3.742188 10.089844 C 3.363281 10.085938 3.285156 10.265625 3.515625 10.554688 C 4.441406 11.703125 5.84375 12.457031 7.429688 12.457031 C 9.015625 12.457031 10.417969 11.703125 11.339844 10.554688 C 11.574219 10.265625 11.492188 10.085938 11.113281 10.089844 C 11.113281 10.089844 5.585938 10.097656 3.742188 10.089844 Z M 3.742188 10.089844 "/>
</clipPath>
<mask id="mask1">
  <g filter="url(#alpha)">
<rect x="0" y="0" width="15" height="15" style="fill:rgb(0%,0%,0%);fill-opacity:0.25098;stroke:none;"/>
  </g>
</mask>
<clipPath id="clip4">
  <rect x="0" y="0" width="15" height="15"/>
</clipPath>
<g id="surface8" clip-path="url(#clip4)">
<path style=" stroke:none;fill-rule:nonzero;fill:rgb(0%,0%,0%);fill-opacity:1;" d="M 3.929688 5.390625 C 3.257812 6.558594 2.796875 7.921875 2.78125 9.261719 C 2.253906 7.882812 2.304688 6.289062 3.097656 4.910156 C 3.890625 3.527344 5.242188 2.683594 6.695312 2.457031 C 5.542969 3.136719 4.601562 4.222656 3.929688 5.390625 Z M 11.757812 4.910156 C 10.964844 3.527344 9.617188 2.683594 8.164062 2.457031 C 9.316406 3.136719 10.257812 4.222656 10.929688 5.390625 C 11.601562 6.558594 12.0625 7.921875 12.074219 9.261719 C 12.605469 7.882812 12.554688 6.289062 11.757812 4.910156 Z M 11.113281 10.074219 C 11.113281 10.074219 5.585938 10.085938 3.746094 10.074219 C 4.878906 10.6875 6.144531 11.042969 7.429688 11.042969 C 8.714844 11.042969 9.980469 10.6875 11.113281 10.074219 Z M 11.113281 10.074219 "/>
</g>
<mask id="mask2">
  <g filter="url(#alpha)">
<rect x="0" y="0" width="15" height="15" style="fill:rgb(0%,0%,0%);fill-opacity:0.2;stroke:none;"/>
  </g>
</mask>
<clipPath id="clip5">
  <rect x="0" y="0" width="15" height="15"/>
</clipPath>
<g id="surface11" clip-path="url(#clip5)">
<path style=" stroke:none;fill-rule:nonzero;fill:rgb(100%,100%,100%);fill-opacity:1;" d="M 7.429688 11.480469 C 8.773438 11.480469 10.175781 11.203125 11.339844 10.542969 C 10.417969 11.691406 9.015625 12.445312 7.429688 12.445312 C 5.84375 12.445312 4.441406 11.691406 3.515625 10.542969 C 4.679688 11.203125 6.085938 11.480469 7.429688 11.480469 Z M 4.304688 5.609375 C 3.664062 6.726562 3.335938 8.007812 3.296875 9.296875 C 3.296875 9.296875 6.054688 4.484375 6.984375 2.886719 C 5.886719 3.566406 4.949219 4.492188 4.304688 5.609375 Z M 7.875 2.886719 C 7.875 2.886719 10.648438 7.691406 11.558594 9.296875 C 11.519531 8.007812 11.195312 6.726562 10.550781 5.609375 C 9.910156 4.492188 8.96875 3.566406 7.875 2.886719 Z M 7.875 2.886719 "/>
</g>
</defs>
<g id="surface1">
<use xlink:href="#surface5" mask="url(#mask0)"/>
<path style=" stroke:none;fill-rule:nonzero;fill:url(#radial0);" d="M 11.125 10.085938 C 11.503906 10.085938 11.585938 10.265625 11.351562 10.554688 C 10.425781 11.703125 9.023438 12.457031 7.4375 12.457031 C 5.851562 12.457031 4.449219 11.703125 3.527344 10.554688 C 3.292969 10.265625 3.375 10.085938 3.753906 10.085938 C 5.597656 10.097656 11.125 10.085938 11.125 10.085938 Z M 11.125 10.085938 "/>
<path style=" stroke:none;fill-rule:nonzero;fill:url(#radial1);" d="M 11.570312 9.308594 C 11.757812 9.640625 11.953125 9.621094 12.085938 9.277344 C 12.617188 7.898438 12.5625 6.300781 11.769531 4.921875 C 10.976562 3.539062 9.628906 2.695312 8.175781 2.46875 C 7.808594 2.410156 7.691406 2.570312 7.886719 2.898438 C 7.886719 2.898438 10.65625 7.703125 11.570312 9.308594 Z M 11.570312 9.308594 "/>
<path style=" stroke:none;fill-rule:nonzero;fill:url(#radial2);" d="M 6.992188 2.898438 C 7.183594 2.570312 7.070312 2.410156 6.703125 2.46875 C 5.25 2.695312 3.902344 3.539062 3.109375 4.921875 C 2.316406 6.300781 2.261719 7.898438 2.792969 9.277344 C 2.925781 9.625 3.121094 9.640625 3.308594 9.308594 C 3.308594 9.308594 6.066406 4.496094 6.992188 2.898438 Z M 6.992188 2.898438 "/>
<g clip-path="url(#clip2)" clip-rule="nonzero">
<g clip-path="url(#clip3)" clip-rule="evenodd">
<use xlink:href="#surface8" mask="url(#mask1)"/>
<use xlink:href="#surface11" mask="url(#mask2)"/>
</g>
</g>
</g>
</svg>
