<?xml version="1.0" encoding="UTF-8" standalone="no"?>
<!DOCTYPE svg PUBLIC "-//W3C//DTD SVG 1.1//EN" "http://www.w3.org/Graphics/SVG/1.1/DTD/svg11.dtd">
<!-- Created with Vectornator (http://vectornator.io/) -->
<svg height="50.0px" stroke-miterlimit="10" style="fill-rule:nonzero;clip-rule:evenodd;stroke-linecap:round;stroke-linejoin:round;" version="1.1" viewBox="0 0 50 50" width="50.0px" xml:space="preserve" xmlns="http://www.w3.org/2000/svg" xmlns:xlink="http://www.w3.org/1999/xlink">
<defs>
<linearGradient gradientTransform="matrix(-0.0658302 -22.2907 22.2907 -0.0658302 23.845 33.4693)" gradientUnits="userSpaceOnUse" id="LinearGradient" x1="0" x2="1" y1="0" y2="0">
<stop offset="0.216102" stop-color="#ffffff" stop-opacity="0"/>
<stop offset="1" stop-color="#000000"/>
</linearGradient>
<radialGradient cx="0" cy="0" gradientTransform="matrix(12.0965 0 0 12.1532 23.7776 22.7904)" gradientUnits="userSpaceOnUse" id="RadialGradient" r="1">
<stop offset="0.505613" stop-color="#343433"/>
<stop offset="0.779241" stop-color="#7d7d7d"/>
<stop offset="1" stop-color="#e6e1e0"/>
</radialGradient>
<radialGradient cx="0" cy="0" gradientTransform="matrix(12.0939 0 0 12.1506 23.7971 22.8101)" gradientUnits="userSpaceOnUse" id="RadialGradient_2" r="1">
<stop offset="0.5" stop-color="#fafafa"/>
<stop offset="0.75" stop-color="#dedede"/>
<stop offset="1" stop-color="#2b2b2b"/>
</radialGradient>
<radialGradient cx="0" cy="0" gradientTransform="matrix(12.1113 0 0 12.1681 23.8068 22.8052)" gradientUnits="userSpaceOnUse" id="RadialGradient_3" r="1">
<stop offset="0.5" stop-color="#f7f3f2"/>
<stop offset="0.75" stop-color="#dedede"/>
<stop offset="1" stop-color="#363636"/>
</radialGradient>
</defs>
<g id="surface1">
<g opacity="1">
<clipPath clip-rule="nonzero" id="ClipPath">
<path d="M5.82378 4.84165L42.0937 4.84165L42.0937 4.84165L42.0937 41.1116L42.0937 41.1116L5.82378 41.1116L5.82378 41.1116L5.82378 4.84165L5.82378 4.84165Z"/>
</clipPath>
<g clip-path="url(#ClipPath)">
<clipPath clip-rule="nonzero" id="ClipPath_2">
<path d="M5.82378 4.84165L42.0937 4.84165L42.0937 4.84165L42.0937 41.1116L42.0937 41.1116L5.82378 41.1116L5.82378 41.1116L5.82378 4.84165L5.82378 4.84165Z"/>
</clipPath>
<g clip-path="url(#ClipPath_2)">
<path d="M23.8454 28.5682L33.6213 28.5682L23.8454 11.1889L23.8454 28.5682Z" fill="url(#LinearGradient)" fill-rule="nonzero" opacity="1" stroke="none"/>
</g>
</g>
</g>
<path d="M32.724 29.2294C33.6402 29.2294 33.8385 29.6639 33.2718 30.3628C31.0333 33.1397 27.6424 34.9627 23.8076 34.9627C19.9728 34.9627 16.582 33.1397 14.3529 30.3628C13.7862 29.6639 13.9845 29.2294 14.9007 29.2294C19.3589 29.2577 32.724 29.2294 32.724 29.2294Z" fill="url(#RadialGradient)" fill-rule="nonzero" opacity="1" stroke="none"/>
<path d="M33.8007 27.3498C34.2541 28.1526 34.7264 28.1054 35.0475 27.2742C36.3321 23.94 36.1998 20.0769 34.2824 16.7427C32.365 13.3991 29.1064 11.3589 25.5928 10.8111C24.7049 10.6694 24.4216 11.0567 24.8938 11.8501C24.8938 11.8501 31.5905 23.4678 33.8007 27.3498Z" fill="url(#RadialGradient_2)" fill-rule="nonzero" opacity="1" stroke="none"/>
<path d="M22.7308 11.8501C23.1937 11.0567 22.9198 10.6694 22.0319 10.8111C18.5182 11.3589 15.2596 13.3991 13.3422 16.7427C11.4248 20.0769 11.2926 23.94 12.5772 27.2742C12.8983 28.1148 13.3706 28.1526 13.8239 27.3498C13.8239 27.3498 20.4923 15.7132 22.7308 11.8501Z" fill="url(#RadialGradient_3)" fill-rule="nonzero" opacity="1" stroke="none"/>
<g opacity="1">
<clipPath clip-rule="nonzero" id="ClipPath_3">
<path d="M10.6598 9.67764L37.2577 9.67764L37.2577 36.2756L10.6598 36.2756L10.6598 9.67764Z"/>
</clipPath>
<g clip-path="url(#ClipPath_3)">
<clipPath clip-rule="nonzero" id="ClipPath_4">
<path d="M22.3153 10.7827C22.2208 10.7827 22.1169 10.7922 22.013 10.8111C18.4899 11.3589 15.2313 13.3991 13.3139 16.7427C11.3965 20.0769 11.2737 23.94 12.5488 27.2742C12.8794 28.1148 13.3422 28.1526 13.7956 27.3592C13.7956 27.3592 20.464 15.7132 22.7025 11.8501C23.1087 11.1511 22.9481 10.7733 22.3153 10.7827ZM25.2622 10.7827C24.6199 10.7733 24.4593 11.1606 24.8655 11.8501C24.8655 11.8501 31.5716 23.4678 33.7724 27.3592C34.2258 28.1526 34.698 28.1054 35.0192 27.2742C36.3037 23.94 36.1809 20.0769 34.2541 16.7427C32.3367 13.3991 29.0781 11.3589 25.5644 10.8111C25.4511 10.7922 25.3566 10.7827 25.2622 10.7827ZM14.8724 29.2388C13.9562 29.2294 13.7673 29.6639 14.3245 30.3628C16.5631 33.1397 19.9539 34.9627 23.7887 34.9627C27.6235 34.9627 31.0144 33.1397 33.2435 30.3628C33.8102 29.6639 33.6118 29.2294 32.6956 29.2388C32.6956 29.2388 19.3305 29.2577 14.8724 29.2388Z"/>
</clipPath>
<g clip-path="url(#ClipPath_4)">
<g opacity="1">
<clipPath clip-rule="nonzero" id="ClipPath_5">
<path d="M5.82378 4.84165L42.0937 4.84165L42.0937 4.84165L42.0937 41.1116L42.0937 41.1116L5.82378 41.1116L5.82378 41.1116L5.82378 4.84165L5.82378 4.84165Z"/>
</clipPath>
<g clip-path="url(#ClipPath_5)">
<clipPath clip-rule="nonzero" id="ClipPath_6">
<path d="M5.82378 4.84165L42.0937 4.84165L42.0937 4.84165L42.0937 41.1116L42.0937 41.1116L5.82378 41.1116L5.82378 41.1116L5.82378 4.84165L5.82378 4.84165Z"/>
</clipPath>
<g clip-path="url(#ClipPath_6)">
<path d="M15.3257 17.8762C13.7011 20.7003 12.5866 23.9967 12.5488 27.2364C11.2737 23.9022 11.3965 20.0486 13.3139 16.7144C15.2313 13.3707 18.4994 11.3306 22.013 10.7827C19.2266 12.4262 16.9503 15.052 15.3257 17.8762ZM34.2541 16.7144C32.3367 13.3707 29.0781 11.3306 25.5644 10.7827C28.3508 12.4262 30.6271 15.052 32.2517 17.8762C33.8763 20.7003 34.9908 23.9967 35.0192 27.2364C36.3037 23.9022 36.1809 20.0486 34.2541 16.7144ZM32.6956 29.2011C32.6956 29.2011 19.3305 29.2294 14.8818 29.2011C17.6209 30.684 20.6812 31.5435 23.7887 31.5435C26.8962 31.5435 29.9565 30.684 32.6956 29.2011Z" fill="#000000" fill-rule="nonzero" opacity="1" stroke="none"/>
</g>
</g>
</g>
<g opacity="1">
<clipPath clip-rule="nonzero" id="ClipPath_7">
<path d="M5.82378 4.84165L42.0937 4.84165L42.0937 4.84165L42.0937 41.1116L42.0937 41.1116L5.82378 41.1116L5.82378 41.1116L5.82378 4.84165L5.82378 4.84165Z"/>
</clipPath>
<g clip-path="url(#ClipPath_7)">
<clipPath clip-rule="nonzero" id="ClipPath_8">
<path d="M5.82378 4.84165L42.0937 4.84165L42.0937 4.84165L42.0937 41.1116L42.0937 41.1116L5.82378 41.1116L5.82378 41.1116L5.82378 4.84165L5.82378 4.84165Z"/>
</clipPath>
<g clip-path="url(#ClipPath_8)">
<path d="M23.7887 32.6014C27.0379 32.6014 30.4288 31.9307 33.2435 30.3345C31.0144 33.1114 27.6235 34.9343 23.7887 34.9343C19.9539 34.9343 16.5631 33.1114 14.3245 30.3345C17.1392 31.9307 20.5395 32.6014 23.7887 32.6014ZM16.2325 18.4051C14.6835 21.1064 13.8901 24.2045 13.7956 27.3214C13.7956 27.3214 20.464 15.6848 22.712 11.8217C20.0578 13.4652 17.791 15.7037 16.2325 18.4051ZM24.8655 11.8217C24.8655 11.8217 31.5716 23.4394 33.7724 27.3214C33.6779 24.2045 32.894 21.1064 31.3355 18.4051C29.7865 15.7037 27.5102 13.4652 24.8655 11.8217Z" fill="#ffffff" fill-rule="nonzero" opacity="1" stroke="none"/>
</g>
</g>
</g>
</g>
</g>
</g>
<path d="M3.24224 38.1465C3.24224 38.1035 3.27914 38.0641 3.32714 38.0641L5.15072 38.0641C5.19872 38.0641 5.23562 38.1035 5.23562 38.1465L5.23562 38.505C5.23562 38.5481 5.19872 38.5875 5.15072 38.5875L3.8218 38.5875L3.8218 39.405L4.92923 39.405C4.97353 39.405 5.01414 39.4444 5.01414 39.4874L5.01414 39.846C5.01414 39.889 4.97353 39.9284 4.92923 39.9284L3.8218 39.9284L3.8218 41.0291C3.8218 41.0722 3.78119 41.1116 3.73689 41.1116L3.32344 41.1116C3.27547 41.1116 3.23854 41.0722 3.23854 41.0291L3.23854 38.1465L3.24224 38.1465Z" fill="#242424" fill-rule="nonzero" opacity="1" stroke="none"/>
<path d="M8.79815 38.0212C9.69518 38.0212 10.4113 38.7239 10.4113 39.5951C10.4113 40.4664 9.69518 41.1583 8.79815 41.1583C7.90113 41.1583 7.18866 40.4664 7.18866 39.5951C7.18866 38.7239 7.90113 38.0212 8.79815 38.0212ZM8.79815 40.5883C9.36296 40.5883 9.82806 40.1401 9.82806 39.5916C9.82806 39.043 9.36296 38.5841 8.79815 38.5841C8.23335 38.5841 7.77192 39.043 7.77192 39.5916C7.76822 40.1401 8.22967 40.5883 8.79815 40.5883Z" fill="#242424" fill-rule="nonzero" opacity="1" stroke="none"/>
<path d="M12.5891 38.1465C12.5891 38.1035 12.6297 38.0641 12.674 38.0641L13.0986 38.0641C13.1466 38.0641 13.1835 38.1035 13.1835 38.1465L13.1835 39.9284C13.1835 40.2977 13.4419 40.5917 13.8332 40.5917C14.2245 40.5917 14.4866 40.3013 14.4866 39.9356L14.4866 38.1501C14.4866 38.1071 14.5235 38.0676 14.5715 38.0676L14.996 38.0676C15.0403 38.0676 15.0809 38.1071 15.0809 38.1501L15.0809 39.9607C15.0809 40.624 14.5382 41.1582 13.8295 41.1582C13.1244 41.1582 12.5818 40.624 12.5818 39.9607L12.5818 38.1465L12.5891 38.1465Z" fill="#242424" fill-rule="nonzero" opacity="1" stroke="none"/>
<path d="M17.4989 38.0964C17.4989 38.0534 17.5395 38.0175 17.5837 38.0175L17.6944 38.0175L19.5588 39.9428L19.5624 39.9428L19.5624 38.143C19.5624 38.1 19.5994 38.0605 19.6472 38.0605L20.0607 38.0605C20.1051 38.0605 20.1457 38.1 20.1457 38.143L20.1457 41.0758C20.1457 41.1188 20.1051 41.1547 20.0607 41.1547L19.9538 41.1547L18.0784 39.1541L18.0748 39.1541L18.0748 41.0256C18.0748 41.0686 18.0378 41.108 17.9897 41.108L17.5801 41.108C17.5359 41.108 17.4953 41.0686 17.4953 41.0256L17.4953 38.0964L17.4989 38.0964Z" fill="#242424" fill-rule="nonzero" opacity="1" stroke="none"/>
<path d="M22.6004 38.1465C22.6004 38.1035 22.6371 38.0641 22.6816 38.0641L23.7447 38.0641C24.6084 38.0641 25.3171 38.7489 25.3171 39.5842C25.3171 40.4304 24.6084 41.1116 23.7447 41.1116L22.6816 41.1116C22.6371 41.1116 22.6004 41.0722 22.6004 41.0291L22.6004 38.1465ZM23.6892 40.581C24.2725 40.581 24.697 40.1543 24.697 39.5842C24.697 39.0177 24.2725 38.5911 23.6892 38.5911L23.1762 38.5911L23.1762 40.581L23.6892 40.581Z" fill="#242424" fill-rule="nonzero" opacity="1" stroke="none"/>
<path d="M27.7093 41.0256C27.6908 41.0686 27.6502 41.1116 27.58 41.1116L27.1889 41.1116C27.1224 41.1116 27.0854 41.0543 27.1113 40.9969L28.5067 38.0641C28.5213 38.039 28.5437 38.0175 28.5843 38.0175L28.6285 38.0175C28.6727 38.0175 28.6912 38.039 28.7061 38.0641L30.0866 40.9969C30.1125 41.0543 30.0794 41.1116 30.0092 41.1116L29.6179 41.1116C29.5513 41.1116 29.5181 41.0865 29.4886 41.0256L28.5989 39.1146L28.5843 39.1146L27.7093 41.0256Z" fill="#242424" fill-rule="nonzero" opacity="1" stroke="none"/>
<path d="M32.3868 38.5875L31.7001 38.5875C31.6521 38.5875 31.6153 38.5481 31.6153 38.505L31.6153 38.1465C31.6153 38.1035 31.6521 38.0641 31.7001 38.0641L33.6603 38.0641C33.7084 38.0641 33.7451 38.1035 33.7451 38.1465L33.7451 38.505C33.7451 38.5481 33.7084 38.5875 33.6603 38.5875L32.9737 38.5875L32.9737 41.0327C32.9737 41.0757 32.9331 41.1152 32.8889 41.1152L32.4718 41.1152C32.4274 41.1152 32.3868 41.0757 32.3868 41.0327L32.3868 38.5875Z" fill="#242424" fill-rule="nonzero" opacity="1" stroke="none"/>
<path d="M35.8493 38.1465C35.8493 38.1035 35.8899 38.0641 35.9343 38.0641L36.3514 38.0641C36.3956 38.0641 36.4362 38.1035 36.4362 38.1465L36.4362 41.0291C36.4362 41.0722 36.3956 41.1116 36.3514 41.1116L35.9343 41.1116C35.8899 41.1116 35.8493 41.0722 35.8493 41.0291L35.8493 38.1465Z" fill="#242424" fill-rule="nonzero" opacity="1" stroke="none"/>
<path d="M40.2754 38.0212C41.1725 38.0212 41.8887 38.7239 41.8887 39.5951C41.8887 40.4664 41.1725 41.1583 40.2754 41.1583C39.3783 41.1583 38.666 40.4664 38.666 39.5951C38.666 38.7239 39.3783 38.0212 40.2754 38.0212ZM40.2754 40.5883C40.8402 40.5883 41.3054 40.1401 41.3054 39.5916C41.3054 39.043 40.8402 38.5841 40.2754 38.5841C39.7106 38.5841 39.249 39.043 39.249 39.5916C39.249 40.1401 39.7106 40.5883 40.2754 40.5883Z" fill="#242424" fill-rule="nonzero" opacity="1" stroke="none"/>
<path d="M44.1146 38.0964C44.1146 38.0534 44.1552 38.0175 44.1997 38.0175L44.3102 38.0175L46.1745 39.9428L46.1781 39.9428L46.1781 38.143C46.1781 38.1 46.2151 38.0605 46.2632 38.0605L46.6767 38.0605C46.7209 38.0605 46.7615 38.1 46.7615 38.143L46.7615 41.0758C46.7615 41.1188 46.7209 41.1547 46.6767 41.1547L46.5695 41.1547L44.6941 39.1541L44.6905 39.1541L44.6905 41.0256C44.6905 41.0686 44.6535 41.108 44.6057 41.108L44.1958 41.108C44.1516 41.108 44.111 41.0686 44.111 41.0256L44.111 38.0964L44.1146 38.0964Z" fill="#242424" fill-rule="nonzero" opacity="1" stroke="none"/>
</g>
</svg>
