<?xml version="1.0" encoding="UTF-8" standalone="no"?>
<!DOCTYPE svg PUBLIC "-//W3C//DTD SVG 1.1//EN" "http://www.w3.org/Graphics/SVG/1.1/DTD/svg11.dtd">
<!-- Created with Vectornator (http://vectornator.io/) -->
<svg height="50.0px" stroke-miterlimit="10" style="fill-rule:nonzero;clip-rule:evenodd;stroke-linecap:round;stroke-linejoin:round;" version="1.1" viewBox="0 0 50 50" width="50.0px" xml:space="preserve" xmlns="http://www.w3.org/2000/svg" xmlns:xlink="http://www.w3.org/1999/xlink">
<defs>
<linearGradient gradientTransform="matrix(0.0684634 -21.9409 23.1823 0.0647971 23.9123 33.4092)" gradientUnits="userSpaceOnUse" id="LinearGradient" x1="0" x2="1" y1="0" y2="0">
<stop offset="0.216102" stop-color="#ffffff" stop-opacity="0"/>
<stop offset="1" stop-color="#ffffff"/>
</linearGradient>
<radialGradient cx="0" cy="0" gradientTransform="matrix(-12.5804 -1.04091e-06 1.10497e-06 -11.9625 23.9824 22.8979)" gradientUnits="userSpaceOnUse" id="RadialGradient" r="1">
<stop offset="0.5" stop-color="#bbbbbb"/>
<stop offset="0.75" stop-color="#dedede"/>
<stop offset="1" stop-color="#fafafa"/>
</radialGradient>
<radialGradient cx="0" cy="0" gradientTransform="matrix(-12.5777 -1.04069e-06 1.10473e-06 -11.9599 23.9621 22.9173)" gradientUnits="userSpaceOnUse" id="RadialGradient_2" r="1">
<stop offset="0.5" stop-color="#fafafa"/>
<stop offset="0.75" stop-color="#dedede"/>
<stop offset="1" stop-color="#bbbbbb"/>
</radialGradient>
<radialGradient cx="0" cy="0" gradientTransform="matrix(-12.5958 -1.04219e-06 1.10632e-06 -11.9771 23.9521 22.9125)" gradientUnits="userSpaceOnUse" id="RadialGradient_3" r="1">
<stop offset="0.5" stop-color="#fafafa"/>
<stop offset="0.75" stop-color="#dedede"/>
<stop offset="1" stop-color="#bbbbbb"/>
</radialGradient>
</defs>
<g id="surface1">
<path d="M3.24224 38.1465C3.24224 38.1035 3.27914 38.0641 3.32714 38.0641L5.15072 38.0641C5.19872 38.0641 5.23562 38.1035 5.23562 38.1465L5.23562 38.505C5.23562 38.5481 5.19872 38.5875 5.15072 38.5875L3.8218 38.5875L3.8218 39.405L4.92923 39.405C4.97353 39.405 5.01414 39.4444 5.01414 39.4874L5.01414 39.846C5.01414 39.889 4.97353 39.9284 4.92923 39.9284L3.8218 39.9284L3.8218 41.0291C3.8218 41.0722 3.78119 41.1116 3.73689 41.1116L3.32344 41.1116C3.27547 41.1116 3.23854 41.0722 3.23854 41.0291L3.23854 38.1465L3.24224 38.1465Z" fill="#d6d2d2" fill-rule="nonzero" opacity="1" stroke="none"/>
<path d="M8.79815 38.0212C9.69518 38.0212 10.4113 38.7239 10.4113 39.5951C10.4113 40.4664 9.69518 41.1583 8.79815 41.1583C7.90113 41.1583 7.18866 40.4664 7.18866 39.5951C7.18866 38.7239 7.90113 38.0212 8.79815 38.0212ZM8.79815 40.5883C9.36296 40.5883 9.82806 40.1401 9.82806 39.5916C9.82806 39.043 9.36296 38.5841 8.79815 38.5841C8.23335 38.5841 7.77192 39.043 7.77192 39.5916C7.76822 40.1401 8.22967 40.5883 8.79815 40.5883Z" fill="#d6d2d2" fill-rule="nonzero" opacity="1" stroke="none"/>
<path d="M12.5891 38.1465C12.5891 38.1035 12.6297 38.0641 12.674 38.0641L13.0986 38.0641C13.1466 38.0641 13.1835 38.1035 13.1835 38.1465L13.1835 39.9284C13.1835 40.2977 13.4419 40.5917 13.8332 40.5917C14.2245 40.5917 14.4866 40.3013 14.4866 39.9356L14.4866 38.1501C14.4866 38.1071 14.5235 38.0676 14.5715 38.0676L14.996 38.0676C15.0403 38.0676 15.0809 38.1071 15.0809 38.1501L15.0809 39.9607C15.0809 40.624 14.5382 41.1582 13.8295 41.1582C13.1244 41.1582 12.5818 40.624 12.5818 39.9607L12.5818 38.1465L12.5891 38.1465Z" fill="#d6d2d2" fill-rule="nonzero" opacity="1" stroke="none"/>
<path d="M17.4989 38.0964C17.4989 38.0534 17.5395 38.0175 17.5837 38.0175L17.6944 38.0175L19.5588 39.9428L19.5624 39.9428L19.5624 38.143C19.5624 38.1 19.5994 38.0605 19.6472 38.0605L20.0607 38.0605C20.1051 38.0605 20.1457 38.1 20.1457 38.143L20.1457 41.0758C20.1457 41.1188 20.1051 41.1547 20.0607 41.1547L19.9538 41.1547L18.0784 39.1541L18.0748 39.1541L18.0748 41.0256C18.0748 41.0686 18.0378 41.108 17.9897 41.108L17.5801 41.108C17.5359 41.108 17.4953 41.0686 17.4953 41.0256L17.4953 38.0964L17.4989 38.0964Z" fill="#d6d2d2" fill-rule="nonzero" opacity="1" stroke="none"/>
<path d="M22.6004 38.1465C22.6004 38.1035 22.6371 38.0641 22.6816 38.0641L23.7447 38.0641C24.6084 38.0641 25.3171 38.7489 25.3171 39.5842C25.3171 40.4304 24.6084 41.1116 23.7447 41.1116L22.6816 41.1116C22.6371 41.1116 22.6004 41.0722 22.6004 41.0291L22.6004 38.1465ZM23.6892 40.581C24.2725 40.581 24.697 40.1543 24.697 39.5842C24.697 39.0177 24.2725 38.5911 23.6892 38.5911L23.1762 38.5911L23.1762 40.581L23.6892 40.581Z" fill="#d6d2d2" fill-rule="nonzero" opacity="1" stroke="none"/>
<path d="M27.7093 41.0256C27.6908 41.0686 27.6502 41.1116 27.58 41.1116L27.1889 41.1116C27.1224 41.1116 27.0854 41.0543 27.1113 40.9969L28.5067 38.0641C28.5213 38.039 28.5437 38.0175 28.5843 38.0175L28.6285 38.0175C28.6727 38.0175 28.6912 38.039 28.7061 38.0641L30.0866 40.9969C30.1125 41.0543 30.0794 41.1116 30.0092 41.1116L29.6179 41.1116C29.5513 41.1116 29.5181 41.0865 29.4886 41.0256L28.5989 39.1146L28.5843 39.1146L27.7093 41.0256Z" fill="#d6d2d2" fill-rule="nonzero" opacity="1" stroke="none"/>
<path d="M32.3868 38.5875L31.7001 38.5875C31.6521 38.5875 31.6153 38.5481 31.6153 38.505L31.6153 38.1465C31.6153 38.1035 31.6521 38.0641 31.7001 38.0641L33.6603 38.0641C33.7084 38.0641 33.7451 38.1035 33.7451 38.1465L33.7451 38.505C33.7451 38.5481 33.7084 38.5875 33.6603 38.5875L32.9737 38.5875L32.9737 41.0327C32.9737 41.0757 32.9331 41.1152 32.8889 41.1152L32.4718 41.1152C32.4274 41.1152 32.3868 41.0757 32.3868 41.0327L32.3868 38.5875Z" fill="#d6d2d2" fill-rule="nonzero" opacity="1" stroke="none"/>
<path d="M35.8493 38.1465C35.8493 38.1035 35.8899 38.0641 35.9343 38.0641L36.3514 38.0641C36.3956 38.0641 36.4362 38.1035 36.4362 38.1465L36.4362 41.0291C36.4362 41.0722 36.3956 41.1116 36.3514 41.1116L35.9343 41.1116C35.8899 41.1116 35.8493 41.0722 35.8493 41.0291L35.8493 38.1465Z" fill="#d6d2d2" fill-rule="nonzero" opacity="1" stroke="none"/>
<path d="M40.2754 38.0212C41.1725 38.0212 41.8887 38.7239 41.8887 39.5951C41.8887 40.4664 41.1725 41.1583 40.2754 41.1583C39.3783 41.1583 38.666 40.4664 38.666 39.5951C38.666 38.7239 39.3783 38.0212 40.2754 38.0212ZM40.2754 40.5883C40.8402 40.5883 41.3054 40.1401 41.3054 39.5916C41.3054 39.043 40.8402 38.5841 40.2754 38.5841C39.7106 38.5841 39.249 39.043 39.249 39.5916C39.249 40.1401 39.7106 40.5883 40.2754 40.5883Z" fill="#d6d2d2" fill-rule="nonzero" opacity="1" stroke="none"/>
<path d="M44.1146 38.0964C44.1146 38.0534 44.1552 38.0175 44.1997 38.0175L44.3102 38.0175L46.1745 39.9428L46.1781 39.9428L46.1781 38.143C46.1781 38.1 46.2151 38.0605 46.2632 38.0605L46.6767 38.0605C46.7209 38.0605 46.7615 38.1 46.7615 38.143L46.7615 41.0758C46.7615 41.1188 46.7209 41.1547 46.6767 41.1547L46.5695 41.1547L44.6941 39.1541L44.6905 39.1541L44.6905 41.0256C44.6905 41.0686 44.6535 41.108 44.6057 41.108L44.1958 41.108C44.1516 41.108 44.111 41.0686 44.111 41.0256L44.111 38.0964L44.1146 38.0964Z" fill="#d6d2d2" fill-rule="nonzero" opacity="1" stroke="none"/>
<g opacity="1">
<clipPath clip-rule="nonzero" id="ClipPath">
<path d="M8.24177 8.10131L39.6757 8.10131L39.6757 8.10131L39.6757 37.8519L39.6757 37.8519L8.24177 37.8519L8.24177 37.8519L8.24177 8.10131L8.24177 8.10131Z"/>
</clipPath>
<g clip-path="url(#ClipPath)">
<clipPath clip-rule="nonzero" id="ClipPath_2">
<path d="M8.24177 8.10131L39.6757 8.10131L39.6757 8.10131L39.6757 37.8519L39.6757 37.8519L8.24177 37.8519L8.24177 37.8519L8.24177 8.10131L8.24177 8.10131Z"/>
</clipPath>
<g clip-path="url(#ClipPath_2)">
<path d="M23.9096 28.5858L13.7427 28.5858L23.9096 11.4792L23.9096 28.5858Z" fill="url(#LinearGradient)" fill-rule="nonzero" opacity="1" stroke="none"/>
</g>
</g>
</g>
<path d="M14.6841 29.2366C13.7263 29.2289 13.5217 29.6627 14.1111 30.3523C16.4359 33.0872 19.9558 34.8768 23.9505 34.8768C27.9371 34.8768 31.4652 33.0872 33.7818 30.3523C34.3712 29.6627 34.1666 29.2366 33.217 29.2366C28.5756 29.2599 14.6841 29.2366 14.6841 29.2366Z" fill="url(#RadialGradient)" fill-rule="nonzero" opacity="1" stroke="none"/>
<path d="M13.5544 27.3927C13.0878 28.1752 12.5967 28.1287 12.2611 27.3075C10.9268 24.0225 11.0577 20.2262 13.0551 16.9413C15.0525 13.6563 18.4414 11.6497 22.1005 11.1074C23.0174 10.9679 23.312 11.3475 22.8209 12.13C22.8209 12.13 15.8547 23.5654 13.5544 27.3927Z" fill="url(#RadialGradient_2)" fill-rule="nonzero" opacity="1" stroke="none"/>
<path d="M25.072 12.13C24.5891 11.3475 24.8756 10.9679 25.7924 11.1074C29.4515 11.6497 32.8405 13.6563 34.8378 16.9413C36.8352 20.2262 36.9662 24.0225 35.6319 27.3075C35.2962 28.1365 34.8051 28.1752 34.3303 27.3927C34.3303 27.3927 27.405 15.9341 25.072 12.13Z" fill="url(#RadialGradient_3)" fill-rule="nonzero" opacity="1" stroke="none"/>
<g opacity="1">
<clipPath clip-rule="nonzero" id="ClipPath_3">
<path d="M10.3374 10.0847L37.5801 10.0847L37.5801 35.8685L10.3374 35.8685L10.3374 10.0847Z"/>
</clipPath>
<g clip-path="url(#ClipPath_3)">
<clipPath clip-rule="nonzero" id="ClipPath_4">
<path d="M22.4362 11.0764C22.3461 11.0764 22.2397 11.0841 22.1251 11.1074C18.466 11.6497 15.077 13.6563 13.0796 16.9413C11.0905 20.2262 10.9513 24.0225 12.2856 27.3075C12.6212 28.1287 13.1124 28.1752 13.5872 27.3927C15.8792 23.5654 22.8455 12.13 22.8455 12.13C23.2711 11.4483 23.1074 11.0686 22.4362 11.0764ZM25.5059 11.0764C24.8428 11.0686 24.6791 11.4405 25.0966 12.13C27.4296 15.9341 34.363 27.3927 34.363 27.3927C34.8296 28.183 35.3208 28.1365 35.6564 27.3075C36.9907 24.0225 36.8597 20.2262 34.8624 16.9413C32.865 13.6563 29.476 11.6497 25.8251 11.1074C25.7023 11.0841 25.5959 11.0764 25.5059 11.0764ZM14.7086 29.2444C13.7509 29.2289 13.5462 29.6627 14.1356 30.3523C16.4604 33.0872 19.9886 34.8768 23.9751 34.8768C27.9616 34.8768 31.4898 33.0872 33.8146 30.3523C34.3958 29.6627 34.1911 29.2366 33.2416 29.2444C28.6083 29.2599 14.7086 29.2444 14.7086 29.2444Z"/>
</clipPath>
<g clip-path="url(#ClipPath_4)">
<g opacity="1">
<clipPath clip-rule="nonzero" id="ClipPath_5">
<path d="M8.24177 8.10131L39.6757 8.10131L39.6757 8.10131L39.6757 37.8519L39.6757 37.8519L8.24177 37.8519L8.24177 37.8519L8.24177 8.10131L8.24177 8.10131Z"/>
</clipPath>
<g clip-path="url(#ClipPath_5)">
<clipPath clip-rule="nonzero" id="ClipPath_6">
<path d="M8.24177 8.10131L39.6757 8.10131L39.6757 8.10131L39.6757 37.8519L39.6757 37.8519L8.24177 37.8519L8.24177 37.8519L8.24177 8.10131L8.24177 8.10131Z"/>
</clipPath>
<g clip-path="url(#ClipPath_6)">
<path d="M32.775 18.0569C34.4613 20.8383 35.6237 24.0845 35.6564 27.2765C36.9907 23.9993 36.8597 20.1952 34.8624 16.9103C32.865 13.6253 29.476 11.6187 25.8169 11.0764C28.7148 12.7034 31.0887 15.2755 32.775 18.0569ZM13.0796 16.9103C15.077 13.6253 18.466 11.6187 22.1251 11.0764C19.2273 12.7034 16.8615 15.2755 15.1671 18.0569C13.4808 20.8383 12.3184 24.0845 12.2856 27.2765C10.9513 23.9915 11.0905 20.1952 13.0796 16.9103ZM14.7086 29.2134C14.7086 29.2134 28.6083 29.2289 33.2416 29.2134C30.3847 30.6699 27.2085 31.5144 23.9751 31.5144C20.7417 31.5144 17.5573 30.6699 14.7086 29.2134Z" fill="#000000" fill-rule="nonzero" opacity="1" stroke="none"/>
</g>
</g>
</g>
<g opacity="1">
<clipPath clip-rule="nonzero" id="ClipPath_7">
<path d="M8.24177 8.10131L39.6757 8.10131L39.6757 8.10131L39.6757 37.8519L39.6757 37.8519L8.24177 37.8519L8.24177 37.8519L8.24177 8.10131L8.24177 8.10131Z"/>
</clipPath>
<g clip-path="url(#ClipPath_7)">
<clipPath clip-rule="nonzero" id="ClipPath_8">
<path d="M8.24177 8.10131L39.6757 8.10131L39.6757 8.10131L39.6757 37.8519L39.6757 37.8519L8.24177 37.8519L8.24177 37.8519L8.24177 8.10131L8.24177 8.10131Z"/>
</clipPath>
<g clip-path="url(#ClipPath_8)">
<path d="M23.9751 32.5603C20.5943 32.5603 17.058 31.894 14.1356 30.3213C16.4604 33.0639 19.9804 34.8459 23.9751 34.8459C27.9616 34.8459 31.4898 33.0639 33.8064 30.3213C30.884 31.894 27.3477 32.5603 23.9751 32.5603ZM31.8254 18.5837C33.438 21.2412 34.2648 24.2859 34.363 27.3617C34.363 27.3617 27.4296 15.9031 25.0966 12.099C27.847 13.7183 30.2046 15.9186 31.8254 18.5837ZM22.8455 12.099C22.8455 12.099 15.8792 23.5344 13.5872 27.3617C13.6854 24.2859 14.504 21.2412 16.1166 18.5837C17.7374 15.9186 20.095 13.7183 22.8455 12.099Z" fill="#ffffff" fill-rule="nonzero" opacity="1" stroke="none"/>
</g>
</g>
</g>
</g>
</g>
</g>
</g>
</svg>
