<?xml version="1.0" encoding="UTF-8" standalone="no"?>
<!DOCTYPE svg PUBLIC "-//W3C//DTD SVG 1.1//EN" "http://www.w3.org/Graphics/SVG/1.1/DTD/svg11.dtd">
<!-- Created with Vectornator (http://vectornator.io/) -->
<svg height="50.0pt" stroke-miterlimit="10" style="fill-rule:nonzero;clip-rule:evenodd;stroke-linecap:round;stroke-linejoin:round;" version="1.1" viewBox="0 0 50 50" width="50.0pt" xml:space="preserve" xmlns="http://www.w3.org/2000/svg" xmlns:xlink="http://www.w3.org/1999/xlink">
<defs/>
<g id="Untitled">
<path d="M24.9992 9.31397C16.3363 9.31397 9.31397 16.3363 9.31397 25.0008C9.31397 33.6653 16.3363 40.686 24.9992 40.686C33.662 40.686 40.686 33.662 40.686 24.9992C40.686 16.3363 33.662 9.31397 24.9992 9.31397ZM33.0571 33.7173L28.5003 30.2281L28.5231 30.4929C29.6483 31.6982 30.6696 34.8319 30.6696 34.8319L19.8566 34.8319C21.0391 31.3424 21.7278 31.4563 21.7278 31.4563L22.853 28.9196L22.853 28.2074C22.2904 28.1743 21.7741 25.8659 21.7741 25.8659C18.3419 25.5681 17.4314 23.7767 17.4314 23.7767L18.0033 21.6818C16.7004 20.402 16.6087 20.2355 16.6087 19.8338C16.6087 19.432 16.8734 19.3688 16.8734 19.3688C16.9423 19.2311 17.1144 19.2655 17.1144 19.2655C17.1832 19.1279 17.3441 19.1606 17.3441 19.1606C17.417 19.0318 17.551 18.9496 17.6988 18.9429C18.2039 19.4939 18.7433 18.8624 18.9498 18.4951C19.1563 18.1277 19.5008 18.2886 19.5008 18.2886C19.524 18.1049 19.7305 18.0589 19.7305 18.0589C19.9953 17.6687 20.3044 18.0589 20.3044 18.0589L20.73 18.0589L30.2688 15.1664L31.394 15.2326L30.8993 15.6268C25.8715 16.8205 20.3044 18.7949 20.3044 18.7949C19.7954 19.3843 19.4284 20.8153 19.4284 20.8153L21.9687 21.0371C21.8158 19.4154 22.0299 17.9149 23.6294 17.9149C25.2288 17.9149 25.2593 19.6905 25.2593 19.6905L25.2593 21.1824L25.9404 21.6109C26.3613 21.5345 26.7347 22.2464 26.7347 22.2464C26.7347 22.2464 27.515 23.685 27.3469 24.0599C27.1788 24.4349 27.4694 24.8711 27.4694 24.8711L27.4694 28.2381C28.1885 29.5391 33.3883 33.3612 33.3883 33.3612L33.0571 33.7173Z" fill="#d6d2d2" fill-rule="nonzero" opacity="1" stroke="none"/>
</g>
</svg>
