<?xml version="1.0" encoding="UTF-8"?>
<svg xmlns="http://www.w3.org/2000/svg" xmlns:xlink="http://www.w3.org/1999/xlink" width="15px" height="15px" viewBox="0 0 15 14" version="1.1">
<g id="surface1">
<path style=" stroke:none;fill-rule:nonzero;fill:rgb(0%,0%,0%);fill-opacity:1;" d="M 12.308594 5.214844 C 12.242188 5.066406 12.15625 4.890625 12.09375 4.773438 C 11.761719 4.121094 11.703125 4.082031 11.652344 4.046875 C 11.636719 4.03125 11.613281 4.019531 11.585938 4.007812 C 11.585938 3.980469 11.585938 3.949219 11.585938 3.921875 C 11.5625 3.726562 11.382812 3.625 10.992188 3.46875 C 10.652344 3.332031 10.523438 3.300781 10.464844 3.292969 C 10.453125 3.265625 10.441406 3.234375 10.4375 3.21875 C 10.4375 3.125 10.394531 3.011719 10.230469 2.910156 C 10.175781 2.878906 10.109375 2.84375 10.023438 2.804688 C 9.882812 2.742188 9.71875 2.679688 9.621094 2.648438 C 9.597656 2.636719 9.535156 2.613281 9.472656 2.589844 C 8.945312 2.382812 8.644531 2.277344 8.472656 2.277344 C 8.355469 2.277344 8.027344 2.304688 7.734375 2.34375 C 7.183594 2.417969 6.980469 2.492188 6.890625 2.660156 C 6.847656 2.738281 6.824219 2.851562 6.800781 3.476562 C 6.628906 3.121094 6.449219 2.773438 6.363281 2.675781 C 6.304688 2.601562 6.210938 2.5625 6.117188 2.5625 C 6.105469 2.5625 6.089844 2.5625 6.078125 2.566406 L 5.023438 2.695312 C 4.957031 2.703125 4.898438 2.730469 4.847656 2.773438 L 3.46875 3.992188 C 3.417969 4.035156 3.386719 4.089844 3.375 4.152344 C 3.363281 4.199219 3.300781 4.386719 3.246094 4.554688 C 2.792969 5.902344 2.761719 6.160156 2.882812 6.347656 C 3.074219 6.640625 3.285156 6.691406 3.625 6.691406 C 3.742188 6.691406 4.160156 6.707031 4.601562 6.71875 C 5.175781 6.738281 5.832031 6.761719 6.144531 6.761719 C 6.328125 6.761719 6.566406 6.914062 6.738281 7.023438 C 6.761719 7.039062 6.785156 7.054688 6.808594 7.066406 C 6.914062 7.132812 7.15625 7.3125 7.199219 7.601562 C 7.199219 7.871094 7.1875 11.09375 7.175781 11.335938 C 7.171875 11.546875 7.164062 11.730469 7.300781 11.863281 C 7.355469 11.914062 7.449219 11.976562 7.605469 11.976562 L 7.609375 11.976562 C 7.785156 11.976562 7.890625 11.90625 7.949219 11.847656 C 8.003906 11.796875 8.03125 11.738281 8.050781 11.679688 L 9 11.679688 L 9 10.898438 L 8.640625 10.898438 L 8.640625 10.585938 L 9 10.585938 L 9 9.710938 L 8.09375 9.710938 C 8.09375 9.511719 8.09375 9.339844 8.09375 9.238281 C 8.089844 9 8.109375 8.394531 8.121094 8.066406 C 8.121094 7.996094 8.125 7.9375 8.125 7.894531 C 8.125 7.835938 8.128906 7.789062 8.128906 7.75 C 8.132812 7.632812 8.132812 7.574219 8.144531 7.433594 C 8.152344 7.3125 8.164062 7.296875 8.273438 7.140625 C 8.339844 7.050781 8.742188 6.8125 9.046875 6.699219 C 9.308594 6.613281 11.417969 6.472656 11.660156 6.46875 C 11.90625 6.46875 12.070312 6.253906 12.195312 6.042969 C 12.28125 5.902344 12.375 5.71875 12.398438 5.636719 C 12.433594 5.527344 12.40625 5.429688 12.308594 5.214844 Z M 7.78125 9.460938 L 7.503906 9.460938 C 7.503906 9.207031 7.503906 8.949219 7.503906 8.714844 L 7.789062 8.714844 C 7.78125 8.925781 7.78125 9.121094 7.78125 9.238281 C 7.78125 9.296875 7.78125 9.371094 7.78125 9.460938 Z M 7.832031 7.414062 C 7.816406 7.609375 7.820312 7.65625 7.8125 7.886719 C 7.808594 8.007812 7.800781 8.296875 7.792969 8.585938 L 7.507812 8.585938 C 7.507812 8.015625 7.511719 7.582031 7.511719 7.582031 C 7.503906 7.539062 7.496094 7.496094 7.484375 7.457031 C 7.519531 7.464844 7.539062 7.464844 7.550781 7.464844 C 7.59375 7.464844 7.6875 7.449219 7.832031 7.410156 C 7.832031 7.414062 7.832031 7.414062 7.832031 7.414062 Z M 11.273438 3.949219 C 11.28125 4.007812 11.261719 4.105469 11.257812 4.175781 L 9.539062 5.214844 L 9.535156 5.21875 L 8.261719 6.480469 L 7.964844 6.929688 L 8.152344 6.367188 L 9.261719 4.777344 L 10.421875 3.585938 C 10.421875 3.585938 10.425781 3.582031 10.429688 3.582031 C 10.484375 3.582031 11.261719 3.863281 11.273438 3.949219 Z M 9.507812 2.917969 C 9.6875 2.980469 10.136719 3.15625 10.125 3.21875 C 10.113281 3.265625 10.199219 3.46875 10.242188 3.578125 L 9.15625 4.695312 L 9.152344 4.699219 L 8.03125 6.304688 L 8.027344 6.308594 L 8.027344 6.3125 L 8.023438 6.3125 L 7.753906 7.128906 C 7.738281 7.132812 7.726562 7.136719 7.710938 7.140625 L 7.769531 6.675781 L 8.089844 4.699219 L 8.539062 2.578125 C 8.785156 2.625 9.386719 2.875 9.507812 2.917969 Z M 8.398438 2.570312 L 7.953125 4.675781 L 7.632812 6.65625 L 7.589844 6.980469 L 7.578125 6.03125 L 7.578125 6.019531 L 7.082031 4.457031 C 7.09375 3.992188 7.117188 2.886719 7.167969 2.789062 C 7.230469 2.675781 8.105469 2.585938 8.398438 2.570312 Z M 6.117188 2.851562 C 6.234375 2.992188 6.738281 4.035156 6.859375 4.367188 C 6.914062 4.519531 6.960938 4.601562 7 4.644531 L 7.441406 6.039062 L 7.453125 6.949219 L 7.246094 6.148438 L 7.246094 6.144531 L 6.359375 4.640625 L 5.140625 2.972656 Z M 5.011719 3.027344 L 6.242188 4.707031 L 7.113281 6.191406 L 7.308594 6.941406 L 6.996094 6.363281 L 6.992188 6.359375 L 5.039062 4.800781 L 5.03125 4.796875 L 3.734375 4.152344 Z M 6.148438 6.46875 C 5.589844 6.464844 3.898438 6.402344 3.625 6.402344 C 3.347656 6.402344 3.265625 6.371094 3.148438 6.195312 C 3.039062 6.03125 3.558594 4.617188 3.664062 4.265625 L 4.953125 4.902344 L 6.882812 6.441406 L 7.164062 6.960938 C 7.101562 6.910156 7.042969 6.863281 6.980469 6.824219 C 6.761719 6.6875 6.453125 6.472656 6.148438 6.46875 Z M 8.074219 11.363281 C 8.074219 11.332031 8.078125 11.1875 8.078125 11.003906 C 8.082031 10.722656 8.085938 10.34375 8.089844 10 L 8.6875 10 L 8.6875 10.292969 L 8.328125 10.292969 L 8.328125 11.1875 L 8.6875 11.1875 L 8.6875 11.386719 L 8.078125 11.386719 C 8.074219 11.378906 8.074219 11.367188 8.074219 11.363281 Z M 8.707031 11.394531 Z M 8.707031 10.300781 L 8.707031 10.296875 Z M 8.679688 9.984375 L 8.699219 9.984375 Z M 8.632812 10.914062 L 8.636719 10.914062 Z M 8.625 10.574219 L 8.625 10.578125 Z M 7.78125 9.710938 L 7.761719 9.710938 L 7.761719 10 L 7.777344 10 C 7.773438 10.59375 7.761719 11.289062 7.761719 11.363281 C 7.761719 11.371094 7.765625 11.378906 7.765625 11.386719 L 7.761719 11.386719 L 7.761719 11.566406 C 7.75 11.632812 7.710938 11.683594 7.609375 11.683594 C 7.609375 11.683594 7.605469 11.683594 7.605469 11.683594 C 7.488281 11.683594 7.480469 11.605469 7.488281 11.34375 C 7.492188 11.226562 7.496094 10.421875 7.5 9.59375 L 7.78125 9.59375 C 7.78125 9.628906 7.78125 9.667969 7.78125 9.710938 Z M 11.660156 6.179688 C 11.511719 6.179688 9.222656 6.316406 8.933594 6.425781 C 8.730469 6.503906 8.417969 6.660156 8.207031 6.808594 L 8.367188 6.5625 L 9.625 5.320312 L 11.363281 4.265625 C 11.378906 4.261719 11.390625 4.261719 11.40625 4.261719 C 11.429688 4.261719 11.445312 4.265625 11.464844 4.277344 C 11.519531 4.316406 12.125 5.46875 12.097656 5.558594 C 12.074219 5.644531 11.808594 6.179688 11.660156 6.179688 Z M 11.660156 6.179688 "/>
<path style=" stroke:none;fill-rule:nonzero;fill:rgb(0%,0%,0%);fill-opacity:1;" d="M 7.5 1.101562 C 4.015625 1.101562 1.179688 3.746094 1.179688 7 C 1.179688 10.253906 4.015625 12.898438 7.5 12.898438 C 10.984375 12.898438 13.820312 10.253906 13.820312 7 C 13.820312 3.746094 10.984375 1.101562 7.5 1.101562 Z M 10.667969 7.472656 C 10.132812 7.472656 9.695312 7.878906 9.695312 8.382812 L 9.695312 12.136719 C 9.015625 12.390625 8.277344 12.535156 7.5 12.535156 C 4.230469 12.535156 1.570312 10.050781 1.570312 7 C 1.570312 3.949219 4.230469 1.464844 7.5 1.464844 C 10.769531 1.464844 13.429688 3.949219 13.429688 7 C 13.429688 7.160156 13.417969 7.316406 13.402344 7.472656 Z M 10.085938 11.972656 L 10.085938 8.382812 C 10.085938 8.082031 10.347656 7.839844 10.667969 7.839844 L 13.355469 7.839844 C 13.054688 9.660156 11.804688 11.191406 10.085938 11.972656 Z M 10.085938 11.972656 "/>
<path style=" stroke:none;fill-rule:nonzero;fill:rgb(0%,0%,0%);fill-opacity:1;" d="M 5.332031 7.472656 L 4.277344 7.472656 C 3.742188 7.472656 3.304688 7.878906 3.304688 8.382812 L 3.304688 9.730469 C 3.304688 10.230469 3.742188 10.636719 4.277344 10.636719 L 5.332031 10.636719 C 5.867188 10.636719 6.304688 10.230469 6.304688 9.730469 L 6.304688 8.382812 C 6.304688 7.878906 5.867188 7.472656 5.332031 7.472656 Z M 3.695312 8.382812 C 3.695312 8.082031 3.957031 7.839844 4.277344 7.839844 L 5.332031 7.839844 C 5.652344 7.839844 5.914062 8.082031 5.914062 8.382812 L 5.914062 9.730469 C 5.914062 10.027344 5.652344 10.273438 5.332031 10.273438 L 4.277344 10.273438 C 3.957031 10.273438 3.695312 10.027344 3.695312 9.730469 Z M 3.695312 8.382812 "/>
</g>
</svg>
