<?xml version="1.0" encoding="UTF-8" standalone="no"?>
<!DOCTYPE svg PUBLIC "-//W3C//DTD SVG 1.1//EN" "http://www.w3.org/Graphics/SVG/1.1/DTD/svg11.dtd">
<!-- Created with Vectornator (http://vectornator.io/) -->
<svg height="50.0px" stroke-miterlimit="10" style="fill-rule:nonzero;clip-rule:evenodd;stroke-linecap:round;stroke-linejoin:round;" version="1.1" viewBox="0 0 50 50" width="50.0px" xml:space="preserve" xmlns="http://www.w3.org/2000/svg" xmlns:xlink="http://www.w3.org/1999/xlink">
<defs/>
<g id="surface1">
<path d="M40.0026 19.4304C39.7954 18.9673 39.5272 18.4189 39.3323 18.0532C38.2963 16.018 38.1135 15.8961 37.9551 15.7864C37.9063 15.7377 37.8332 15.7011 37.7479 15.6645C37.7479 15.5792 37.7479 15.4817 37.7479 15.3964C37.6748 14.7871 37.1142 14.4702 35.8954 13.9827C34.8351 13.5561 34.433 13.4586 34.2502 13.4343C34.2136 13.349 34.177 13.2515 34.1648 13.2027C34.1648 12.9102 34.0308 12.5568 33.5189 12.2399C33.3483 12.1424 33.1411 12.0327 32.873 11.9109C32.4342 11.7159 31.9224 11.5209 31.6177 11.4234C31.5446 11.3868 31.3496 11.3137 31.1546 11.2406C29.5093 10.5946 28.5709 10.2656 28.0346 10.2656C27.669 10.2656 26.6453 10.3509 25.7312 10.4728C24.0128 10.7043 23.3791 10.9359 23.0988 11.4599C22.9647 11.7037 22.8916 12.0571 22.8185 14.0071C22.2822 12.898 21.7216 11.8134 21.4535 11.5087C21.2707 11.2771 20.9782 11.1552 20.6857 11.1552C20.6491 11.1552 20.6004 11.1552 20.5638 11.1674L17.2733 11.5696C17.0661 11.594 16.8833 11.6793 16.7248 11.8134L12.4227 15.6158C12.2643 15.7498 12.1668 15.9205 12.1302 16.1155C12.0937 16.2617 11.8987 16.8467 11.728 17.3708C10.3143 21.5754 10.2168 22.3797 10.5946 22.9647C11.1918 23.8788 11.8499 24.0372 12.9102 24.0372C13.2758 24.0372 14.5799 24.086 15.957 24.1225C17.7486 24.1835 19.796 24.2566 20.771 24.2566C21.3438 24.2566 22.0872 24.7319 22.6235 25.0731C22.6966 25.1219 22.7697 25.1706 22.8429 25.2072C23.1719 25.4144 23.9275 25.975 24.0616 26.8768C24.0616 27.7178 24.025 37.7723 23.9885 38.5279C23.9763 39.186 23.9519 39.7588 24.3784 40.1732C24.5491 40.3316 24.8416 40.5266 25.3291 40.5266L25.3412 40.5266C25.8897 40.5266 26.2187 40.3072 26.4015 40.1244C26.5722 39.966 26.6575 39.7832 26.7184 39.6004L29.6799 39.6004L29.6799 37.1629L28.5587 37.1629L28.5587 36.1879L29.6799 36.1879L29.6799 33.458L26.8525 33.458C26.8525 32.8364 26.8525 32.3002 26.8525 31.9833C26.8403 31.2399 26.9012 29.3509 26.9378 28.3271C26.9378 28.1078 26.95 27.9249 26.95 27.7909C26.95 27.6081 26.9622 27.4618 26.9622 27.34C26.9743 26.9743 26.9743 26.7915 27.0109 26.3528C27.0353 25.975 27.0718 25.9262 27.4131 25.4387C27.6203 25.1584 28.8756 24.415 29.8262 24.0616C30.6427 23.7935 37.2239 23.3547 37.9795 23.3425C38.7473 23.3425 39.2591 22.6722 39.6491 22.0141C39.9172 21.5754 40.2097 21.0026 40.2829 20.7466C40.3925 20.4054 40.3072 20.1007 40.0026 19.4304ZM25.8775 32.678L25.0122 32.678C25.0122 31.8858 25.0122 31.0815 25.0122 30.3502L25.9019 30.3502C25.8775 31.0083 25.8775 31.6177 25.8775 31.9833C25.8775 32.1661 25.8775 32.3977 25.8775 32.678ZM26.0359 26.2919C25.9872 26.9012 25.9994 27.0475 25.975 27.7665C25.9628 28.1443 25.9384 29.0462 25.914 29.948L25.0244 29.948C25.0244 28.1687 25.0366 26.8159 25.0366 26.8159C25.0122 26.6818 24.9878 26.5478 24.9513 26.4259C25.0609 26.4503 25.1219 26.4503 25.1584 26.4503C25.2925 26.4503 25.585 26.4015 26.0359 26.2797C26.0359 26.2919 26.0359 26.2919 26.0359 26.2919ZM36.7729 15.4817C36.7973 15.6645 36.7364 15.9692 36.7242 16.1886L31.3618 19.4304L31.3496 19.4426L27.3765 23.3791L26.4503 24.7806L27.0353 23.0257L30.4965 18.0654L34.1161 14.3483C34.1161 14.3483 34.1283 14.3361 34.1405 14.3361C34.3111 14.3361 36.7364 15.2136 36.7729 15.4817ZM31.2643 12.2643C31.8249 12.4593 33.2264 13.0077 33.1899 13.2027C33.1533 13.349 33.4214 13.9827 33.5555 14.3239L30.1674 17.8095L30.1552 17.8217L26.6575 22.8307L26.6453 22.8429L26.6453 22.855L26.6331 22.855L25.7922 25.4022C25.7434 25.4144 25.7069 25.4266 25.6581 25.4387L25.8409 23.9885L26.8403 17.8217L28.2418 11.204C29.0096 11.3502 30.8865 12.1302 31.2643 12.2643ZM27.8031 11.1796L26.4137 17.7486L25.4144 23.9275L25.2803 24.9391L25.2437 21.9776L25.2437 21.941L23.696 17.0661C23.7325 15.6158 23.8056 12.1668 23.9641 11.8621C24.1591 11.5087 26.889 11.2284 27.8031 11.1796ZM20.6857 12.0571C21.0513 12.4958 22.6235 15.7498 23.0013 16.7858C23.1719 17.2611 23.3182 17.517 23.44 17.6511L24.8172 22.0019L24.8538 24.8416L24.2078 22.3432L24.2078 22.331L21.4413 17.6389L17.6389 12.4349L20.6857 12.0571ZM17.2367 12.6055L21.0757 17.8461L23.7935 22.4772L24.4028 24.8172L23.4278 23.0135L23.4157 23.0013L17.322 18.1386L17.2976 18.1264L13.2515 16.1155L17.2367 12.6055ZM20.7832 23.3425C19.0404 23.3303 13.7633 23.1353 12.9102 23.1353C12.0449 23.1353 11.789 23.0378 11.4234 22.4894C11.0821 21.9776 12.703 17.5658 13.0321 16.4689L17.0539 18.4554L23.0744 23.2572L23.9519 24.8781C23.7569 24.7197 23.5741 24.5734 23.3791 24.4516C22.6966 24.025 21.7338 23.3547 20.7832 23.3425ZM26.7915 38.6132C26.7915 38.5157 26.8037 38.0648 26.8037 37.492C26.8159 36.6145 26.8281 35.4323 26.8403 34.3598L28.7049 34.3598L28.7049 35.2739L27.5837 35.2739L27.5837 38.0648L28.7049 38.0648L28.7049 38.6863L26.8037 38.6863C26.7915 38.6619 26.7915 38.6254 26.7915 38.6132ZM28.7659 35.2983L28.7659 35.2861L28.7659 35.2983ZM28.6806 34.3111L28.7415 34.3111L28.6806 34.3111ZM28.5343 37.2117L28.5465 37.2117L28.5343 37.2117ZM28.5099 36.1514L28.5099 36.1636L28.5099 36.1514ZM25.8775 33.458L25.8165 33.458L25.8165 34.3598L25.8653 34.3598C25.8531 36.2123 25.8165 38.3816 25.8165 38.6132C25.8165 38.6376 25.8287 38.6619 25.8287 38.6863L25.8165 38.6863L25.8165 39.2469C25.78 39.4541 25.6581 39.6126 25.3412 39.6126L25.3291 39.6126C24.9634 39.6126 24.9391 39.3688 24.9634 38.5523C24.9756 38.1866 24.9878 35.6761 25 33.0924L25.8775 33.0924C25.8775 33.202 25.8775 33.3239 25.8775 33.458ZM37.9795 22.4407C37.5163 22.4407 30.3746 22.8672 29.4727 23.2085C28.839 23.4522 27.864 23.9397 27.2059 24.4028L27.7056 23.635L31.6299 19.7595L37.0532 16.4689C37.102 16.4567 37.1385 16.4567 37.1873 16.4567C37.2604 16.4567 37.3092 16.4689 37.3701 16.5055C37.5407 16.6273 39.4297 20.2226 39.3444 20.5029C39.2713 20.771 38.4426 22.4407 37.9795 22.4407Z" fill="#242424" fill-rule="nonzero" opacity="1" stroke="none"/>
<path d="M25 6.59719C14.1289 6.59719 5.28097 14.848 5.28097 25C5.28097 35.152 14.1289 43.4028 25 43.4028C35.8711 43.4028 44.719 35.152 44.719 25C44.719 14.848 35.8711 6.59719 25 6.59719ZM34.8839 26.4747C33.2142 26.4747 31.8493 27.7421 31.8493 29.3143L31.8493 41.0263C29.7287 41.8185 27.4253 42.2694 25 42.2694C14.7992 42.2694 6.4997 34.5183 6.4997 25C6.4997 15.4817 14.7992 7.73061 25 7.73061C35.2008 7.73061 43.5003 15.4817 43.5003 25C43.5003 25.4997 43.4637 25.9872 43.415 26.4747L34.8839 26.4747ZM33.068 40.5144L33.068 29.3143C33.068 28.3759 33.8845 27.6203 34.8839 27.6203L43.2687 27.6203C42.3303 33.2995 38.4304 38.077 33.068 40.5144Z" fill="#242424" fill-rule="nonzero" opacity="1" stroke="none"/>
<path d="M18.2361 26.4747L14.9455 26.4747C13.2758 26.4747 11.9109 27.7421 11.9109 29.3143L11.9109 33.5189C11.9109 35.0789 13.2758 36.3464 14.9455 36.3464L18.2361 36.3464C19.9057 36.3464 21.2707 35.0789 21.2707 33.5189L21.2707 29.3143C21.2707 27.7421 19.9057 26.4747 18.2361 26.4747ZM13.1296 29.3143C13.1296 28.3759 13.9461 27.6203 14.9455 27.6203L18.2361 27.6203C19.2354 27.6203 20.052 28.3759 20.052 29.3143L20.052 33.5189C20.052 34.4451 19.2354 35.2129 18.2361 35.2129L14.9455 35.2129C13.9461 35.2129 13.1296 34.4451 13.1296 33.5189L13.1296 29.3143Z" fill="#242424" fill-rule="nonzero" opacity="1" stroke="none"/>
</g>
</svg>
