<?xml version="1.0" encoding="UTF-8" standalone="no"?>
<!DOCTYPE svg PUBLIC "-//W3C//DTD SVG 1.1//EN" "http://www.w3.org/Graphics/SVG/1.1/DTD/svg11.dtd">
<!-- Created with Vectornator (http://vectornator.io/) -->
<svg height="50.0pt" stroke-miterlimit="10" style="fill-rule:nonzero;clip-rule:evenodd;stroke-linecap:round;stroke-linejoin:round;" version="1.1" viewBox="0 0 50 50" width="50.0pt" xml:space="preserve" xmlns="http://www.w3.org/2000/svg" xmlns:xlink="http://www.w3.org/1999/xlink">
<defs/>
<g id="Untitled">
<path d="M13.0134 11.5676L36.9866 11.5676C37.7851 11.5676 38.4324 12.2149 38.4324 13.0134L38.4324 36.9866C38.4324 37.7851 37.7851 38.4324 36.9866 38.4324L13.0134 38.4324C12.2149 38.4324 11.5676 37.7851 11.5676 36.9866L11.5676 13.0134C11.5676 12.2149 12.2149 11.5676 13.0134 11.5676Z" fill="#d6d2d2" fill-rule="nonzero" opacity="1" stroke="none"/>
<g opacity="1">
<g opacity="1">
<path d="M29.4637 15.2952C28.9389 16.9005 28.3931 18.4992 27.6543 20.0206C27.3837 20.578 27.0541 21.11 26.7154 21.63C26.3044 22.2609 25.6938 22.5248 24.9453 22.4786C24.8151 22.4706 24.6823 22.4734 24.5531 22.4889C24.0733 22.5454 23.7425 22.8136 23.5266 23.2359C23.3423 23.5965 23.2572 23.9866 23.2113 24.384C23.1338 25.0532 23.1724 25.7157 23.367 26.3646C23.4527 26.6504 23.5789 26.9164 23.7859 27.1353C24.028 27.391 24.3338 27.5069 24.6801 27.5202C24.893 27.5284 25.1061 27.5245 25.3186 27.5321C25.921 27.5537 26.3484 27.8799 26.699 28.3357C27.1995 28.9857 27.5537 29.7188 27.8848 30.4628C28.5047 31.8571 29.0064 33.2965 29.4792 34.7462" fill="none" opacity="1" stroke="#242424" stroke-linecap="butt" stroke-linejoin="miter" stroke-width="0.429799"/>
<path d="M24.9903 15.1529L24.9903 34.8471" fill="none" opacity="1" stroke="#242424" stroke-linecap="butt" stroke-linejoin="miter" stroke-width="0.214778"/>
<path d="M15.1529 25.01L34.8471 25.01" fill="none" opacity="1" stroke="#242424" stroke-linecap="butt" stroke-linejoin="miter" stroke-width="0.214778"/>
</g>
</g>
</g>
</svg>
