<?xml version="1.0" encoding="UTF-8" standalone="no"?>
<!DOCTYPE svg PUBLIC "-//W3C//DTD SVG 1.1//EN" "http://www.w3.org/Graphics/SVG/1.1/DTD/svg11.dtd">
<!-- Created with Vectornator (http://vectornator.io/) -->
<svg height="50.0pt" stroke-miterlimit="10" style="fill-rule:nonzero;clip-rule:evenodd;stroke-linecap:round;stroke-linejoin:round;" version="1.1" viewBox="0 0 50 50" width="50.0pt" xml:space="preserve" xmlns="http://www.w3.org/2000/svg" xmlns:xlink="http://www.w3.org/1999/xlink">
<defs/>
<g id="Untitled">
<g opacity="1">
<path d="M9.97866 15.2631L40.0213 15.2631C40.458 15.2631 40.8119 15.6171 40.8119 16.0537L40.8119 33.9463C40.8119 34.3829 40.458 34.7369 40.0213 34.7369L9.97866 34.7369C9.54202 34.7369 9.18806 34.3829 9.18806 33.9463L9.18806 16.0537C9.18806 15.6171 9.54202 15.2631 9.97866 15.2631Z" fill="#d6d2d2" fill-rule="nonzero" opacity="1" stroke="none"/>
<g opacity="1">
<path d="M10.3734 16.433L11.1379 16.433C11.1991 16.433 11.2487 16.4826 11.2487 16.5438L11.2487 17.2804C11.2487 17.3417 11.1991 17.3912 11.1379 17.3912L10.3734 17.3912C10.3122 17.3912 10.263 17.3417 10.263 17.2804L10.263 16.5438C10.263 16.4826 10.3122 16.433 10.3734 16.433M11.5557 18.7752L12.3195 18.7752C12.3807 18.7752 12.43 18.8248 12.43 18.886L12.43 19.6216C12.43 19.6825 12.3807 19.732 12.3195 19.732L11.5557 19.732C11.4945 19.732 11.4449 19.6825 11.4449 19.6216L11.4449 18.886C11.4449 18.8248 11.4945 18.7752 11.5557 18.7752M11.5554 16.433L12.3198 16.433C12.3811 16.433 12.4306 16.4826 12.4306 16.5438L12.4306 17.2804C12.4306 17.3417 12.3811 17.3912 12.3198 17.3912L11.5554 17.3912C11.4941 17.3912 11.4449 17.3417 11.4449 17.2804L11.4449 16.5438C11.4449 16.4826 11.4941 16.433 11.5554 16.433M12.7308 18.7749L13.4952 18.7749C13.5565 18.7749 13.606 18.8248 13.606 18.8857L13.606 19.6219C13.606 19.6832 13.5565 19.7327 13.4952 19.7327L12.7308 19.7327C12.6695 19.7327 12.6199 19.6832 12.6199 19.6219L12.6199 18.8857C12.6199 18.8248 12.6695 18.7749 12.7308 18.7749M12.7308 16.433L13.4952 16.433C13.5565 16.433 13.606 16.4826 13.606 16.5438L13.606 17.2804C13.606 17.3417 13.5565 17.3912 13.4952 17.3912L12.7308 17.3912C12.6695 17.3912 12.6199 17.3417 12.6199 17.2804L12.6199 16.5438C12.6199 16.4826 12.6695 16.433 12.7308 16.433M12.7308 17.6039L13.4952 17.6039C13.5565 17.6039 13.606 17.6538 13.606 17.7148L13.606 18.4513C13.606 18.5126 13.5565 18.5622 13.4952 18.5622L12.7308 18.5622C12.6695 18.5622 12.6199 18.5126 12.6199 18.4513L12.6199 17.7148C12.6199 17.6538 12.6695 17.6039 12.7308 17.6039M11.5554 17.6039L12.3202 17.6039C12.3814 17.6039 12.431 17.6538 12.431 17.7148L12.431 18.4513C12.431 18.5126 12.3814 18.5622 12.3202 18.5622L11.5554 18.5622C11.4941 18.5622 11.4445 18.5126 11.4445 18.4513L11.4445 17.7148C11.4445 17.6538 11.4941 17.6039 11.5554 17.6039M10.3803 17.6039L11.1313 17.6039C11.1923 17.6039 11.2418 17.6538 11.2418 17.7148L11.2418 18.4513C11.2418 18.5126 11.1923 18.5622 11.1313 18.5622L10.3803 18.5622C10.3191 18.5622 10.2695 18.5126 10.2695 18.4513L10.2695 17.7148C10.2695 17.6538 10.3191 17.6039 10.3803 17.6039" fill="#242424" fill-rule="nonzero" opacity="1" stroke="none"/>
<g opacity="1">
<path d="M15.7551 18.7683C15.7551 18.9256 15.741 19.065 15.7125 19.1865C15.6842 19.308 15.6378 19.4085 15.5731 19.4891C15.5087 19.5692 15.4237 19.6298 15.318 19.6711C15.2124 19.7121 15.0843 19.7327 14.9325 19.7327C14.4097 19.7327 14.1416 19.4522 14.1292 18.8912C14.1292 18.8595 14.1419 18.8427 14.1671 18.8392L14.5639 18.7728C14.5983 18.7663 14.6162 18.7807 14.6162 18.8155C14.6221 18.9859 14.6517 19.107 14.7033 19.1796C14.7553 19.2519 14.8365 19.288 14.947 19.288C15.0478 19.288 15.1236 19.2557 15.1738 19.191C15.2241 19.1266 15.2492 19.0062 15.2492 18.8292C15.2492 18.7442 15.2447 18.672 15.2351 18.6121C15.2258 18.5522 15.2093 18.5012 15.1855 18.4582C15.1621 18.4162 15.1298 18.3804 15.0885 18.3519C15.0478 18.3233 14.9955 18.2971 14.9325 18.272L14.7391 18.1959C14.6286 18.1519 14.5364 18.103 14.4624 18.0497C14.3884 17.996 14.3292 17.9337 14.2851 17.8628C14.2407 17.7919 14.2094 17.71 14.1908 17.617C14.1719 17.5241 14.1622 17.4146 14.1622 17.2883C14.1622 17.0113 14.2249 16.7992 14.3515 16.653C14.4775 16.5063 14.6744 16.4327 14.9425 16.4327C15.2106 16.4327 15.4048 16.5008 15.5263 16.6361C15.6478 16.7714 15.7162 16.9655 15.7321 17.2171C15.7321 17.2422 15.7176 17.2601 15.6891 17.2694L15.3111 17.3258C15.2767 17.3324 15.2592 17.3196 15.2592 17.288C15.2526 17.1558 15.2268 17.0543 15.181 16.983C15.1353 16.9121 15.0606 16.8767 14.9566 16.8767C14.7615 16.8767 14.6637 17.0061 14.6637 17.2642C14.6637 17.34 14.6679 17.4029 14.6751 17.4528C14.6833 17.5038 14.6988 17.5465 14.7226 17.5833C14.746 17.6194 14.7783 17.6501 14.8193 17.6752C14.8603 17.7003 14.9126 17.7258 14.9756 17.7509L15.1693 17.8266C15.2729 17.8676 15.3621 17.9141 15.4364 17.966C15.5104 18.018 15.571 18.0803 15.6185 18.1526C15.6657 18.2252 15.7008 18.3119 15.7228 18.4128C15.7445 18.5136 15.7555 18.6317 15.7555 18.7673" fill="#000000" fill-rule="nonzero" opacity="1" stroke="none"/>
<path d="M17.1969 18.5697L16.9701 17.3737L16.956 17.3737L16.7196 18.5697L17.1969 18.5697ZM16.7151 16.5232C16.7244 16.4915 16.7416 16.476 16.7671 16.476L17.1639 16.476C17.1925 16.476 17.2093 16.4915 17.2162 16.5232L17.8967 19.6426C17.9029 19.6739 17.8901 19.6897 17.8585 19.6897L17.4568 19.6897C17.4286 19.6897 17.4114 19.6739 17.4048 19.6426L17.2771 18.9951L16.639 18.9951L16.5113 19.6426C16.5044 19.6739 16.4876 19.6897 16.459 19.6897L16.0573 19.6897C16.0257 19.6897 16.0133 19.6739 16.0195 19.6426L16.7144 16.5232L16.7151 16.5232Z" fill="#000000" fill-rule="nonzero" opacity="1" stroke="none"/>
<path d="M18.4257 19.6897C18.394 19.6897 18.3785 19.6742 18.3785 19.6426L18.3785 16.9627C18.3785 16.9438 18.3692 16.9342 18.3503 16.9342L17.8585 16.9342C17.8268 16.9342 17.8113 16.9183 17.8113 16.887L17.8113 16.5232C17.8113 16.4915 17.8268 16.4757 17.8585 16.4757L19.4039 16.4757C19.4352 16.4757 19.451 16.4915 19.451 16.5232L19.451 16.887C19.451 16.9183 19.4352 16.9342 19.4039 16.9342L18.912 16.9342C18.8934 16.9342 18.8838 16.9434 18.8838 16.9627L18.8838 19.6426C18.8838 19.6742 18.868 19.6897 18.8366 19.6897L18.4253 19.6897L18.4257 19.6897Z" fill="#000000" fill-rule="nonzero" opacity="1" stroke="none"/>
<path d="M21.29 18.7683C21.29 18.9256 21.2759 19.065 21.2473 19.1865C21.2188 19.308 21.1723 19.4085 21.1079 19.4891C21.0432 19.5692 20.9582 19.6298 20.8525 19.6711C20.7469 19.7121 20.6188 19.7327 20.4674 19.7327C19.9442 19.7327 19.6761 19.4522 19.6641 18.8912C19.6641 18.8595 19.6765 18.8427 19.7019 18.8392L20.0988 18.7728C20.1332 18.7663 20.1508 18.7807 20.1508 18.8155C20.1569 18.9859 20.1862 19.107 20.2378 19.1796C20.2901 19.2519 20.371 19.288 20.4815 19.288C20.5824 19.288 20.6581 19.2557 20.7083 19.191C20.7589 19.1266 20.7841 19.0062 20.7841 18.8292C20.7841 18.7442 20.7792 18.672 20.7699 18.6121C20.7607 18.5522 20.7438 18.5012 20.7204 18.4582C20.6966 18.4162 20.6643 18.3804 20.6233 18.3519C20.5824 18.3233 20.5304 18.2971 20.4674 18.272L20.2736 18.1959C20.1631 18.1519 20.0712 18.103 19.9969 18.0497C19.9229 17.996 19.864 17.9337 19.8196 17.8628C19.7756 17.7919 19.7439 17.71 19.7253 17.617C19.7064 17.5241 19.6968 17.4146 19.6968 17.2883C19.6968 17.0113 19.7598 16.7992 19.8861 16.653C20.012 16.5063 20.2093 16.4327 20.477 16.4327C20.7448 16.4327 20.9393 16.5008 21.0608 16.6361C21.1823 16.7714 21.2508 16.9655 21.2666 17.2171C21.2666 17.2422 21.2525 17.2601 21.2239 17.2694L20.846 17.3258C20.8109 17.3324 20.7937 17.3196 20.7937 17.288C20.7875 17.1558 20.7617 17.0543 20.7159 16.983C20.6701 16.9121 20.5951 16.8767 20.4912 16.8767C20.296 16.8767 20.1983 17.0061 20.1983 17.2642C20.1983 17.34 20.2024 17.4029 20.2103 17.4528C20.2182 17.5038 20.234 17.5465 20.2575 17.5833C20.2812 17.6194 20.3132 17.6501 20.3545 17.6752C20.3951 17.7003 20.4474 17.7258 20.5104 17.7509L20.7042 17.8266C20.8085 17.8676 20.8973 17.9141 20.9713 17.966C21.0456 18.018 21.1059 18.0803 21.1534 18.1526C21.2009 18.2252 21.2356 18.3119 21.2577 18.4128C21.2797 18.5136 21.2907 18.6317 21.2907 18.7673" fill="#000000" fill-rule="nonzero" opacity="1" stroke="none"/>
<path d="M21.7529 19.2409C21.7436 19.2092 21.735 19.1724 21.7271 19.1301C21.7192 19.087 21.713 19.0258 21.7085 18.9456C21.7034 18.8654 21.6999 18.7573 21.6965 18.6217C21.6934 18.4861 21.6917 18.3068 21.6917 18.0827C21.6917 17.8586 21.6931 17.6797 21.6965 17.5441C21.6996 17.4084 21.7034 17.3004 21.7085 17.2202C21.7134 17.14 21.7192 17.0791 21.7271 17.0381C21.735 16.9971 21.7436 16.9596 21.7529 16.9245C21.8035 16.77 21.8875 16.6495 22.0059 16.5631C22.124 16.4764 22.2826 16.4327 22.4812 16.4327C22.7112 16.4327 22.8943 16.4943 23.0295 16.6172C23.1648 16.74 23.2405 16.9355 23.2563 17.2037C23.2625 17.2377 23.2515 17.257 23.2233 17.2598L22.8402 17.3262C22.8058 17.3327 22.7883 17.3183 22.7883 17.2835C22.7817 17.1448 22.7542 17.045 22.7053 16.9834C22.6568 16.9218 22.5866 16.8911 22.495 16.8911C22.4227 16.8911 22.3663 16.9063 22.327 16.9362C22.2878 16.9662 22.2586 17.0113 22.2396 17.0705C22.2334 17.0901 22.2283 17.1124 22.2234 17.1393C22.2183 17.1658 22.2155 17.2123 22.2142 17.2787C22.2124 17.3451 22.2111 17.4411 22.209 17.5668C22.2076 17.6931 22.2069 17.8648 22.2069 18.082C22.2069 18.2992 22.2076 18.4713 22.209 18.5973C22.2107 18.7232 22.2121 18.8196 22.2142 18.8857C22.2155 18.9518 22.2186 18.9986 22.2234 19.0251C22.2283 19.0516 22.2334 19.0747 22.2396 19.0936C22.2586 19.1538 22.2878 19.1986 22.327 19.2282C22.3663 19.2581 22.4224 19.2732 22.495 19.2732C22.5866 19.2732 22.6568 19.2426 22.7053 19.181C22.7538 19.1194 22.7817 19.0196 22.7883 18.8809C22.7883 18.8465 22.8055 18.832 22.8402 18.8382L23.2233 18.9043C23.2519 18.9074 23.2625 18.9267 23.2563 18.9611C23.2405 19.2288 23.1645 19.4243 23.0295 19.5472C22.8939 19.6701 22.7112 19.7317 22.4812 19.7317C22.2826 19.7317 22.1243 19.688 22.0059 19.6013C21.8879 19.5149 21.8035 19.3941 21.7529 19.2399" fill="#000000" fill-rule="nonzero" opacity="1" stroke="none"/>
<path d="M24.6744 18.5697L24.4476 17.3737L24.4335 17.3737L24.197 18.5697L24.6744 18.5697ZM24.1925 16.5232C24.2018 16.4915 24.219 16.476 24.2445 16.476L24.6414 16.476C24.6699 16.476 24.6868 16.4915 24.6937 16.5232L25.3741 19.6426C25.3803 19.6739 25.3676 19.6897 25.3359 19.6897L24.9343 19.6897C24.906 19.6897 24.8888 19.6739 24.8823 19.6426L24.7546 18.9951L24.1165 18.9951L23.9888 19.6426C23.9822 19.6739 23.965 19.6897 23.9365 19.6897L23.5348 19.6897C23.5031 19.6897 23.4907 19.6739 23.4969 19.6426L24.1918 16.5232L24.1925 16.5232Z" fill="#000000" fill-rule="nonzero" opacity="1" stroke="none"/>
<path d="M26.4514 17.9313C26.5932 17.9313 26.6965 17.8968 26.7612 17.827C26.8256 17.7571 26.8583 17.626 26.8583 17.4329C26.8583 17.2398 26.8259 17.1121 26.7612 17.0409C26.6965 16.9696 26.5932 16.9338 26.4514 16.9338L26.2866 16.9338C26.2676 16.9338 26.258 16.9434 26.258 16.9627L26.258 17.9027C26.258 17.9216 26.2673 17.9313 26.2866 17.9313L26.4514 17.9313ZM26.9715 19.6901C26.9464 19.6901 26.9288 19.679 26.9192 19.6567L26.5268 18.376L26.2862 18.376C26.2673 18.376 26.2577 18.3856 26.2577 18.4045L26.2577 19.6429C26.2577 19.6746 26.2418 19.6904 26.2102 19.6904L25.7992 19.6904C25.7675 19.6904 25.752 19.6746 25.752 19.6429L25.752 16.5235C25.752 16.4919 25.7675 16.4764 25.7992 16.4764L26.447 16.4764C26.5884 16.4764 26.7165 16.4926 26.8297 16.5259C26.9433 16.5586 27.0393 16.613 27.1181 16.6887C27.1966 16.7645 27.2575 16.8629 27.3002 16.9841C27.3429 17.1056 27.3639 17.2542 27.3639 17.4308C27.3639 17.6418 27.3301 17.8146 27.262 17.9485C27.1945 18.082 27.1006 18.1842 26.9811 18.2534L27.4351 19.6429C27.4475 19.6746 27.4399 19.6904 27.4114 19.6904L26.9718 19.6904L26.9715 19.6901Z" fill="#000000" fill-rule="nonzero" opacity="1" stroke="none"/>
<path d="M28.3186 19.203C28.3186 19.222 28.3283 19.2313 28.3472 19.2313L28.5503 19.2313C28.7234 19.2313 28.8367 19.1545 28.8907 19C28.9 18.9714 28.9076 18.938 28.9141 18.8984C28.9206 18.8592 28.9261 18.8055 28.931 18.7377C28.9354 18.6695 28.9392 18.5838 28.9423 18.4799C28.9454 18.3763 28.9471 18.2438 28.9471 18.0831C28.9471 17.9223 28.9458 17.7901 28.9423 17.6862C28.9392 17.5826 28.9351 17.4966 28.931 17.4288C28.9258 17.3613 28.9206 17.3076 28.9141 17.268C28.9076 17.2288 28.9 17.195 28.8907 17.1668C28.8367 17.0123 28.7234 16.9348 28.5503 16.9348L28.3472 16.9348C28.3286 16.9348 28.3186 16.9445 28.3186 16.9634L28.3186 19.2041L28.3186 19.203ZM27.8127 16.5232C27.8127 16.4915 27.8285 16.476 27.8602 16.476L28.6019 16.476C28.8129 16.476 28.9816 16.5187 29.1079 16.6037C29.2338 16.6887 29.3254 16.8182 29.3822 16.9913C29.3949 17.0353 29.4066 17.0842 29.418 17.1379C29.4287 17.1913 29.4379 17.2591 29.4438 17.341C29.45 17.4229 29.4545 17.5237 29.4579 17.6432C29.461 17.7633 29.4627 17.9099 29.4627 18.0827C29.4627 18.2555 29.4613 18.4069 29.4579 18.5246C29.4548 18.6427 29.45 18.7429 29.4438 18.8251C29.4376 18.907 29.4287 18.9745 29.418 19.0278C29.407 19.0815 29.3949 19.1304 29.3822 19.1745C29.3257 19.3476 29.2342 19.477 29.1079 19.562C28.9819 19.647 28.8132 19.6897 28.6019 19.6897L27.8602 19.6897C27.8285 19.6897 27.8127 19.6739 27.8127 19.6426C27.8127 19.6426 27.8127 16.5232 27.8127 16.5232Z" fill="#000000" fill-rule="nonzero" opacity="1" stroke="none"/>
</g>
</g>
</g>
</g>
</svg>
