<?xml version="1.0" encoding="UTF-8" standalone="no"?>
<!DOCTYPE svg PUBLIC "-//W3C//DTD SVG 1.1//EN" "http://www.w3.org/Graphics/SVG/1.1/DTD/svg11.dtd">
<!-- Created with Vectornator (http://vectornator.io/) -->
<svg height="50.0px" stroke-miterlimit="10" style="fill-rule:nonzero;clip-rule:evenodd;stroke-linecap:round;stroke-linejoin:round;" version="1.1" viewBox="0 0 50 50" width="50.0px" xml:space="preserve" xmlns="http://www.w3.org/2000/svg" xmlns:xlink="http://www.w3.org/1999/xlink">
<defs/>
<g id="surface1">
<g opacity="1">
<clipPath clip-rule="nonzero" id="ClipPath">
<path d="M7.44227 7.44227L42.5577 7.44227L42.5577 42.5577L7.44227 42.5577L7.44227 7.44227Z"/>
</clipPath>
<g clip-path="url(#ClipPath)">
<clipPath clip-rule="nonzero" id="ClipPath_2">
<path d="M7.85693 24.6726C7.85693 34.1444 15.5282 41.8157 25 41.8157C34.4718 41.8157 42.1431 34.1444 42.1431 24.6726C42.1431 15.2008 34.4718 7.52957 25 7.52957C15.5282 7.52957 7.85693 15.2008 7.85693 24.6726M10.5959 24.6726C10.5959 16.7286 17.0559 10.2685 25 10.2685C32.9441 10.2685 39.4041 16.7286 39.4041 24.6726C39.4041 32.6167 32.9441 39.0767 25 39.0767C17.0559 39.0767 10.5959 32.6167 10.5959 24.6726M23.6032 22.5229C21.9446 20.2314 19.2493 18.7255 16.2157 18.7255C15.7355 18.7255 15.3536 19.1183 15.3536 19.5875C15.3536 24.3125 18.9874 28.2191 23.6032 28.6447L23.6032 37.6254C23.6032 38.1056 23.9852 38.4875 24.4544 38.4875C24.9345 38.4875 25.3165 38.1056 25.3165 37.6254L25.3165 33.7952C29.9323 33.3587 33.5661 29.4631 33.5661 24.7272C33.5661 24.258 33.1842 23.876 32.704 23.876C29.6704 23.876 26.9751 25.371 25.3165 27.6626L25.3165 23.4177C29.9323 22.9922 33.5661 19.0856 33.5661 14.3606C33.5661 13.8914 33.1842 13.4985 32.704 13.4985C27.7171 13.4985 23.6469 17.547 23.6032 22.5229M31.7874 15.2772C31.3727 18.6164 28.7211 21.2789 25.371 21.6936C25.7857 18.3436 28.4483 15.6919 31.7874 15.2772M17.1323 20.5042C20.4714 20.9188 23.134 23.5705 23.5487 26.9205C20.1986 26.5059 17.5361 23.8433 17.1323 20.5042M31.7874 25.6438C31.3727 28.983 28.7211 31.6455 25.371 32.0602C25.7857 28.7211 28.4483 26.0585 31.7874 25.6438"/>
</clipPath>
<g clip-path="url(#ClipPath_2)">
<g opacity="1">
<path d="M25 10.9233C17.2414 10.9233 10.9233 17.2414 10.9233 25C10.9233 32.7586 17.2414 39.0767 25 39.0767C32.7586 39.0767 39.0767 32.7586 39.0767 25C39.0767 17.2414 32.7586 10.9233 25 10.9233M25 42.4704C22.643 42.4704 20.3514 42.0121 18.2017 41.0955C16.1175 40.2225 14.2515 38.9567 12.6474 37.3526C11.0433 35.7485 9.77748 33.8825 8.90451 31.7983C7.98788 29.6486 7.52957 27.357 7.52957 25C7.52957 22.643 7.98788 20.3514 8.90451 18.2017C9.77748 16.1175 11.0433 14.2515 12.6474 12.6474C14.2515 11.0433 16.1175 9.77748 18.2017 8.90451C20.3514 7.98788 22.643 7.52957 25 7.52957C27.357 7.52957 29.6486 7.98788 31.7983 8.90451C33.8825 9.77748 35.7485 11.0433 37.3526 12.6474C38.9567 14.2515 40.2225 16.1175 41.0955 18.2017C42.0121 20.3514 42.4704 22.643 42.4704 25C42.4704 27.357 42.0121 29.6486 41.0955 31.7983C40.2225 33.8825 38.9567 35.7485 37.3526 37.3526C35.7485 38.9567 33.8825 40.2225 31.7983 41.0955C29.6486 42.0121 27.357 42.4704 25 42.4704" fill="#d6d2d2" fill-rule="nonzero" opacity="1" stroke="none"/>
</g>
</g>
</g>
</g>
<g opacity="1">
<clipPath clip-rule="nonzero" id="ClipPath_3">
<path d="M12.6988 12.7668L34.3197 12.7668L34.3197 39.793L12.6988 39.793L12.6988 12.7668Z"/>
</clipPath>
<g clip-path="url(#ClipPath_3)">
<clipPath clip-rule="nonzero" id="ClipPath_4">
<path d="M8.27535 24.876C8.27535 34.098 15.697 41.567 24.8605 41.567C34.0241 41.567 41.4457 34.098 41.4457 24.876C41.4457 15.654 34.0241 8.18501 24.8605 8.18501C15.697 8.18501 8.27535 15.654 8.27535 24.876M10.9252 24.876C10.9252 17.1414 17.175 10.8517 24.8605 10.8517C32.5461 10.8517 38.7959 17.1414 38.7959 24.876C38.7959 32.6106 32.5461 38.9002 24.8605 38.9002C17.175 38.9002 10.9252 32.6106 10.9252 24.876M23.5092 22.783C21.9046 20.5518 19.297 19.0857 16.3621 19.0857C15.8976 19.0857 15.5281 19.4681 15.5281 19.925C15.5281 24.5254 19.0436 28.3289 23.5092 28.7433L23.5092 37.4872C23.5092 37.9546 23.8787 38.3265 24.3327 38.3265C24.7972 38.3265 25.1667 37.9546 25.1667 37.4872L25.1667 33.758C29.6324 33.333 33.1479 29.5401 33.1479 24.9291C33.1479 24.4723 32.7784 24.1004 32.3139 24.1004C29.379 24.1004 26.7714 25.5559 25.1667 27.7871L25.1667 23.6542C29.6324 23.2398 33.1479 19.4363 33.1479 14.8359C33.1479 14.379 32.7784 13.9966 32.3139 13.9966C27.4893 13.9966 23.5515 17.9382 23.5092 22.783M31.4271 15.7283C31.0259 18.9794 28.4605 21.5718 25.2195 21.9755C25.6207 18.7138 28.1966 16.1321 31.4271 15.7283M17.2489 20.8174C20.4794 21.2212 23.0553 23.8029 23.4565 27.0646C20.2154 26.6609 17.6395 24.0685 17.2489 20.8174M31.4271 25.8216C31.0259 29.0726 28.4605 31.665 25.2195 32.0687C25.6207 28.8176 28.1966 26.2253 31.4271 25.8216"/>
</clipPath>
<g clip-path="url(#ClipPath_4)">
<path d="M31.047 16.3773C29.7168 16.6307 28.4605 17.2852 27.4893 18.2565C26.518 19.2277 25.8529 20.484 25.5995 21.8248C26.9403 21.5714 28.1966 20.9063 29.1678 19.9351C30.1391 18.9638 30.8042 17.7075 31.047 16.3773M17.6184 21.4342C17.8717 22.7644 18.5368 24.0206 19.5081 24.9919C20.4794 25.9632 21.7356 26.6283 23.0764 26.8816C22.823 25.5409 22.1579 24.2846 21.1867 23.3133C20.2154 22.3421 18.9591 21.6875 17.6184 21.4342M31.047 26.4066C29.7168 26.6599 28.4605 27.3145 27.4893 28.2963C26.518 29.2675 25.8529 30.5133 25.5995 31.854C26.9403 31.6006 28.1966 30.9461 29.1678 29.9749C30.1391 28.993 30.8042 27.7473 31.047 26.4066M24.3327 38.7689C23.7098 38.7689 23.1925 38.2516 23.1925 37.6182L23.1925 29.2147C21.0494 28.9508 19.0753 27.9268 17.6078 26.3221C16.0665 24.633 15.2114 22.4476 15.2114 20.1673C15.2114 19.5339 15.7287 19.0166 16.3621 19.0166C17.8295 19.0166 19.2864 19.3755 20.5849 20.0617C21.5878 20.5896 22.4958 21.3075 23.2348 22.1626C23.4459 20.0617 24.3749 18.1192 25.8951 16.6096C27.6159 14.8993 29.8963 13.9597 32.3139 13.9597C32.9473 13.9597 33.4646 14.477 33.4646 15.1105C33.4646 17.3908 32.6095 19.5761 31.0681 21.2652C29.6007 22.8699 27.6265 23.894 25.4834 24.1579L25.4834 27.0822C26.2224 26.2482 27.1092 25.5514 28.091 25.0341C29.3895 24.3585 30.8464 23.9995 32.3139 23.9995C32.9473 23.9995 33.4646 24.5063 33.4646 25.1397C33.4646 27.42 32.6095 29.6159 31.0681 31.2945C29.6007 32.8992 27.6265 33.9232 25.4834 34.1977L25.4834 37.6182C25.4834 38.2516 24.9661 38.7689 24.3327 38.7689" fill="#d6d2d2" fill-rule="nonzero" opacity="1" stroke="none"/>
</g>
</g>
</g>
</g>
</svg>
