<?xml version="1.0" encoding="UTF-8" standalone="no"?>
<!DOCTYPE svg PUBLIC "-//W3C//DTD SVG 1.1//EN" "http://www.w3.org/Graphics/SVG/1.1/DTD/svg11.dtd">
<!-- Created with Vectornator (http://vectornator.io/) -->
<svg height="15.0px" stroke-miterlimit="10" style="fill-rule:nonzero;clip-rule:evenodd;stroke-linecap:round;stroke-linejoin:round;" version="1.1" viewBox="0 0 15 15" width="15.0px" xml:space="preserve" xmlns="http://www.w3.org/2000/svg" xmlns:xlink="http://www.w3.org/1999/xlink">
<defs/>
<g id="surface1">
<g opacity="1">
<clipPath clip-rule="nonzero" id="ClipPath">
<path d="M1.85763 1.85763L13.1424 1.85763L13.1424 13.1424L1.85763 13.1424L1.85763 1.85763Z"/>
</clipPath>
<g clip-path="url(#ClipPath)">
<clipPath clip-rule="nonzero" id="ClipPath_2">
<path d="M1.99089 7.3948C1.99089 10.4387 4.45614 12.9039 7.5 12.9039C10.5439 12.9039 13.0091 10.4387 13.0091 7.3948C13.0091 4.35094 10.5439 1.88569 7.5 1.88569C4.45614 1.88569 1.99089 4.35094 1.99089 7.3948M2.87109 7.3948C2.87109 4.84188 4.94708 2.76588 7.5 2.76588C10.0529 2.76588 12.1289 4.84188 12.1289 7.3948C12.1289 9.94771 10.0529 12.0237 7.5 12.0237C4.94708 12.0237 2.87109 9.94771 2.87109 7.3948M7.05114 6.70397C6.51811 5.96755 5.65194 5.48362 4.67706 5.48362C4.52277 5.48362 4.40003 5.60986 4.40003 5.76065C4.40003 7.27907 5.56778 8.53449 7.05114 8.67126L7.05114 11.5573C7.05114 11.7116 7.17387 11.8343 7.32466 11.8343C7.47896 11.8343 7.6017 11.7116 7.6017 11.5573L7.6017 10.3264C9.08505 10.1862 10.2528 8.93426 10.2528 7.41233C10.2528 7.26154 10.1301 7.1388 9.97577 7.1388C9.00089 7.1388 8.13472 7.61923 7.6017 8.35565L7.6017 6.99152C9.08505 6.85476 10.2528 5.59934 10.2528 4.08092C10.2528 3.93013 10.1301 3.80388 9.97577 3.80388C8.37318 3.80388 7.06516 5.10489 7.05114 6.70397M9.6812 4.37548C9.54794 5.44855 8.6958 6.3042 7.61923 6.43745C7.75249 5.36088 8.60813 4.50874 9.6812 4.37548M4.97163 6.05522C6.0447 6.18847 6.90035 7.04062 7.0336 8.11719C5.95703 7.98393 5.10138 7.12828 4.97163 6.05522M9.6812 7.7069C9.54794 8.77996 8.6958 9.63561 7.61923 9.76887C7.75249 8.6958 8.60813 7.84015 9.6812 7.7069"/>
</clipPath>
<g clip-path="url(#ClipPath_2)">
<g opacity="1">
<path d="M7.5 2.97629C5.0067 2.97629 2.97629 5.0067 2.97629 7.5C2.97629 9.9933 5.0067 12.0237 7.5 12.0237C9.9933 12.0237 12.0237 9.9933 12.0237 7.5C12.0237 5.0067 9.9933 2.97629 7.5 2.97629M7.5 13.1143C6.74254 13.1143 6.00612 12.967 5.31529 12.6725C4.6455 12.3919 4.04585 11.9851 3.53036 11.4696C3.01486 10.9542 2.60808 10.3545 2.32754 9.68471C2.03297 8.99388 1.88569 8.25746 1.88569 7.5C1.88569 6.74254 2.03297 6.00612 2.32754 5.31529C2.60808 4.6455 3.01486 4.04585 3.53036 3.53036C4.04585 3.01486 4.6455 2.60808 5.31529 2.32754C6.00612 2.03297 6.74254 1.88569 7.5 1.88569C8.25746 1.88569 8.99388 2.03297 9.68471 2.32754C10.3545 2.60808 10.9542 3.01486 11.4696 3.53036C11.9851 4.04585 12.3919 4.6455 12.6725 5.31529C12.967 6.00612 13.1143 6.74254 13.1143 7.5C13.1143 8.25746 12.967 8.99388 12.6725 9.68471C12.3919 10.3545 11.9851 10.9542 11.4696 11.4696C10.9542 11.9851 10.3545 12.3919 9.68471 12.6725C8.99388 12.967 8.25746 13.1143 7.5 13.1143" fill="#242424" fill-rule="nonzero" opacity="1" stroke="none"/>
</g>
</g>
</g>
</g>
<g opacity="1">
<clipPath clip-rule="nonzero" id="ClipPath_3">
<path d="M3.54687 3.56872L10.495 3.56872L10.495 12.2539L3.54687 12.2539L3.54687 3.56872Z"/>
</clipPath>
<g clip-path="url(#ClipPath_3)">
<clipPath clip-rule="nonzero" id="ClipPath_4">
<path d="M2.12535 7.46014C2.12535 10.4237 4.51038 12.824 7.45518 12.824C10.4 12.824 12.785 10.4237 12.785 7.46014C12.785 4.49655 10.4 2.09632 7.45518 2.09632C4.51038 2.09632 2.12535 4.49655 2.12535 7.46014M2.9769 7.46014C2.9769 4.97455 4.98535 2.9533 7.45518 2.9533C9.92502 2.9533 11.9335 4.97455 11.9335 7.46014C11.9335 9.94574 9.92502 11.967 7.45518 11.967C4.98535 11.967 2.9769 9.94574 2.9769 7.46014M7.02093 6.78753C6.50525 6.07053 5.66727 5.59937 4.72411 5.59937C4.57484 5.59937 4.45609 5.72228 4.45609 5.86909C4.45609 7.34747 5.58584 8.56978 7.02093 8.70294L7.02093 11.5129C7.02093 11.6631 7.13967 11.7826 7.28555 11.7826C7.43483 11.7826 7.55357 11.6631 7.55357 11.5129L7.55357 10.3145C8.98866 10.1779 10.1184 8.95901 10.1184 7.47722C10.1184 7.3304 9.99966 7.2109 9.85039 7.2109C8.90723 7.2109 8.06925 7.67866 7.55357 8.39566L7.55357 7.0675C8.98866 6.93435 10.1184 5.71204 10.1184 4.23366C10.1184 4.08684 9.99966 3.96393 9.85039 3.96393C8.29995 3.96393 7.0345 5.23062 7.02093 6.78753M9.56541 4.52045C9.43648 5.56522 8.61207 6.3983 7.57053 6.52805C7.69945 5.47987 8.52726 4.6502 9.56541 4.52045M5.00909 6.15589C6.04724 6.28563 6.87504 7.1153 7.00396 8.16349C5.96242 8.03374 5.13462 7.20066 5.00909 6.15589M9.56541 7.76401C9.43648 8.80878 8.61207 9.64187 7.57053 9.77161C7.69945 8.72684 8.52726 7.89376 9.56541 7.76401"/>
</clipPath>
<g clip-path="url(#ClipPath_4)">
<path d="M9.44327 4.72901C9.0158 4.81043 8.61207 5.02077 8.29995 5.3329C7.98783 5.64502 7.77409 6.04874 7.69267 6.47961C8.12353 6.39818 8.52726 6.18445 8.83938 5.87232C9.1515 5.5602 9.36524 5.15648 9.44327 4.72901M5.12784 6.35408C5.20926 6.78155 5.423 7.18527 5.73512 7.4974C6.04724 7.80952 6.45096 8.02326 6.88183 8.10468C6.80041 7.67381 6.58667 7.27009 6.27455 6.95797C5.96242 6.64585 5.5587 6.4355 5.12784 6.35408M9.44327 7.95201C9.0158 8.03343 8.61207 8.24378 8.29995 8.55929C7.98783 8.87142 7.77409 9.27175 7.69267 9.70261C8.12353 9.62119 8.52726 9.41084 8.83938 9.09872C9.1515 8.78321 9.36524 8.38288 9.44327 7.95201M7.28555 11.9248C7.08539 11.9248 6.91915 11.7586 6.91915 11.555L6.91915 8.85445C6.23044 8.76964 5.59602 8.44055 5.12444 7.92487C4.62912 7.38205 4.35432 6.67977 4.35432 5.94696C4.35432 5.7434 4.52055 5.57717 4.72411 5.57717C5.19569 5.57717 5.66387 5.69251 6.08117 5.91304C6.40347 6.08267 6.69523 6.31337 6.93272 6.58817C7.00057 5.91304 7.29912 5.28879 7.78766 4.80364C8.34066 4.25404 9.07347 3.95209 9.85039 3.95209C10.0539 3.95209 10.2202 4.11833 10.2202 4.32189C10.2202 5.0547 9.94538 5.75697 9.45006 6.2998C8.97848 6.81548 8.34406 7.14456 7.65535 7.22938L7.65535 8.16914C7.89283 7.90112 8.17782 7.67721 8.49333 7.51097C8.91063 7.29384 9.37881 7.17849 9.85039 7.17849C10.0539 7.17849 10.2202 7.34134 10.2202 7.54489C10.2202 8.2777 9.94538 8.98337 9.45006 9.5228C8.97848 10.0385 8.34406 10.3676 7.65535 10.4558L7.65535 11.555C7.65535 11.7586 7.48911 11.9248 7.28555 11.9248" fill="#242424" fill-rule="nonzero" opacity="1" stroke="none"/>
</g>
</g>
</g>
</g>
</svg>
