<?xml version="1.0" encoding="UTF-8" standalone="no"?>
<!DOCTYPE svg PUBLIC "-//W3C//DTD SVG 1.1//EN" "http://www.w3.org/Graphics/SVG/1.1/DTD/svg11.dtd">
<!-- Created with Vectornator (http://vectornator.io/) -->
<svg height="50.0pt" stroke-miterlimit="10" style="fill-rule:nonzero;clip-rule:evenodd;stroke-linecap:round;stroke-linejoin:round;" version="1.1" viewBox="0 0 50 50" width="50.0pt" xml:space="preserve" xmlns="http://www.w3.org/2000/svg" xmlns:xlink="http://www.w3.org/1999/xlink">
<defs/>
<g id="Untitled">
<path d="M29.2654 30.1185C34.4479 30.1185 38.6494 25.9171 38.6494 20.7346C38.6494 15.5521 34.4479 11.3506 29.2654 11.3506C24.0829 11.3506 19.8815 15.5521 19.8815 20.7346C19.8815 21.7316 20.0361 22.6967 20.324 23.5977L11.7238 32.1979C11.4839 32.4379 11.3506 32.7631 11.3506 33.1043L11.3506 37.3698C11.3506 38.0789 11.9211 38.6494 12.6302 38.6494L16.8957 38.6494C17.6048 38.6494 18.1753 38.0789 18.1753 37.3698L18.1753 35.237L20.308 35.237C21.0171 35.237 21.5877 34.6665 21.5877 33.9574L21.5877 31.8247L23.7204 31.8247C24.0616 31.8247 24.3868 31.6914 24.6268 31.4515L26.4023 29.676C27.3033 29.9639 28.2684 30.1185 29.2654 30.1185ZM31.3982 16.4691C32.576 16.4691 33.5309 17.424 33.5309 18.6018C33.5309 19.7797 32.576 20.7346 31.3982 20.7346C30.2203 20.7346 29.2654 19.7797 29.2654 18.6018C29.2654 17.424 30.2203 16.4691 31.3982 16.4691Z" fill="#d6d2d2" fill-rule="nonzero" opacity="1" stroke="none"/>
</g>
</svg>
