<?xml version="1.0" encoding="UTF-8" standalone="no"?>
<!DOCTYPE svg PUBLIC "-//W3C//DTD SVG 1.1//EN" "http://www.w3.org/Graphics/SVG/1.1/DTD/svg11.dtd">
<!-- Created with Vectornator (http://vectornator.io/) -->
<svg height="50.0px" stroke-miterlimit="10" style="fill-rule:nonzero;clip-rule:evenodd;stroke-linecap:round;stroke-linejoin:round;" version="1.1" viewBox="0 0 50 50" width="50.0px" xml:space="preserve" xmlns="http://www.w3.org/2000/svg" xmlns:xlink="http://www.w3.org/1999/xlink">
<defs/>
<g id="surface1">
<path d="M11.1533 18.5557L23.845 18.5557L23.845 31.4837L11.1533 31.4837L11.1533 18.5557Z" fill="#ffffff" fill-rule="nonzero" opacity="1" stroke="none"/>
<path d="M2.68778 24.9606C2.68778 21.1675 6.02148 18.0963 10.1296 18.0963C14.2376 18.0963 17.5713 21.1675 17.5713 24.9606C17.5713 28.7537 14.2376 31.8249 10.1296 31.8249C6.02148 31.8249 2.68778 28.7537 2.68778 24.9606Z" fill="#ffffff" fill-rule="nonzero" opacity="1" stroke="none"/>
<path d="M26.3781 25.1312C26.4831 25.3019 26.5225 25.4987 26.5225 25.735C26.5225 25.9712 26.47 26.1944 26.3781 26.365C26.2862 26.5487 26.155 26.6931 26.0106 26.7981C25.7087 26.995 25.3806 27.0869 25.0525 27.0869C24.8688 27.0869 24.7113 27.0606 24.5538 27.0212C24.3963 26.9819 24.2781 26.9294 24.1731 26.8637C23.9894 26.7456 23.845 26.6406 23.7663 26.5225L23.7269 26.4569C23.6219 26.3387 23.5825 26.2337 23.5825 26.1419C23.5825 26.05 23.6613 25.9319 23.8188 25.7744C23.9106 25.6825 24.0025 25.6431 24.1075 25.6431C24.2125 25.6431 24.3569 25.735 24.5406 25.9187C24.5931 25.9712 24.6588 26.0369 24.7638 26.0894C24.8556 26.155 24.9475 26.1812 25.0262 26.1812C25.3675 26.1812 25.5381 26.0369 25.5381 25.7612C25.5381 25.6694 25.4987 25.6037 25.3937 25.5512C25.3019 25.4856 25.1837 25.4462 25.0525 25.42C24.9081 25.3937 24.7506 25.3544 24.5931 25.3019C24.4356 25.2362 24.2781 25.1706 24.1469 25.0919C24.0025 25.0131 23.8844 24.895 23.7925 24.7244C23.7006 24.5669 23.6481 24.3569 23.6481 24.1206C23.6481 23.8056 23.7663 23.5169 24.0156 23.2806C24.2519 23.0313 24.58 22.9131 25 22.9131C25.2231 22.9131 25.42 22.9394 25.6037 22.9919C25.7875 23.0575 25.9187 23.11 25.9844 23.1756L26.1156 23.2806C26.2337 23.3856 26.2862 23.4775 26.2862 23.5431C26.2862 23.6219 26.2469 23.7269 26.155 23.8581C26.0369 24.0419 25.9056 24.1338 25.7744 24.1338C25.6956 24.1338 25.6037 24.0944 25.4856 24.0156C25.4725 24.0156 25.4462 23.9894 25.42 23.9631C25.3937 23.9369 25.3675 23.9106 25.3412 23.8975C25.2625 23.845 25.1575 23.8188 25.0394 23.8188C24.9212 23.8188 24.8163 23.845 24.7375 23.9106C24.6588 23.9631 24.6194 24.0419 24.6194 24.1469C24.6194 24.2388 24.6719 24.3306 24.7638 24.3831C24.8556 24.4488 24.9738 24.4881 25.1181 24.5144C25.2494 24.5406 25.4069 24.5669 25.5775 24.6194C25.735 24.6588 25.8925 24.7244 26.0369 24.79C26.1681 24.8556 26.2862 24.9738 26.3781 25.1312Z" fill="#222222" fill-rule="nonzero" opacity="1" stroke="none"/>
<path d="M28.0581 23.1888C28.0843 23.2544 28.0975 23.3463 28.0975 23.4775L28.0975 26.5487C28.0975 26.6406 28.0843 26.7062 28.0843 26.7456C28.0843 26.785 28.0581 26.8375 28.0318 26.89C27.9793 26.995 27.835 27.0344 27.5987 27.0344C27.3362 27.0344 27.1918 26.9687 27.1525 26.8244C27.1262 26.7719 27.1131 26.68 27.1131 26.5487L27.1131 23.4775C27.1131 23.3856 27.1131 23.32 27.1262 23.2806C27.1262 23.2413 27.1393 23.1888 27.1787 23.1363C27.2312 23.0313 27.3756 22.9788 27.6118 22.9788C27.8612 22.9788 28.0187 23.0575 28.0581 23.1888Z" fill="#1e1e1e" fill-rule="nonzero" opacity="1" stroke="none"/>
<path d="M32.2318 24.7506C32.2712 24.8163 32.2974 24.9212 32.2974 25.0525L32.2974 26.2731C32.2974 26.3912 32.2449 26.5094 32.1399 26.6144C31.8249 26.9294 31.3655 27.1 30.7487 27.1C30.1974 27.1 29.7118 26.89 29.3181 26.47C28.9112 26.0631 28.7012 25.5512 28.7012 24.9738C28.7012 24.3831 28.9112 23.8975 29.3181 23.5038C29.7381 23.11 30.2237 22.9131 30.7881 22.9131C31.2212 22.9131 31.628 23.0575 32.0218 23.3463C32.1137 23.4119 32.1662 23.5038 32.1662 23.5956C32.1662 23.6744 32.1268 23.7794 32.0349 23.8975C31.8905 24.0944 31.7593 24.1994 31.6412 24.1994C31.5755 24.1994 31.4574 24.1469 31.313 24.0419C31.1555 23.9369 30.9718 23.8975 30.7618 23.8975C30.4731 23.8975 30.2237 23.9894 30.0137 24.1863C29.7906 24.3831 29.6856 24.6456 29.6856 24.9606C29.6856 25.2756 29.7906 25.5512 30.0137 25.7744C30.2368 25.9975 30.4862 26.1156 30.7618 26.1156C30.9718 26.1156 31.1555 26.0762 31.313 26.0106L31.313 25.4069L30.8799 25.4069C30.7618 25.4069 30.6831 25.3937 30.6306 25.3675C30.5912 25.3281 30.5518 25.2887 30.5387 25.2362C30.5256 25.1706 30.5124 25.105 30.5124 25C30.5124 24.9081 30.5256 24.8294 30.5387 24.7638C30.5649 24.7113 30.5912 24.6719 30.6306 24.6456C30.6962 24.6063 30.7881 24.5931 30.8931 24.5931L31.8774 24.5931C32.0743 24.6063 32.1924 24.6588 32.2318 24.7506Z" fill="#242424" fill-rule="nonzero" opacity="1" stroke="none"/>
<path d="M36.3924 23.2019C36.4055 23.2544 36.4186 23.3594 36.4186 23.4775L36.4186 26.5487C36.4186 26.6406 36.4186 26.7062 36.4186 26.7456C36.4055 26.785 36.3924 26.8375 36.3661 26.89C36.3136 26.995 36.1692 27.0344 35.933 27.0344C35.7886 27.0344 35.6836 27.0212 35.6311 27.0081C35.5786 26.9819 35.5261 26.9425 35.4867 26.9031C34.6599 25.8006 34.1218 25.0656 33.8593 24.7375L33.8593 26.5487C33.8593 26.6406 33.8461 26.7062 33.8461 26.7456C33.8461 26.785 33.8199 26.8375 33.7936 26.89C33.7411 26.995 33.5968 27.0344 33.3605 27.0344C33.1374 27.0344 32.993 26.995 32.9405 26.89C32.9143 26.8375 32.9012 26.785 32.888 26.7456C32.888 26.6931 32.888 26.6275 32.888 26.5487L32.888 23.4644C32.888 23.32 32.9012 23.215 32.9405 23.1494C32.9668 23.0838 33.0193 23.0444 33.098 23.0181C33.1637 23.005 33.2555 22.9919 33.3605 22.9919C33.4786 22.9919 33.5574 23.005 33.623 23.0181C33.6886 23.0444 33.7411 23.0706 33.7674 23.0969C33.7805 23.0969 33.8199 23.1494 33.8855 23.2281C34.6599 24.2913 35.1849 24.9869 35.4474 25.3281L35.4474 23.4644C35.4474 23.32 35.4605 23.215 35.4999 23.1494C35.5392 23.0838 35.5917 23.0444 35.6574 23.0181C35.723 23.005 35.8149 22.9919 35.9199 22.9919C36.0249 22.9919 36.1167 23.005 36.1692 23.0181C36.2349 23.0313 36.2874 23.0575 36.3136 23.0838C36.353 23.11 36.3792 23.1494 36.3924 23.2019Z" fill="#212121" fill-rule="nonzero" opacity="1" stroke="none"/>
<path d="M37.9936 23.9631L37.9936 24.5275L39.083 24.5275C39.1748 24.5275 39.2273 24.5275 39.2798 24.5275C39.3192 24.5406 39.3717 24.5538 39.4242 24.58C39.5161 24.6325 39.5686 24.7769 39.5686 25.0131C39.5686 25.2756 39.5029 25.42 39.3586 25.4725C39.2929 25.4856 39.2011 25.4987 39.0698 25.4987L37.9936 25.4987L37.9936 26.0631L39.6867 26.0631C39.7786 26.0631 39.8442 26.0631 39.8836 26.0631C39.9229 26.0762 39.9754 26.0894 40.0279 26.1156C40.1329 26.1681 40.1723 26.3125 40.1723 26.5487C40.1723 26.8112 40.1067 26.9556 39.9754 27.0081C39.9098 27.0212 39.8179 27.0344 39.6867 27.0344L37.4948 27.0344C37.2323 27.0344 37.088 26.9687 37.0486 26.8244C37.0224 26.7719 37.0092 26.68 37.0092 26.5487L37.0092 23.4775C37.0092 23.2806 37.0486 23.1494 37.1142 23.0838C37.1798 23.0181 37.3111 22.9788 37.508 22.9788L39.6867 22.9788C39.7786 22.9788 39.8442 22.9919 39.8836 22.9919C39.9229 23.005 39.9754 23.0181 40.0279 23.0444C40.1329 23.0969 40.1723 23.2413 40.1723 23.4775C40.1723 23.74 40.1067 23.8844 39.9754 23.9369C39.9098 23.95 39.8179 23.9631 39.6867 23.9631L37.9936 23.9631Z" fill="#222222" fill-rule="nonzero" opacity="1" stroke="none"/>
<path d="M43.9523 26.6406C43.9523 26.785 43.8341 26.9031 43.611 26.995C43.4929 27.0475 43.401 27.0737 43.3223 27.0737C43.2567 27.0737 43.191 27.0606 43.1517 27.0212C43.0992 26.9819 43.0729 26.9425 43.0467 26.9162C43.0073 26.8375 42.8629 26.5094 42.6135 25.9056L42.4429 25.9187L41.7473 25.9187L41.7473 26.5487C41.7473 26.6275 41.7473 26.6931 41.7342 26.7325C41.7342 26.785 41.721 26.8244 41.6817 26.89C41.6292 26.9819 41.4848 27.0344 41.2486 27.0344C40.9992 27.0344 40.8417 26.9687 40.8023 26.8244C40.7761 26.7719 40.7629 26.6669 40.7629 26.5356L40.7629 23.4775C40.7629 23.3856 40.7761 23.32 40.7761 23.2806C40.7761 23.2413 40.8023 23.1888 40.8286 23.1363C40.8811 23.0313 41.0254 22.9788 41.2617 22.9788L42.456 22.9788C42.7842 22.9788 43.0992 23.0969 43.401 23.3331C43.5454 23.4513 43.6635 23.6088 43.7685 23.8056C43.8604 24.0025 43.9129 24.2125 43.9129 24.4619C43.9129 24.8688 43.7685 25.21 43.4929 25.4856C43.5716 25.6825 43.7029 25.9712 43.8735 26.3519C43.926 26.4831 43.9523 26.575 43.9523 26.6406Z" fill="#212121" fill-rule="nonzero" opacity="1" stroke="none"/>
<path d="M6.19211 26.5356C6.10023 26.4175 6.04773 26.2994 6.04773 26.2075C6.04773 26.1156 6.12648 25.9975 6.28398 25.84C6.37585 25.7481 6.48085 25.7087 6.57273 25.7087C6.67773 25.7087 6.8221 25.8006 7.00585 25.9844C7.05835 26.05 7.1371 26.1025 7.22897 26.1681C7.32084 26.2206 7.41272 26.2469 7.49146 26.2469C7.83271 26.2469 8.00333 26.1025 8.00333 25.8269C8.00333 25.7481 7.96396 25.6694 7.87209 25.6169C7.78021 25.5512 7.66209 25.5119 7.51772 25.4856C7.37334 25.4594 7.22897 25.42 7.05835 25.3675C6.90085 25.315 6.75647 25.2362 6.6121 25.1575C6.46773 25.0919 6.34961 24.9606 6.25773 24.79C6.16586 24.6325 6.11336 24.4225 6.11336 24.1863C6.11336 23.8713 6.24461 23.5825 6.48085 23.3463C6.7171 23.0969 7.04522 22.9788 7.46522 22.9788C7.68834 22.9788 7.88521 23.005 8.06896 23.0706C8.25271 23.1231 8.38396 23.1756 8.44958 23.2413L8.59395 23.3463C8.69895 23.4513 8.76458 23.5431 8.76458 23.6219C8.76458 23.6875 8.71208 23.7925 8.63333 23.9238C8.50208 24.1075 8.37083 24.1994 8.23958 24.1994C8.16083 24.1994 8.06896 24.16 7.95083 24.0813C7.93771 24.0813 7.92459 24.055 7.88521 24.0288C7.85896 24.0025 7.83271 23.9763 7.80646 23.9631C7.72771 23.9106 7.63584 23.8844 7.50459 23.8844C7.38647 23.8844 7.29459 23.9106 7.21584 23.9763C7.1371 24.0288 7.09772 24.1075 7.09772 24.2125C7.09772 24.3175 7.1371 24.3963 7.22897 24.4619C7.32084 24.5144 7.43897 24.5669 7.58334 24.58C7.72771 24.6063 7.87209 24.6456 8.04271 24.685C8.21333 24.7375 8.35771 24.79 8.50208 24.8556C8.64645 24.9212 8.76458 25.0394 8.85645 25.1969C8.94832 25.3675 8.9877 25.5644 8.9877 25.8006C8.9877 26.05 8.94832 26.26 8.85645 26.4437C8.75145 26.6275 8.63333 26.7587 8.47583 26.8637C8.17396 27.0606 7.85896 27.1525 7.51772 27.1525C7.34709 27.1525 7.17647 27.1393 7.01897 27.0869C6.8746 27.0475 6.74335 26.995 6.65147 26.9294C6.4546 26.8112 6.32335 26.7062 6.24461 26.5881L6.19211 26.5356Z" fill="#1e1e1e" fill-rule="nonzero" opacity="1" stroke="none"/>
<path d="M10.5627 26.1156L12.2689 26.1156C12.3477 26.1156 12.4133 26.1287 12.4527 26.1287C12.5052 26.1287 12.5445 26.155 12.597 26.1812C12.702 26.2337 12.7545 26.3781 12.7545 26.6144C12.7545 26.8769 12.6889 27.0212 12.5445 27.0606C12.4789 27.0869 12.387 27.1 12.2558 27.1L10.0771 27.1C9.81456 27.1 9.65707 27.0344 9.61769 26.89C9.59144 26.8244 9.57831 26.7325 9.57831 26.6012L9.57831 23.53C9.57831 23.3463 9.61769 23.215 9.68331 23.1494C9.76206 23.0838 9.89331 23.0444 10.0902 23.0444L12.2689 23.0444C12.3477 23.0444 12.4133 23.0444 12.4527 23.0575C12.5052 23.0575 12.5445 23.0838 12.6102 23.11C12.702 23.1625 12.7545 23.3069 12.7545 23.5431C12.7545 23.7925 12.6889 23.95 12.5445 23.9894C12.492 24.0156 12.387 24.0288 12.2558 24.0288L10.5627 24.0288L10.5627 24.58L11.652 24.58C11.7439 24.58 11.8095 24.5931 11.8489 24.5931C11.8883 24.5931 11.9408 24.6194 11.9933 24.6456C12.0983 24.6981 12.1508 24.8425 12.1508 25.0788C12.1508 25.3412 12.072 25.4856 11.9408 25.525C11.8752 25.5512 11.7702 25.5644 11.652 25.5644L10.5627 25.5644L10.5627 26.1156Z" fill="#1e1e1e" fill-rule="nonzero" opacity="1" stroke="none"/>
<path d="M14.3164 26.1156L16.0226 26.1156C16.1145 26.1156 16.167 26.1287 16.2195 26.1287C16.2589 26.1287 16.3114 26.155 16.3639 26.1812C16.4557 26.2337 16.5082 26.3781 16.5082 26.6144C16.5082 26.8769 16.4426 27.0212 16.3114 27.0606C16.2457 27.0869 16.1407 27.1 16.0226 27.1L13.8308 27.1C13.5683 27.1 13.4239 27.0344 13.3714 26.89C13.3583 26.8244 13.3451 26.7325 13.3451 26.6012L13.3451 23.53C13.3451 23.3463 13.3714 23.215 13.4501 23.1494C13.5158 23.0838 13.647 23.0444 13.8439 23.0444L16.0226 23.0444C16.1145 23.0444 16.167 23.0444 16.2195 23.0575C16.2589 23.0575 16.3114 23.0838 16.3639 23.11C16.4557 23.1625 16.5082 23.3069 16.5082 23.5431C16.5082 23.7925 16.4426 23.95 16.3114 23.9894C16.2457 24.0156 16.1539 24.0288 16.0226 24.0288L14.3164 24.0288L14.3164 24.58L15.4189 24.58C15.4976 24.58 15.5632 24.5931 15.6026 24.5931C15.6551 24.5931 15.6945 24.6194 15.747 24.6456C15.852 24.6981 15.9045 24.8425 15.9045 25.0788C15.9045 25.3412 15.8389 25.4856 15.6945 25.525C15.6289 25.5512 15.537 25.5644 15.4057 25.5644L14.3164 25.5644L14.3164 26.1156Z" fill="#1e1e1e" fill-rule="nonzero" opacity="1" stroke="none"/>
<path d="M17.5845 23.0444L18.6082 23.0444C19.1463 23.0444 19.6188 23.2413 20.0257 23.6219C20.4326 24.0156 20.6294 24.4881 20.6294 25.0394C20.6294 25.6037 20.4326 26.0894 20.0388 26.4962C19.6451 26.89 19.1594 27.1 18.5951 27.1L17.5845 27.1C17.3613 27.1 17.217 27.0475 17.1645 26.9556C17.1251 26.8769 17.0988 26.7587 17.0988 26.6012L17.0988 23.53C17.0988 23.4381 17.0988 23.3725 17.112 23.3331C17.112 23.2938 17.1251 23.2413 17.1645 23.1888C17.217 23.0969 17.3482 23.0444 17.5845 23.0444ZM19.3301 25.8137C19.5401 25.6169 19.6582 25.3806 19.6582 25.0788C19.6582 24.7769 19.5532 24.5275 19.3432 24.3306C19.1332 24.1206 18.8838 24.0288 18.6082 24.0288L18.0832 24.0288L18.0832 26.1156L18.6082 26.1156C18.8838 26.1156 19.1201 26.0106 19.3301 25.8137Z" fill="#1e1e1e" fill-rule="nonzero" opacity="1" stroke="none"/>
<path d="M26.3781 25.1312C26.2862 24.9738 26.1681 24.8556 26.0369 24.79C25.8925 24.7244 25.735 24.6588 25.5775 24.6194C25.4069 24.5669 25.2494 24.5406 25.1181 24.5144C24.9738 24.4881 24.8556 24.4488 24.7638 24.3831C24.6719 24.3306 24.6194 24.2388 24.6194 24.1469C24.6194 24.0419 24.6588 23.9631 24.7375 23.9106C24.8163 23.845 24.9212 23.8188 25.0394 23.8188C25.1575 23.8188 25.2625 23.845 25.3412 23.8975C25.3675 23.9106 25.3937 23.9369 25.42 23.9631C25.4462 23.9894 25.4725 24.0156 25.4856 24.0156C25.6037 24.0944 25.6956 24.1338 25.7744 24.1338C25.9056 24.1338 26.0369 24.0419 26.155 23.8581C26.2469 23.7269 26.2862 23.6219 26.2862 23.5431C26.2862 23.4775 26.2337 23.3856 26.1156 23.2806L25.9844 23.1756C25.9187 23.11 25.7875 23.0575 25.6037 22.9919C25.42 22.9394 25.2231 22.9131 25 22.9131C24.58 22.9131 24.2519 23.0313 24.0156 23.2806C23.7663 23.5169 23.6481 23.8056 23.6481 24.1206C23.6481 24.3569 23.7006 24.5669 23.7925 24.7244C23.8844 24.895 24.0025 25.0131 24.1469 25.0919C24.2781 25.1706 24.4356 25.2362 24.5931 25.3019C24.7506 25.3544 24.9081 25.3937 25.0525 25.42C25.1837 25.4462 25.3019 25.4856 25.3937 25.5512C25.4987 25.6037 25.5381 25.6694 25.5381 25.7612C25.5381 26.0369 25.3675 26.1812 25.0262 26.1812C24.9475 26.1812 24.8556 26.155 24.7638 26.0894C24.6588 26.0369 24.5931 25.9712 24.5406 25.9187C24.3569 25.735 24.2125 25.6431 24.1075 25.6431C24.0025 25.6431 23.9106 25.6825 23.8188 25.7744C23.6613 25.9319 23.5825 26.05 23.5825 26.1419C23.5825 26.2337 23.6219 26.3387 23.7269 26.4569L23.7663 26.5225C23.845 26.6406 23.9894 26.7456 24.1731 26.8637C24.2781 26.9294 24.3963 26.9819 24.5538 27.0212C24.7113 27.0606 24.8688 27.0869 25.0525 27.0869C25.3806 27.0869 25.7087 26.995 26.0106 26.7981C26.155 26.6931 26.2862 26.5487 26.3781 26.365C26.47 26.1944 26.5225 25.9712 26.5225 25.735C26.5225 25.4987 26.4831 25.3019 26.3781 25.1312Z" fill="#ffffff" fill-rule="nonzero" opacity="1" stroke="none"/>
<path d="M28.0581 23.1888C28.0187 23.0575 27.8612 22.9788 27.6118 22.9788C27.3756 22.9788 27.2312 23.0313 27.1787 23.1363C27.1393 23.1888 27.1262 23.2413 27.1262 23.2806C27.1131 23.32 27.1131 23.3856 27.1131 23.4775L27.1131 26.5487C27.1131 26.68 27.1262 26.7719 27.1525 26.8244C27.1918 26.9687 27.3362 27.0344 27.5987 27.0344C27.835 27.0344 27.9793 26.995 28.0318 26.89C28.0581 26.8375 28.0843 26.785 28.0843 26.7456C28.0843 26.7062 28.0975 26.6406 28.0975 26.5487L28.0975 23.4775C28.0975 23.3463 28.0843 23.2544 28.0581 23.1888Z" fill="#ffffff" fill-rule="nonzero" opacity="1" stroke="none"/>
<path d="M32.2318 24.7506C32.1924 24.6588 32.0743 24.6063 31.8774 24.5931L30.8931 24.5931C30.7881 24.5931 30.6962 24.6063 30.6306 24.6456C30.5912 24.6719 30.5649 24.7113 30.5387 24.7638C30.5256 24.8294 30.5124 24.9081 30.5124 25C30.5124 25.105 30.5256 25.1706 30.5387 25.2362C30.5518 25.2887 30.5912 25.3281 30.6306 25.3675C30.6831 25.3937 30.7618 25.4069 30.8799 25.4069L31.313 25.4069L31.313 26.0106C31.1555 26.0762 30.9718 26.1156 30.7618 26.1156C30.4862 26.1156 30.2368 25.9975 30.0137 25.7744C29.7906 25.5512 29.6856 25.2756 29.6856 24.9606C29.6856 24.6456 29.7906 24.3831 30.0137 24.1863C30.2237 23.9894 30.4731 23.8975 30.7618 23.8975C30.9718 23.8975 31.1555 23.9369 31.313 24.0419C31.4574 24.1469 31.5755 24.1994 31.6412 24.1994C31.7593 24.1994 31.8905 24.0944 32.0349 23.8975C32.1268 23.7794 32.1662 23.6744 32.1662 23.5956C32.1662 23.5038 32.1137 23.4119 32.0218 23.3463C31.628 23.0575 31.2212 22.9131 30.7881 22.9131C30.2237 22.9131 29.7381 23.11 29.3181 23.5038C28.9112 23.8975 28.7012 24.3831 28.7012 24.9738C28.7012 25.5512 28.9112 26.0631 29.3181 26.47C29.7118 26.89 30.1974 27.1 30.7487 27.1C31.3655 27.1 31.8249 26.9294 32.1399 26.6144C32.2449 26.5094 32.2974 26.3912 32.2974 26.2731L32.2974 25.0525C32.2974 24.9212 32.2712 24.8163 32.2318 24.7506Z" fill="#ffffff" fill-rule="nonzero" opacity="1" stroke="none"/>
<path d="M36.3924 23.2019C36.3792 23.1494 36.353 23.11 36.3136 23.0838C36.2874 23.0575 36.2349 23.0313 36.1692 23.0181C36.1167 23.005 36.0249 22.9919 35.9199 22.9919C35.8149 22.9919 35.723 23.005 35.6574 23.0181C35.5917 23.0444 35.5392 23.0838 35.4999 23.1494C35.4605 23.215 35.4474 23.32 35.4474 23.4644L35.4474 25.3281C35.1849 24.9869 34.6599 24.2913 33.8855 23.2281C33.8199 23.1494 33.7805 23.0969 33.7674 23.0969C33.7411 23.0706 33.6886 23.0444 33.623 23.0181C33.5574 23.005 33.4786 22.9919 33.3605 22.9919C33.2555 22.9919 33.1637 23.005 33.098 23.0181C33.0193 23.0444 32.9668 23.0838 32.9405 23.1494C32.9012 23.215 32.888 23.32 32.888 23.4644L32.888 26.5487C32.888 26.6275 32.888 26.6931 32.888 26.7456C32.9012 26.785 32.9143 26.8375 32.9405 26.89C32.993 26.995 33.1374 27.0344 33.3605 27.0344C33.5968 27.0344 33.7411 26.995 33.7936 26.89C33.8199 26.8375 33.8461 26.785 33.8461 26.7456C33.8461 26.7062 33.8593 26.6406 33.8593 26.5487L33.8593 24.7375C34.1218 25.0656 34.6599 25.8006 35.4867 26.9031C35.5261 26.9425 35.5786 26.9819 35.6311 27.0081C35.6836 27.0212 35.7886 27.0344 35.933 27.0344C36.1692 27.0344 36.3136 26.995 36.3661 26.89C36.3924 26.8375 36.4055 26.785 36.4186 26.7456C36.4186 26.7062 36.4186 26.6406 36.4186 26.5487L36.4186 23.4775C36.4186 23.3594 36.4055 23.2544 36.3924 23.2019Z" fill="#ffffff" fill-rule="nonzero" opacity="1" stroke="none"/>
<path d="M40.0279 26.1156C39.9754 26.0894 39.9229 26.0762 39.8836 26.0631C39.8442 26.0631 39.7786 26.0631 39.6867 26.0631L37.9936 26.0631L37.9936 25.4987L39.0698 25.4987C39.2011 25.4987 39.2929 25.4856 39.3586 25.4725C39.5029 25.42 39.5686 25.2756 39.5686 25.0131C39.5686 24.7769 39.5161 24.6325 39.4242 24.58C39.3717 24.5538 39.3192 24.5406 39.2798 24.5275C39.2273 24.5275 39.1748 24.5275 39.083 24.5275L37.9936 24.5275L37.9936 23.9631L39.6867 23.9631C39.8179 23.9631 39.9098 23.95 39.9754 23.9369C40.1067 23.8844 40.1723 23.74 40.1723 23.4775C40.1723 23.2413 40.1329 23.0969 40.0279 23.0444C39.9754 23.0181 39.9229 23.005 39.8836 22.9919C39.8442 22.9919 39.7786 22.9788 39.6867 22.9788L37.508 22.9788C37.3111 22.9788 37.1798 23.0181 37.1142 23.0838C37.0486 23.1494 37.0092 23.2806 37.0092 23.4775L37.0092 26.5487C37.0092 26.68 37.0224 26.7719 37.0486 26.8244C37.088 26.9687 37.2323 27.0344 37.4948 27.0344L39.6867 27.0344C39.8179 27.0344 39.9098 27.0212 39.9754 27.0081C40.1067 26.9556 40.1723 26.8112 40.1723 26.5487C40.1723 26.3125 40.1329 26.1681 40.0279 26.1156Z" fill="#ffffff" fill-rule="nonzero" opacity="1" stroke="none"/>
<path d="M43.8735 26.3519C43.7029 25.9712 43.5716 25.6825 43.4929 25.4856C43.7685 25.21 43.9129 24.8688 43.9129 24.4619C43.9129 24.2125 43.8604 24.0025 43.7685 23.8056C43.6635 23.6088 43.5454 23.4513 43.401 23.3331C43.0992 23.0969 42.7842 22.9788 42.456 22.9788L41.2617 22.9788C41.0254 22.9788 40.8811 23.0313 40.8286 23.1363C40.8023 23.1888 40.7761 23.2413 40.7761 23.2806C40.7761 23.32 40.7629 23.3856 40.7629 23.4775L40.7629 26.5356C40.7629 26.6669 40.7761 26.7719 40.8023 26.8244C40.8417 26.9687 40.9992 27.0344 41.2486 27.0344C41.4848 27.0344 41.6292 26.9819 41.6817 26.89C41.721 26.8244 41.7342 26.785 41.7342 26.7325C41.7473 26.6931 41.7473 26.6275 41.7473 26.5487L41.7473 25.9187L42.4429 25.9187L42.6135 25.9056C42.8629 26.5094 43.0073 26.8375 43.0467 26.9162C43.0729 26.9425 43.0992 26.9819 43.1517 27.0212C43.191 27.0606 43.2567 27.0737 43.3223 27.0737C43.401 27.0737 43.4929 27.0475 43.611 26.995C43.8341 26.9031 43.9523 26.785 43.9523 26.6406C43.9523 26.575 43.926 26.4831 43.8735 26.3519ZM42.771 24.8163C42.666 24.9081 42.561 24.9475 42.456 24.9475L41.7473 24.9475L41.7473 23.9631L42.4429 23.9631C42.561 23.9631 42.666 24.0025 42.771 24.0944C42.876 24.1731 42.9417 24.2913 42.9417 24.4619C42.9417 24.6194 42.876 24.7375 42.771 24.8163Z" fill="#ffffff" fill-rule="nonzero" opacity="1" stroke="none"/>
<path d="M46.9054 21.4563C46.9054 21.4563 46.9054 21.4563 46.9054 21.4432C46.6035 20.8919 46.2229 20.3669 45.7897 19.9076C45.3697 19.4613 44.8973 19.0676 44.3723 18.7395C43.3879 18.1095 42.2329 17.7288 41.0123 17.6895L9.36832 17.6895C8.04271 17.7288 6.8221 18.1095 5.75899 18.7395C4.57775 19.4482 3.60651 20.4719 2.97652 21.7057C2.46465 22.7032 2.17591 23.845 2.17591 25.0656C2.17591 26.3781 2.51715 27.5987 3.10777 28.6618C3.69839 29.7381 4.53838 30.6306 5.56212 31.2737C6.6121 31.9299 7.85896 32.3105 9.18457 32.3105L40.8154 32.3105C42.141 32.3105 43.3748 31.9299 44.4379 31.2737C44.4379 31.2737 44.4379 31.2605 44.451 31.2605C45.4616 30.6306 46.3147 29.7249 46.9054 28.6487C47.496 27.5987 47.8241 26.365 47.8241 25.0656C47.8241 23.7531 47.496 22.5194 46.9054 21.4563ZM43.8735 26.3519C43.926 26.4831 43.9523 26.575 43.9523 26.6406C43.9523 26.785 43.8341 26.9031 43.611 26.995C43.4929 27.0475 43.401 27.0737 43.3223 27.0737C43.2567 27.0737 43.191 27.0606 43.1517 27.0212C43.0992 26.9819 43.0729 26.9425 43.0467 26.9162C43.0073 26.8375 42.8629 26.5094 42.6135 25.9056L42.4429 25.9187L41.7473 25.9187L41.7473 26.5487C41.7473 26.6275 41.7473 26.6931 41.7342 26.7325C41.7342 26.785 41.721 26.8244 41.6817 26.89C41.6292 26.9819 41.4848 27.0344 41.2486 27.0344C40.9992 27.0344 40.8417 26.9687 40.8023 26.8244C40.7761 26.7719 40.7629 26.6669 40.7629 26.5356L40.7629 23.4775C40.7629 23.3856 40.7761 23.32 40.7761 23.2806C40.7761 23.2413 40.8023 23.1888 40.8286 23.1363C40.8811 23.0313 41.0254 22.9788 41.2617 22.9788L42.456 22.9788C42.7842 22.9788 43.0992 23.0969 43.401 23.3331C43.5454 23.4513 43.6635 23.6088 43.7685 23.8056C43.8604 24.0025 43.9129 24.2125 43.9129 24.4619C43.9129 24.8688 43.7685 25.21 43.4929 25.4856C43.5716 25.6825 43.7029 25.9712 43.8735 26.3519ZM39.083 24.5275C39.1748 24.5275 39.2273 24.5275 39.2798 24.5275C39.3192 24.5406 39.3717 24.5538 39.4242 24.58C39.5161 24.6325 39.5686 24.7769 39.5686 25.0131C39.5686 25.2756 39.5029 25.42 39.3586 25.4725C39.2929 25.4856 39.2011 25.4987 39.0698 25.4987L37.9936 25.4987L37.9936 26.0631L39.6867 26.0631C39.7786 26.0631 39.8442 26.0631 39.8836 26.0631C39.9229 26.0762 39.9754 26.0894 40.0279 26.1156C40.1329 26.1681 40.1723 26.3125 40.1723 26.5487C40.1723 26.8112 40.1067 26.9556 39.9754 27.0081C39.9098 27.0212 39.8179 27.0344 39.6867 27.0344L37.4948 27.0344C37.2323 27.0344 37.088 26.9687 37.0486 26.8244C37.0224 26.7719 37.0092 26.68 37.0092 26.5487L37.0092 23.4775C37.0092 23.2806 37.0486 23.1494 37.1142 23.0838C37.1798 23.0181 37.3111 22.9788 37.508 22.9788L39.6867 22.9788C39.7786 22.9788 39.8442 22.9919 39.8836 22.9919C39.9229 23.005 39.9754 23.0181 40.0279 23.0444C40.1329 23.0969 40.1723 23.2413 40.1723 23.4775C40.1723 23.74 40.1067 23.8844 39.9754 23.9369C39.9098 23.95 39.8179 23.9631 39.6867 23.9631L37.9936 23.9631L37.9936 24.5275L39.083 24.5275ZM36.4186 23.4775L36.4186 26.5487C36.4186 26.6406 36.4186 26.7062 36.4186 26.7456C36.4055 26.785 36.3924 26.8375 36.3661 26.89C36.3136 26.995 36.1692 27.0344 35.933 27.0344C35.7886 27.0344 35.6836 27.0212 35.6311 27.0081C35.5786 26.9819 35.5261 26.9425 35.4867 26.9031C34.6599 25.8006 34.1218 25.0656 33.8593 24.7375L33.8593 26.5487C33.8593 26.6406 33.8461 26.7062 33.8461 26.7456C33.8461 26.785 33.8199 26.8375 33.7936 26.89C33.7411 26.995 33.5968 27.0344 33.3605 27.0344C33.1374 27.0344 32.993 26.995 32.9405 26.89C32.9143 26.8375 32.9012 26.785 32.888 26.7456C32.888 26.6931 32.888 26.6275 32.888 26.5487L32.888 23.4644C32.888 23.32 32.9012 23.215 32.9405 23.1494C32.9668 23.0838 33.0193 23.0444 33.098 23.0181C33.1637 23.005 33.2555 22.9919 33.3605 22.9919C33.4786 22.9919 33.5574 23.005 33.623 23.0181C33.6886 23.0444 33.7411 23.0706 33.7674 23.0969C33.7805 23.0969 33.8199 23.1494 33.8855 23.2281C34.6599 24.2913 35.1849 24.9869 35.4474 25.3281L35.4474 23.4644C35.4474 23.32 35.4605 23.215 35.4999 23.1494C35.5392 23.0838 35.5917 23.0444 35.6574 23.0181C35.723 23.005 35.8149 22.9919 35.9199 22.9919C36.0249 22.9919 36.1167 23.005 36.1692 23.0181C36.2349 23.0313 36.2874 23.0575 36.3136 23.0838C36.353 23.11 36.3792 23.1494 36.3924 23.2019C36.4055 23.2544 36.4186 23.3594 36.4186 23.4775ZM30.0137 25.7744C30.2368 25.9975 30.4862 26.1156 30.7618 26.1156C30.9718 26.1156 31.1555 26.0762 31.313 26.0106L31.313 25.4069L30.8799 25.4069C30.7618 25.4069 30.6831 25.3937 30.6306 25.3675C30.5912 25.3281 30.5518 25.2887 30.5387 25.2362C30.5256 25.1706 30.5124 25.105 30.5124 25C30.5124 24.9081 30.5256 24.8294 30.5387 24.7638C30.5649 24.7113 30.5912 24.6719 30.6306 24.6456C30.6962 24.6063 30.7881 24.5931 30.8931 24.5931L31.8774 24.5931C32.0743 24.6063 32.1924 24.6588 32.2318 24.7506C32.2712 24.8163 32.2974 24.9212 32.2974 25.0525L32.2974 26.2731C32.2974 26.3912 32.2449 26.5094 32.1399 26.6144C31.8249 26.9294 31.3655 27.1 30.7487 27.1C30.1974 27.1 29.7118 26.89 29.3181 26.47C28.9112 26.0631 28.7012 25.5512 28.7012 24.9738C28.7012 24.3831 28.9112 23.8975 29.3181 23.5038C29.7381 23.11 30.2237 22.9131 30.7881 22.9131C31.2212 22.9131 31.628 23.0575 32.0218 23.3463C32.1137 23.4119 32.1662 23.5038 32.1662 23.5956C32.1662 23.6744 32.1268 23.7794 32.0349 23.8975C31.8905 24.0944 31.7593 24.1994 31.6412 24.1994C31.5755 24.1994 31.4574 24.1469 31.313 24.0419C31.1555 23.9369 30.9718 23.8975 30.7618 23.8975C30.4731 23.8975 30.2237 23.9894 30.0137 24.1863C29.7906 24.3831 29.6856 24.6456 29.6856 24.9606C29.6856 25.2756 29.7906 25.5512 30.0137 25.7744ZM28.0975 23.4775L28.0975 26.5487C28.0975 26.6406 28.0843 26.7062 28.0843 26.7456C28.0843 26.785 28.0581 26.8375 28.0318 26.89C27.9793 26.995 27.835 27.0344 27.5987 27.0344C27.3362 27.0344 27.1918 26.9687 27.1525 26.8244C27.1262 26.7719 27.1131 26.68 27.1131 26.5487L27.1131 23.4775C27.1131 23.3856 27.1131 23.32 27.1262 23.2806C27.1262 23.2413 27.1393 23.1888 27.1787 23.1363C27.2312 23.0313 27.3756 22.9788 27.6118 22.9788C27.8612 22.9788 28.0187 23.0575 28.0581 23.1888C28.0843 23.2544 28.0975 23.3463 28.0975 23.4775ZM25.3937 25.5512C25.3019 25.4856 25.1837 25.4462 25.0525 25.42C24.9081 25.3937 24.7506 25.3544 24.5931 25.3019C24.4356 25.2362 24.2781 25.1706 24.1469 25.0919C24.0025 25.0131 23.8844 24.895 23.7925 24.7244C23.7006 24.5669 23.6481 24.3569 23.6481 24.1206C23.6481 23.8056 23.7663 23.5169 24.0156 23.2806C24.2519 23.0313 24.58 22.9131 25 22.9131C25.2231 22.9131 25.42 22.9394 25.6037 22.9919C25.7875 23.0575 25.9187 23.11 25.9844 23.1756L26.1156 23.2806C26.2337 23.3856 26.2862 23.4775 26.2862 23.5431C26.2862 23.6219 26.2469 23.7269 26.155 23.8581C26.0369 24.0419 25.9056 24.1338 25.7744 24.1338C25.6956 24.1338 25.6037 24.0944 25.4856 24.0156C25.4725 24.0156 25.4462 23.9894 25.42 23.9631C25.3937 23.9369 25.3675 23.9106 25.3412 23.8975C25.2625 23.845 25.1575 23.8188 25.0394 23.8188C24.9212 23.8188 24.8163 23.845 24.7375 23.9106C24.6588 23.9631 24.6194 24.0419 24.6194 24.1469C24.6194 24.2388 24.6719 24.3306 24.7638 24.3831C24.8556 24.4488 24.9738 24.4881 25.1181 24.5144C25.2494 24.5406 25.4069 24.5669 25.5775 24.6194C25.735 24.6588 25.8925 24.7244 26.0369 24.79C26.1681 24.8556 26.2862 24.9738 26.3781 25.1312C26.4831 25.3019 26.5225 25.4987 26.5225 25.735C26.5225 25.9712 26.47 26.1944 26.3781 26.365C26.2862 26.5487 26.155 26.6931 26.0106 26.7981C25.7087 26.995 25.3806 27.0869 25.0525 27.0869C24.8688 27.0869 24.7113 27.0606 24.5538 27.0212C24.3963 26.9819 24.2781 26.9294 24.1731 26.8637C23.9894 26.7456 23.845 26.6406 23.7663 26.5225L23.7269 26.4569C23.6219 26.3387 23.5825 26.2337 23.5825 26.1419C23.5825 26.05 23.6613 25.9319 23.8188 25.7744C23.9106 25.6825 24.0025 25.6431 24.1075 25.6431C24.2125 25.6431 24.3569 25.735 24.5406 25.9187C24.5931 25.9712 24.6588 26.0369 24.7638 26.0894C24.8556 26.155 24.9475 26.1812 25.0262 26.1812C25.3675 26.1812 25.5381 26.0369 25.5381 25.7612C25.5381 25.6694 25.4987 25.6037 25.3937 25.5512ZM3.42277 27.1C3.21277 26.4569 3.09465 25.7744 3.09465 25.0656C3.09465 24.3044 3.22589 23.5825 3.47527 22.9131C4.3415 20.5376 6.62523 18.8313 9.36832 18.7395L9.38144 18.7395L22.0994 18.7395L22.0994 31.2605L9.18457 31.2605C6.52023 31.2605 4.24963 29.5149 3.42277 27.1Z" fill="#262626" fill-rule="nonzero" opacity="1" stroke="none"/>
<path d="M26.3781 25.1312C26.4831 25.3019 26.5225 25.4987 26.5225 25.735C26.5225 25.9712 26.47 26.1944 26.3781 26.365C26.2862 26.5487 26.155 26.6931 26.0106 26.7981C25.7087 26.995 25.3806 27.0869 25.0525 27.0869C24.8688 27.0869 24.7113 27.0606 24.5538 27.0212C24.3963 26.9819 24.2781 26.9294 24.1731 26.8637C23.9894 26.7456 23.845 26.6406 23.7663 26.5225L23.7269 26.4569C23.6219 26.3387 23.5825 26.2337 23.5825 26.1419C23.5825 26.05 23.6613 25.9319 23.8188 25.7744C23.9106 25.6825 24.0025 25.6431 24.1075 25.6431C24.2125 25.6431 24.3569 25.735 24.5406 25.9187C24.5931 25.9712 24.6588 26.0369 24.7638 26.0894C24.8556 26.155 24.9475 26.1812 25.0262 26.1812C25.3675 26.1812 25.5381 26.0369 25.5381 25.7612C25.5381 25.6694 25.4987 25.6037 25.3937 25.5512C25.3019 25.4856 25.1837 25.4462 25.0525 25.42C24.9081 25.3937 24.7506 25.3544 24.5931 25.3019C24.4356 25.2362 24.2781 25.1706 24.1469 25.0919C24.0025 25.0131 23.8844 24.895 23.7925 24.7244C23.7006 24.5669 23.6481 24.3569 23.6481 24.1206C23.6481 23.8056 23.7663 23.5169 24.0156 23.2806C24.2519 23.0313 24.58 22.9131 25 22.9131C25.2231 22.9131 25.42 22.9394 25.6037 22.9919C25.7875 23.0575 25.9187 23.11 25.9844 23.1756L26.1156 23.2806C26.2337 23.3856 26.2862 23.4775 26.2862 23.5431C26.2862 23.6219 26.2469 23.7269 26.155 23.8581C26.0369 24.0419 25.9056 24.1338 25.7744 24.1338C25.6956 24.1338 25.6037 24.0944 25.4856 24.0156C25.4725 24.0156 25.4462 23.9894 25.42 23.9631C25.3937 23.9369 25.3675 23.9106 25.3412 23.8975C25.2625 23.845 25.1575 23.8188 25.0394 23.8188C24.9212 23.8188 24.8163 23.845 24.7375 23.9106C24.6588 23.9631 24.6194 24.0419 24.6194 24.1469C24.6194 24.2388 24.6719 24.3306 24.7638 24.3831C24.8556 24.4488 24.9738 24.4881 25.1181 24.5144C25.2494 24.5406 25.4069 24.5669 25.5775 24.6194C25.735 24.6588 25.8925 24.7244 26.0369 24.79C26.1681 24.8556 26.2862 24.9738 26.3781 25.1312Z" fill="#ffffff" fill-rule="nonzero" opacity="1" stroke="none"/>
<path d="M28.0581 23.1888C28.0843 23.2544 28.0975 23.3463 28.0975 23.4775L28.0975 26.5487C28.0975 26.6406 28.0843 26.7062 28.0843 26.7456C28.0843 26.785 28.0581 26.8375 28.0318 26.89C27.9793 26.995 27.835 27.0344 27.5987 27.0344C27.3362 27.0344 27.1918 26.9687 27.1525 26.8244C27.1262 26.7719 27.1131 26.68 27.1131 26.5487L27.1131 23.4775C27.1131 23.3856 27.1131 23.32 27.1262 23.2806C27.1262 23.2413 27.1393 23.1888 27.1787 23.1363C27.2312 23.0313 27.3756 22.9788 27.6118 22.9788C27.8612 22.9788 28.0187 23.0575 28.0581 23.1888Z" fill="#ffffff" fill-rule="nonzero" opacity="1" stroke="none"/>
<path d="M32.2318 24.7506C32.2712 24.8163 32.2974 24.9212 32.2974 25.0525L32.2974 26.2731C32.2974 26.3912 32.2449 26.5094 32.1399 26.6144C31.8249 26.9294 31.3655 27.1 30.7487 27.1C30.1974 27.1 29.7118 26.89 29.3181 26.47C28.9112 26.0631 28.7012 25.5512 28.7012 24.9738C28.7012 24.3831 28.9112 23.8975 29.3181 23.5038C29.7381 23.11 30.2237 22.9131 30.7881 22.9131C31.2212 22.9131 31.628 23.0575 32.0218 23.3463C32.1137 23.4119 32.1662 23.5038 32.1662 23.5956C32.1662 23.6744 32.1268 23.7794 32.0349 23.8975C31.8905 24.0944 31.7593 24.1994 31.6412 24.1994C31.5755 24.1994 31.4574 24.1469 31.313 24.0419C31.1555 23.9369 30.9718 23.8975 30.7618 23.8975C30.4731 23.8975 30.2237 23.9894 30.0137 24.1863C29.7906 24.3831 29.6856 24.6456 29.6856 24.9606C29.6856 25.2756 29.7906 25.5512 30.0137 25.7744C30.2368 25.9975 30.4862 26.1156 30.7618 26.1156C30.9718 26.1156 31.1555 26.0762 31.313 26.0106L31.313 25.4069L30.8799 25.4069C30.7618 25.4069 30.6831 25.3937 30.6306 25.3675C30.5912 25.3281 30.5518 25.2887 30.5387 25.2362C30.5256 25.1706 30.5124 25.105 30.5124 25C30.5124 24.9081 30.5256 24.8294 30.5387 24.7638C30.5649 24.7113 30.5912 24.6719 30.6306 24.6456C30.6962 24.6063 30.7881 24.5931 30.8931 24.5931L31.8774 24.5931C32.0743 24.6063 32.1924 24.6588 32.2318 24.7506Z" fill="#ffffff" fill-rule="nonzero" opacity="1" stroke="none"/>
<path d="M36.3924 23.2019C36.4055 23.2544 36.4186 23.3594 36.4186 23.4775L36.4186 26.5487C36.4186 26.6406 36.4186 26.7062 36.4186 26.7456C36.4055 26.785 36.3924 26.8375 36.3661 26.89C36.3136 26.995 36.1692 27.0344 35.933 27.0344C35.7886 27.0344 35.6836 27.0212 35.6311 27.0081C35.5786 26.9819 35.5261 26.9425 35.4867 26.9031C34.6599 25.8006 34.1218 25.0656 33.8593 24.7375L33.8593 26.5487C33.8593 26.6406 33.8461 26.7062 33.8461 26.7456C33.8461 26.785 33.8199 26.8375 33.7936 26.89C33.7411 26.995 33.5968 27.0344 33.3605 27.0344C33.1374 27.0344 32.993 26.995 32.9405 26.89C32.9143 26.8375 32.9012 26.785 32.888 26.7456C32.888 26.6931 32.888 26.6275 32.888 26.5487L32.888 23.4644C32.888 23.32 32.9012 23.215 32.9405 23.1494C32.9668 23.0838 33.0193 23.0444 33.098 23.0181C33.1637 23.005 33.2555 22.9919 33.3605 22.9919C33.4786 22.9919 33.5574 23.005 33.623 23.0181C33.6886 23.0444 33.7411 23.0706 33.7674 23.0969C33.7805 23.0969 33.8199 23.1494 33.8855 23.2281C34.6599 24.2913 35.1849 24.9869 35.4474 25.3281L35.4474 23.4644C35.4474 23.32 35.4605 23.215 35.4999 23.1494C35.5392 23.0838 35.5917 23.0444 35.6574 23.0181C35.723 23.005 35.8149 22.9919 35.9199 22.9919C36.0249 22.9919 36.1167 23.005 36.1692 23.0181C36.2349 23.0313 36.2874 23.0575 36.3136 23.0838C36.353 23.11 36.3792 23.1494 36.3924 23.2019Z" fill="#ffffff" fill-rule="nonzero" opacity="1" stroke="none"/>
<path d="M37.9936 23.9631L37.9936 24.5275L39.083 24.5275C39.1748 24.5275 39.2273 24.5275 39.2798 24.5275C39.3192 24.5406 39.3717 24.5538 39.4242 24.58C39.5161 24.6325 39.5686 24.7769 39.5686 25.0131C39.5686 25.2756 39.5029 25.42 39.3586 25.4725C39.2929 25.4856 39.2011 25.4987 39.0698 25.4987L37.9936 25.4987L37.9936 26.0631L39.6867 26.0631C39.7786 26.0631 39.8442 26.0631 39.8836 26.0631C39.9229 26.0762 39.9754 26.0894 40.0279 26.1156C40.1329 26.1681 40.1723 26.3125 40.1723 26.5487C40.1723 26.8112 40.1067 26.9556 39.9754 27.0081C39.9098 27.0212 39.8179 27.0344 39.6867 27.0344L37.4948 27.0344C37.2323 27.0344 37.088 26.9687 37.0486 26.8244C37.0224 26.7719 37.0092 26.68 37.0092 26.5487L37.0092 23.4775C37.0092 23.2806 37.0486 23.1494 37.1142 23.0838C37.1798 23.0181 37.3111 22.9788 37.508 22.9788L39.6867 22.9788C39.7786 22.9788 39.8442 22.9919 39.8836 22.9919C39.9229 23.005 39.9754 23.0181 40.0279 23.0444C40.1329 23.0969 40.1723 23.2413 40.1723 23.4775C40.1723 23.74 40.1067 23.8844 39.9754 23.9369C39.9098 23.95 39.8179 23.9631 39.6867 23.9631L37.9936 23.9631Z" fill="#ffffff" fill-rule="nonzero" opacity="1" stroke="none"/>
</g>
</svg>
