<?xml version="1.0" encoding="UTF-8" standalone="no"?>
<!DOCTYPE svg PUBLIC "-//W3C//DTD SVG 1.1//EN" "http://www.w3.org/Graphics/SVG/1.1/DTD/svg11.dtd">
<!-- Created with Vectornator (http://vectornator.io/) -->
<svg height="50.0pt" stroke-miterlimit="10" style="fill-rule:nonzero;clip-rule:evenodd;stroke-linecap:round;stroke-linejoin:round;" version="1.1" viewBox="0 0 50 50" width="50.0pt" xml:space="preserve" xmlns="http://www.w3.org/2000/svg" xmlns:xlink="http://www.w3.org/1999/xlink">
<defs/>
<g id="Untitled">
<path d="M38.8519 23.6353L38.3818 24.2217L41.2105 25.0446L41.2105 24.8132L39.3844 23.4968L38.8519 23.6353Z" fill="#d3d3d3" fill-rule="evenodd" opacity="1" stroke="none"/>
<path d="M37.9843 25.2648L38.7188 25.2376L40.119 25.1551L41.2106 25.0446L38.3819 24.2217L37.5381 23.9764L37.9843 25.2648Z" fill="#8c8c8c" fill-rule="evenodd" opacity="1" stroke="none"/>
<path d="M38.8519 23.6353L38.3818 24.2217L37.5381 23.9764L38.0403 23.846L38.8519 23.6353Z" fill="#ababab" fill-rule="evenodd" opacity="1" stroke="none"/>
<path d="M37.9843 25.2648L33.5662 25.2648L36.0929 24.3388L37.9843 25.2648Z" fill="#8c8c8c" fill-rule="evenodd" opacity="1" stroke="none"/>
<path d="M38.0403 23.846L37.145 23.3355L36.8724 23.18L38.7803 21.9829L39.3844 23.4968L38.8519 23.6353L38.0403 23.846Z" fill="#9a9a9a" fill-rule="evenodd" opacity="1" stroke="none"/>
<path d="M37.0092 23.5521L36.7613 23.8298L36.3913 23.3554L36.3959 23.3517L37.0092 23.5521Z" fill="#ffffff" fill-rule="evenodd" opacity="1" stroke="none"/>
<path d="M36.8724 23.1801L37.1451 23.3355L37.0092 23.5521L36.3959 23.3517L36.6823 23.1455L36.8724 23.1801Z" fill="#ffffff" fill-rule="evenodd" opacity="1" stroke="none"/>
<path d="M38.7803 21.9829L36.8724 23.18L36.2058 20.8919L38.7665 21.949L38.7803 21.9829Z" fill="#8c8c8c" fill-rule="evenodd" opacity="1" stroke="none"/>
<path d="M36.7613 23.8298L37.0092 23.5521L37.1451 23.3355L38.0403 23.846L37.5381 23.9764L36.7172 23.8792L36.7613 23.8298Z" fill="#454545" fill-rule="evenodd" opacity="1" stroke="none"/>
<path d="M36.3913 23.3554L36.7613 23.8298L36.7172 23.8792L35.9653 23.6626L36.3913 23.3554Z" fill="#808080" fill-rule="evenodd" opacity="1" stroke="none"/>
<path d="M36.7172 23.8792L37.5381 23.9764L36.103 24.3351L36.069 24.3278L36.0681 24.3271L33.4046 23.7318L35.9653 23.6626L36.7172 23.8792Z" fill="#d3d3d3" fill-rule="evenodd" opacity="1" stroke="none"/>
<path d="M36.3958 23.3517L36.3913 23.3554L36.1535 23.0497L36.6823 23.1455L36.3958 23.3517Z" fill="#efefef" fill-rule="evenodd" opacity="1" stroke="none"/>
<path d="M36.1535 23.0497L36.3913 23.3554L35.9653 23.6626L35.9139 23.2419L36.1535 23.0497Z" fill="#d4d4d4" fill-rule="evenodd" opacity="1" stroke="none"/>
<path d="M36.2058 20.8919L36.8724 23.1801L36.6823 23.1454L36.1535 23.0497L35.6779 22.9627L36.1342 20.8956L36.2058 20.8919Z" fill="#d8d8d8" fill-rule="evenodd" opacity="1" stroke="none"/>
<path d="M36.1342 20.8956L35.6779 22.9627L34.4972 20.9745L36.1342 20.8956Z" fill="#bcbcbc" fill-rule="evenodd" opacity="1" stroke="none"/>
<path d="M36.103 24.3351L37.5381 23.9764L37.9843 25.2648L36.0929 24.3388L36.103 24.3351Z" fill="#d8d8d8" fill-rule="evenodd" opacity="1" stroke="none"/>
<path d="M36.0928 24.3388L33.5661 25.2648L33.5092 25.2648L33.3183 23.734L33.4046 23.7318L36.0681 24.3271L36.069 24.3278L36.0928 24.3388Z" fill="#484848" fill-rule="evenodd" opacity="1" stroke="none"/>
<path d="M33.5092 25.2648L35.7366 27.2015L35.3005 27.5949L35.2785 27.6664L35.2638 27.6745L31.5591 26.1025L33.5092 25.2648Z" fill="#d3d3d3" fill-rule="evenodd" opacity="1" stroke="none"/>
<path d="M34.4972 20.9745L35.6779 22.9627L33.3202 23.7046L34.4972 20.9745Z" fill="#8c8c8c" fill-rule="evenodd" opacity="1" stroke="none"/>
<path d="M35.2748 27.6789L34.8397 29.0874L34.0712 31.1582L31.3848 29.8823L35.2639 27.6745L35.2748 27.6789Z" fill="#595959" fill-rule="evenodd" opacity="1" stroke="none"/>
<path d="M35.2638 27.6745L31.3847 29.8823L31.5591 26.1025L35.2638 27.6745Z" fill="#9a9a9a" fill-rule="evenodd" opacity="1" stroke="none"/>
<path d="M33.2366 23.6942L31.0303 23.4143L32.3322 22.3697L32.705 22.0706L34.4972 20.9744L33.3202 23.7045L33.2366 23.6942Z" fill="#707070" fill-rule="evenodd" opacity="1" stroke="none"/>
<path d="M34.0712 31.1582L33.9959 31.2459L33.995 31.2459L29.0407 31.307L29.0398 31.307L29.0306 31.2916L29.0003 31.2399L31.3848 29.8823L34.0712 31.1582Z" fill="#d3d3d3" fill-rule="evenodd" opacity="1" stroke="none"/>
<path d="M33.9949 31.2459L32.3276 33.1745L30.6869 33.9126L29.0407 31.307L33.9949 31.2459Z" fill="#8c8c8c" fill-rule="evenodd" opacity="1" stroke="none"/>
<path d="M33.5661 25.2648L37.9842 25.2648L37.112 25.8822L36.5152 26.4988L35.7366 27.2015L33.5092 25.2648L33.5661 25.2648Z" fill="#484848" fill-rule="evenodd" opacity="1" stroke="none"/>
<path d="M33.3183 23.734L33.5092 25.2648L31.5591 26.1024L31.0303 23.4143L33.2366 23.6942L33.3155 23.7119L33.3183 23.734Z" fill="#bcbcbc" fill-rule="evenodd" opacity="1" stroke="none"/>
<path d="M33.3183 23.734L33.4046 23.7318L33.3156 23.712L33.3183 23.734Z" fill="#3a3a3a" fill-rule="evenodd" opacity="1" stroke="none"/>
<path d="M35.6779 22.9627L36.1535 23.0497L35.9139 23.2419L35.9653 23.6626L33.4046 23.7318L33.3156 23.7119L33.2366 23.6942L33.3202 23.7046L35.6779 22.9627Z" fill="#484848" fill-rule="evenodd" opacity="1" stroke="none"/>
<g opacity="1">
<clipPath clip-rule="evenodd" id="ClipPath">
<path d="M8.78942 8.79142L41.2106 8.79142L41.2106 41.2086L8.78942 41.2086L8.78942 8.79142Z"/>
</clipPath>
<g clip-path="url(#ClipPath)">
<path d="M34.0372 36.0387C34.0712 36.1212 34.0023 36.4077 34.0023 36.4077L33.5773 36.8313L33.6938 36.4622L33.8655 36.1594L33.6598 35.7359L32.671 35.3941L32.9253 35.7904L33.1998 36.4077L32.8904 36.6L32.4305 37.0795L32.5682 36.628L32.8904 36.2972C32.8904 36.2972 32.705 35.9834 32.671 35.8729C32.6361 35.7631 32.0394 35.3661 32.0394 35.3661L31.8677 35.1186L32.8106 35.0124L32.8115 35.0124L34.14 35.3116L34.14 35.8729L33.9683 35.5038L33.3706 35.3388L33.8655 35.6526C33.8655 35.6526 34.0023 35.9554 34.0372 36.0387" fill="#484848" fill-rule="evenodd" opacity="1" stroke="none"/>
<path d="M32.8106 35.0124L31.8677 35.1186L30.2958 34.3251L32.4994 34.9425L32.8106 35.0124Z" fill="#7f7f7f" fill-rule="evenodd" opacity="1" stroke="none"/>
<path d="M31.9016 15.918L32.4305 17.3559L30.3894 21.9646L29.6981 23.5248L29.9561 20.9605L30.0994 19.5358L30.2352 18.1869L30.2958 18.2348L30.2728 18.1354L31.9016 15.918Z" fill="#585858" fill-rule="evenodd" opacity="1" stroke="none"/>
<path d="M32.4305 17.3559L31.9016 20.8647L31.0303 23.4143L30.3894 21.9645L32.4305 17.3559Z" fill="#545454" fill-rule="evenodd" opacity="1" stroke="none"/>
<path d="M31.9016 20.8647L32.3322 22.3697L31.0303 23.4143L31.9016 20.8647Z" fill="#454545" fill-rule="evenodd" opacity="1" stroke="none"/>
<path d="M31.9016 15.918L30.2728 18.1354L29.89 16.4808L29.89 16.4801L29.935 14.4225C30.3986 14.7769 30.6943 15.0111 30.7219 15.0539C30.8724 15.2851 31.9016 15.918 31.9016 15.918" fill="#8c8c8c" fill-rule="evenodd" opacity="1" stroke="none"/>
<path d="M31.8677 35.1186L30.8935 34.9145L29.5613 34.4467L30.2958 34.3251L31.8677 35.1186Z" fill="#d3d3d3" fill-rule="evenodd" opacity="1" stroke="none"/>
<path d="M31.5592 26.1024L31.3848 29.8823L27.8912 29.3739L27.1521 28.1289L31.5142 26.123L31.5592 26.1024Z" fill="#707070" fill-rule="evenodd" opacity="1" stroke="none"/>
<path d="M31.4894 26.0891L31.5141 26.123L27.1521 28.1289L29.3363 26.07L29.3896 26.0199L31.4894 26.0891Z" fill="#707070" fill-rule="evenodd" opacity="1" stroke="none"/>
<path d="M31.3848 29.8823L29.0003 31.2399L27.8912 29.374L31.3848 29.8823Z" fill="#9a9a9a" fill-rule="evenodd" opacity="1" stroke="none"/>
<path d="M30.7898 36.0659L30.9275 35.5428L31.8677 35.1186L32.0394 35.3661L31.1331 35.6806L31.0303 36.0107L31.202 36.4077L30.7898 36.0659Z" fill="#7c7c7c" fill-rule="evenodd" opacity="1" stroke="none"/>
<path d="M30.3894 21.9645L31.0303 23.4143L29.6981 23.5248L30.3894 21.9645Z" fill="#707070" fill-rule="evenodd" opacity="1" stroke="none"/>
<path d="M29.5282 24.895L29.6981 23.5248L31.0303 23.4143L29.3987 25.9462L29.5282 24.895Z" fill="#454545" fill-rule="evenodd" opacity="1" stroke="none"/>
<path d="M30.6869 33.9126L30.2958 34.3251L29.5613 34.4467L28.6496 34.0754L30.6869 33.9126Z" fill="#7c7c7c" fill-rule="evenodd" opacity="1" stroke="none"/>
<path d="M30.159 37.7234L29.7669 37.162L29.2179 36.804L30.7181 37.0648L30.9615 37.2445C30.9615 37.2445 31.236 37.5584 31.2709 37.6961C31.3048 37.8339 31.3737 38.1477 31.3737 38.2582C31.3737 38.368 30.8247 38.7098 30.8247 38.7098L31.0992 38.396L30.9275 37.7234L30.2269 37.327C30.2269 37.327 30.5703 38.038 30.6043 38.1477C30.6392 38.2582 30.4675 38.5168 30.3298 38.5448C30.1976 38.5713 29.7936 38.8564 29.7679 38.874L30.2958 38.2582L30.159 37.7234Z" fill="#484848" fill-rule="evenodd" opacity="1" stroke="none"/>
<path d="M30.7181 37.0648L29.2179 36.804L29.127 36.1167L29.1353 36.1211L29.5952 36.3252L30.3298 36.7768L30.7181 37.0648Z" fill="#7c7c7c" fill-rule="evenodd" opacity="1" stroke="none"/>
<path d="M30.2352 18.1869L30.0994 19.5358L22.4568 15.5216L20.4039 14.2052L26.5673 16.175L30.181 18.1449L30.1828 18.1456L30.2352 18.1869Z" fill="#9c9c9c" fill-rule="evenodd" opacity="1" stroke="none"/>
<path d="M30.181 18.1449L26.5673 16.175L22.5045 13.9599L20.9189 12.4372L20.2533 11.7653L20.2533 11.3137L20.6444 11.0935L22.353 11.9966L30.181 18.1449Z" fill="#8c8c8c" fill-rule="evenodd" opacity="1" stroke="none"/>
<path d="M30.0993 19.5358L29.9561 20.9605L23.1912 17.2491L23.1224 17.2344L20.9189 15.918L20.816 15.2741L21.1383 15.0811L22.4567 15.5216L30.0993 19.5358Z" fill="#8c8c8c" fill-rule="evenodd" opacity="1" stroke="none"/>
<path d="M29.935 14.4225L29.89 16.4801L29.89 16.4808L29.8881 16.5773L22.4788 10.1284L29.935 14.4225Z" fill="#9c9c9c" fill-rule="evenodd" opacity="1" stroke="none"/>
<path d="M29.935 14.4225L22.4788 10.1284L21.6874 9.07799L21.9417 8.79141L22.5596 8.95646C22.5596 8.95646 27.8866 12.8571 29.935 14.4225" fill="#707070" fill-rule="evenodd" opacity="1" stroke="none"/>
<path d="M22.5247 10.1904L22.4789 10.1284L29.8882 16.5773L29.89 16.4808L30.2728 18.1353L30.2352 18.1869L30.1829 18.1457L30.181 18.1449L22.3531 11.9966L21.0218 10.5042L20.884 9.97009L21.3789 9.63932L22.5247 10.1904Z" fill="#585858" fill-rule="evenodd" opacity="1" stroke="none"/>
<path d="M29.6871 23.5197L23.9258 19.2617L23.1564 18.6171L22.7598 18.069L22.7607 18.069L29.9561 20.9605L29.6981 23.5248L29.6871 23.5197Z" fill="#545454" fill-rule="evenodd" opacity="1" stroke="none"/>
<path d="M29.6981 23.5248L29.5282 24.895L26.0605 21.9771L29.6871 23.5197L29.6981 23.5248Z" fill="#454545" fill-rule="evenodd" opacity="1" stroke="none"/>
<path d="M29.6871 23.5197L26.0605 21.9771L24.1452 20.3851L23.5485 19.658L23.5135 19.1792L23.9258 19.2617L29.6871 23.5197Z" fill="#3a3a3a" fill-rule="evenodd" opacity="1" stroke="none"/>
<path d="M31.4894 26.0891L29.3896 26.0199L29.3987 25.9462L31.0303 23.4143L31.5592 26.1024L31.5141 26.123L31.4894 26.0891Z" fill="#595959" fill-rule="evenodd" opacity="1" stroke="none"/>
<path d="M29.3896 26.0199L29.3364 26.07L29.2399 26.067L29.3896 26.0199Z" fill="#a3a3a3" fill-rule="evenodd" opacity="1" stroke="none"/>
<path d="M29.3896 26.0199L29.2399 26.067L23.1637 25.8792L24.8265 22.8566L29.3896 26.0199Z" fill="#707070" fill-rule="evenodd" opacity="1" stroke="none"/>
<path d="M29.3363 26.07L27.152 28.129L24.237 29.1773L24.0626 29.0491L22.7451 28.9386L22.1823 28.6955L25.8198 27.1434L29.2399 26.0671L29.3363 26.07Z" fill="#595959" fill-rule="evenodd" opacity="1" stroke="none"/>
<path d="M29.2399 26.0671L25.8199 27.1434L23.1637 25.88L23.1637 25.8792L29.2399 26.0671Z" fill="#c8c8c8" fill-rule="evenodd" opacity="1" stroke="none"/>
<path d="M28.9985 36.4902L28.118 35.5996L29.127 36.1167L29.2179 36.804L28.8268 37.2998L28.7579 37.7786L29.1353 38.3407L28.5862 38.01L28.4357 37.3661L28.6551 36.997L28.9985 36.4902Z" fill="#454545" fill-rule="evenodd" opacity="1" stroke="none"/>
<path d="M29.1261 36.1108L29.127 36.1167L28.118 35.5996L28.0234 34.832L29.1261 36.1108Z" fill="#484848" fill-rule="evenodd" opacity="1" stroke="none"/>
<path d="M28.6147 34.0769L28.5743 34.071L29.0398 31.307L29.0407 31.307L30.6869 33.9126L28.6496 34.0754L28.6211 34.0776L28.6156 34.0769L28.6147 34.0769Z" fill="#484848" fill-rule="evenodd" opacity="1" stroke="none"/>
<path d="M29.0398 31.307L28.5743 34.071L22.8819 33.268L29.0398 31.307Z" fill="#a2a2a2" fill-rule="evenodd" opacity="1" stroke="none"/>
<path d="M29.0398 31.307L22.8819 33.268L26.2331 30.0856L29.0398 31.307Z" fill="#8c8c8c" fill-rule="evenodd" opacity="1" stroke="none"/>
<path d="M29.0398 31.307L26.2331 30.0856L27.8912 29.374L29.0003 31.2399L28.9984 31.2407L29.0306 31.2916L29.0398 31.307Z" fill="#707070" fill-rule="evenodd" opacity="1" stroke="none"/>
<path d="M28.6211 34.0776L28.6496 34.0754L29.5613 34.4467L28.0234 34.832L28.6211 34.0776Z" fill="#707070" fill-rule="evenodd" opacity="1" stroke="none"/>
<path d="M28.6211 34.0776L28.0234 34.832L28.118 35.5996L28.0234 35.5038L27.2889 34.9425L28.6211 34.0776Z" fill="#d3d3d3" fill-rule="evenodd" opacity="1" stroke="none"/>
<path d="M28.6211 34.0776L27.2889 34.9425L26.8639 35.0361L25.9411 34.0864L28.5735 34.0769L28.6147 34.0769L28.6156 34.0769L28.6211 34.0776Z" fill="#8c8c8c" fill-rule="evenodd" opacity="1" stroke="none"/>
<path d="M28.5743 34.071L28.5734 34.0769L25.9411 34.0864L25.9383 34.0864L23.2858 34.0953L23.2849 34.0953L22.8819 33.268L28.5743 34.071Z" fill="#707070" fill-rule="evenodd" opacity="1" stroke="none"/>
<path d="M27.1521 28.129L27.8912 29.374L26.2331 30.0856L27.1521 28.129Z" fill="#484848" fill-rule="evenodd" opacity="1" stroke="none"/>
<path d="M26.0862 35.1288L26.8639 35.036C26.8639 35.036 24.7972 38.9285 24.3619 39.7816L26.0862 35.1288Z" fill="#595959" fill-rule="evenodd" opacity="1" stroke="none"/>
<path d="M22.5045 13.9599L26.5673 16.175L20.4039 14.2052L20.1156 13.6711L20.2533 13.2858L20.7472 13.2858L22.5596 14.0129L22.5045 13.9599Z" fill="#7c7c7c" fill-rule="evenodd" opacity="1" stroke="none"/>
<path d="M26.2331 30.0856L22.8819 33.268L23.5135 31.1309L24.2232 29.2148L24.2407 29.2192L26.2331 30.0856Z" fill="#484848" fill-rule="evenodd" opacity="1" stroke="none"/>
<path d="M26.0862 35.1288L24.3619 39.7816C24.3142 39.8759 24.2867 39.9326 24.283 39.9437C24.2481 40.0535 23.5485 40.5603 23.5485 40.5603L22.848 40.5876L26.0862 35.1288Z" fill="#8c8c8c" fill-rule="evenodd" opacity="1" stroke="none"/>
<path d="M25.9383 34.0864L25.9411 34.0864L26.8638 35.0361L26.0861 35.1288L24.5565 35.3116L25.9383 34.0864Z" fill="#707070" fill-rule="evenodd" opacity="1" stroke="none"/>
<path d="M25.9383 34.0864L24.5565 35.3116L24.1076 35.0559L23.6164 34.7767L23.2849 34.0961L23.2858 34.0953L25.9383 34.0864Z" fill="#8c8c8c" fill-rule="evenodd" opacity="1" stroke="none"/>
<path d="M25.8199 27.1434L22.1823 28.6955L22.1814 28.6955L22.0445 28.6358L21.5368 28.1784L23.1637 25.88L25.8199 27.1434Z" fill="#8c8c8c" fill-rule="evenodd" opacity="1" stroke="none"/>
<path d="M24.4198 22.5745L24.8265 22.8566L21.0998 22.6128L19.7033 22.5214L19.6308 22.506L16.4063 19.8805L22.6845 21.415L24.4198 22.5745Z" fill="#bcbcbc" fill-rule="evenodd" opacity="1" stroke="none"/>
<path d="M24.5565 35.3116L22.69 40.7334C22.5403 40.8661 22.3227 41.0399 22.2162 41.0399C22.0445 41.0399 21.1732 41.1769 21.1732 41.1769L20.8014 41.1865L24.5565 35.3116Z" fill="#707070" fill-rule="evenodd" opacity="1" stroke="none"/>
<path d="M24.5565 35.3116L20.8014 41.1865L19.986 41.2086L19.3121 41.1496L19.1809 40.9906L24.1076 35.0559L24.5565 35.3116Z" fill="#595959" fill-rule="evenodd" opacity="1" stroke="none"/>
<path d="M24.0552 20.3608L24.4197 22.5745L22.6844 21.415L19.0744 19.0024L24.0552 20.3608Z" fill="#707070" fill-rule="evenodd" opacity="1" stroke="none"/>
<path d="M24.2407 29.2192L24.2233 29.2148L24.237 29.1772L27.1521 28.1289L26.2331 30.0856L24.2407 29.2192Z" fill="#8d8d8d" fill-rule="evenodd" opacity="1" stroke="none"/>
<path d="M24.1452 20.3852L26.0605 21.9771L29.5283 24.895L29.3988 25.9463L29.3896 26.02L24.8265 22.8567L24.4198 22.5745L24.0552 20.3608L24.1452 20.3852Z" fill="#595959" fill-rule="evenodd" opacity="1" stroke="none"/>
<path d="M24.1076 35.0559L19.1809 40.9905L18.5777 41.0399L17.8092 40.8078L17.5347 40.2848L24.1076 35.0559Z" fill="#8c8c8c" fill-rule="evenodd" opacity="1" stroke="none"/>
<path d="M24.1076 35.0559L17.5347 40.2848L23.2849 34.0961L23.6164 34.7767L24.1076 35.0559Z" fill="#707070" fill-rule="evenodd" opacity="1" stroke="none"/>
<path d="M23.2858 34.0953L23.2849 34.0961L23.2849 34.0953L23.2858 34.0953Z" fill="#8c8c8c" fill-rule="evenodd" opacity="1" stroke="none"/>
<path d="M23.2849 34.0953L23.2849 34.0961L16.3603 39.3853L19.0036 36.8313L22.8819 33.268L23.2849 34.0953Z" fill="#9a9a9a" fill-rule="evenodd" opacity="1" stroke="none"/>
<path d="M23.2849 34.0961L17.5346 40.2848L16.869 40.3673L16.2373 40.0535L16.3062 39.4369L16.3585 39.3861L16.3603 39.3853L23.2849 34.0961Z" fill="#8c8c8c" fill-rule="evenodd" opacity="1" stroke="none"/>
<path d="M24.8265 22.8567L23.1637 25.8792L23.1628 25.8792L23.138 25.8674L21.0998 22.6128L24.8265 22.8567Z" fill="#8c8c8c" fill-rule="evenodd" opacity="1" stroke="none"/>
<path d="M23.1628 25.8792L23.1637 25.8792L23.1637 25.88L21.5368 28.1784L21.4817 28.129L20.4039 28.157L19.9788 27.9368L19.5187 27.5677L19.1754 27.1434L19.2699 27.1132L23.1628 25.8792Z" fill="#9a9a9a" fill-rule="evenodd" opacity="1" stroke="none"/>
<path d="M23.138 25.8674L23.1628 25.8792L19.2698 27.1132L20.3441 24.5385L23.138 25.8674Z" fill="#707070" fill-rule="evenodd" opacity="1" stroke="none"/>
<path d="M22.8479 40.5876C22.8479 40.5876 22.7818 40.6524 22.69 40.7334L24.5565 35.3116L26.0861 35.1288L22.8479 40.5876Z" fill="#9a9a9a" fill-rule="evenodd" opacity="1" stroke="none"/>
<path d="M22.7102 18.0005L22.6762 17.2071L23.1224 17.2344L23.1913 17.2491L29.9561 20.9605L22.7606 18.0691L22.7598 18.0691L22.7102 18.0005Z" fill="#454545" fill-rule="evenodd" opacity="1" stroke="none"/>
<path d="M19.0744 19.0024L22.6844 21.415L16.4063 19.8805L11.2674 17.3287L19.0734 19.0024L19.0744 19.0024Z" fill="#d3d3d3" fill-rule="evenodd" opacity="1" stroke="none"/>
<path d="M20.3442 24.5385L20.256 24.5385L14.6995 24.5385C14.6995 24.5385 12.7365 23.6626 12.7016 23.5794C12.6676 23.4969 12.3591 22.9628 12.3591 22.9628L12.4271 22.6048L17.9763 23.6118L18.0745 23.6295L20.3442 24.5385Z" fill="#d3d3d3" fill-rule="evenodd" opacity="1" stroke="none"/>
<path d="M20.3442 24.5385L19.2699 27.1132L19.1754 27.1434L18.3381 27.0881L17.6724 26.8958L17.2464 26.526L17.0885 26.0104L20.256 24.5385L20.3442 24.5385Z" fill="#9a9a9a" fill-rule="evenodd" opacity="1" stroke="none"/>
<path d="M20.256 24.5385L17.0884 26.0104L17.0747 25.9647L15.2971 25.7717L14.8712 25.2376L14.6995 24.5385L20.256 24.5385Z" fill="#707070" fill-rule="evenodd" opacity="1" stroke="none"/>
<path d="M16.4063 19.8805L19.6307 22.506L19.5114 22.4802L11.24 19.1166L10.0381 18.3305L9.06393 17.3007L8.82343 16.673L8.99512 16.3703L9.86642 16.7666L11.2675 17.3287L16.4063 19.8805Z" fill="#484848" fill-rule="evenodd" opacity="1" stroke="none"/>
<path d="M17.9763 23.6117L12.4271 22.6047L10.8552 22.2356L19.2993 22.4353L19.5114 22.4802L19.6307 22.506L19.7033 22.5214L17.9763 23.6117Z" fill="#707070" fill-rule="evenodd" opacity="1" stroke="none"/>
<path d="M17.9763 23.6117L19.7033 22.5214L21.0998 22.6128L23.1381 25.8674L20.3442 24.5385L18.0745 23.6294L17.9763 23.6117Z" fill="#9a9a9a" fill-rule="evenodd" opacity="1" stroke="none"/>
<path d="M19.0735 19.0024L11.2675 17.3287L9.45504 15.5216L9.38617 15.0538L9.62673 14.8226L12.4959 16.5625C12.4959 16.5625 16.2373 18.0278 16.443 18.1383C16.6487 18.248 18.1664 18.7549 18.1664 18.7549L19.0735 19.0024Z" fill="#9a9a9a" fill-rule="evenodd" opacity="1" stroke="none"/>
<path d="M19.2993 22.4353L11.463 20.7601L11.542 20.7704L9.59278 19.9608L8.99511 19.2617L8.78939 18.6724L9.06398 18.4411L11.3354 19.1792L11.24 19.1166L19.5114 22.4802L19.2993 22.4353Z" fill="#9a9a9a" fill-rule="evenodd" opacity="1" stroke="none"/>
<path d="M11.4621 20.7601L11.4631 20.7601L19.2993 22.4353L10.8552 22.2357L10.073 21.5918L9.79847 20.8367L9.90129 20.5502L11.4621 20.7601Z" fill="#484848" fill-rule="evenodd" opacity="1" stroke="none"/>
</g>
</g>
</g>
</svg>
