<?xml version="1.0" encoding="UTF-8" standalone="no"?>
<!DOCTYPE svg PUBLIC "-//W3C//DTD SVG 1.1//EN" "http://www.w3.org/Graphics/SVG/1.1/DTD/svg11.dtd">
<!-- Created with Vectornator (http://vectornator.io/) -->
<svg height="15.0pt" stroke-miterlimit="10" style="fill-rule:nonzero;clip-rule:evenodd;stroke-linecap:round;stroke-linejoin:round;" version="1.1" viewBox="0 0 15 15" width="15.0pt" xml:space="preserve" xmlns="http://www.w3.org/2000/svg" xmlns:xlink="http://www.w3.org/1999/xlink">
<defs/>
<g id="Layer-1">
<g opacity="1">
<path d="M10.8091 6.47531C11.4309 6.57894 12.2606 6.81912 12.5694 7.43654C12.8797 8.05714 12.3268 8.74865 11.6742 8.70416C11.3119 8.67945 11.0846 8.33683 10.8512 8.10339C10.6915 9.89186 10.0559 11.7504 8.36399 12.6332C7.87454 12.8885 7.18722 13.1151 6.63377 12.9396C6.07037 12.7609 5.98461 12.0642 5.51634 11.762C5.19278 11.5533 4.79673 11.5798 4.42895 11.5638C4.25754 11.5563 4.08153 11.5454 3.93032 11.4557C3.43472 11.1614 3.72255 10.4942 3.46172 10.08C3.36697 9.92944 3.18705 9.85941 3.04719 9.76151C2.79348 9.58391 2.30365 9.18101 2.34429 8.84234C2.36791 8.64551 2.68675 8.63695 2.81289 8.62005C2.95888 8.6005 3.10556 8.58625 3.25144 8.56598C3.61105 8.51604 4.03962 8.40832 4.27877 8.10939C3.65163 8.66685 2.7419 8.07236 2.86696 7.28034C2.95996 6.69133 3.65246 6.39457 4.1526 6.25302C4.44964 6.16896 4.76858 6.10623 5.07778 6.14489C5.07778 5.70795 4.97512 5.28653 4.93961 4.85324C4.90417 4.42094 4.97139 3.97813 5.12584 3.5736C5.82511 1.74217 8.25616 1.51012 9.53548 2.8647C10.002 3.35867 10.244 3.98267 10.4366 4.62494C10.6185 5.23119 10.7293 5.84846 10.8091 6.47531Z" fill="#242424" fill-opacity="0.996078" fill-rule="nonzero" opacity="1" stroke="none"/>
<path d="M7.57097 4.61894C7.51876 4.54063 7.50902 4.45235 7.4388 4.37863C7.23318 4.16274 6.96221 4.36898 6.94016 4.61894C6.92031 4.84388 7.05142 5.18297 7.33066 5.1416C7.37044 5.13571 7.43996 5.10441 7.46884 5.07552C7.53267 5.01169 7.55611 4.90667 7.57698 4.8232C7.61186 5.34639 7.16507 5.92779 6.61575 5.59819C6.30253 5.41026 6.12501 5.00363 6.11111 4.64898C6.09839 4.32481 6.18106 3.92265 6.48959 3.74783C7.0185 3.4481 7.57097 4.12846 7.57097 4.61894Z" fill="#fefefe" fill-rule="nonzero" opacity="1" stroke="none"/>
<path d="M9.52346 4.52282C9.49278 4.43077 9.46013 4.32618 9.38528 4.25848C9.10192 4.0021 8.87016 4.33396 8.89266 4.61894C8.91108 4.85229 9.15477 5.17668 9.40331 4.96738C9.48329 4.90002 9.50434 4.79856 9.52948 4.70304C9.5634 5.17809 9.15235 5.77609 8.62832 5.51408C8.27512 5.33748 8.08362 4.92123 8.0636 4.54084C8.05388 4.35614 8.0717 4.17245 8.1417 4.00015C8.18007 3.9057 8.2311 3.82464 8.2979 3.74783C8.8018 3.16834 9.52346 3.97013 9.52346 4.52282Z" fill="#fefefe" fill-rule="nonzero" opacity="1" stroke="none"/>
<path d="M9.13897 4.16836C9.45648 4.1175 9.60756 4.54227 9.50544 4.81719C9.46912 4.91498 9.39102 5.02312 9.27715 5.03346C8.83882 5.07331 8.71768 4.23584 9.13897 4.16836Z" fill="#000000" fill-rule="nonzero" opacity="1" stroke="none"/>
<path d="M7.2045 4.2825C7.52255 4.2419 7.64789 4.67624 7.55294 4.93734C7.51927 5.02994 7.43874 5.13779 7.33066 5.14761C6.8836 5.18825 6.7645 4.33868 7.2045 4.2825Z" fill="#000000" fill-rule="nonzero" opacity="1" stroke="none"/>
</g>
</g>
</svg>
