<?xml version="1.0" encoding="UTF-8" standalone="no"?>
<!DOCTYPE svg PUBLIC "-//W3C//DTD SVG 1.1//EN" "http://www.w3.org/Graphics/SVG/1.1/DTD/svg11.dtd">
<!-- Created with Vectornator (http://vectornator.io/) -->
<svg height="50.0pt" stroke-miterlimit="10" style="fill-rule:nonzero;clip-rule:evenodd;stroke-linecap:round;stroke-linejoin:round;" version="1.1" viewBox="0 0 50 50" width="50.0pt" xml:space="preserve" xmlns="http://www.w3.org/2000/svg" xmlns:xlink="http://www.w3.org/1999/xlink">
<defs/>
<g id="Layer-1">
<g opacity="1">
<path d="M33.8919 22.2466C35.5626 22.5251 37.7923 23.1704 38.6218 24.8295C39.4556 26.4971 37.97 28.3552 36.2165 28.2357C35.2429 28.1693 34.6321 27.2486 34.0049 26.6214C33.5758 31.427 31.8679 36.4213 27.3216 38.7933C26.0064 39.4795 24.1595 40.0881 22.6724 39.6166C21.1585 39.1366 20.928 37.2643 19.6698 36.4525C18.8003 35.8916 17.7361 35.9628 16.7479 35.9198C16.2873 35.8998 15.8143 35.8705 15.408 35.6292C14.0763 34.8385 14.8497 33.0456 14.1488 31.9325C13.8942 31.5281 13.4108 31.34 13.0349 31.0769C12.3532 30.5997 11.037 29.517 11.1462 28.607C11.2097 28.0781 12.0664 28.0551 12.4054 28.0097C12.7976 27.9571 13.1918 27.9188 13.5838 27.8644C14.5501 27.7302 15.7017 27.4407 16.3443 26.6375C14.6591 28.1354 12.2146 26.538 12.5506 24.4098C12.8005 22.8271 14.6614 22.0296 16.0053 21.6493C16.8034 21.4234 17.6604 21.2549 18.4913 21.3587C18.4913 20.1846 18.2155 19.0522 18.12 17.8879C18.0248 16.7263 18.2054 15.5365 18.6205 14.4495C20.4995 9.52826 27.0319 8.9047 30.4695 12.5446C31.7231 13.8719 32.3732 15.5487 32.891 17.2745C33.3797 18.9035 33.6775 20.5622 33.8919 22.2466Z" fill="#989898" fill-opacity="0.996078" fill-rule="nonzero" opacity="1" stroke="none"/>
<path d="M25.1907 17.2584C25.0504 17.0479 25.0242 16.8107 24.8356 16.6126C24.2831 16.0325 23.5549 16.5867 23.4957 17.2584C23.4423 17.8628 23.7946 18.774 24.545 18.6628C24.6519 18.647 24.8387 18.5628 24.9163 18.4852C25.0878 18.3137 25.1508 18.0315 25.2069 17.8072C25.3006 19.2131 24.1 20.7753 22.624 19.8897C21.7823 19.3847 21.3053 18.2921 21.2679 17.3391C21.2338 16.468 21.4559 15.3874 22.2849 14.9176C23.7062 14.1122 25.1907 15.9404 25.1907 17.2584Z" fill="#fefefe" fill-rule="nonzero" opacity="1" stroke="none"/>
<path d="M30.4372 17.0001C30.3548 16.7527 30.267 16.4717 30.0659 16.2898C29.3045 15.6009 28.6817 16.4926 28.7422 17.2584C28.7917 17.8854 29.4465 18.7571 30.1144 18.1947C30.3293 18.0137 30.3858 17.741 30.4534 17.4844C30.5445 18.7609 29.44 20.3677 28.0319 19.6637C27.0828 19.1891 26.5682 18.0706 26.5144 17.0485C26.4883 16.5522 26.5362 16.0586 26.7243 15.5956C26.8274 15.3418 26.9645 15.124 27.144 14.9176C28.498 13.3605 30.4372 15.515 30.4372 17.0001Z" fill="#fefefe" fill-rule="nonzero" opacity="1" stroke="none"/>
<path d="M29.4041 16.0476C30.2572 15.911 30.6632 17.0523 30.3888 17.7911C30.2912 18.0539 30.0813 18.3444 29.7754 18.3722C28.5975 18.4793 28.272 16.2289 29.4041 16.0476Z" fill="#000000" fill-rule="nonzero" opacity="1" stroke="none"/>
<path d="M24.206 16.3543C25.0606 16.2452 25.3974 17.4123 25.1423 18.1139C25.0518 18.3628 24.8354 18.6526 24.545 18.679C23.3437 18.7882 23.0237 16.5053 24.206 16.3543Z" fill="#000000" fill-rule="nonzero" opacity="1" stroke="none"/>
</g>
</g>
</svg>
