<?xml version="1.0" encoding="UTF-8" standalone="no"?>
<!DOCTYPE svg PUBLIC "-//W3C//DTD SVG 1.1//EN" "http://www.w3.org/Graphics/SVG/1.1/DTD/svg11.dtd">
<!-- Created with Vectornator (http://vectornator.io/) -->
<svg height="15.0pt" stroke-miterlimit="10" style="fill-rule:nonzero;clip-rule:evenodd;stroke-linecap:round;stroke-linejoin:round;" version="1.1" viewBox="0 0 15 15" width="15.0pt" xml:space="preserve" xmlns="http://www.w3.org/2000/svg" xmlns:xlink="http://www.w3.org/1999/xlink">
<defs/>
<g id="Layer-1">
<g opacity="1">
<path d="M10.8078 6.47573C11.4294 6.57932 12.2588 6.8194 12.5674 7.43658C12.8776 8.05695 12.325 8.74819 11.6726 8.70371C11.3104 8.67902 11.0832 8.33652 10.8499 8.10317C10.6902 9.89095 10.0549 11.7489 8.36366 12.6312C7.8744 12.8865 7.18736 13.1129 6.63412 12.9374C6.07093 12.7589 5.9852 12.0624 5.51712 11.7604C5.19368 11.5517 4.79779 11.5782 4.43016 11.5623C4.25881 11.5548 4.08287 11.5439 3.93171 11.4542C3.43631 11.16 3.72402 10.4931 3.46329 10.0789C3.36859 9.92852 3.18874 9.8585 3.04893 9.76065C2.79531 9.58313 2.30568 9.18038 2.3463 8.84184C2.36991 8.64508 2.68862 8.63652 2.81472 8.61963C2.96065 8.60009 3.10727 8.58584 3.25311 8.56559C3.61257 8.51567 4.04098 8.40799 4.28002 8.10919C3.65313 8.66642 2.74376 8.07216 2.86877 7.28044C2.96173 6.69167 3.65397 6.39502 4.15391 6.25353C4.45084 6.16949 4.76965 6.1068 5.07873 6.14544C5.07873 5.70867 4.97611 5.2874 4.94061 4.85428C4.90519 4.42216 4.97238 3.97952 5.12677 3.57515C5.82578 1.74442 8.25587 1.51246 9.5347 2.86651C10.001 3.36029 10.2429 3.98405 10.4355 4.62608C10.6174 5.23209 10.7281 5.84912 10.8078 6.47573Z" fill="#989898" fill-opacity="0.996078" fill-rule="nonzero" opacity="1" stroke="none"/>
<path d="M7.57096 4.62007C7.51877 4.54179 7.50903 4.45355 7.43883 4.37986C7.2333 4.16404 6.96244 4.37022 6.94039 4.62007C6.92055 4.84493 7.05161 5.18389 7.33074 5.14254C7.3705 5.13665 7.43999 5.10535 7.46887 5.07648C7.53266 5.01268 7.5561 4.9077 7.57696 4.82425C7.61183 5.34725 7.16522 5.92841 6.6161 5.59894C6.30301 5.41109 6.12555 5.00462 6.11166 4.6501C6.09895 4.32606 6.18158 3.92406 6.48999 3.7493C7.0187 3.4497 7.57096 4.12979 7.57096 4.62007Z" fill="#fefefe" fill-rule="nonzero" opacity="1" stroke="none"/>
<path d="M9.52269 4.52399C9.49202 4.43198 9.45938 4.32744 9.38457 4.25975C9.10132 4.00348 8.86965 4.33522 8.89213 4.62007C8.91055 4.85334 9.15414 5.1776 9.40258 4.96838C9.48254 4.90106 9.50357 4.79963 9.5287 4.70415C9.56262 5.17901 9.15172 5.77679 8.62789 5.51487C8.27484 5.33834 8.08341 4.92225 8.06339 4.542C8.05368 4.35738 8.07149 4.17377 8.14146 4.00152C8.17981 3.90712 8.23083 3.82609 8.2976 3.7493C8.8013 3.17004 9.52269 3.97152 9.52269 4.52399Z" fill="#fefefe" fill-rule="nonzero" opacity="1" stroke="none"/>
<path d="M9.13835 4.16967C9.45573 4.11883 9.60675 4.54343 9.50468 4.81825C9.46837 4.916 9.3903 5.0241 9.27648 5.03444C8.83832 5.07427 8.71722 4.23713 9.13835 4.16967Z" fill="#000000" fill-rule="nonzero" opacity="1" stroke="none"/>
<path d="M7.20463 4.28377C7.52255 4.24318 7.64785 4.67735 7.55294 4.93836C7.51928 5.03092 7.43877 5.13872 7.33074 5.14855C6.88386 5.18917 6.7648 4.33993 7.20463 4.28377Z" fill="#000000" fill-rule="nonzero" opacity="1" stroke="none"/>
</g>
</g>
</svg>
