<?xml version="1.0" encoding="UTF-8" standalone="no"?>
<!DOCTYPE svg PUBLIC "-//W3C//DTD SVG 1.1//EN" "http://www.w3.org/Graphics/SVG/1.1/DTD/svg11.dtd">
<!-- Created with Vectornator (http://vectornator.io/) -->
<svg height="15.0pt" stroke-miterlimit="10" style="fill-rule:nonzero;clip-rule:evenodd;stroke-linecap:round;stroke-linejoin:round;" version="1.1" viewBox="0 0 15 15" width="15.0pt" xml:space="preserve" xmlns="http://www.w3.org/2000/svg" xmlns:xlink="http://www.w3.org/1999/xlink">
<defs/>
<g id="Layer-1">
<g opacity="1">
<path d="M11.1092 6.38238C11.7874 6.49541 12.6924 6.75737 13.0291 7.43079C13.3676 8.10768 12.7646 8.86191 12.0528 8.81338C11.6576 8.78644 11.4097 8.41273 11.1551 8.15812C10.9809 10.1088 10.2877 12.136 8.44235 13.0988C7.90851 13.3773 7.15886 13.6243 6.55521 13.4329C5.9407 13.2381 5.84716 12.4781 5.33643 12.1486C4.98351 11.9209 4.55155 11.9498 4.15042 11.9324C3.96346 11.9243 3.77148 11.9124 3.60655 11.8145C3.06601 11.4935 3.37994 10.7658 3.09545 10.3139C2.99212 10.1498 2.79588 10.0734 2.64333 9.96663C2.3666 9.77293 1.83235 9.33348 1.87667 8.96409C1.90244 8.74941 2.25019 8.74007 2.38778 8.72164C2.54701 8.70032 2.70699 8.68477 2.86611 8.66267C3.25833 8.6082 3.72578 8.49071 3.9866 8.16468C3.30258 8.77269 2.31035 8.12428 2.44675 7.26042C2.54818 6.618 3.3035 6.29432 3.849 6.13993C4.17298 6.04824 4.52084 5.97983 4.85809 6.02199C4.85809 5.54542 4.74612 5.08577 4.70738 4.61318C4.66874 4.14168 4.74205 3.65871 4.91051 3.21749C5.67321 1.21995 8.32474 0.966847 9.7201 2.44428C10.2289 2.98306 10.4928 3.66365 10.703 4.36419C10.9014 5.02542 11.0222 5.69867 11.1092 6.38238Z" fill="#989898" fill-opacity="0.996078" fill-rule="nonzero" opacity="1" stroke="none"/>
<path d="M7.57741 4.35763C7.52047 4.27222 7.50984 4.17594 7.43325 4.09553C7.20899 3.86005 6.91345 4.08501 6.88939 4.35763C6.86774 4.60298 7.01074 4.97283 7.31531 4.92771C7.35869 4.92128 7.43451 4.88713 7.46602 4.85563C7.53563 4.78601 7.5612 4.67147 7.58396 4.58042C7.62201 5.15107 7.1347 5.78519 6.53555 5.4257C6.19393 5.22073 6.0003 4.77722 5.98514 4.3904C5.97127 4.03683 6.06143 3.5982 6.39795 3.40751C6.97483 3.08061 7.57741 3.82267 7.57741 4.35763Z" fill="#fefefe" fill-rule="nonzero" opacity="1" stroke="none"/>
<path d="M9.70699 4.25279C9.67353 4.1524 9.63791 4.03833 9.55629 3.96448C9.24722 3.68485 8.99444 4.04682 9.01897 4.35763C9.03907 4.61216 9.30486 4.96596 9.57594 4.73768C9.66318 4.66422 9.68613 4.55355 9.71355 4.44937C9.75056 4.9675 9.30222 5.61975 8.73066 5.33397C8.34543 5.14135 8.13656 4.68734 8.11472 4.27245C8.10412 4.071 8.12355 3.87066 8.1999 3.68272C8.24175 3.57971 8.29741 3.4913 8.37027 3.40751C8.91987 2.77547 9.70699 3.64998 9.70699 4.25279Z" fill="#fefefe" fill-rule="nonzero" opacity="1" stroke="none"/>
<path d="M9.28763 3.86619C9.63393 3.81072 9.79871 4.27401 9.68734 4.57387C9.64772 4.68053 9.56254 4.79847 9.43834 4.80976C8.96026 4.85322 8.82813 3.93979 9.28763 3.86619Z" fill="#000000" fill-rule="nonzero" opacity="1" stroke="none"/>
<path d="M7.1777 3.99069C7.52459 3.9464 7.66131 4.42013 7.55775 4.70492C7.52103 4.80592 7.43318 4.92354 7.31531 4.93426C6.8277 4.97859 6.6978 4.05196 7.1777 3.99069Z" fill="#000000" fill-rule="nonzero" opacity="1" stroke="none"/>
</g>
</g>
</svg>
