<?xml version="1.0" encoding="UTF-8" standalone="no"?>
<!DOCTYPE svg PUBLIC "-//W3C//DTD SVG 1.1//EN" "http://www.w3.org/Graphics/SVG/1.1/DTD/svg11.dtd">
<!-- Created with Vectornator (http://vectornator.io/) -->
<svg height="15.0pt" stroke-miterlimit="10" style="fill-rule:nonzero;clip-rule:evenodd;stroke-linecap:round;stroke-linejoin:round;" version="1.1" viewBox="0 0 15 15" width="15.0pt" xml:space="preserve" xmlns="http://www.w3.org/2000/svg" xmlns:xlink="http://www.w3.org/1999/xlink">
<defs/>
<g id="Layer-1">
<g opacity="1">
<path d="M11.1099 6.38217C11.7882 6.49522 12.6934 6.75723 13.0302 7.43078C13.3687 8.10779 12.7656 8.86217 12.0537 8.81363C11.6584 8.78668 11.4105 8.41291 11.1558 8.15825C10.9816 10.1093 10.2882 12.1368 8.44253 13.0998C7.90859 13.3784 7.15879 13.6255 6.55503 13.4341C5.94041 13.2392 5.84685 12.4791 5.33602 12.1495C4.98304 11.9218 4.55099 11.9507 4.14978 11.9332C3.96279 11.9251 3.77077 11.9132 3.60582 11.8153C3.06517 11.4943 3.37916 10.7664 3.09462 10.3145C2.99126 10.1503 2.79498 10.0739 2.64241 9.9671C2.36563 9.77336 1.83127 9.33383 1.87561 8.96437C1.90138 8.74965 2.2492 8.74031 2.38681 8.72188C2.54607 8.70055 2.70608 8.685 2.86523 8.66289C3.25752 8.60841 3.72506 8.4909 3.98594 8.1648C3.30179 8.77293 2.30937 8.1244 2.44579 7.26038C2.54725 6.61783 3.3027 6.29409 3.84831 6.13967C4.17235 6.04797 4.52028 5.97954 4.85759 6.02171C4.85759 5.54505 4.7456 5.08532 4.70686 4.61264C4.6682 4.14104 4.74153 3.65798 4.91002 3.21668C5.67286 1.21876 8.3249 0.965609 9.72052 2.44333C10.2295 2.98221 10.4934 3.66293 10.7036 4.36359C10.902 5.02495 11.0229 5.69833 11.1099 6.38217Z" fill="#242424" fill-opacity="0.996078" fill-rule="nonzero" opacity="1" stroke="none"/>
<path d="M7.57742 4.35704C7.52047 4.27161 7.50984 4.17531 7.43324 4.09489C7.20893 3.85937 6.91333 4.08436 6.88927 4.35704C6.86762 4.60243 7.01064 4.97235 7.31527 4.92722C7.35866 4.92079 7.4345 4.88664 7.46601 4.85513C7.53564 4.7855 7.56121 4.67093 7.58398 4.57987C7.62203 5.15062 7.13463 5.78487 6.53537 5.42531C6.19368 5.2203 6.00002 4.7767 5.98485 4.38981C5.97098 4.03617 6.06116 3.59746 6.39774 3.40674C6.97473 3.07977 7.57742 3.82198 7.57742 4.35704Z" fill="#fefefe" fill-rule="nonzero" opacity="1" stroke="none"/>
<path d="M9.70741 4.25218C9.67394 4.15177 9.63832 4.03767 9.55667 3.96381C9.24755 3.68413 8.99472 4.04616 9.01926 4.35704C9.03936 4.61161 9.3052 4.96548 9.57634 4.73716C9.66359 4.66368 9.68655 4.55299 9.71397 4.44879C9.75098 4.96702 9.30256 5.61939 8.73089 5.33356C8.34559 5.1409 8.13668 4.68681 8.11484 4.27184C8.10423 4.07035 8.12367 3.86997 8.20004 3.682C8.24189 3.57897 8.29756 3.49054 8.37044 3.40674C8.92014 2.77458 9.70741 3.64925 9.70741 4.25218Z" fill="#fefefe" fill-rule="nonzero" opacity="1" stroke="none"/>
<path d="M9.28797 3.8655C9.63434 3.81002 9.79915 4.2734 9.68775 4.57331C9.64813 4.67999 9.56293 4.79796 9.43871 4.80925C8.96053 4.85272 8.82838 3.93912 9.28797 3.8655Z" fill="#000000" fill-rule="nonzero" opacity="1" stroke="none"/>
<path d="M7.17764 3.99002C7.5246 3.94573 7.66134 4.41955 7.55776 4.70439C7.52103 4.80541 7.43317 4.92306 7.31527 4.93377C6.82757 4.97811 6.69764 4.05131 7.17764 3.99002Z" fill="#000000" fill-rule="nonzero" opacity="1" stroke="none"/>
</g>
</g>
</svg>
