<?xml version="1.0" encoding="UTF-8" standalone="no"?>
<!DOCTYPE svg PUBLIC "-//W3C//DTD SVG 1.1//EN" "http://www.w3.org/Graphics/SVG/1.1/DTD/svg11.dtd">
<!-- Created with Vectornator (http://vectornator.io/) -->
<svg height="50.0pt" stroke-miterlimit="10" style="fill-rule:nonzero;clip-rule:evenodd;stroke-linecap:round;stroke-linejoin:round;" version="1.1" viewBox="0 0 50 50" width="50.0pt" xml:space="preserve" xmlns="http://www.w3.org/2000/svg" xmlns:xlink="http://www.w3.org/1999/xlink">
<defs/>
<g id="Layer-1">
<g opacity="1">
<path d="M33.8915 22.2467C35.5622 22.5251 37.7918 23.1705 38.6213 24.8295C39.455 26.497 37.9695 28.3551 36.216 28.2356C35.2425 28.1692 34.6318 27.2486 34.0045 26.6213C33.5754 31.4268 31.8676 36.4209 27.3215 38.7928C26.0064 39.4789 24.1596 40.0875 22.6725 39.616C21.1586 39.136 20.9282 37.2638 19.67 36.4521C18.8005 35.8912 17.7364 35.9624 16.7482 35.9194C16.2876 35.8994 15.8146 35.8701 15.4083 35.6288C14.0767 34.8382 14.8501 33.0453 14.1492 31.9322C13.8947 31.5279 13.4112 31.3397 13.0354 31.0766C12.3537 30.5994 11.0375 29.5169 11.1467 28.6068C11.2102 28.078 12.0669 28.055 12.4058 28.0096C12.7981 27.957 13.1922 27.9187 13.5842 27.8643C14.5505 27.7301 15.7021 27.4406 16.3446 26.6375C14.6595 28.1353 12.2151 26.5379 12.5511 24.4098C12.801 22.8272 14.6618 22.0298 16.0056 21.6494C16.8037 21.4235 17.6607 21.255 18.4916 21.3589C18.4916 20.1848 18.2157 19.0525 18.1203 17.8882C18.0251 16.7267 18.2057 15.5368 18.6207 14.4499C20.4996 9.52886 27.0318 8.90533 30.4693 12.545C31.7229 13.8724 32.3729 15.549 32.8907 17.2748C33.3794 18.9038 33.6771 20.5624 33.8915 22.2467Z" fill="#242424" fill-opacity="0.996078" fill-rule="nonzero" opacity="1" stroke="none"/>
<path d="M25.1907 17.2587C25.0504 17.0482 25.0242 16.8111 24.8356 16.613C24.2831 16.0329 23.555 16.587 23.4957 17.2587C23.4424 17.8631 23.7947 18.7742 24.545 18.6631C24.6519 18.6472 24.8387 18.5631 24.9163 18.4855C25.0878 18.314 25.1508 18.0318 25.2068 17.8075C25.3006 19.2133 24.1001 20.7755 22.624 19.8899C21.7825 19.3849 21.3054 18.2923 21.2681 17.3394C21.2339 16.4683 21.456 15.3878 22.2851 14.918C23.7062 14.1127 25.1907 15.9408 25.1907 17.2587Z" fill="#fefefe" fill-rule="nonzero" opacity="1" stroke="none"/>
<path d="M30.437 17.0004C30.3546 16.7531 30.2668 16.472 30.0657 16.2901C29.3043 15.6012 28.6816 16.493 28.7421 17.2587C28.7916 17.8857 29.4463 18.7573 30.1142 18.1949C30.3291 18.0139 30.3856 17.7413 30.4532 17.4847C30.5443 18.7611 29.4398 20.3679 28.0318 19.6639C27.0827 19.1894 26.5682 18.0709 26.5144 17.0488C26.4883 16.5525 26.5361 16.059 26.7242 15.596C26.8273 15.3422 26.9644 15.1244 27.1439 14.918C28.4979 13.3609 30.437 15.5153 30.437 17.0004Z" fill="#fefefe" fill-rule="nonzero" opacity="1" stroke="none"/>
<path d="M29.4039 16.048C30.257 15.9113 30.663 17.0527 30.3886 17.7914C30.291 18.0541 30.0812 18.3447 29.7752 18.3725C28.5974 18.4796 28.2719 16.2293 29.4039 16.048Z" fill="#000000" fill-rule="nonzero" opacity="1" stroke="none"/>
<path d="M24.206 16.3547C25.0606 16.2456 25.3974 17.4126 25.1423 18.1142C25.0518 18.363 24.8354 18.6528 24.545 18.6792C23.3438 18.7884 23.0237 16.5056 24.206 16.3547Z" fill="#000000" fill-rule="nonzero" opacity="1" stroke="none"/>
</g>
</g>
</svg>
