<?xml version="1.0" encoding="UTF-8" standalone="no"?>
<!DOCTYPE svg PUBLIC "-//W3C//DTD SVG 1.1//EN" "http://www.w3.org/Graphics/SVG/1.1/DTD/svg11.dtd">
<!-- Created with Vectornator (http://vectornator.io/) -->
<svg height="50.0px" stroke-miterlimit="10" style="fill-rule:nonzero;clip-rule:evenodd;stroke-linecap:round;stroke-linejoin:round;" version="1.1" viewBox="0 0 50 50" width="50.0px" xml:space="preserve" xmlns="http://www.w3.org/2000/svg" xmlns:xlink="http://www.w3.org/1999/xlink">
<defs/>
<g id="Untitled">
<path d="M31.3126 23.9706C32.7958 23.2157 33.7238 21.8862 33.507 19.6713C33.2151 16.6443 30.5993 15.6293 27.2971 15.3403L27.2965 11.1417L24.738 11.1417L24.7373 15.2299C24.0641 15.2299 23.3779 15.2431 22.6948 15.2568L22.6942 11.1423L20.138 11.142L20.1375 15.3396C19.5835 15.3509 19.0395 15.3616 18.5083 15.3616L18.5083 15.3492L14.9793 15.3478L14.9798 18.0769C14.9798 18.0769 16.8692 18.0414 16.838 18.0758C17.874 18.0766 18.2122 18.6776 18.3095 19.1964L18.3103 23.9795L18.3103 30.6981C18.2647 31.0237 18.0728 31.5439 17.3484 31.5449C17.3814 31.5739 15.4873 31.5446 15.4873 31.5446L14.9798 34.5963L18.3087 34.5963C18.929 34.5971 19.5385 34.6067 20.1364 34.6115L20.1387 38.8576L22.6942 38.8583L22.6935 34.6567C23.3966 34.671 24.0752 34.6772 24.7381 34.6763L24.7374 38.8583L27.2959 38.8583L27.2973 34.6193C31.5978 34.3725 34.6086 33.2901 34.9829 29.2549C35.2846 26.0062 33.7543 24.5561 31.3126 23.9706ZM22.7559 18.2611C24.1989 18.2611 28.737 17.802 28.7376 20.8136C28.737 23.7009 24.2003 23.3636 22.7559 23.3636L22.7559 18.2611ZM22.7548 31.5656L22.7559 25.9396C24.4896 25.9391 29.9274 25.4411 29.9281 28.7513C29.9288 31.9257 24.4896 31.5643 22.7548 31.5656Z" fill="#242424" fill-rule="nonzero" opacity="1" stroke="none"/>
</g>
</svg>
