<?xml version="1.0" encoding="UTF-8" standalone="no"?>
<!DOCTYPE svg PUBLIC "-//W3C//DTD SVG 1.1//EN" "http://www.w3.org/Graphics/SVG/1.1/DTD/svg11.dtd">
<!-- Created with Vectornator (http://vectornator.io/) -->
<svg height="50.0px" stroke-miterlimit="10" style="fill-rule:nonzero;clip-rule:evenodd;stroke-linecap:round;stroke-linejoin:round;" version="1.1" viewBox="0 0 50 50" width="50.0px" xml:space="preserve" xmlns="http://www.w3.org/2000/svg" xmlns:xlink="http://www.w3.org/1999/xlink">
<defs/>
<g id="surface1">
<path d="M25.0193 7.1846C20.1383 7.1846 16.1822 11.1407 16.1822 16.0217L16.1822 19.3356C14.461 19.6567 12.7399 20.0677 12.7399 20.6072L12.7399 37.8959C12.7399 37.8959 12.7399 38.384 13.2793 38.6024C15.2317 39.3987 22.8871 42.109 24.6596 42.7255C24.878 42.8154 24.9422 42.8154 25.0064 42.8154C25.0835 42.8154 25.122 42.8154 25.3532 42.7255C27.1129 42.109 34.794 39.3987 36.7463 38.6024C37.2473 38.3969 37.2601 37.9216 37.2601 37.9216L37.2601 20.6072C37.2601 20.0677 35.5646 19.631 33.8435 19.3356L33.8435 16.0217C33.8692 11.1407 29.8874 7.1846 25.0193 7.1846ZM25.0193 11.4105C27.9093 11.4105 29.6433 13.1445 29.6433 16.0345L29.6433 18.9117C26.4193 18.6805 23.6577 18.6805 20.4081 18.9117L20.4081 16.0345C20.4081 13.1445 22.1421 11.4105 25.0193 11.4105ZM25.0064 23.1504C29.0268 23.1504 32.392 23.4587 32.392 24.0238L32.392 34.8132C32.392 34.9802 32.3792 35.0059 32.2251 35.0573C32.0838 35.1215 25.3789 37.5491 25.3789 37.5491C25.3789 37.5491 25.0963 37.6262 25.0193 37.6262C24.9422 37.6262 24.6725 37.5234 24.6725 37.5234C24.6725 37.5234 17.9548 35.1087 17.8135 35.0444C17.6722 34.9802 17.6465 34.9545 17.6465 34.7876L17.6465 23.9981C17.608 23.4458 20.9861 23.1504 25.0064 23.1504Z" fill="#d6d2d2" fill-rule="nonzero" opacity="1" stroke="none"/>
</g>
</svg>
