<?xml version="1.0" encoding="UTF-8"?>
<svg xmlns="http://www.w3.org/2000/svg" xmlns:xlink="http://www.w3.org/1999/xlink" width="7px" height="13px" viewBox="0 0 7 13" version="1.1">
<g id="surface1">
<path style=" stroke:none;fill-rule:nonzero;fill:rgb(14.117648%,14.117648%,14.117648%);fill-opacity:1;" d="M 3.84375 1.777344 L 3.867188 1.371094 C 3.382812 1.339844 3.144531 1.339844 2.78125 1.339844 L 0.410156 1.339844 C 0.300781 1.339844 0.195312 1.386719 0.121094 1.460938 C 0.0429688 1.539062 0 1.644531 0 1.75 L 0 11.121094 C 0 11.226562 0.0429688 11.332031 0.121094 11.410156 C 0.195312 11.484375 0.300781 11.527344 0.410156 11.527344 L 3.023438 11.527344 C 3.351562 11.527344 3.625 11.527344 3.984375 11.5 L 3.949219 11.09375 L 3.976562 11.5 C 4.753906 11.457031 5.496094 11.1875 6.054688 10.699219 C 6.335938 10.457031 6.566406 10.15625 6.726562 9.808594 C 6.886719 9.460938 6.976562 9.0625 6.976562 8.632812 C 6.976562 7.921875 6.777344 7.257812 6.34375 6.746094 C 6.125 6.488281 5.855469 6.273438 5.535156 6.109375 C 5.21875 5.945312 4.851562 5.832031 4.445312 5.773438 L 4.386719 6.175781 L 4.449219 6.582031 C 5.097656 6.480469 5.65625 6.183594 6.039062 5.722656 C 6.421875 5.265625 6.625 4.660156 6.621094 3.992188 C 6.621094 3.617188 6.554688 3.261719 6.417969 2.949219 C 6.21875 2.476562 5.867188 2.089844 5.425781 1.824219 C 4.984375 1.558594 4.453125 1.410156 3.871094 1.371094 L 3.867188 1.371094 L 3.84375 1.777344 L 3.8125 2.1875 C 4.453125 2.230469 4.949219 2.433594 5.28125 2.734375 C 5.445312 2.886719 5.574219 3.0625 5.660156 3.269531 C 5.75 3.476562 5.800781 3.714844 5.800781 3.992188 C 5.800781 4.503906 5.652344 4.902344 5.40625 5.199219 C 5.160156 5.492188 4.804688 5.695312 4.324219 5.773438 C 4.121094 5.804688 3.972656 5.976562 3.976562 6.179688 C 3.976562 6.382812 4.125 6.554688 4.324219 6.582031 C 4.65625 6.632812 4.929688 6.71875 5.15625 6.835938 C 5.5 7.015625 5.738281 7.253906 5.902344 7.550781 C 6.066406 7.847656 6.152344 8.210938 6.152344 8.636719 C 6.152344 8.953125 6.089844 9.226562 5.980469 9.464844 C 5.8125 9.824219 5.539062 10.109375 5.183594 10.320312 C 4.828125 10.527344 4.394531 10.65625 3.925781 10.683594 L 3.917969 10.683594 C 3.59375 10.710938 3.351562 10.710938 3.023438 10.710938 L 0.820312 10.710938 L 0.820312 2.160156 L 2.777344 2.160156 C 3.148438 2.160156 3.347656 2.160156 3.816406 2.1875 L 3.84375 1.777344 L 3.8125 2.1875 Z M 3.84375 1.777344 "/>
<path style=" stroke:none;fill-rule:nonzero;fill:rgb(14.117648%,14.117648%,14.117648%);fill-opacity:1;" d="M 4.460938 5.808594 L 0.5 5.808594 C 0.273438 5.808594 0.0898438 5.988281 0.0898438 6.214844 C 0.0898438 6.441406 0.273438 6.625 0.5 6.625 L 4.460938 6.625 C 4.691406 6.625 4.875 6.441406 4.875 6.214844 C 4.875 5.988281 4.691406 5.808594 4.460938 5.808594 "/>
<path style=" stroke:none;fill-rule:nonzero;fill:rgb(14.117648%,14.117648%,14.117648%);fill-opacity:1;" d="M 0.96875 0.410156 L 0.96875 1.6875 C 0.96875 1.914062 1.152344 2.097656 1.378906 2.097656 C 1.605469 2.097656 1.789062 1.914062 1.789062 1.6875 L 1.789062 0.410156 C 1.789062 0.183594 1.605469 0 1.378906 0 C 1.152344 0 0.96875 0.183594 0.96875 0.410156 "/>
<path style=" stroke:none;fill-rule:nonzero;fill:rgb(14.117648%,14.117648%,14.117648%);fill-opacity:1;" d="M 2.820312 0.410156 L 2.820312 1.6875 C 2.820312 1.914062 3.003906 2.097656 3.230469 2.097656 C 3.457031 2.097656 3.640625 1.914062 3.640625 1.6875 L 3.640625 0.410156 C 3.640625 0.183594 3.457031 0 3.230469 0 C 3.003906 0 2.820312 0.183594 2.820312 0.410156 "/>
<path style=" stroke:none;fill-rule:nonzero;fill:rgb(14.117648%,14.117648%,14.117648%);fill-opacity:1;" d="M 0.851562 11.300781 L 0.851562 12.578125 C 0.851562 12.804688 1.035156 12.988281 1.261719 12.988281 C 1.488281 12.988281 1.671875 12.804688 1.671875 12.578125 L 1.671875 11.300781 C 1.671875 11.074219 1.488281 10.890625 1.261719 10.890625 C 1.035156 10.890625 0.851562 11.074219 0.851562 11.300781 "/>
<path style=" stroke:none;fill-rule:nonzero;fill:rgb(14.117648%,14.117648%,14.117648%);fill-opacity:1;" d="M 2.699219 11.300781 L 2.699219 12.578125 C 2.699219 12.804688 2.882812 12.988281 3.113281 12.988281 C 3.339844 12.988281 3.523438 12.804688 3.523438 12.578125 L 3.523438 11.300781 C 3.523438 11.074219 3.339844 10.890625 3.113281 10.890625 C 2.886719 10.890625 2.699219 11.074219 2.699219 11.300781 "/>
</g>
</svg>
