<?xml version="1.0" encoding="UTF-8"?>
<svg xmlns="http://www.w3.org/2000/svg" xmlns:xlink="http://www.w3.org/1999/xlink" width="15px" height="15px" viewBox="0 0 15 15" version="1.1">
<g id="surface1">
<path style=" stroke:none;fill-rule:evenodd;fill:rgb(16.470588%,16.470588%,16.470588%);fill-opacity:1;" d="M 7.136719 8.96875 C 7.191406 9 7.242188 9.035156 7.285156 9.082031 L 9.027344 10.816406 C 9.402344 11.195312 9.40625 11.804688 9.039062 12.1875 L 9.023438 12.199219 L 8.765625 12.457031 C 8.503906 12.71875 8.101562 12.789062 7.761719 12.628906 L 5.835938 11.71875 C 5.394531 11.511719 5.203125 10.980469 5.414062 10.535156 C 5.421875 10.515625 5.433594 10.492188 5.445312 10.472656 L 6.167969 9.226562 C 6.363281 8.886719 6.796875 8.773438 7.136719 8.96875 Z M 7.898438 2.394531 C 7.976562 2.441406 8.046875 2.507812 8.09375 2.589844 L 8.433594 3.183594 C 8.59375 3.457031 8.59375 3.796875 8.433594 4.070312 L 4.632812 10.636719 C 4.558594 10.765625 4.394531 10.8125 4.261719 10.734375 C 4.222656 10.710938 4.1875 10.679688 4.164062 10.636719 C 4.007812 10.371094 3.890625 10.082031 3.808594 9.78125 L 3.746094 9.546875 C 3.632812 9.105469 3.695312 8.636719 3.921875 8.242188 L 7.167969 2.589844 C 7.316406 2.335938 7.640625 2.246094 7.898438 2.394531 Z M 9.40625 5.050781 C 9.511719 5.113281 9.601562 5.203125 9.664062 5.3125 L 10.414062 6.605469 C 10.609375 6.945312 10.492188 7.382812 10.152344 7.578125 C 10.042969 7.640625 9.921875 7.671875 9.796875 7.671875 L 8.144531 7.671875 C 7.800781 7.671875 7.523438 7.394531 7.523438 7.050781 C 7.523438 6.941406 7.550781 6.835938 7.605469 6.738281 L 8.433594 5.3125 C 8.628906 4.972656 9.066406 4.855469 9.40625 5.050781 Z M 9.40625 5.050781 "/>
<path style=" stroke:none;fill-rule:evenodd;fill:rgb(79.215686%,79.607843%,80%);fill-opacity:1;" d="M 11.675781 8.792969 C 11.84375 9.085938 11.792969 9.457031 11.554688 9.695312 L 10.726562 10.515625 C 10.414062 10.824219 9.910156 10.824219 9.597656 10.511719 L 8.132812 9.050781 C 7.960938 8.878906 7.960938 8.597656 8.132812 8.421875 C 8.214844 8.339844 8.328125 8.292969 8.449219 8.292969 L 10.808594 8.292969 C 11.167969 8.292969 11.496094 8.484375 11.675781 8.792969 Z M 11.675781 8.792969 "/>
</g>
</svg>
