<?xml version="1.0" encoding="UTF-8"?>
<svg xmlns="http://www.w3.org/2000/svg" xmlns:xlink="http://www.w3.org/1999/xlink" width="15px" height="15px" viewBox="0 0 15 15" version="1.1">
<g id="surface1">
<path style=" stroke:none;fill-rule:nonzero;fill:rgb(14.901961%,14.901961%,14.901961%);fill-opacity:1;" d="M 6.449219 2.867188 L 6.449219 5.390625 L 5.609375 5.390625 L 5.609375 6.242188 L 6.449219 6.242188 L 6.449219 12.132812 L 7.289062 12.132812 L 7.289062 9.609375 L 7.710938 9.609375 L 7.710938 10.449219 L 8.128906 10.449219 L 8.128906 11.289062 L 8.550781 11.289062 L 8.550781 12.132812 L 9.390625 12.132812 L 9.390625 11.28125 L 8.96875 11.28125 L 8.96875 10.4375 L 8.550781 10.4375 L 8.550781 9.597656 L 8.128906 9.597656 L 8.128906 8.765625 L 8.550781 8.765625 L 8.550781 7.925781 L 8.96875 7.925781 L 8.96875 7.074219 L 8.128906 7.074219 L 8.128906 7.914062 L 7.710938 7.914062 L 7.710938 8.757812 L 7.289062 8.757812 L 7.289062 6.242188 L 8.128906 6.242188 L 8.128906 5.390625 L 7.289062 5.390625 L 7.289062 2.867188 Z M 6.449219 2.867188 "/>
</g>
</svg>
