<?xml version="1.0" encoding="UTF-8"?>
<svg xmlns="http://www.w3.org/2000/svg" xmlns:xlink="http://www.w3.org/1999/xlink" width="15px" height="15px" viewBox="0 0 15 15" version="1.1">
<g id="surface1">
<path style=" stroke:none;fill-rule:nonzero;fill:rgb(92.941177%,92.941177%,92.941177%);fill-opacity:1;" d="M 7.5 12.898438 C 11.226562 12.898438 12.898438 11.226562 12.898438 7.5 C 12.898438 3.773438 11.226562 2.101562 7.5 2.101562 C 3.773438 2.101562 2.101562 3.773438 2.101562 7.5 C 2.101562 11.226562 3.773438 12.898438 7.5 12.898438 Z M 7.5 12.898438 "/>
<path style=" stroke:none;fill-rule:nonzero;fill:rgb(12.941177%,12.941177%,12.941177%);fill-opacity:1;" d="M 6.484375 4.390625 L 7.988281 4.390625 L 7.988281 6.867188 L 7.054688 6.867188 L 7.054688 5.1875 L 6.222656 5.1875 Z M 6.484375 4.390625 "/>
<path style=" stroke:none;fill-rule:nonzero;fill:rgb(12.941177%,12.941177%,12.941177%);fill-opacity:1;" d="M 7.5 10.609375 C 8.445312 10.609375 9.214844 9.84375 9.214844 8.898438 C 9.214844 7.949219 8.445312 7.183594 7.5 7.183594 C 6.554688 7.183594 5.785156 7.949219 5.785156 8.898438 C 5.785156 9.84375 6.554688 10.609375 7.5 10.609375 Z M 7.5 10.609375 "/>
<path style=" stroke:none;fill-rule:nonzero;fill:rgb(92.941177%,92.941177%,92.941177%);fill-opacity:1;" d="M 7.5 9.832031 C 8.015625 9.832031 8.433594 9.414062 8.433594 8.898438 C 8.433594 8.378906 8.015625 7.960938 7.5 7.960938 C 6.984375 7.960938 6.566406 8.378906 6.566406 8.898438 C 6.566406 9.414062 6.984375 9.832031 7.5 9.832031 Z M 7.5 9.832031 "/>
</g>
</svg>
