<?xml version="1.0" encoding="UTF-8"?>
<svg xmlns="http://www.w3.org/2000/svg" xmlns:xlink="http://www.w3.org/1999/xlink" width="15px" height="15px" viewBox="0 0 15 15" version="1.1">
<g id="surface1">
<path style=" stroke:none;fill-rule:nonzero;fill:rgb(88.627451%,88.627451%,88.627451%);fill-opacity:1;" d="M 2.605469 2.015625 L 12.394531 2.015625 C 12.722656 2.015625 12.984375 2.277344 12.984375 2.605469 L 12.984375 12.394531 C 12.984375 12.722656 12.722656 12.984375 12.394531 12.984375 L 2.605469 12.984375 C 2.277344 12.984375 2.015625 12.722656 2.015625 12.394531 L 2.015625 2.605469 C 2.015625 2.277344 2.277344 2.015625 2.605469 2.015625 Z M 2.605469 2.015625 "/>
<path style="fill:none;stroke-width:80;stroke-linecap:butt;stroke-linejoin:round;stroke:rgb(17.254902%,17.254902%,17.254902%);stroke-opacity:1;stroke-miterlimit:10;" d="M 825.78125 308.072917 C 805.364583 371.145833 784.21875 434.21875 755.416667 494.010417 C 744.84375 515.885417 732.083333 537.03125 718.958333 557.447917 C 702.916667 582.239583 678.854167 592.8125 649.6875 590.989583 C 644.947917 590.625 639.479167 590.625 634.739583 591.354167 C 615.78125 593.541667 603.020833 604.114583 594.635417 620.520833 C 587.34375 634.739583 584.0625 650.052083 582.239583 665.729167 C 579.322917 692.34375 580.78125 718.229167 588.4375 743.75 C 591.71875 755.052083 596.822917 765.625 604.84375 774.010417 C 614.322917 784.21875 625.989583 788.59375 639.479167 789.322917 C 647.864583 789.6875 656.25 789.322917 664.270833 789.6875 C 687.96875 790.78125 704.375 803.541667 718.229167 821.40625 C 737.552083 846.927083 751.40625 875.729167 764.166667 905.260417 C 788.59375 959.947917 807.916667 1016.822917 826.510417 1073.697917 " transform="matrix(0.0107143,0,0,0.0107143,0,0)"/>
<path style="fill:none;stroke-width:50;stroke-linecap:butt;stroke-linejoin:round;stroke:rgb(17.254902%,17.254902%,17.254902%);stroke-opacity:1;stroke-miterlimit:10;" d="M 699.635417 302.239583 L 699.635417 1077.708333 " transform="matrix(0.0107143,0,0,0.0107143,0,0)"/>
<path style="fill:none;stroke-width:50;stroke-linecap:butt;stroke-linejoin:round;stroke:rgb(17.254902%,17.254902%,17.254902%);stroke-opacity:1;stroke-miterlimit:10;" d="M 316.822917 690.520833 L 1083.541667 690.520833 " transform="matrix(0.0107143,0,0,0.0107143,0,0)"/>
</g>
</svg>
