<?xml version="1.0" encoding="UTF-8"?>
<svg xmlns="http://www.w3.org/2000/svg" xmlns:xlink="http://www.w3.org/1999/xlink" width="15px" height="15px" viewBox="0 0 15 15" version="1.1">
<g id="surface1">
<path style=" stroke:none;fill-rule:nonzero;fill:rgb(92.156863%,90.980392%,90.980392%);fill-opacity:1;" d="M 3.378906 5.582031 L 7.15625 5.582031 L 7.15625 9.429688 L 3.378906 9.429688 Z M 3.378906 5.582031 "/>
<path style=" stroke:none;fill-rule:nonzero;fill:rgb(92.156863%,90.980392%,90.980392%);fill-opacity:1;" d="M 0.859375 7.488281 C 0.859375 6.359375 1.851562 5.445312 3.074219 5.445312 C 4.296875 5.445312 5.289062 6.359375 5.289062 7.488281 C 5.289062 8.617188 4.296875 9.53125 3.074219 9.53125 C 1.851562 9.53125 0.859375 8.617188 0.859375 7.488281 Z M 0.859375 7.488281 "/>
<path style=" stroke:none;fill-rule:nonzero;fill:rgb(13.333333%,13.333333%,13.333333%);fill-opacity:1;" d="M 7.910156 7.539062 C 7.941406 7.589844 7.953125 7.648438 7.953125 7.71875 C 7.953125 7.789062 7.9375 7.855469 7.910156 7.90625 C 7.882812 7.960938 7.84375 8.003906 7.800781 8.035156 C 7.710938 8.09375 7.613281 8.121094 7.515625 8.121094 C 7.460938 8.121094 7.414062 8.113281 7.367188 8.101562 C 7.320312 8.089844 7.285156 8.074219 7.253906 8.054688 C 7.199219 8.019531 7.15625 7.988281 7.132812 7.953125 L 7.121094 7.933594 C 7.089844 7.898438 7.078125 7.867188 7.078125 7.839844 C 7.078125 7.8125 7.101562 7.777344 7.148438 7.730469 C 7.175781 7.703125 7.203125 7.691406 7.234375 7.691406 C 7.265625 7.691406 7.308594 7.71875 7.363281 7.773438 C 7.378906 7.789062 7.398438 7.808594 7.429688 7.824219 C 7.457031 7.84375 7.484375 7.851562 7.507812 7.851562 C 7.609375 7.851562 7.660156 7.808594 7.660156 7.726562 C 7.660156 7.699219 7.648438 7.679688 7.617188 7.664062 C 7.589844 7.644531 7.554688 7.632812 7.515625 7.625 C 7.472656 7.617188 7.425781 7.605469 7.378906 7.589844 C 7.332031 7.570312 7.285156 7.550781 7.246094 7.527344 C 7.203125 7.503906 7.167969 7.46875 7.140625 7.417969 C 7.113281 7.371094 7.097656 7.308594 7.097656 7.238281 C 7.097656 7.144531 7.132812 7.058594 7.207031 6.988281 C 7.277344 6.914062 7.375 6.878906 7.5 6.878906 C 7.566406 6.878906 7.625 6.886719 7.679688 6.902344 C 7.734375 6.921875 7.773438 6.9375 7.792969 6.957031 L 7.832031 6.988281 C 7.867188 7.019531 7.882812 7.046875 7.882812 7.066406 C 7.882812 7.089844 7.871094 7.121094 7.84375 7.160156 C 7.808594 7.214844 7.769531 7.242188 7.730469 7.242188 C 7.707031 7.242188 7.679688 7.230469 7.644531 7.207031 C 7.640625 7.207031 7.632812 7.199219 7.625 7.191406 C 7.617188 7.183594 7.609375 7.175781 7.601562 7.171875 C 7.578125 7.15625 7.546875 7.148438 7.511719 7.148438 C 7.476562 7.148438 7.445312 7.15625 7.421875 7.175781 C 7.398438 7.191406 7.386719 7.214844 7.386719 7.246094 C 7.386719 7.273438 7.402344 7.300781 7.429688 7.316406 C 7.457031 7.335938 7.492188 7.347656 7.535156 7.355469 C 7.574219 7.363281 7.621094 7.371094 7.671875 7.386719 C 7.71875 7.398438 7.765625 7.417969 7.808594 7.4375 C 7.847656 7.457031 7.882812 7.492188 7.910156 7.539062 Z M 7.910156 7.539062 "/>
<path style=" stroke:none;fill-rule:nonzero;fill:rgb(11.764706%,11.764706%,11.764706%);fill-opacity:1;" d="M 8.410156 6.960938 C 8.417969 6.980469 8.421875 7.007812 8.421875 7.046875 L 8.421875 7.960938 C 8.421875 7.988281 8.417969 8.007812 8.417969 8.019531 C 8.417969 8.03125 8.410156 8.046875 8.402344 8.0625 C 8.386719 8.09375 8.34375 8.105469 8.273438 8.105469 C 8.195312 8.105469 8.152344 8.085938 8.140625 8.042969 C 8.132812 8.027344 8.128906 8 8.128906 7.960938 L 8.128906 7.046875 C 8.128906 7.019531 8.128906 7 8.132812 6.988281 C 8.132812 6.976562 8.136719 6.960938 8.148438 6.945312 C 8.164062 6.914062 8.207031 6.898438 8.277344 6.898438 C 8.351562 6.898438 8.398438 6.921875 8.410156 6.960938 Z M 8.410156 6.960938 "/>
<path style=" stroke:none;fill-rule:nonzero;fill:rgb(14.117647%,14.117647%,14.117647%);fill-opacity:1;" d="M 9.652344 7.425781 C 9.664062 7.445312 9.671875 7.476562 9.671875 7.515625 L 9.671875 7.878906 C 9.671875 7.914062 9.65625 7.949219 9.625 7.980469 C 9.53125 8.074219 9.394531 8.125 9.210938 8.125 C 9.046875 8.125 8.902344 8.0625 8.785156 7.9375 C 8.664062 7.816406 8.601562 7.664062 8.601562 7.492188 C 8.601562 7.316406 8.664062 7.171875 8.785156 7.054688 C 8.910156 6.9375 9.054688 6.878906 9.222656 6.878906 C 9.351562 6.878906 9.472656 6.921875 9.589844 7.007812 C 9.617188 7.027344 9.632812 7.054688 9.632812 7.082031 C 9.632812 7.105469 9.621094 7.136719 9.59375 7.171875 C 9.550781 7.230469 9.511719 7.261719 9.476562 7.261719 C 9.457031 7.261719 9.421875 7.246094 9.378906 7.214844 C 9.332031 7.183594 9.277344 7.171875 9.214844 7.171875 C 9.128906 7.171875 9.054688 7.199219 8.992188 7.257812 C 8.925781 7.316406 8.894531 7.394531 8.894531 7.488281 C 8.894531 7.582031 8.925781 7.664062 8.992188 7.730469 C 9.058594 7.796875 9.132812 7.832031 9.214844 7.832031 C 9.277344 7.832031 9.332031 7.820312 9.378906 7.800781 L 9.378906 7.621094 L 9.25 7.621094 C 9.214844 7.621094 9.191406 7.617188 9.175781 7.609375 C 9.164062 7.597656 9.152344 7.585938 9.148438 7.570312 C 9.144531 7.550781 9.140625 7.53125 9.140625 7.5 C 9.140625 7.472656 9.144531 7.449219 9.148438 7.429688 C 9.15625 7.414062 9.164062 7.402344 9.175781 7.394531 C 9.195312 7.382812 9.222656 7.378906 9.253906 7.378906 L 9.546875 7.378906 C 9.605469 7.382812 9.640625 7.398438 9.652344 7.425781 Z M 9.652344 7.425781 "/>
<path style=" stroke:none;fill-rule:nonzero;fill:rgb(12.941176%,12.941176%,12.941176%);fill-opacity:1;" d="M 10.890625 6.964844 C 10.894531 6.980469 10.898438 7.011719 10.898438 7.046875 L 10.898438 7.960938 C 10.898438 7.988281 10.898438 8.007812 10.898438 8.019531 C 10.894531 8.03125 10.890625 8.046875 10.882812 8.0625 C 10.867188 8.09375 10.824219 8.105469 10.753906 8.105469 C 10.710938 8.105469 10.679688 8.101562 10.664062 8.097656 C 10.648438 8.089844 10.632812 8.078125 10.621094 8.066406 C 10.375 7.738281 10.214844 7.519531 10.136719 7.421875 L 10.136719 7.960938 C 10.136719 7.988281 10.132812 8.007812 10.132812 8.019531 C 10.132812 8.03125 10.125 8.046875 10.117188 8.0625 C 10.101562 8.09375 10.058594 8.105469 9.988281 8.105469 C 9.921875 8.105469 9.878906 8.09375 9.863281 8.0625 C 9.855469 8.046875 9.851562 8.03125 9.847656 8.019531 C 9.847656 8.003906 9.847656 7.984375 9.847656 7.960938 L 9.847656 7.042969 C 9.847656 7 9.851562 6.96875 9.863281 6.949219 C 9.871094 6.929688 9.886719 6.917969 9.910156 6.910156 C 9.929688 6.90625 9.957031 6.902344 9.988281 6.902344 C 10.023438 6.902344 10.046875 6.90625 10.066406 6.910156 C 10.085938 6.917969 10.101562 6.925781 10.109375 6.933594 C 10.113281 6.933594 10.125 6.949219 10.144531 6.972656 C 10.375 7.289062 10.53125 7.496094 10.609375 7.597656 L 10.609375 7.042969 C 10.609375 7 10.613281 6.96875 10.625 6.949219 C 10.636719 6.929688 10.652344 6.917969 10.671875 6.910156 C 10.691406 6.90625 10.71875 6.902344 10.75 6.902344 C 10.78125 6.902344 10.808594 6.90625 10.824219 6.910156 C 10.84375 6.914062 10.859375 6.921875 10.867188 6.929688 C 10.878906 6.9375 10.886719 6.949219 10.890625 6.964844 Z M 10.890625 6.964844 "/>
<path style=" stroke:none;fill-rule:nonzero;fill:rgb(13.333333%,13.333333%,13.333333%);fill-opacity:1;" d="M 11.367188 7.191406 L 11.367188 7.359375 L 11.691406 7.359375 C 11.71875 7.359375 11.734375 7.359375 11.75 7.359375 C 11.761719 7.363281 11.777344 7.367188 11.792969 7.375 C 11.820312 7.390625 11.835938 7.433594 11.835938 7.503906 C 11.835938 7.582031 11.816406 7.625 11.773438 7.640625 C 11.753906 7.644531 11.726562 7.648438 11.6875 7.648438 L 11.367188 7.648438 L 11.367188 7.816406 L 11.871094 7.816406 C 11.898438 7.816406 11.917969 7.816406 11.929688 7.816406 C 11.941406 7.820312 11.957031 7.824219 11.972656 7.832031 C 12.003906 7.847656 12.015625 7.890625 12.015625 7.960938 C 12.015625 8.039062 11.996094 8.082031 11.957031 8.097656 C 11.9375 8.101562 11.910156 8.105469 11.871094 8.105469 L 11.21875 8.105469 C 11.140625 8.105469 11.097656 8.085938 11.085938 8.042969 C 11.078125 8.027344 11.074219 8 11.074219 7.960938 L 11.074219 7.046875 C 11.074219 6.988281 11.085938 6.949219 11.105469 6.929688 C 11.125 6.910156 11.164062 6.898438 11.222656 6.898438 L 11.871094 6.898438 C 11.898438 6.898438 11.917969 6.902344 11.929688 6.902344 C 11.941406 6.90625 11.957031 6.910156 11.972656 6.917969 C 12.003906 6.933594 12.015625 6.976562 12.015625 7.046875 C 12.015625 7.125 11.996094 7.167969 11.957031 7.183594 C 11.9375 7.1875 11.910156 7.191406 11.871094 7.191406 C 11.871094 7.191406 11.367188 7.191406 11.367188 7.191406 Z M 11.367188 7.191406 "/>
<path style=" stroke:none;fill-rule:nonzero;fill:rgb(12.941176%,12.941176%,12.941176%);fill-opacity:1;" d="M 13.140625 7.988281 C 13.140625 8.03125 13.105469 8.066406 13.039062 8.09375 C 13.003906 8.109375 12.976562 8.117188 12.953125 8.117188 C 12.933594 8.117188 12.914062 8.113281 12.902344 8.101562 C 12.886719 8.089844 12.878906 8.078125 12.871094 8.070312 C 12.859375 8.046875 12.816406 7.949219 12.742188 7.769531 L 12.691406 7.773438 L 12.484375 7.773438 L 12.484375 7.960938 C 12.484375 7.984375 12.484375 8.003906 12.480469 8.015625 C 12.480469 8.03125 12.476562 8.042969 12.464844 8.0625 C 12.449219 8.089844 12.40625 8.105469 12.335938 8.105469 C 12.261719 8.105469 12.214844 8.085938 12.203125 8.042969 C 12.195312 8.027344 12.191406 7.996094 12.191406 7.957031 L 12.191406 7.046875 C 12.191406 7.019531 12.195312 7 12.195312 6.988281 C 12.195312 6.976562 12.203125 6.960938 12.210938 6.945312 C 12.226562 6.914062 12.269531 6.898438 12.339844 6.898438 L 12.695312 6.898438 C 12.792969 6.898438 12.886719 6.933594 12.976562 7.003906 C 13.019531 7.039062 13.054688 7.085938 13.085938 7.144531 C 13.113281 7.203125 13.128906 7.265625 13.128906 7.339844 C 13.128906 7.460938 13.085938 7.5625 13.003906 7.644531 C 13.027344 7.703125 13.066406 7.789062 13.117188 7.902344 C 13.132812 7.941406 13.140625 7.96875 13.140625 7.988281 Z M 13.140625 7.988281 "/>
<path style=" stroke:none;fill-rule:nonzero;fill:rgb(11.764706%,11.764706%,11.764706%);fill-opacity:1;" d="M 1.902344 7.957031 C 1.875 7.921875 1.859375 7.886719 1.859375 7.859375 C 1.859375 7.832031 1.882812 7.796875 1.929688 7.75 C 1.957031 7.722656 1.988281 7.710938 2.015625 7.710938 C 2.046875 7.710938 2.089844 7.738281 2.144531 7.792969 C 2.160156 7.8125 2.183594 7.828125 2.210938 7.847656 C 2.238281 7.863281 2.265625 7.871094 2.289062 7.871094 C 2.390625 7.871094 2.441406 7.828125 2.441406 7.746094 C 2.441406 7.722656 2.429688 7.699219 2.402344 7.683594 C 2.375 7.664062 2.339844 7.652344 2.296875 7.644531 C 2.253906 7.636719 2.210938 7.625 2.160156 7.609375 C 2.113281 7.59375 2.070312 7.570312 2.027344 7.546875 C 1.984375 7.527344 1.949219 7.488281 1.921875 7.4375 C 1.894531 7.390625 1.878906 7.328125 1.878906 7.257812 C 1.878906 7.164062 1.917969 7.078125 1.988281 7.007812 C 2.058594 6.933594 2.15625 6.898438 2.28125 6.898438 C 2.347656 6.898438 2.40625 6.90625 2.460938 6.925781 C 2.515625 6.941406 2.554688 6.957031 2.574219 6.976562 L 2.617188 7.007812 C 2.648438 7.039062 2.667969 7.066406 2.667969 7.089844 C 2.667969 7.109375 2.652344 7.140625 2.628906 7.179688 C 2.589844 7.234375 2.550781 7.261719 2.511719 7.261719 C 2.488281 7.261719 2.460938 7.25 2.425781 7.226562 C 2.421875 7.226562 2.417969 7.21875 2.40625 7.210938 C 2.398438 7.203125 2.390625 7.195312 2.382812 7.191406 C 2.359375 7.175781 2.332031 7.167969 2.292969 7.167969 C 2.257812 7.167969 2.230469 7.175781 2.207031 7.195312 C 2.183594 7.210938 2.171875 7.234375 2.171875 7.265625 C 2.171875 7.296875 2.183594 7.320312 2.210938 7.339844 C 2.238281 7.355469 2.273438 7.371094 2.316406 7.375 C 2.359375 7.382812 2.402344 7.394531 2.453125 7.40625 C 2.503906 7.421875 2.546875 7.4375 2.589844 7.457031 C 2.632812 7.476562 2.667969 7.511719 2.695312 7.558594 C 2.722656 7.609375 2.734375 7.667969 2.734375 7.738281 C 2.734375 7.8125 2.722656 7.875 2.695312 7.929688 C 2.664062 7.984375 2.628906 8.023438 2.582031 8.054688 C 2.492188 8.113281 2.398438 8.140625 2.296875 8.140625 C 2.246094 8.140625 2.195312 8.136719 2.148438 8.121094 C 2.105469 8.109375 2.066406 8.09375 2.039062 8.074219 C 1.980469 8.039062 1.941406 8.007812 1.917969 7.972656 Z M 1.902344 7.957031 "/>
<path style=" stroke:none;fill-rule:nonzero;fill:rgb(11.764706%,11.764706%,11.764706%);fill-opacity:1;" d="M 3.203125 7.832031 L 3.710938 7.832031 C 3.734375 7.832031 3.753906 7.835938 3.765625 7.835938 C 3.78125 7.835938 3.792969 7.84375 3.808594 7.851562 C 3.839844 7.867188 3.855469 7.910156 3.855469 7.980469 C 3.855469 8.058594 3.835938 8.101562 3.792969 8.113281 C 3.773438 8.121094 3.746094 8.125 3.707031 8.125 L 3.058594 8.125 C 2.980469 8.125 2.933594 8.105469 2.921875 8.0625 C 2.914062 8.042969 2.910156 8.015625 2.910156 7.976562 L 2.910156 7.0625 C 2.910156 7.007812 2.921875 6.96875 2.941406 6.949219 C 2.964844 6.929688 3.003906 6.917969 3.0625 6.917969 L 3.710938 6.917969 C 3.734375 6.917969 3.753906 6.917969 3.765625 6.921875 C 3.78125 6.921875 3.792969 6.929688 3.8125 6.9375 C 3.839844 6.953125 3.855469 6.996094 3.855469 7.066406 C 3.855469 7.140625 3.835938 7.1875 3.792969 7.199219 C 3.777344 7.207031 3.746094 7.210938 3.707031 7.210938 L 3.203125 7.210938 L 3.203125 7.375 L 3.527344 7.375 C 3.554688 7.375 3.574219 7.378906 3.585938 7.378906 C 3.597656 7.378906 3.613281 7.386719 3.628906 7.394531 C 3.660156 7.410156 3.675781 7.453125 3.675781 7.523438 C 3.675781 7.601562 3.652344 7.644531 3.613281 7.65625 C 3.59375 7.664062 3.5625 7.667969 3.527344 7.667969 L 3.203125 7.667969 Z M 3.203125 7.832031 "/>
<path style=" stroke:none;fill-rule:nonzero;fill:rgb(11.764706%,11.764706%,11.764706%);fill-opacity:1;" d="M 4.320312 7.832031 L 4.828125 7.832031 C 4.855469 7.832031 4.871094 7.835938 4.886719 7.835938 C 4.898438 7.835938 4.914062 7.84375 4.929688 7.851562 C 4.957031 7.867188 4.972656 7.910156 4.972656 7.980469 C 4.972656 8.058594 4.953125 8.101562 4.914062 8.113281 C 4.894531 8.121094 4.863281 8.125 4.828125 8.125 L 4.175781 8.125 C 4.097656 8.125 4.054688 8.105469 4.039062 8.0625 C 4.035156 8.042969 4.03125 8.015625 4.03125 7.976562 L 4.03125 7.0625 C 4.03125 7.007812 4.039062 6.96875 4.0625 6.949219 C 4.082031 6.929688 4.121094 6.917969 4.179688 6.917969 L 4.828125 6.917969 C 4.855469 6.917969 4.871094 6.917969 4.886719 6.921875 C 4.898438 6.921875 4.914062 6.929688 4.929688 6.9375 C 4.957031 6.953125 4.972656 6.996094 4.972656 7.066406 C 4.972656 7.140625 4.953125 7.1875 4.914062 7.199219 C 4.894531 7.207031 4.867188 7.210938 4.828125 7.210938 L 4.320312 7.210938 L 4.320312 7.375 L 4.648438 7.375 C 4.671875 7.375 4.691406 7.378906 4.703125 7.378906 C 4.71875 7.378906 4.730469 7.386719 4.746094 7.394531 C 4.777344 7.410156 4.792969 7.453125 4.792969 7.523438 C 4.792969 7.601562 4.773438 7.644531 4.730469 7.65625 C 4.710938 7.664062 4.683594 7.667969 4.644531 7.667969 L 4.320312 7.667969 Z M 4.320312 7.832031 "/>
<path style=" stroke:none;fill-rule:nonzero;fill:rgb(11.764706%,11.764706%,11.764706%);fill-opacity:1;" d="M 5.292969 6.917969 L 5.597656 6.917969 C 5.757812 6.917969 5.898438 6.976562 6.019531 7.089844 C 6.140625 7.207031 6.199219 7.347656 6.199219 7.511719 C 6.199219 7.679688 6.140625 7.824219 6.023438 7.945312 C 5.90625 8.0625 5.761719 8.125 5.59375 8.125 L 5.292969 8.125 C 5.226562 8.125 5.183594 8.109375 5.167969 8.082031 C 5.15625 8.058594 5.148438 8.023438 5.148438 7.976562 L 5.148438 7.0625 C 5.148438 7.035156 5.148438 7.015625 5.152344 7.003906 C 5.152344 6.992188 5.15625 6.976562 5.167969 6.960938 C 5.183594 6.933594 5.222656 6.917969 5.292969 6.917969 Z M 5.8125 7.742188 C 5.875 7.683594 5.910156 7.613281 5.910156 7.523438 C 5.910156 7.433594 5.878906 7.359375 5.816406 7.300781 C 5.753906 7.238281 5.679688 7.210938 5.597656 7.210938 L 5.441406 7.210938 L 5.441406 7.832031 L 5.597656 7.832031 C 5.679688 7.832031 5.75 7.800781 5.8125 7.742188 Z M 5.8125 7.742188 "/>
<path style=" stroke:none;fill-rule:nonzero;fill:rgb(87.058824%,86.666667%,86.666667%);fill-opacity:1;" d="M 7.910156 7.539062 C 7.882812 7.492188 7.847656 7.457031 7.808594 7.4375 C 7.765625 7.417969 7.71875 7.398438 7.671875 7.386719 C 7.621094 7.371094 7.574219 7.363281 7.535156 7.355469 C 7.492188 7.347656 7.457031 7.335938 7.429688 7.316406 C 7.402344 7.300781 7.386719 7.273438 7.386719 7.246094 C 7.386719 7.214844 7.398438 7.191406 7.421875 7.175781 C 7.445312 7.15625 7.476562 7.148438 7.511719 7.148438 C 7.546875 7.148438 7.578125 7.15625 7.601562 7.171875 C 7.609375 7.175781 7.617188 7.183594 7.625 7.191406 C 7.632812 7.199219 7.640625 7.207031 7.644531 7.207031 C 7.679688 7.230469 7.707031 7.242188 7.730469 7.242188 C 7.769531 7.242188 7.808594 7.214844 7.84375 7.160156 C 7.871094 7.121094 7.882812 7.089844 7.882812 7.066406 C 7.882812 7.046875 7.867188 7.019531 7.832031 6.988281 L 7.792969 6.957031 C 7.773438 6.9375 7.734375 6.921875 7.679688 6.902344 C 7.625 6.886719 7.566406 6.878906 7.5 6.878906 C 7.375 6.878906 7.277344 6.914062 7.207031 6.988281 C 7.132812 7.058594 7.097656 7.144531 7.097656 7.238281 C 7.097656 7.308594 7.113281 7.371094 7.140625 7.417969 C 7.167969 7.46875 7.203125 7.503906 7.246094 7.527344 C 7.285156 7.550781 7.332031 7.570312 7.378906 7.589844 C 7.425781 7.605469 7.472656 7.617188 7.515625 7.625 C 7.554688 7.632812 7.589844 7.644531 7.617188 7.664062 C 7.648438 7.679688 7.660156 7.699219 7.660156 7.726562 C 7.660156 7.808594 7.609375 7.851562 7.507812 7.851562 C 7.484375 7.851562 7.457031 7.84375 7.429688 7.824219 C 7.398438 7.808594 7.378906 7.789062 7.363281 7.773438 C 7.308594 7.71875 7.265625 7.691406 7.234375 7.691406 C 7.203125 7.691406 7.175781 7.703125 7.148438 7.730469 C 7.101562 7.777344 7.078125 7.8125 7.078125 7.839844 C 7.078125 7.867188 7.089844 7.898438 7.121094 7.933594 L 7.132812 7.953125 C 7.15625 7.988281 7.199219 8.019531 7.253906 8.054688 C 7.285156 8.074219 7.320312 8.089844 7.367188 8.101562 C 7.414062 8.113281 7.460938 8.121094 7.515625 8.121094 C 7.613281 8.121094 7.710938 8.09375 7.800781 8.035156 C 7.84375 8.003906 7.882812 7.960938 7.910156 7.90625 C 7.9375 7.855469 7.953125 7.789062 7.953125 7.71875 C 7.953125 7.648438 7.941406 7.589844 7.910156 7.539062 Z M 7.910156 7.539062 "/>
<path style=" stroke:none;fill-rule:nonzero;fill:rgb(87.058824%,86.666667%,86.666667%);fill-opacity:1;" d="M 8.410156 6.960938 C 8.398438 6.921875 8.351562 6.898438 8.277344 6.898438 C 8.207031 6.898438 8.164062 6.914062 8.148438 6.945312 C 8.136719 6.960938 8.132812 6.976562 8.132812 6.988281 C 8.128906 7 8.128906 7.019531 8.128906 7.046875 L 8.128906 7.960938 C 8.128906 8 8.132812 8.027344 8.140625 8.042969 C 8.152344 8.085938 8.195312 8.105469 8.273438 8.105469 C 8.34375 8.105469 8.386719 8.09375 8.402344 8.0625 C 8.410156 8.046875 8.417969 8.03125 8.417969 8.019531 C 8.417969 8.007812 8.421875 7.988281 8.421875 7.960938 L 8.421875 7.046875 C 8.421875 7.007812 8.417969 6.980469 8.410156 6.960938 Z M 8.410156 6.960938 "/>
<path style=" stroke:none;fill-rule:nonzero;fill:rgb(87.058824%,86.666667%,86.666667%);fill-opacity:1;" d="M 9.652344 7.425781 C 9.640625 7.398438 9.605469 7.382812 9.546875 7.378906 L 9.253906 7.378906 C 9.222656 7.378906 9.195312 7.382812 9.175781 7.394531 C 9.164062 7.402344 9.15625 7.414062 9.148438 7.429688 C 9.144531 7.449219 9.140625 7.472656 9.140625 7.5 C 9.140625 7.53125 9.144531 7.550781 9.148438 7.570312 C 9.152344 7.585938 9.164062 7.597656 9.175781 7.609375 C 9.191406 7.617188 9.214844 7.621094 9.25 7.621094 L 9.378906 7.621094 L 9.378906 7.800781 C 9.332031 7.820312 9.277344 7.832031 9.214844 7.832031 C 9.132812 7.832031 9.058594 7.796875 8.992188 7.730469 C 8.925781 7.664062 8.894531 7.582031 8.894531 7.488281 C 8.894531 7.394531 8.925781 7.316406 8.992188 7.257812 C 9.054688 7.199219 9.128906 7.171875 9.214844 7.171875 C 9.277344 7.171875 9.332031 7.183594 9.378906 7.214844 C 9.421875 7.246094 9.457031 7.261719 9.476562 7.261719 C 9.511719 7.261719 9.550781 7.230469 9.59375 7.171875 C 9.621094 7.136719 9.632812 7.105469 9.632812 7.082031 C 9.632812 7.054688 9.617188 7.027344 9.589844 7.007812 C 9.472656 6.921875 9.351562 6.878906 9.222656 6.878906 C 9.054688 6.878906 8.910156 6.9375 8.785156 7.054688 C 8.664062 7.171875 8.601562 7.316406 8.601562 7.492188 C 8.601562 7.664062 8.664062 7.816406 8.785156 7.9375 C 8.902344 8.0625 9.046875 8.125 9.210938 8.125 C 9.394531 8.125 9.53125 8.074219 9.625 7.980469 C 9.65625 7.949219 9.671875 7.914062 9.671875 7.878906 L 9.671875 7.515625 C 9.671875 7.476562 9.664062 7.445312 9.652344 7.425781 Z M 9.652344 7.425781 "/>
<path style=" stroke:none;fill-rule:nonzero;fill:rgb(87.058824%,86.666667%,86.666667%);fill-opacity:1;" d="M 10.890625 6.964844 C 10.886719 6.949219 10.878906 6.9375 10.867188 6.929688 C 10.859375 6.921875 10.84375 6.914062 10.824219 6.910156 C 10.808594 6.90625 10.78125 6.902344 10.75 6.902344 C 10.71875 6.902344 10.691406 6.90625 10.671875 6.910156 C 10.652344 6.917969 10.636719 6.929688 10.625 6.949219 C 10.613281 6.96875 10.609375 7 10.609375 7.042969 L 10.609375 7.597656 C 10.53125 7.496094 10.375 7.289062 10.144531 6.972656 C 10.125 6.949219 10.113281 6.933594 10.109375 6.933594 C 10.101562 6.925781 10.085938 6.917969 10.066406 6.910156 C 10.046875 6.90625 10.023438 6.902344 9.988281 6.902344 C 9.957031 6.902344 9.929688 6.90625 9.910156 6.910156 C 9.886719 6.917969 9.871094 6.929688 9.863281 6.949219 C 9.851562 6.96875 9.847656 7 9.847656 7.042969 L 9.847656 7.960938 C 9.847656 7.984375 9.847656 8.003906 9.847656 8.019531 C 9.851562 8.03125 9.855469 8.046875 9.863281 8.0625 C 9.878906 8.09375 9.921875 8.105469 9.988281 8.105469 C 10.058594 8.105469 10.101562 8.09375 10.117188 8.0625 C 10.125 8.046875 10.132812 8.03125 10.132812 8.019531 C 10.132812 8.007812 10.136719 7.988281 10.136719 7.960938 L 10.136719 7.421875 C 10.214844 7.519531 10.375 7.738281 10.621094 8.066406 C 10.632812 8.078125 10.648438 8.089844 10.664062 8.097656 C 10.679688 8.101562 10.710938 8.105469 10.753906 8.105469 C 10.824219 8.105469 10.867188 8.09375 10.882812 8.0625 C 10.890625 8.046875 10.894531 8.03125 10.898438 8.019531 C 10.898438 8.007812 10.898438 7.988281 10.898438 7.960938 L 10.898438 7.046875 C 10.898438 7.011719 10.894531 6.980469 10.890625 6.964844 Z M 10.890625 6.964844 "/>
<path style=" stroke:none;fill-rule:nonzero;fill:rgb(87.058824%,86.666667%,86.666667%);fill-opacity:1;" d="M 11.972656 7.832031 C 11.957031 7.824219 11.941406 7.820312 11.929688 7.816406 C 11.917969 7.816406 11.898438 7.816406 11.871094 7.816406 L 11.367188 7.816406 L 11.367188 7.648438 L 11.6875 7.648438 C 11.726562 7.648438 11.753906 7.644531 11.773438 7.640625 C 11.816406 7.625 11.835938 7.582031 11.835938 7.503906 C 11.835938 7.433594 11.820312 7.390625 11.792969 7.375 C 11.777344 7.367188 11.761719 7.363281 11.75 7.359375 C 11.734375 7.359375 11.71875 7.359375 11.691406 7.359375 L 11.367188 7.359375 L 11.367188 7.191406 L 11.871094 7.191406 C 11.910156 7.191406 11.9375 7.1875 11.957031 7.183594 C 11.996094 7.167969 12.015625 7.125 12.015625 7.046875 C 12.015625 6.976562 12.003906 6.933594 11.972656 6.917969 C 11.957031 6.910156 11.941406 6.90625 11.929688 6.902344 C 11.917969 6.902344 11.898438 6.898438 11.871094 6.898438 L 11.222656 6.898438 C 11.164062 6.898438 11.125 6.910156 11.105469 6.929688 C 11.085938 6.949219 11.074219 6.988281 11.074219 7.046875 L 11.074219 7.960938 C 11.074219 8 11.078125 8.027344 11.085938 8.042969 C 11.097656 8.085938 11.140625 8.105469 11.21875 8.105469 L 11.871094 8.105469 C 11.910156 8.105469 11.9375 8.101562 11.957031 8.097656 C 11.996094 8.082031 12.015625 8.039062 12.015625 7.960938 C 12.015625 7.890625 12.003906 7.847656 11.972656 7.832031 Z M 11.972656 7.832031 "/>
<path style=" stroke:none;fill-rule:nonzero;fill:rgb(87.058824%,86.666667%,86.666667%);fill-opacity:1;" d="M 13.117188 7.902344 C 13.066406 7.789062 13.027344 7.703125 13.003906 7.644531 C 13.085938 7.5625 13.128906 7.460938 13.128906 7.339844 C 13.128906 7.265625 13.113281 7.203125 13.085938 7.144531 C 13.054688 7.085938 13.019531 7.039062 12.976562 7.003906 C 12.886719 6.933594 12.792969 6.898438 12.695312 6.898438 L 12.339844 6.898438 C 12.269531 6.898438 12.226562 6.914062 12.210938 6.945312 C 12.203125 6.960938 12.195312 6.976562 12.195312 6.988281 C 12.195312 7 12.191406 7.019531 12.191406 7.046875 L 12.191406 7.957031 C 12.191406 7.996094 12.195312 8.027344 12.203125 8.042969 C 12.214844 8.085938 12.261719 8.105469 12.335938 8.105469 C 12.40625 8.105469 12.449219 8.089844 12.464844 8.0625 C 12.476562 8.042969 12.480469 8.03125 12.480469 8.015625 C 12.484375 8.003906 12.484375 7.984375 12.484375 7.960938 L 12.484375 7.773438 L 12.691406 7.773438 L 12.742188 7.769531 C 12.816406 7.949219 12.859375 8.046875 12.871094 8.070312 C 12.878906 8.078125 12.886719 8.089844 12.902344 8.101562 C 12.914062 8.113281 12.933594 8.117188 12.953125 8.117188 C 12.976562 8.117188 13.003906 8.109375 13.039062 8.09375 C 13.105469 8.066406 13.140625 8.03125 13.140625 7.988281 C 13.140625 7.96875 13.132812 7.941406 13.117188 7.902344 Z M 12.789062 7.445312 C 12.757812 7.472656 12.726562 7.484375 12.695312 7.484375 L 12.484375 7.484375 L 12.484375 7.191406 L 12.691406 7.191406 C 12.726562 7.191406 12.757812 7.203125 12.789062 7.230469 C 12.820312 7.253906 12.839844 7.289062 12.839844 7.339844 C 12.839844 7.386719 12.820312 7.421875 12.789062 7.445312 Z M 12.789062 7.445312 "/>
<path style=" stroke:none;fill-rule:nonzero;fill:rgb(14.901961%,14.901961%,14.901961%);fill-opacity:1;" d="M 14.019531 6.445312 C 14.019531 6.445312 14.019531 6.445312 14.019531 6.441406 C 13.929688 6.277344 13.816406 6.121094 13.6875 5.984375 C 13.5625 5.851562 13.421875 5.734375 13.265625 5.636719 C 12.972656 5.449219 12.628906 5.335938 12.265625 5.324219 L 2.847656 5.324219 C 2.453125 5.335938 2.089844 5.449219 1.773438 5.636719 C 1.421875 5.847656 1.132812 6.152344 0.945312 6.519531 C 0.792969 6.816406 0.707031 7.15625 0.707031 7.519531 C 0.707031 7.910156 0.808594 8.273438 0.984375 8.589844 C 1.160156 8.910156 1.410156 9.175781 1.714844 9.367188 C 2.027344 9.5625 2.398438 9.675781 2.792969 9.675781 L 12.207031 9.675781 C 12.601562 9.675781 12.96875 9.5625 13.285156 9.367188 C 13.285156 9.367188 13.285156 9.363281 13.289062 9.363281 C 13.589844 9.175781 13.84375 8.90625 14.019531 8.585938 C 14.195312 8.273438 14.292969 7.90625 14.292969 7.519531 C 14.292969 7.128906 14.195312 6.761719 14.019531 6.445312 Z M 13.117188 7.902344 C 13.132812 7.941406 13.140625 7.96875 13.140625 7.988281 C 13.140625 8.03125 13.105469 8.066406 13.039062 8.09375 C 13.003906 8.109375 12.976562 8.117188 12.953125 8.117188 C 12.933594 8.117188 12.914062 8.113281 12.902344 8.101562 C 12.886719 8.089844 12.878906 8.078125 12.871094 8.070312 C 12.859375 8.046875 12.816406 7.949219 12.742188 7.769531 L 12.691406 7.773438 L 12.484375 7.773438 L 12.484375 7.960938 C 12.484375 7.984375 12.484375 8.003906 12.480469 8.015625 C 12.480469 8.03125 12.476562 8.042969 12.464844 8.0625 C 12.449219 8.089844 12.40625 8.105469 12.335938 8.105469 C 12.261719 8.105469 12.214844 8.085938 12.203125 8.042969 C 12.195312 8.027344 12.191406 7.996094 12.191406 7.957031 L 12.191406 7.046875 C 12.191406 7.019531 12.195312 7 12.195312 6.988281 C 12.195312 6.976562 12.203125 6.960938 12.210938 6.945312 C 12.226562 6.914062 12.269531 6.898438 12.339844 6.898438 L 12.695312 6.898438 C 12.792969 6.898438 12.886719 6.933594 12.976562 7.003906 C 13.019531 7.039062 13.054688 7.085938 13.085938 7.144531 C 13.113281 7.203125 13.128906 7.265625 13.128906 7.339844 C 13.128906 7.460938 13.085938 7.5625 13.003906 7.644531 C 13.027344 7.703125 13.066406 7.789062 13.117188 7.902344 Z M 11.691406 7.359375 C 11.71875 7.359375 11.734375 7.359375 11.75 7.359375 C 11.761719 7.363281 11.777344 7.367188 11.792969 7.375 C 11.820312 7.390625 11.835938 7.433594 11.835938 7.503906 C 11.835938 7.582031 11.816406 7.625 11.773438 7.640625 C 11.753906 7.644531 11.726562 7.648438 11.6875 7.648438 L 11.367188 7.648438 L 11.367188 7.816406 L 11.871094 7.816406 C 11.898438 7.816406 11.917969 7.816406 11.929688 7.816406 C 11.941406 7.820312 11.957031 7.824219 11.972656 7.832031 C 12.003906 7.847656 12.015625 7.890625 12.015625 7.960938 C 12.015625 8.039062 11.996094 8.082031 11.957031 8.097656 C 11.9375 8.101562 11.910156 8.105469 11.871094 8.105469 L 11.21875 8.105469 C 11.140625 8.105469 11.097656 8.085938 11.085938 8.042969 C 11.078125 8.027344 11.074219 8 11.074219 7.960938 L 11.074219 7.046875 C 11.074219 6.988281 11.085938 6.949219 11.105469 6.929688 C 11.125 6.910156 11.164062 6.898438 11.222656 6.898438 L 11.871094 6.898438 C 11.898438 6.898438 11.917969 6.902344 11.929688 6.902344 C 11.941406 6.90625 11.957031 6.910156 11.972656 6.917969 C 12.003906 6.933594 12.015625 6.976562 12.015625 7.046875 C 12.015625 7.125 11.996094 7.167969 11.957031 7.183594 C 11.9375 7.1875 11.910156 7.191406 11.871094 7.191406 L 11.367188 7.191406 L 11.367188 7.359375 C 11.367188 7.359375 11.691406 7.359375 11.691406 7.359375 Z M 10.898438 7.046875 L 10.898438 7.960938 C 10.898438 7.988281 10.898438 8.007812 10.898438 8.019531 C 10.894531 8.03125 10.890625 8.046875 10.882812 8.0625 C 10.867188 8.09375 10.824219 8.105469 10.753906 8.105469 C 10.710938 8.105469 10.679688 8.101562 10.664062 8.097656 C 10.648438 8.089844 10.632812 8.078125 10.621094 8.066406 C 10.375 7.738281 10.214844 7.519531 10.136719 7.421875 L 10.136719 7.960938 C 10.136719 7.988281 10.132812 8.007812 10.132812 8.019531 C 10.132812 8.03125 10.125 8.046875 10.117188 8.0625 C 10.101562 8.09375 10.058594 8.105469 9.988281 8.105469 C 9.921875 8.105469 9.878906 8.09375 9.863281 8.0625 C 9.855469 8.046875 9.851562 8.03125 9.847656 8.019531 C 9.847656 8.003906 9.847656 7.984375 9.847656 7.960938 L 9.847656 7.042969 C 9.847656 7 9.851562 6.96875 9.863281 6.949219 C 9.871094 6.929688 9.886719 6.917969 9.910156 6.910156 C 9.929688 6.90625 9.957031 6.902344 9.988281 6.902344 C 10.023438 6.902344 10.046875 6.90625 10.066406 6.910156 C 10.085938 6.917969 10.101562 6.925781 10.109375 6.933594 C 10.113281 6.933594 10.125 6.949219 10.144531 6.972656 C 10.375 7.289062 10.53125 7.496094 10.609375 7.597656 L 10.609375 7.042969 C 10.609375 7 10.613281 6.96875 10.625 6.949219 C 10.636719 6.929688 10.652344 6.917969 10.671875 6.910156 C 10.691406 6.90625 10.71875 6.902344 10.75 6.902344 C 10.78125 6.902344 10.808594 6.90625 10.824219 6.910156 C 10.84375 6.914062 10.859375 6.921875 10.867188 6.929688 C 10.878906 6.9375 10.886719 6.949219 10.890625 6.964844 C 10.894531 6.980469 10.898438 7.011719 10.898438 7.046875 Z M 8.992188 7.730469 C 9.058594 7.796875 9.132812 7.832031 9.214844 7.832031 C 9.277344 7.832031 9.332031 7.820312 9.378906 7.800781 L 9.378906 7.621094 L 9.25 7.621094 C 9.214844 7.621094 9.191406 7.617188 9.175781 7.609375 C 9.164062 7.597656 9.152344 7.585938 9.148438 7.570312 C 9.144531 7.550781 9.140625 7.53125 9.140625 7.5 C 9.140625 7.472656 9.144531 7.449219 9.148438 7.429688 C 9.15625 7.414062 9.164062 7.402344 9.175781 7.394531 C 9.195312 7.382812 9.222656 7.378906 9.253906 7.378906 L 9.546875 7.378906 C 9.605469 7.382812 9.640625 7.398438 9.652344 7.425781 C 9.664062 7.445312 9.671875 7.476562 9.671875 7.515625 L 9.671875 7.878906 C 9.671875 7.914062 9.65625 7.949219 9.625 7.980469 C 9.53125 8.074219 9.394531 8.125 9.210938 8.125 C 9.046875 8.125 8.902344 8.0625 8.785156 7.9375 C 8.664062 7.816406 8.601562 7.664062 8.601562 7.492188 C 8.601562 7.316406 8.664062 7.171875 8.785156 7.054688 C 8.910156 6.9375 9.054688 6.878906 9.222656 6.878906 C 9.351562 6.878906 9.472656 6.921875 9.589844 7.007812 C 9.617188 7.027344 9.632812 7.054688 9.632812 7.082031 C 9.632812 7.105469 9.621094 7.136719 9.59375 7.171875 C 9.550781 7.230469 9.511719 7.261719 9.476562 7.261719 C 9.457031 7.261719 9.421875 7.246094 9.378906 7.214844 C 9.332031 7.183594 9.277344 7.171875 9.214844 7.171875 C 9.128906 7.171875 9.054688 7.199219 8.992188 7.257812 C 8.925781 7.316406 8.894531 7.394531 8.894531 7.488281 C 8.894531 7.582031 8.925781 7.664062 8.992188 7.730469 Z M 8.421875 7.046875 L 8.421875 7.960938 C 8.421875 7.988281 8.417969 8.007812 8.417969 8.019531 C 8.417969 8.03125 8.410156 8.046875 8.402344 8.0625 C 8.386719 8.09375 8.34375 8.105469 8.273438 8.105469 C 8.195312 8.105469 8.152344 8.085938 8.140625 8.042969 C 8.132812 8.027344 8.128906 8 8.128906 7.960938 L 8.128906 7.046875 C 8.128906 7.019531 8.128906 7 8.132812 6.988281 C 8.132812 6.976562 8.136719 6.960938 8.148438 6.945312 C 8.164062 6.914062 8.207031 6.898438 8.277344 6.898438 C 8.351562 6.898438 8.398438 6.921875 8.410156 6.960938 C 8.417969 6.980469 8.421875 7.007812 8.421875 7.046875 Z M 7.617188 7.664062 C 7.589844 7.644531 7.554688 7.632812 7.515625 7.625 C 7.472656 7.617188 7.425781 7.605469 7.378906 7.589844 C 7.332031 7.570312 7.285156 7.550781 7.246094 7.527344 C 7.203125 7.503906 7.167969 7.46875 7.140625 7.417969 C 7.113281 7.371094 7.097656 7.308594 7.097656 7.238281 C 7.097656 7.144531 7.132812 7.058594 7.207031 6.988281 C 7.277344 6.914062 7.375 6.878906 7.5 6.878906 C 7.566406 6.878906 7.625 6.886719 7.679688 6.902344 C 7.734375 6.921875 7.773438 6.9375 7.792969 6.957031 L 7.832031 6.988281 C 7.867188 7.019531 7.882812 7.046875 7.882812 7.066406 C 7.882812 7.089844 7.871094 7.121094 7.84375 7.160156 C 7.808594 7.214844 7.769531 7.242188 7.730469 7.242188 C 7.707031 7.242188 7.679688 7.230469 7.644531 7.207031 C 7.640625 7.207031 7.632812 7.199219 7.625 7.191406 C 7.617188 7.183594 7.609375 7.175781 7.601562 7.171875 C 7.578125 7.15625 7.546875 7.148438 7.511719 7.148438 C 7.476562 7.148438 7.445312 7.15625 7.421875 7.175781 C 7.398438 7.191406 7.386719 7.214844 7.386719 7.246094 C 7.386719 7.273438 7.402344 7.300781 7.429688 7.316406 C 7.457031 7.335938 7.492188 7.347656 7.535156 7.355469 C 7.574219 7.363281 7.621094 7.371094 7.671875 7.386719 C 7.71875 7.398438 7.765625 7.417969 7.808594 7.4375 C 7.847656 7.457031 7.882812 7.492188 7.910156 7.539062 C 7.941406 7.589844 7.953125 7.648438 7.953125 7.71875 C 7.953125 7.789062 7.9375 7.855469 7.910156 7.90625 C 7.882812 7.960938 7.84375 8.003906 7.800781 8.035156 C 7.710938 8.09375 7.613281 8.121094 7.515625 8.121094 C 7.460938 8.121094 7.414062 8.113281 7.367188 8.101562 C 7.320312 8.089844 7.285156 8.074219 7.253906 8.054688 C 7.199219 8.019531 7.15625 7.988281 7.132812 7.953125 L 7.121094 7.933594 C 7.089844 7.898438 7.078125 7.867188 7.078125 7.839844 C 7.078125 7.8125 7.101562 7.777344 7.148438 7.730469 C 7.175781 7.703125 7.203125 7.691406 7.234375 7.691406 C 7.265625 7.691406 7.308594 7.71875 7.363281 7.773438 C 7.378906 7.789062 7.398438 7.808594 7.429688 7.824219 C 7.457031 7.84375 7.484375 7.851562 7.507812 7.851562 C 7.609375 7.851562 7.660156 7.808594 7.660156 7.726562 C 7.660156 7.699219 7.648438 7.679688 7.617188 7.664062 Z M 1.078125 8.125 C 1.015625 7.933594 0.980469 7.730469 0.980469 7.519531 C 0.980469 7.292969 1.019531 7.078125 1.09375 6.878906 C 1.351562 6.171875 2.03125 5.664062 2.847656 5.636719 C 2.847656 5.636719 2.851562 5.636719 2.851562 5.636719 L 6.636719 5.636719 L 6.636719 9.363281 L 2.792969 9.363281 C 2 9.363281 1.324219 8.84375 1.078125 8.125 Z M 1.078125 8.125 "/>
<path style=" stroke:none;fill-rule:nonzero;fill:rgb(87.058824%,86.666667%,86.666667%);fill-opacity:1;" d="M 7.910156 7.539062 C 7.941406 7.589844 7.953125 7.648438 7.953125 7.71875 C 7.953125 7.789062 7.9375 7.855469 7.910156 7.90625 C 7.882812 7.960938 7.84375 8.003906 7.800781 8.035156 C 7.710938 8.09375 7.613281 8.121094 7.515625 8.121094 C 7.460938 8.121094 7.414062 8.113281 7.367188 8.101562 C 7.320312 8.089844 7.285156 8.074219 7.253906 8.054688 C 7.199219 8.019531 7.15625 7.988281 7.132812 7.953125 L 7.121094 7.933594 C 7.089844 7.898438 7.078125 7.867188 7.078125 7.839844 C 7.078125 7.8125 7.101562 7.777344 7.148438 7.730469 C 7.175781 7.703125 7.203125 7.691406 7.234375 7.691406 C 7.265625 7.691406 7.308594 7.71875 7.363281 7.773438 C 7.378906 7.789062 7.398438 7.808594 7.429688 7.824219 C 7.457031 7.84375 7.484375 7.851562 7.507812 7.851562 C 7.609375 7.851562 7.660156 7.808594 7.660156 7.726562 C 7.660156 7.699219 7.648438 7.679688 7.617188 7.664062 C 7.589844 7.644531 7.554688 7.632812 7.515625 7.625 C 7.472656 7.617188 7.425781 7.605469 7.378906 7.589844 C 7.332031 7.570312 7.285156 7.550781 7.246094 7.527344 C 7.203125 7.503906 7.167969 7.46875 7.140625 7.417969 C 7.113281 7.371094 7.097656 7.308594 7.097656 7.238281 C 7.097656 7.144531 7.132812 7.058594 7.207031 6.988281 C 7.277344 6.914062 7.375 6.878906 7.5 6.878906 C 7.566406 6.878906 7.625 6.886719 7.679688 6.902344 C 7.734375 6.921875 7.773438 6.9375 7.792969 6.957031 L 7.832031 6.988281 C 7.867188 7.019531 7.882812 7.046875 7.882812 7.066406 C 7.882812 7.089844 7.871094 7.121094 7.84375 7.160156 C 7.808594 7.214844 7.769531 7.242188 7.730469 7.242188 C 7.707031 7.242188 7.679688 7.230469 7.644531 7.207031 C 7.640625 7.207031 7.632812 7.199219 7.625 7.191406 C 7.617188 7.183594 7.609375 7.175781 7.601562 7.171875 C 7.578125 7.15625 7.546875 7.148438 7.511719 7.148438 C 7.476562 7.148438 7.445312 7.15625 7.421875 7.175781 C 7.398438 7.191406 7.386719 7.214844 7.386719 7.246094 C 7.386719 7.273438 7.402344 7.300781 7.429688 7.316406 C 7.457031 7.335938 7.492188 7.347656 7.535156 7.355469 C 7.574219 7.363281 7.621094 7.371094 7.671875 7.386719 C 7.71875 7.398438 7.765625 7.417969 7.808594 7.4375 C 7.847656 7.457031 7.882812 7.492188 7.910156 7.539062 Z M 7.910156 7.539062 "/>
<path style=" stroke:none;fill-rule:nonzero;fill:rgb(87.058824%,86.666667%,86.666667%);fill-opacity:1;" d="M 8.410156 6.960938 C 8.417969 6.980469 8.421875 7.007812 8.421875 7.046875 L 8.421875 7.960938 C 8.421875 7.988281 8.417969 8.007812 8.417969 8.019531 C 8.417969 8.03125 8.410156 8.046875 8.402344 8.0625 C 8.386719 8.09375 8.34375 8.105469 8.273438 8.105469 C 8.195312 8.105469 8.152344 8.085938 8.140625 8.042969 C 8.132812 8.027344 8.128906 8 8.128906 7.960938 L 8.128906 7.046875 C 8.128906 7.019531 8.128906 7 8.132812 6.988281 C 8.132812 6.976562 8.136719 6.960938 8.148438 6.945312 C 8.164062 6.914062 8.207031 6.898438 8.277344 6.898438 C 8.351562 6.898438 8.398438 6.921875 8.410156 6.960938 Z M 8.410156 6.960938 "/>
<path style=" stroke:none;fill-rule:nonzero;fill:rgb(87.058824%,86.666667%,86.666667%);fill-opacity:1;" d="M 9.652344 7.425781 C 9.664062 7.445312 9.671875 7.476562 9.671875 7.515625 L 9.671875 7.878906 C 9.671875 7.914062 9.65625 7.949219 9.625 7.980469 C 9.53125 8.074219 9.394531 8.125 9.210938 8.125 C 9.046875 8.125 8.902344 8.0625 8.785156 7.9375 C 8.664062 7.816406 8.601562 7.664062 8.601562 7.492188 C 8.601562 7.316406 8.664062 7.171875 8.785156 7.054688 C 8.910156 6.9375 9.054688 6.878906 9.222656 6.878906 C 9.351562 6.878906 9.472656 6.921875 9.589844 7.007812 C 9.617188 7.027344 9.632812 7.054688 9.632812 7.082031 C 9.632812 7.105469 9.621094 7.136719 9.59375 7.171875 C 9.550781 7.230469 9.511719 7.261719 9.476562 7.261719 C 9.457031 7.261719 9.421875 7.246094 9.378906 7.214844 C 9.332031 7.183594 9.277344 7.171875 9.214844 7.171875 C 9.128906 7.171875 9.054688 7.199219 8.992188 7.257812 C 8.925781 7.316406 8.894531 7.394531 8.894531 7.488281 C 8.894531 7.582031 8.925781 7.664062 8.992188 7.730469 C 9.058594 7.796875 9.132812 7.832031 9.214844 7.832031 C 9.277344 7.832031 9.332031 7.820312 9.378906 7.800781 L 9.378906 7.621094 L 9.25 7.621094 C 9.214844 7.621094 9.191406 7.617188 9.175781 7.609375 C 9.164062 7.597656 9.152344 7.585938 9.148438 7.570312 C 9.144531 7.550781 9.140625 7.53125 9.140625 7.5 C 9.140625 7.472656 9.144531 7.449219 9.148438 7.429688 C 9.15625 7.414062 9.164062 7.402344 9.175781 7.394531 C 9.195312 7.382812 9.222656 7.378906 9.253906 7.378906 L 9.546875 7.378906 C 9.605469 7.382812 9.640625 7.398438 9.652344 7.425781 Z M 9.652344 7.425781 "/>
<path style=" stroke:none;fill-rule:nonzero;fill:rgb(87.058824%,86.666667%,86.666667%);fill-opacity:1;" d="M 10.890625 6.964844 C 10.894531 6.980469 10.898438 7.011719 10.898438 7.046875 L 10.898438 7.960938 C 10.898438 7.988281 10.898438 8.007812 10.898438 8.019531 C 10.894531 8.03125 10.890625 8.046875 10.882812 8.0625 C 10.867188 8.09375 10.824219 8.105469 10.753906 8.105469 C 10.710938 8.105469 10.679688 8.101562 10.664062 8.097656 C 10.648438 8.089844 10.632812 8.078125 10.621094 8.066406 C 10.375 7.738281 10.214844 7.519531 10.136719 7.421875 L 10.136719 7.960938 C 10.136719 7.988281 10.132812 8.007812 10.132812 8.019531 C 10.132812 8.03125 10.125 8.046875 10.117188 8.0625 C 10.101562 8.09375 10.058594 8.105469 9.988281 8.105469 C 9.921875 8.105469 9.878906 8.09375 9.863281 8.0625 C 9.855469 8.046875 9.851562 8.03125 9.847656 8.019531 C 9.847656 8.003906 9.847656 7.984375 9.847656 7.960938 L 9.847656 7.042969 C 9.847656 7 9.851562 6.96875 9.863281 6.949219 C 9.871094 6.929688 9.886719 6.917969 9.910156 6.910156 C 9.929688 6.90625 9.957031 6.902344 9.988281 6.902344 C 10.023438 6.902344 10.046875 6.90625 10.066406 6.910156 C 10.085938 6.917969 10.101562 6.925781 10.109375 6.933594 C 10.113281 6.933594 10.125 6.949219 10.144531 6.972656 C 10.375 7.289062 10.53125 7.496094 10.609375 7.597656 L 10.609375 7.042969 C 10.609375 7 10.613281 6.96875 10.625 6.949219 C 10.636719 6.929688 10.652344 6.917969 10.671875 6.910156 C 10.691406 6.90625 10.71875 6.902344 10.75 6.902344 C 10.78125 6.902344 10.808594 6.90625 10.824219 6.910156 C 10.84375 6.914062 10.859375 6.921875 10.867188 6.929688 C 10.878906 6.9375 10.886719 6.949219 10.890625 6.964844 Z M 10.890625 6.964844 "/>
<path style=" stroke:none;fill-rule:nonzero;fill:rgb(90.588235%,89.803922%,89.803922%);fill-opacity:1;" d="M 11.367188 7.191406 L 11.367188 7.359375 L 11.691406 7.359375 C 11.71875 7.359375 11.734375 7.359375 11.75 7.359375 C 11.761719 7.363281 11.777344 7.367188 11.792969 7.375 C 11.820312 7.390625 11.835938 7.433594 11.835938 7.503906 C 11.835938 7.582031 11.816406 7.625 11.773438 7.640625 C 11.753906 7.644531 11.726562 7.648438 11.6875 7.648438 L 11.367188 7.648438 L 11.367188 7.816406 L 11.871094 7.816406 C 11.898438 7.816406 11.917969 7.816406 11.929688 7.816406 C 11.941406 7.820312 11.957031 7.824219 11.972656 7.832031 C 12.003906 7.847656 12.015625 7.890625 12.015625 7.960938 C 12.015625 8.039062 11.996094 8.082031 11.957031 8.097656 C 11.9375 8.101562 11.910156 8.105469 11.871094 8.105469 L 11.21875 8.105469 C 11.140625 8.105469 11.097656 8.085938 11.085938 8.042969 C 11.078125 8.027344 11.074219 8 11.074219 7.960938 L 11.074219 7.046875 C 11.074219 6.988281 11.085938 6.949219 11.105469 6.929688 C 11.125 6.910156 11.164062 6.898438 11.222656 6.898438 L 11.871094 6.898438 C 11.898438 6.898438 11.917969 6.902344 11.929688 6.902344 C 11.941406 6.90625 11.957031 6.910156 11.972656 6.917969 C 12.003906 6.933594 12.015625 6.976562 12.015625 7.046875 C 12.015625 7.125 11.996094 7.167969 11.957031 7.183594 C 11.9375 7.1875 11.910156 7.191406 11.871094 7.191406 C 11.871094 7.191406 11.367188 7.191406 11.367188 7.191406 Z M 11.367188 7.191406 "/>
</g>
</svg>
