<?xml version="1.0" encoding="UTF-8"?>
<svg xmlns="http://www.w3.org/2000/svg" xmlns:xlink="http://www.w3.org/1999/xlink" width="15px" height="15px" viewBox="0 0 15 15" version="1.1">
<defs>
<clipPath id="clip1">
  <path d="M 1 1 L 14 1 L 14 14 L 1 14 Z M 1 1 "/>
</clipPath>
<clipPath id="clip2">
  <path d="M 1.363281 7.441406 C 1.363281 10.832031 4.109375 13.578125 7.5 13.578125 C 10.890625 13.578125 13.636719 10.832031 13.636719 7.441406 C 13.636719 4.050781 10.890625 1.304688 7.5 1.304688 C 4.109375 1.304688 1.363281 4.050781 1.363281 7.441406 M 2.34375 7.441406 C 2.34375 4.597656 4.65625 2.285156 7.5 2.285156 C 10.34375 2.285156 12.65625 4.597656 12.65625 7.441406 C 12.65625 10.285156 10.34375 12.597656 7.5 12.597656 C 4.65625 12.597656 2.34375 10.285156 2.34375 7.441406 M 7 6.671875 C 6.40625 5.851562 5.441406 5.3125 4.355469 5.3125 C 4.183594 5.3125 4.046875 5.453125 4.046875 5.621094 C 4.046875 7.3125 5.347656 8.710938 7 8.863281 L 7 12.078125 C 7 12.25 7.136719 12.386719 7.304688 12.386719 C 7.476562 12.386719 7.613281 12.25 7.613281 12.078125 L 7.613281 10.707031 C 9.265625 10.550781 10.566406 9.15625 10.566406 7.460938 C 10.566406 7.292969 10.429688 7.15625 10.257812 7.15625 C 9.171875 7.15625 8.207031 7.691406 7.613281 8.511719 L 7.613281 6.992188 C 9.265625 6.839844 10.566406 5.441406 10.566406 3.75 C 10.566406 3.582031 10.429688 3.441406 10.257812 3.441406 C 8.472656 3.441406 7.015625 4.890625 7 6.671875 M 9.929688 4.078125 C 9.78125 5.273438 8.832031 6.226562 7.632812 6.375 C 7.78125 5.175781 8.734375 4.226562 9.929688 4.078125 M 4.683594 5.949219 C 5.878906 6.097656 6.832031 7.046875 6.980469 8.246094 C 5.78125 8.097656 4.828125 7.144531 4.683594 5.949219 M 9.929688 7.789062 C 9.78125 8.984375 8.832031 9.9375 7.632812 10.085938 C 7.78125 8.890625 8.734375 7.9375 9.929688 7.789062 "/>
</clipPath>
<clipPath id="clip3">
  <path d="M 1.214844 1.273438 L 13.785156 1.273438 L 13.785156 13.84375 L 1.214844 13.84375 Z M 1.214844 1.273438 "/>
</clipPath>
<clipPath id="clip4">
  <path d="M 1.363281 7.441406 C 1.363281 10.832031 4.109375 13.578125 7.5 13.578125 C 10.890625 13.578125 13.636719 10.832031 13.636719 7.441406 C 13.636719 4.050781 10.890625 1.304688 7.5 1.304688 C 4.109375 1.304688 1.363281 4.050781 1.363281 7.441406 M 2.34375 7.441406 C 2.34375 4.597656 4.65625 2.285156 7.5 2.285156 C 10.34375 2.285156 12.65625 4.597656 12.65625 7.441406 C 12.65625 10.285156 10.34375 12.597656 7.5 12.597656 C 4.65625 12.597656 2.34375 10.285156 2.34375 7.441406 M 7 6.671875 C 6.40625 5.851562 5.441406 5.3125 4.355469 5.3125 C 4.183594 5.3125 4.046875 5.453125 4.046875 5.621094 C 4.046875 7.3125 5.347656 8.710938 7 8.863281 L 7 12.078125 C 7 12.25 7.136719 12.386719 7.304688 12.386719 C 7.476562 12.386719 7.613281 12.25 7.613281 12.078125 L 7.613281 10.707031 C 9.265625 10.550781 10.566406 9.15625 10.566406 7.460938 C 10.566406 7.292969 10.429688 7.15625 10.257812 7.15625 C 9.171875 7.15625 8.207031 7.691406 7.613281 8.511719 L 7.613281 6.992188 C 9.265625 6.839844 10.566406 5.441406 10.566406 3.75 C 10.566406 3.582031 10.429688 3.441406 10.257812 3.441406 C 8.472656 3.441406 7.015625 4.890625 7 6.671875 M 9.929688 4.078125 C 9.78125 5.273438 8.832031 6.226562 7.632812 6.375 C 7.78125 5.175781 8.734375 4.226562 9.929688 4.078125 M 4.683594 5.949219 C 5.878906 6.097656 6.832031 7.046875 6.980469 8.246094 C 5.78125 8.097656 4.828125 7.144531 4.683594 5.949219 M 9.929688 7.789062 C 9.78125 8.984375 8.832031 9.9375 7.632812 10.085938 C 7.78125 8.890625 8.734375 7.9375 9.929688 7.789062 "/>
</clipPath>
<filter id="alpha" filterUnits="objectBoundingBox" x="0%" y="0%" width="100%" height="100%">
  <feColorMatrix type="matrix" in="SourceGraphic" values="0 0 0 0 1 0 0 0 0 1 0 0 0 0 1 0 0 0 1 0"/>
</filter>
<mask id="mask0">
  <g filter="url(#alpha)">
<rect x="0" y="0" width="15" height="15" style="fill:rgb(0%,0%,0%);fill-opacity:0.898039;stroke:none;"/>
  </g>
</mask>
<clipPath id="clip6">
  <path d="M 1.246094 1.304688 L 13.753906 1.304688 L 13.753906 13.8125 L 1.246094 13.8125 Z M 1.246094 1.304688 "/>
</clipPath>
<clipPath id="clip5">
  <rect x="0" y="0" width="15" height="15"/>
</clipPath>
<g id="surface5" clip-path="url(#clip5)">
<path style=" stroke:none;fill-rule:nonzero;fill:rgb(19.607843%,19.607843%,19.607843%);fill-opacity:1;" d="M 1.246094 13.8125 L 13.753906 13.8125 L 13.753906 1.304688 L 1.246094 1.304688 Z M 1.246094 13.8125 "/>
<g clip-path="url(#clip6)" clip-rule="nonzero">
<path style=" stroke:none;fill-rule:nonzero;fill:rgb(19.607843%,19.607843%,19.607843%);fill-opacity:1;" d="M 7.5 2.519531 C 4.722656 2.519531 2.460938 4.78125 2.460938 7.558594 C 2.460938 10.335938 4.722656 12.597656 7.5 12.597656 C 10.277344 12.597656 12.539062 10.335938 12.539062 7.558594 C 12.539062 4.78125 10.277344 2.519531 7.5 2.519531 M 7.5 13.8125 C 6.65625 13.8125 5.835938 13.648438 5.066406 13.320312 C 4.320312 13.007812 3.652344 12.554688 3.078125 11.980469 C 2.503906 11.40625 2.050781 10.738281 1.738281 9.992188 C 1.410156 9.222656 1.246094 8.402344 1.246094 7.558594 C 1.246094 6.714844 1.410156 5.894531 1.738281 5.125 C 2.050781 4.378906 2.503906 3.710938 3.078125 3.136719 C 3.652344 2.5625 4.320312 2.109375 5.066406 1.796875 C 5.835938 1.46875 6.65625 1.304688 7.5 1.304688 C 8.34375 1.304688 9.164062 1.46875 9.933594 1.796875 C 10.679688 2.109375 11.347656 2.5625 11.921875 3.136719 C 12.496094 3.710938 12.949219 4.378906 13.261719 5.125 C 13.589844 5.894531 13.753906 6.714844 13.753906 7.558594 C 13.753906 8.402344 13.589844 9.222656 13.261719 9.992188 C 12.949219 10.738281 12.496094 11.40625 11.921875 11.980469 C 11.347656 12.554688 10.679688 13.007812 9.933594 13.320312 C 9.164062 13.648438 8.34375 13.8125 7.5 13.8125 "/>
</g>
</g>
<clipPath id="clip7">
  <path d="M 3 3 L 11 3 L 11 13 L 3 13 Z M 3 3 "/>
</clipPath>
<clipPath id="clip8">
  <path d="M 1.363281 7.441406 C 1.363281 10.832031 4.109375 13.578125 7.5 13.578125 C 10.890625 13.578125 13.636719 10.832031 13.636719 7.441406 C 13.636719 4.050781 10.890625 1.304688 7.5 1.304688 C 4.109375 1.304688 1.363281 4.050781 1.363281 7.441406 M 2.34375 7.441406 C 2.34375 4.597656 4.65625 2.285156 7.5 2.285156 C 10.34375 2.285156 12.65625 4.597656 12.65625 7.441406 C 12.65625 10.285156 10.34375 12.597656 7.5 12.597656 C 4.65625 12.597656 2.34375 10.285156 2.34375 7.441406 M 7 6.671875 C 6.40625 5.851562 5.441406 5.3125 4.355469 5.3125 C 4.183594 5.3125 4.046875 5.453125 4.046875 5.621094 C 4.046875 7.3125 5.347656 8.710938 7 8.863281 L 7 12.078125 C 7 12.25 7.136719 12.386719 7.304688 12.386719 C 7.476562 12.386719 7.613281 12.25 7.613281 12.078125 L 7.613281 10.707031 C 9.265625 10.550781 10.566406 9.15625 10.566406 7.460938 C 10.566406 7.292969 10.429688 7.15625 10.257812 7.15625 C 9.171875 7.15625 8.207031 7.691406 7.613281 8.511719 L 7.613281 6.992188 C 9.265625 6.839844 10.566406 5.441406 10.566406 3.75 C 10.566406 3.582031 10.429688 3.441406 10.257812 3.441406 C 8.472656 3.441406 7.015625 4.890625 7 6.671875 M 9.929688 4.078125 C 9.78125 5.273438 8.832031 6.226562 7.632812 6.375 C 7.78125 5.175781 8.734375 4.226562 9.929688 4.078125 M 4.683594 5.949219 C 5.878906 6.097656 6.832031 7.046875 6.980469 8.246094 C 5.78125 8.097656 4.828125 7.144531 4.683594 5.949219 M 9.929688 7.789062 C 9.78125 8.984375 8.832031 9.9375 7.632812 10.085938 C 7.78125 8.890625 8.734375 7.9375 9.929688 7.789062 "/>
</clipPath>
<clipPath id="clip9">
  <path d="M 3.898438 3.414062 L 10.722656 3.414062 L 10.722656 12.65625 L 3.898438 12.65625 Z M 3.898438 3.414062 "/>
</clipPath>
<clipPath id="clip10">
  <path d="M 1.363281 7.441406 C 1.363281 10.832031 4.109375 13.578125 7.5 13.578125 C 10.890625 13.578125 13.636719 10.832031 13.636719 7.441406 C 13.636719 4.050781 10.890625 1.304688 7.5 1.304688 C 4.109375 1.304688 1.363281 4.050781 1.363281 7.441406 M 2.34375 7.441406 C 2.34375 4.597656 4.65625 2.285156 7.5 2.285156 C 10.34375 2.285156 12.65625 4.597656 12.65625 7.441406 C 12.65625 10.285156 10.34375 12.597656 7.5 12.597656 C 4.65625 12.597656 2.34375 10.285156 2.34375 7.441406 M 7 6.671875 C 6.40625 5.851562 5.441406 5.3125 4.355469 5.3125 C 4.183594 5.3125 4.046875 5.453125 4.046875 5.621094 C 4.046875 7.3125 5.347656 8.710938 7 8.863281 L 7 12.078125 C 7 12.25 7.136719 12.386719 7.304688 12.386719 C 7.476562 12.386719 7.613281 12.25 7.613281 12.078125 L 7.613281 10.707031 C 9.265625 10.550781 10.566406 9.15625 10.566406 7.460938 C 10.566406 7.292969 10.429688 7.15625 10.257812 7.15625 C 9.171875 7.15625 8.207031 7.691406 7.613281 8.511719 L 7.613281 6.992188 C 9.265625 6.839844 10.566406 5.441406 10.566406 3.75 C 10.566406 3.582031 10.429688 3.441406 10.257812 3.441406 C 8.472656 3.441406 7.015625 4.890625 7 6.671875 M 9.929688 4.078125 C 9.78125 5.273438 8.832031 6.226562 7.632812 6.375 C 7.78125 5.175781 8.734375 4.226562 9.929688 4.078125 M 4.683594 5.949219 C 5.878906 6.097656 6.832031 7.046875 6.980469 8.246094 C 5.78125 8.097656 4.828125 7.144531 4.683594 5.949219 M 9.929688 7.789062 C 9.78125 8.984375 8.832031 9.9375 7.632812 10.085938 C 7.78125 8.890625 8.734375 7.9375 9.929688 7.789062 "/>
</clipPath>
<mask id="mask1">
  <g filter="url(#alpha)">
<rect x="0" y="0" width="15" height="15" style="fill:rgb(0%,0%,0%);fill-opacity:0.898039;stroke:none;"/>
  </g>
</mask>
<clipPath id="clip12">
  <path d="M 3.929688 3.441406 L 10.683594 3.441406 L 10.683594 12.621094 L 3.929688 12.621094 Z M 3.929688 3.441406 "/>
</clipPath>
<clipPath id="clip11">
  <rect x="0" y="0" width="15" height="15"/>
</clipPath>
<g id="surface8" clip-path="url(#clip11)">
<path style=" stroke:none;fill-rule:nonzero;fill:rgb(20.392157%,20.392157%,20.392157%);fill-opacity:1;" d="M 3.929688 12.621094 L 10.683594 12.621094 L 10.683594 3.441406 L 3.929688 3.441406 Z M 3.929688 12.621094 "/>
<g clip-path="url(#clip12)" clip-rule="nonzero">
<path style=" stroke:none;fill-rule:nonzero;fill:rgb(20.392157%,20.392157%,20.392157%);fill-opacity:1;" d="M 9.789062 4.335938 C 9.296875 4.429688 8.832031 4.671875 8.472656 5.03125 C 8.113281 5.390625 7.867188 5.855469 7.773438 6.351562 C 8.269531 6.257812 8.734375 6.011719 9.09375 5.652344 C 9.453125 5.292969 9.699219 4.828125 9.789062 4.335938 M 4.820312 6.207031 C 4.914062 6.699219 5.160156 7.164062 5.519531 7.523438 C 5.878906 7.882812 6.34375 8.128906 6.839844 8.222656 C 6.746094 7.726562 6.5 7.261719 6.140625 6.902344 C 5.78125 6.542969 5.316406 6.300781 4.820312 6.207031 M 9.789062 8.046875 C 9.296875 8.140625 8.832031 8.382812 8.472656 8.746094 C 8.113281 9.105469 7.867188 9.566406 7.773438 10.0625 C 8.269531 9.96875 8.734375 9.726562 9.09375 9.367188 C 9.453125 9.003906 9.699219 8.542969 9.789062 8.046875 M 7.304688 12.621094 C 7.074219 12.621094 6.882812 12.429688 6.882812 12.195312 L 6.882812 9.085938 C 6.089844 8.988281 5.359375 8.609375 4.816406 8.015625 C 4.246094 7.390625 3.929688 6.582031 3.929688 5.738281 C 3.929688 5.503906 4.121094 5.3125 4.355469 5.3125 C 4.898438 5.3125 5.4375 5.445312 5.917969 5.699219 C 6.289062 5.894531 6.625 6.160156 6.898438 6.476562 C 6.976562 5.699219 7.320312 4.980469 7.882812 4.421875 C 8.519531 3.789062 9.363281 3.441406 10.257812 3.441406 C 10.492188 3.441406 10.683594 3.632812 10.683594 3.867188 C 10.683594 4.710938 10.367188 5.519531 9.796875 6.144531 C 9.253906 6.738281 8.523438 7.117188 7.730469 7.214844 L 7.730469 8.296875 C 8.003906 7.988281 8.332031 7.730469 8.695312 7.539062 C 9.175781 7.289062 9.714844 7.15625 10.257812 7.15625 C 10.492188 7.15625 10.683594 7.34375 10.683594 7.578125 C 10.683594 8.421875 10.367188 9.234375 9.796875 9.855469 C 9.253906 10.449219 8.523438 10.828125 7.730469 10.929688 L 7.730469 12.195312 C 7.730469 12.429688 7.539062 12.621094 7.304688 12.621094 "/>
</g>
</g>
</defs>
<g id="surface1">
<g clip-path="url(#clip1)" clip-rule="nonzero">
<g clip-path="url(#clip2)" clip-rule="evenodd">
<path style=" stroke:none;fill-rule:nonzero;fill:rgb(0%,0%,0%);fill-opacity:1;" d="M 15.546875 14.328125 L -0.101562 14.328125 L -0.101562 0.640625 L 15.546875 0.640625 Z M 15.546875 14.328125 "/>
<path style=" stroke:none;fill-rule:nonzero;fill:rgb(100%,100%,100%);fill-opacity:1;" d="M 7.5 2.519531 C 4.722656 2.519531 2.460938 4.78125 2.460938 7.558594 C 2.460938 10.335938 4.722656 12.597656 7.5 12.597656 C 10.277344 12.597656 12.539062 10.335938 12.539062 7.558594 C 12.539062 4.78125 10.277344 2.519531 7.5 2.519531 M 7.5 13.8125 C 6.65625 13.8125 5.835938 13.648438 5.066406 13.320312 C 4.320312 13.007812 3.652344 12.554688 3.078125 11.980469 C 2.503906 11.40625 2.050781 10.738281 1.738281 9.992188 C 1.410156 9.222656 1.246094 8.402344 1.246094 7.558594 C 1.246094 6.714844 1.410156 5.894531 1.738281 5.125 C 2.050781 4.378906 2.503906 3.710938 3.078125 3.136719 C 3.652344 2.5625 4.320312 2.109375 5.066406 1.796875 C 5.835938 1.46875 6.65625 1.304688 7.5 1.304688 C 8.34375 1.304688 9.164062 1.46875 9.933594 1.796875 C 10.679688 2.109375 11.347656 2.5625 11.921875 3.136719 C 12.496094 3.710938 12.949219 4.378906 13.261719 5.125 C 13.589844 5.894531 13.753906 6.714844 13.753906 7.558594 C 13.753906 8.402344 13.589844 9.222656 13.261719 9.992188 C 12.949219 10.738281 12.496094 11.40625 11.921875 11.980469 C 11.347656 12.554688 10.679688 13.007812 9.933594 13.320312 C 9.164062 13.648438 8.34375 13.8125 7.5 13.8125 "/>
<path style=" stroke:none;fill-rule:nonzero;fill:rgb(19.607843%,19.607843%,19.607843%);fill-opacity:1;" d="M 1.214844 1.273438 L 1.214844 13.84375 L 13.785156 13.84375 L 13.785156 1.273438 Z M 1.214844 1.273438 "/>
</g>
</g>
<g clip-path="url(#clip3)" clip-rule="nonzero">
<g clip-path="url(#clip4)" clip-rule="evenodd">
<use xlink:href="#surface5" mask="url(#mask0)"/>
</g>
</g>
<g clip-path="url(#clip7)" clip-rule="nonzero">
<g clip-path="url(#clip8)" clip-rule="evenodd">
<path style=" stroke:none;fill-rule:nonzero;fill:rgb(100%,100%,100%);fill-opacity:1;" d="M 9.789062 4.335938 C 9.296875 4.429688 8.832031 4.671875 8.472656 5.03125 C 8.113281 5.390625 7.867188 5.855469 7.773438 6.351562 C 8.269531 6.257812 8.734375 6.011719 9.09375 5.652344 C 9.453125 5.292969 9.699219 4.828125 9.789062 4.335938 M 4.820312 6.207031 C 4.914062 6.699219 5.160156 7.164062 5.519531 7.523438 C 5.878906 7.882812 6.34375 8.128906 6.839844 8.222656 C 6.746094 7.726562 6.5 7.261719 6.140625 6.902344 C 5.78125 6.542969 5.316406 6.300781 4.820312 6.207031 M 9.789062 8.046875 C 9.296875 8.140625 8.832031 8.382812 8.472656 8.746094 C 8.113281 9.105469 7.867188 9.566406 7.773438 10.0625 C 8.269531 9.96875 8.734375 9.726562 9.09375 9.367188 C 9.453125 9.003906 9.699219 8.542969 9.789062 8.046875 M 7.304688 12.621094 C 7.074219 12.621094 6.882812 12.429688 6.882812 12.195312 L 6.882812 9.085938 C 6.089844 8.988281 5.359375 8.609375 4.816406 8.015625 C 4.246094 7.390625 3.929688 6.582031 3.929688 5.738281 C 3.929688 5.503906 4.121094 5.3125 4.355469 5.3125 C 4.898438 5.3125 5.4375 5.445312 5.917969 5.699219 C 6.289062 5.894531 6.625 6.160156 6.898438 6.476562 C 6.976562 5.699219 7.320312 4.980469 7.882812 4.421875 C 8.519531 3.789062 9.363281 3.441406 10.257812 3.441406 C 10.492188 3.441406 10.683594 3.632812 10.683594 3.867188 C 10.683594 4.710938 10.367188 5.519531 9.796875 6.144531 C 9.253906 6.738281 8.523438 7.117188 7.730469 7.214844 L 7.730469 8.296875 C 8.003906 7.988281 8.332031 7.730469 8.695312 7.539062 C 9.175781 7.289062 9.714844 7.15625 10.257812 7.15625 C 10.492188 7.15625 10.683594 7.34375 10.683594 7.578125 C 10.683594 8.421875 10.367188 9.234375 9.796875 9.855469 C 9.253906 10.449219 8.523438 10.828125 7.730469 10.929688 L 7.730469 12.195312 C 7.730469 12.429688 7.539062 12.621094 7.304688 12.621094 "/>
<path style=" stroke:none;fill-rule:nonzero;fill:rgb(20.392157%,20.392157%,20.392157%);fill-opacity:1;" d="M 3.898438 3.414062 L 3.898438 12.65625 L 10.722656 12.65625 L 10.722656 3.414062 Z M 3.898438 3.414062 "/>
</g>
</g>
<g clip-path="url(#clip9)" clip-rule="nonzero">
<g clip-path="url(#clip10)" clip-rule="evenodd">
<use xlink:href="#surface8" mask="url(#mask1)"/>
</g>
</g>
</g>
</svg>
