<?xml version="1.0" encoding="UTF-8" standalone="no"?> <!-- Created with Vectornator for iOS (http://vectornator.io/) --><!DOCTYPE svg PUBLIC "-//W3C//DTD SVG 1.1//EN" "http://www.w3.org/Graphics/SVG/1.1/DTD/svg11.dtd">
<svg style="fill-rule:evenodd;clip-rule:evenodd;stroke-linecap:round;stroke-linejoin:round;" xmlns:vectornator="http://vectornator.io" xmlns:xlink="http://www.w3.org/1999/xlink" xmlns="http://www.w3.org/2000/svg" xml:space="preserve" version="1.1" viewBox="0 0 472.646 589">
<metadata>
<vectornator:setting key="DynamicGuides" value="1"/>
<vectornator:setting key="CMYKEnabledKey" value="0"/>
<vectornator:setting key="Units" value="Points"/>
<vectornator:setting key="RulersVisible" value="1"/>
<vectornator:setting key="SnapToGuides" value="1"/>
<vectornator:setting key="GridSpacing" value="36"/>
</metadata>
<defs>
<path d="M0+0L472.646+0L472.646+589L0+589L0+0Z" id="Mask"/>
</defs>
<g id="Untitled" vectornator:layerName="Untitled">
<path d="M438.26+269.704L431.407+280.358L472.645+295.31L472.645+291.106L446.023+267.188L438.26+269.704Z" opacity="1" fill="#d1d3d3"/>
<path d="M425.612+299.312L436.32+298.817L456.732+297.318L472.646+295.311L431.408+280.359L419.107+275.902L425.612+299.312Z" opacity="1" fill="#8a8c8c"/>
<path d="M438.26+269.704L431.407+280.358L419.107+275.901L426.428+273.532L438.26+269.704Z" opacity="1" fill="#aba89e"/>
<path d="M425.612+299.312L361.204+299.312L398.039+282.487L425.612+299.312Z" opacity="1" fill="#8a8c8c"/>
<path d="M426.428+273.532L413.377+264.257L409.403+261.432L437.216+239.682L446.024+267.188L438.26+269.704L426.428+273.532Z" opacity="1" fill="#99999a"/>
<path d="M411.397+268.192L407.783+273.238L402.389+264.618L402.456+264.551L411.397+268.192Z" opacity="1" fill="#ffa400"/>
<path d="M409.403+261.433L413.378+264.257L411.397+268.192L402.456+264.552L406.632+260.804L409.403+261.433Z" opacity="1" fill="#ff5000"/>
<path d="M437.216+239.682L409.403+261.432L399.685+219.859L437.015+239.066L437.216+239.682Z" opacity="1" fill="#8a8c8c"/>
<path d="M407.783+273.238L411.397+268.192L413.378+264.257L426.429+273.532L419.107+275.902L407.14+274.135L407.783+273.238Z" opacity="1" fill="#3e4543"/>
<path d="M402.389+264.618L407.783+273.238L407.14+274.135L396.178+270.2L402.389+264.618Z" opacity="1" fill="#80622d"/>
<path d="M407.14+274.135L419.107+275.902L398.186+282.42L397.691+282.286L397.677+282.273L358.848+271.458L396.178+270.2L407.14+274.135Z" opacity="1" fill="#d3ccbd"/>
<path d="M402.455+264.552L402.389+264.619L398.922+259.064L406.632+260.804L402.455+264.552Z" opacity="1" fill="#ef7622"/>
<path d="M398.922+259.064L402.389+264.619L396.178+270.2L395.429+262.557L398.922+259.064Z" opacity="1" fill="#d49000"/>
<path d="M399.685+219.859L409.403+261.433L406.632+260.803L398.922+259.064L391.989+257.484L398.641+219.926L399.685+219.859Z" opacity="1" fill="#d8d1ca"/>
<path d="M398.641+219.926L391.989+257.484L374.776+221.359L398.641+219.926Z" opacity="1" fill="#bcb9af"/>
<path d="M398.186+282.42L419.107+275.901L425.612+299.312L398.039+282.487L398.186+282.42Z" opacity="1" fill="#d8d1ca"/>
<path d="M398.038+282.487L361.203+299.312L360.373+299.312L357.59+271.498L358.848+271.458L397.677+282.273L397.69+282.286L398.038+282.487Z" opacity="1" fill="#333e48"/>
<path d="M360.373+299.312L392.845+334.5L386.487+341.648L386.166+342.947L385.952+343.094L331.944+314.531L360.373+299.312Z" opacity="1" fill="#d1d3d3"/>
<path d="M374.776+221.359L391.989+257.484L357.617+270.963L374.776+221.359Z" opacity="1" fill="#7d868c"/>
<path d="M386.113+343.174L379.769+368.766L368.566+406.391L329.402+383.208L385.953+343.094L386.113+343.174Z" opacity="1" fill="#555759"/>
<path d="M385.952+343.094L329.401+383.208L331.944+314.531L385.952+343.094Z" opacity="1" fill="#99999a"/>
<path d="M356.399+270.775L324.235+265.689L343.214+246.709L348.649+241.275L374.776+221.358L357.617+270.962L356.399+270.775Z" opacity="1" fill="#5c6670"/>
<path d="M368.566+406.391L367.468+407.984L367.455+407.984L295.23+409.094L295.216+409.094L295.083+408.814L294.641+407.876L329.402+383.208L368.566+406.391Z" opacity="1" fill="#d1d3d3"/>
<path d="M367.454+407.984L343.147+443.025L319.228+456.437L295.229+409.094L367.454+407.984Z" opacity="1" fill="#7d868c"/>
<path d="M361.203+299.312L425.611+299.312L412.895+310.529L404.195+321.732L392.845+334.5L360.373+299.312L361.203+299.312Z" opacity="1" fill="#333e48"/>
<path d="M357.59+271.498L360.373+299.311L331.944+314.53L324.235+265.689L356.399+270.775L357.549+271.096L357.59+271.498Z" opacity="1" fill="#bcb9af"/>
<path d="M357.59+271.498L358.848+271.458L357.55+271.097L357.59+271.498Z" opacity="1" fill="#383a35"/>
<path d="M391.989+257.484L398.923+259.064L395.429+262.557L396.178+270.2L358.848+271.458L357.55+271.096L356.399+270.775L357.617+270.963L391.989+257.484Z" opacity="1" fill="#333e48"/>
<g opacity="1" vectornator:mask="#Mask">
<clipPath id="ClipPath">
<use xlink:href="#Mask" fill="none" overflow="visible"/>
</clipPath>
<g clip-path="url(#ClipPath)">
<g opacity="1">
<path d="M368.07+495.066C368.566+496.565+367.562+501.771+367.562+501.771L361.365+509.467L363.064+502.762L365.567+497.26L362.569+489.564L348.154+483.354L351.861+490.555L355.863+501.771L351.352+505.265L344.647+513.978L346.655+505.773L351.352+499.763C351.352+499.763+348.649+494.062+348.154+492.054C347.645+490.059+338.945+482.845+338.945+482.845L336.442+478.348L350.188+476.42L350.202+476.42L369.569+481.855L369.569+492.054L367.066+485.348L358.353+482.35L365.567+488.052C365.567+488.052+367.562+493.553+368.07+495.066" opacity="1" fill="#333e48"/>
<path d="M350.188+476.42L336.442+478.348L313.527+463.932L345.651+475.149L350.188+476.42Z" opacity="1" fill="#7f7f73"/>
<path d="M336.937+129.485L344.647+155.612L314.892+239.348L304.813+267.697L308.575+221.105L310.663+195.218L312.644+170.711L313.527+171.581L313.192+169.774L336.937+129.485Z" opacity="1" fill="#4f5858"/>
<path d="M344.647+155.612L336.937+219.364L324.235+265.689L314.892+239.347L344.647+155.612Z" opacity="1" fill="#4b4f54"/>
<path d="M336.937+219.364L343.214+246.709L324.235+265.689L336.937+219.364Z" opacity="1" fill="#3e4543"/>
<path d="M336.937+129.485L313.192+169.774L307.611+139.711L307.611+139.698L308.267+102.314C315.026+108.752+319.336+113.008+319.738+113.785C321.932+117.987+336.937+129.485+336.937+129.485" opacity="1" fill="#7d868c"/>
<path d="M336.442+478.348L322.241+474.64L302.819+466.141L313.527+463.932L336.442+478.348Z" opacity="1" fill="#d3ccbd"/>
<path d="M331.945+314.53L329.402+383.208L278.472+373.972L267.697+351.351L331.289+314.905L331.945+314.53Z" opacity="1" fill="#5c6670"/>
<path d="M330.927+314.289L331.288+314.905L267.697+351.351L299.539+313.941L300.316+313.031L330.927+314.289Z" opacity="1" fill="#5c6670"/>
<path d="M329.402+383.208L294.641+407.876L278.472+373.973L329.402+383.208Z" opacity="1" fill="#99999a"/>
<path d="M320.728+495.561L322.736+486.057L336.442+478.348L338.945+482.845L325.734+488.56L324.235+494.557L326.738+501.771L320.728+495.561Z" opacity="1" fill="#707c7c"/>
<path d="M314.892+239.347L324.235+265.689L304.813+267.696L314.892+239.347Z" opacity="1" fill="#5c6670"/>
<path d="M302.337+292.592L304.813+267.696L324.234+265.689L300.449+311.692L302.337+292.592Z" opacity="1" fill="#3e4543"/>
<path d="M319.229+456.437L313.527+463.932L302.819+466.141L289.528+459.395L319.229+456.437Z" opacity="1" fill="#707c7c"/>
<path d="M311.533+525.676L305.817+515.477L297.813+508.972L319.684+513.71L323.231+516.976C323.231+516.976+327.233+522.678+327.742+525.181C328.237+527.684+329.241+533.386+329.241+535.394C329.241+537.388+321.237+543.599+321.237+543.599L325.239+537.897L322.736+525.676L312.523+518.475C312.523+518.475+317.529+531.392+318.024+533.386C318.533+535.394+316.03+540.092+314.022+540.601C312.095+541.082+306.206+546.262+305.831+546.583L313.527+535.394L311.533+525.676Z" opacity="1" fill="#333e48"/>
<path d="M319.684+513.71L297.813+508.972L296.488+496.483L296.609+496.564L303.314+500.272L314.022+508.477L319.684+513.71Z" opacity="1" fill="#707c7c"/>
<path d="M312.644+170.71L310.663+195.218L199.247+122.284L169.319+98.3652L259.171+134.156L311.854+169.947L311.88+169.96L312.644+170.71Z" opacity="1" fill="#909c9c"/>
<path d="M311.854+169.947L259.171+134.156L199.943+93.908L176.828+66.241L167.124+54.034L167.124+45.829L172.825+41.827L197.734+58.237L311.854+169.947Z" opacity="1" fill="#7d868c"/>
<path d="M310.662+195.218L308.574+221.104L209.954+153.671L208.951+153.404L176.827+129.485L175.328+117.786L180.026+114.28L199.246+122.284L310.662+195.218Z" opacity="1" fill="#7d868c"/>
<path d="M308.267+102.314L307.611+139.698L307.611+139.711L307.584+141.464L199.568+24.2927L308.267+102.314Z" opacity="1" fill="#909c9c"/>
<path d="M308.267+102.314L199.568+24.2927L188.031+5.20669L191.738-0.000312805L200.746+2.99869C200.746+2.99869+278.405+73.8707+308.267+102.314" opacity="1" fill="#5c6670"/>
<path d="M200.238+25.4177L199.569+24.2927L307.585+141.464L307.611+139.711L313.192+169.773L312.644+170.711L311.881+169.961L311.854+169.947L197.735+58.2367L178.327+31.1197L176.319+21.4157L183.533+15.4057L200.238+25.4177Z" opacity="1" fill="#4f5858"/>
<path d="M304.653+267.603L220.663+190.238L209.446+178.527L203.664+168.568L203.678+168.568L308.575+221.104L304.813+267.696L304.653+267.603Z" opacity="1" fill="#4b4f54"/>
<path d="M304.813+267.697L302.337+292.593L251.783+239.576L304.653+267.604L304.813+267.697Z" opacity="1" fill="#3e4543"/>
<path d="M304.653+267.603L251.783+239.575L223.862+210.65L215.162+197.439L214.653+188.739L220.663+190.238L304.653+267.603Z" opacity="1" fill="#383a35"/>
<path d="M330.927+314.289L300.316+313.031L300.449+311.692L324.235+265.689L331.945+314.53L331.288+314.905L330.927+314.289Z" opacity="1" fill="#555759"/>
<path d="M300.316+313.031L299.54+313.941L298.134+313.887L300.316+313.031Z" opacity="1" fill="#a3402a"/>
<path d="M300.316+313.031L298.134+313.887L209.553+310.474L233.794+255.556L300.316+313.031Z" opacity="1" fill="#5c6670"/>
<path d="M299.539+313.942L267.696+351.352L225.2+370.399L222.657+368.07L203.45+366.062L195.245+361.645L248.275+333.444L298.134+313.888L299.539+313.942Z" opacity="1" fill="#555759"/>
<path d="M298.134+313.888L248.276+333.444L209.553+310.489L209.553+310.475L298.134+313.888Z" opacity="1" fill="#c3c6c8"/>
<path d="M294.614+503.27L281.778+487.088L296.488+496.484L297.813+508.972L292.111+517.98L291.107+526.68L296.609+536.893L288.604+530.883L286.41+519.185L289.608+512.479L294.614+503.27Z" opacity="1" fill="#3e4543"/>
<path d="M296.475+496.377L296.488+496.483L281.778+487.088L280.399+473.141L296.475+496.377Z" opacity="1" fill="#333e48"/>
<path d="M289.019+459.421L288.43+459.315L295.216+409.094L295.23+409.094L319.229+456.437L289.528+459.395L289.113+459.435L289.033+459.421L289.019+459.421Z" opacity="1" fill="#333e48"/>
<path d="M295.216+409.094L288.43+459.315L205.444+444.725L295.216+409.094Z" opacity="1" fill="#a0a1a2"/>
<path d="M295.216+409.094L205.444+444.725L254.299+386.903L295.216+409.094Z" opacity="1" fill="#8a8c8c"/>
<path d="M295.216+409.094L254.299+386.903L278.472+373.973L294.641+407.876L294.613+407.89L295.082+408.814L295.216+409.094Z" opacity="1" fill="#5c6670"/>
<path d="M289.113+459.435L289.528+459.395L302.819+466.141L280.399+473.141L289.113+459.435Z" opacity="1" fill="#5c6670"/>
<path d="M289.113+459.435L280.399+473.141L281.778+487.088L280.399+485.348L269.692+475.149L289.113+459.435Z" opacity="1" fill="#d3ccbd"/>
<path d="M289.113+459.435L269.692+475.149L263.495+476.849L250.043+459.595L288.418+459.421L289.019+459.421L289.033+459.421L289.113+459.435Z" opacity="1" fill="#7d868c"/>
<path d="M288.43+459.315L288.417+459.421L250.042+459.595L250.002+459.595L211.333+459.756L211.32+459.756L205.444+444.725L288.43+459.315Z" opacity="1" fill="#5c6670"/>
<path d="M267.697+351.352L278.472+373.973L254.3+386.903L267.697+351.352Z" opacity="1" fill="#333e48"/>
<path d="M252.158+478.535L263.495+476.848C263.495+476.848+233.366+547.573+227.021+563.073L252.158+478.535Z" opacity="1" fill="#555759"/>
<path d="M199.943+93.9079L259.172+134.156L169.319+98.3649L165.116+88.6609L167.124+81.6609L174.325+81.6609L200.746+94.8719L199.943+93.9079Z" opacity="1" fill="#707c7c"/>
<path d="M254.299+386.902L205.444+444.724L214.653+405.895L224.999+371.081L225.254+371.161L254.299+386.902Z" opacity="1" fill="#333e48"/>
<path d="M252.158+478.535L227.021+563.073C226.325+564.786+225.924+565.817+225.87+566.018C225.361+568.013+215.162+577.222+215.162+577.222L204.95+577.717L252.158+478.535Z" opacity="1" fill="#7d868c"/>
<path d="M250.002+459.595L250.042+459.595L263.494+476.849L252.157+478.535L229.858+481.855L250.002+459.595Z" opacity="1" fill="#5c6670"/>
<path d="M250.002+459.595L229.858+481.855L223.313+477.21L216.152+472.137L211.32+459.77L211.333+459.756L250.002+459.595Z" opacity="1" fill="#8a8c8c"/>
<path d="M248.276+333.444L195.245+361.645L195.232+361.645L193.237+360.561L185.836+352.25L209.553+310.489L248.276+333.444Z" opacity="1" fill="#7d868c"/>
<path d="M227.864+250.43L233.794+255.556L179.465+251.126L159.106+249.466L158.049+249.185L111.041+201.482L202.567+229.362L227.864+250.43Z" opacity="1" fill="#bcb9af"/>
<path d="M229.858+481.855L202.647+580.367C200.465+582.777+197.293+585.935+195.74+585.935C193.237+585.935+180.535+588.424+180.535+588.424L175.114+588.599L229.858+481.855Z" opacity="1" fill="#5c6670"/>
<path d="M229.858+481.855L175.114+588.599L163.228+589.001L153.403+587.929L151.49+585.039L223.313+477.21L229.858+481.855Z" opacity="1" fill="#555759"/>
<path d="M222.55+210.209L227.863+250.431L202.566+229.363L149.937+185.527L222.55+210.209Z" opacity="1" fill="#5c6670"/>
<path d="M225.254+371.161L225+371.081L225.2+370.398L267.697+351.351L254.299+386.902L225.254+371.161Z" opacity="1" fill="#8a8a8d"/>
<path d="M223.862+210.651L251.783+239.576L302.338+292.593L300.45+311.693L300.316+313.032L233.794+255.557L227.864+250.431L222.55+210.209L223.862+210.651Z" opacity="1" fill="#555759"/>
<path d="M223.313+477.21L151.49+585.038L142.696+585.935L131.493+581.719L127.491+572.215L223.313+477.21Z" opacity="1" fill="#8a8c8c"/>
<path d="M223.313+477.21L127.491+572.215L211.32+459.77L216.152+472.137L223.313+477.21Z" opacity="1" fill="#5c6670"/>
<path d="M211.333+459.756L211.32+459.77L211.32+459.756L211.333+459.756Z" opacity="1" fill="#7d868c"/>
<path d="M211.32+459.756L211.32+459.77L110.371+555.872L148.906+509.467L205.444+444.725L211.32+459.756Z" opacity="1" fill="#99999a"/>
<path d="M211.32+459.77L127.49+572.215L117.787+573.714L108.578+568.013L109.582+556.81L110.344+555.886L110.371+555.873L211.32+459.77Z" opacity="1" fill="#7d868c"/>
<path d="M233.793+255.557L209.553+310.475L209.54+310.475L209.178+310.261L179.464+251.126L233.793+255.557Z" opacity="1" fill="#7d868c"/>
<path d="M209.54+310.475L209.553+310.475L209.553+310.489L185.835+352.249L185.032+351.352L169.319+351.861L163.122+347.859L156.415+341.153L151.41+333.444L152.788+332.895L209.54+310.475Z" opacity="1" fill="#99999a"/>
<path d="M209.178+310.261L209.539+310.475L152.787+332.895L168.448+286.115L209.178+310.261Z" opacity="1" fill="#5c6670"/>
<path d="M204.949+577.717C204.949+577.717+203.985+578.895+202.647+580.366L229.858+481.855L252.157+478.535L204.949+577.717Z" opacity="1" fill="#949a90"/>
<path d="M202.941+167.324L202.446+152.908L208.951+153.404L209.955+153.671L308.574+221.104L203.677+168.569L203.664+168.569L202.941+167.324Z" opacity="1" fill="#3e4543"/>
<path d="M149.937+185.527L202.566+229.362L111.041+201.482L36.1253+155.117L149.923+185.527L149.937+185.527Z" opacity="1" fill="#d1d3d3"/>
<path d="M168.449+286.115L167.164+286.115L86.1585+286.115C86.1585+286.115+57.5415+270.2+57.0325+268.688C56.5375+267.189+52.0405+257.485+52.0405+257.485L53.0315+250.98L133.929+269.277L135.361+269.598L168.449+286.115Z" opacity="1" fill="#d1d3d3"/>
<path d="M168.449+286.115L152.788+332.895L151.41+333.444L139.203+332.44L129.499+328.946L123.288+322.227L120.986+312.858L167.164+286.115L168.449+286.115Z" opacity="1" fill="#99999a"/>
<path d="M167.163+286.115L120.985+312.858L120.785+312.028L94.8714+308.521L88.6614+298.817L86.1584+286.115L167.163+286.115Z" opacity="1" fill="#5c6670"/>
<path d="M111.041+201.482L158.048+249.186L156.309+248.717L35.7248+187.602L18.2038+173.32L4.0018+154.608L0.495804+143.204L2.9988+137.703L15.7008+144.904L36.1258+155.117L111.041+201.482Z" opacity="1" fill="#333e48"/>
<path d="M133.929+269.276L53.031+250.979L30.116+244.273L153.217+247.901L156.308+248.717L158.048+249.186L159.106+249.466L133.929+269.276Z" opacity="1" fill="#5c6670"/>
<path d="M133.929+269.276L159.106+249.466L179.464+251.126L209.179+310.261L168.449+286.114L135.361+269.597L133.929+269.276Z" opacity="1" fill="#99999a"/>
<path d="M149.924+185.527L36.1256+155.117L9.7036+122.284L8.6996+113.784L12.2066+109.582L54.0346+141.196C54.0346+141.196+108.578+167.819+111.576+169.827C114.575+171.821+136.7+181.03+136.7+181.03L149.924+185.527Z" opacity="1" fill="#99999a"/>
<path d="M153.217+247.901L38.9766+217.464L40.1276+217.651L11.7116+202.941L2.9986+190.239L-0.000396729+179.531L4.00259+175.328L37.1156+188.74L35.7246+187.602L156.309+248.717L153.217+247.901Z" opacity="1" fill="#99999a"/>
<path d="M38.9632+217.464L38.9772+217.464L153.216+247.901L30.1162+244.274L18.7122+232.575L14.7102+218.856L16.2092+213.649L38.9632+217.464Z" opacity="1" fill="#333e48"/>
</g>
</g>
</g>
</g>
</svg>
