<?xml version="1.0" encoding="UTF-8"?>
<svg xmlns="http://www.w3.org/2000/svg" xmlns:xlink="http://www.w3.org/1999/xlink" width="15px" height="15px" viewBox="0 0 15 15" version="1.1">
<g id="surface1">
<path style=" stroke:none;fill-rule:nonzero;fill:rgb(81.568627%,81.176471%,81.176471%);fill-opacity:1;" d="M 3.128906 2.40625 L 11.730469 2.40625 C 12.167969 2.40625 12.523438 2.78125 12.523438 3.246094 L 12.523438 11.753906 C 12.523438 12.21875 12.167969 12.59375 11.730469 12.59375 L 3.128906 12.59375 C 2.6875 12.59375 2.332031 12.21875 2.332031 11.753906 L 2.332031 3.246094 C 2.332031 2.78125 2.6875 2.40625 3.128906 2.40625 Z M 3.128906 2.40625 "/>
<path style=" stroke:none;fill-rule:nonzero;fill:rgb(23.137255%,23.137255%,23.137255%);fill-opacity:1;" d="M 4.773438 9.8125 L 4.773438 6.101562 L 3.042969 6.101562 L 3.042969 5.175781 L 7.699219 5.175781 L 7.699219 6.101562 L 5.96875 6.101562 L 5.96875 9.8125 C 5.96875 9.8125 4.773438 9.8125 4.773438 9.8125 Z M 4.773438 9.8125 "/>
<path style=" stroke:none;fill-rule:nonzero;fill:rgb(23.137255%,23.137255%,23.137255%);fill-opacity:1;" d="M 8.203125 9.308594 L 10.804688 9.308594 C 11.15625 9.308594 11.296875 9.0625 11.296875 8.660156 C 11.296875 8.414062 11.246094 8.167969 10.777344 8.019531 L 8.9375 7.410156 C 8.378906 7.222656 8.136719 6.90625 8.136719 6.261719 C 8.136719 5.601562 8.457031 5.175781 9.195312 5.175781 L 11.71875 5.175781 L 11.71875 5.679688 L 9.308594 5.679688 C 8.957031 5.679688 8.785156 5.84375 8.785156 6.277344 C 8.785156 6.527344 8.808594 6.773438 9.222656 6.910156 L 10.980469 7.496094 C 11.597656 7.699219 11.945312 7.933594 11.945312 8.660156 C 11.945312 9.289062 11.695312 9.8125 10.980469 9.8125 L 8.203125 9.8125 Z M 8.203125 9.308594 "/>
</g>
</svg>
