<?xml version="1.0" encoding="UTF-8"?>
<svg xmlns="http://www.w3.org/2000/svg" xmlns:xlink="http://www.w3.org/1999/xlink" width="15px" height="15px" viewBox="0 0 15 15" version="1.1">
<g id="surface1">
<path style=" stroke:none;fill-rule:nonzero;fill:rgb(13.72549%,13.333333%,13.333333%);fill-opacity:1;" d="M 7.433594 1.984375 C 5.949219 1.984375 4.746094 3.1875 4.746094 4.671875 L 4.746094 5.679688 C 4.222656 5.777344 3.699219 5.902344 3.699219 6.066406 L 3.699219 11.324219 C 3.699219 11.324219 3.699219 11.472656 3.863281 11.539062 C 4.457031 11.78125 6.785156 12.605469 7.324219 12.792969 C 7.390625 12.820312 7.410156 12.820312 7.429688 12.820312 C 7.453125 12.820312 7.464844 12.820312 7.535156 12.792969 C 8.070312 12.605469 10.40625 11.78125 11 11.539062 C 11.152344 11.476562 11.15625 11.332031 11.15625 11.332031 L 11.15625 6.066406 C 11.15625 5.902344 10.640625 5.769531 10.117188 5.679688 L 10.117188 4.671875 C 10.125 3.1875 8.914062 1.984375 7.433594 1.984375 Z M 7.433594 3.269531 C 8.3125 3.269531 8.839844 3.796875 8.839844 4.675781 L 8.839844 5.550781 C 7.859375 5.480469 7.019531 5.480469 6.03125 5.550781 L 6.03125 4.675781 C 6.03125 3.796875 6.558594 3.269531 7.433594 3.269531 Z M 7.429688 6.839844 C 8.652344 6.839844 9.675781 6.933594 9.675781 7.105469 L 9.675781 10.386719 C 9.675781 10.4375 9.671875 10.445312 9.625 10.460938 C 9.582031 10.480469 7.542969 11.21875 7.542969 11.21875 C 7.542969 11.21875 7.457031 11.242188 7.433594 11.242188 C 7.410156 11.242188 7.328125 11.210938 7.328125 11.210938 C 7.328125 11.210938 5.285156 10.476562 5.242188 10.457031 C 5.199219 10.4375 5.191406 10.429688 5.191406 10.378906 L 5.191406 7.097656 C 5.179688 6.929688 6.207031 6.839844 7.429688 6.839844 Z M 7.429688 6.839844 "/>
</g>
</svg>
