<?xml version="1.0" encoding="UTF-8"?>
<svg xmlns="http://www.w3.org/2000/svg" xmlns:xlink="http://www.w3.org/1999/xlink" width="14px" height="14px" viewBox="0 0 14 14" version="1.1">
<g id="surface1">
<path style=" stroke:none;fill-rule:nonzero;fill:rgb(54.11765%,54.11765%,54.11765%);fill-opacity:1;" d="M 9.695312 9.898438 C 9.050781 10.582031 8.230469 10.972656 7.386719 11.074219 L 6.589844 12.925781 C 8.144531 13.027344 9.738281 12.453125 10.929688 11.199219 C 13.007812 9.007812 13.121094 5.527344 11.269531 3.195312 L 10.027344 4.5 C 11.203125 6.109375 11.09375 8.429688 9.695312 9.902344 Z M 9.695312 9.898438 "/>
<path style=" stroke:none;fill-rule:nonzero;fill:rgb(68.235295%,68.235295%,68.235295%);fill-opacity:1;" d="M 3.148438 6.117188 C 3.304688 5.375 3.652344 4.675781 4.195312 4.101562 C 5.605469 2.609375 7.84375 2.507812 9.367188 3.792969 L 10.605469 2.488281 C 8.394531 0.488281 5.058594 0.59375 2.964844 2.800781 C 1.902344 3.921875 1.355469 5.375 1.320312 6.839844 Z M 3.148438 6.117188 "/>
<path style=" stroke:none;fill-rule:nonzero;fill:rgb(100%,100%,100%);fill-opacity:1;" d="M 1.691406 7.960938 L 4.695312 9 L 5.511719 12.414062 L 8.371094 5.546875 Z M 1.691406 7.960938 "/>
</g>
</svg>
