<?xml version="1.0" encoding="UTF-8"?>
<svg xmlns="http://www.w3.org/2000/svg" xmlns:xlink="http://www.w3.org/1999/xlink" width="14px" height="14px" viewBox="0 0 14 14" version="1.1">
<g id="surface1">
<path style=" stroke:none;fill-rule:nonzero;fill:#7a7a7a;fill-opacity:1;" d="M 6.996094 1.132812 C 10.234375 1.132812 12.859375 3.757812 12.859375 6.996094 C 12.859375 10.234375 10.234375 12.859375 6.996094 12.859375 C 3.757812 12.859375 1.132812 10.234375 1.132812 6.996094 C 1.132812 3.757812 3.757812 1.132812 6.996094 1.132812 Z M 6.996094 1.132812 "/>
<path style=" stroke:none;fill-rule:nonzero;fill:rgb(100%,100%,100%);fill-opacity:1;" d="M 6.996094 9.054688 C 5.859375 9.054688 4.9375 8.132812 4.9375 6.996094 C 4.9375 5.859375 5.859375 4.933594 6.996094 4.933594 C 8.015625 4.933594 8.863281 5.675781 9.027344 6.652344 L 11.101562 6.652344 C 10.925781 4.535156 9.15625 2.871094 6.996094 2.871094 C 4.71875 2.871094 2.871094 4.71875 2.871094 6.996094 C 2.871094 9.269531 4.71875 11.117188 6.996094 11.117188 C 9.15625 11.117188 10.925781 9.453125 11.101562 7.339844 L 9.023438 7.339844 C 8.863281 8.3125 8.015625 9.054688 6.996094 9.054688 Z M 6.996094 9.054688 "/>
</g>
</svg>
