<?xml version="1.0" encoding="UTF-8"?>
<svg xmlns="http://www.w3.org/2000/svg" xmlns:xlink="http://www.w3.org/1999/xlink" width="14px" height="14px" viewBox="0 0 14 14" version="1.1">
<defs>
<clipPath id="clip1">
  <path d="M 1.398438 1.339844 L 12.601562 1.339844 L 12.601562 12.660156 L 1.398438 12.660156 Z M 1.398438 1.339844 "/>
</clipPath>
<clipPath id="clip2">
  <path d="M 2 3 L 12 3 L 12 12.660156 L 2 12.660156 Z M 2 3 "/>
</clipPath>
<clipPath id="clip3">
  <path d="M 2 6 L 12 6 L 12 12.660156 L 2 12.660156 Z M 2 6 "/>
</clipPath>
</defs>
<g id="surface1">
<g clip-path="url(#clip1)" clip-rule="nonzero">
<path style=" stroke:none;fill-rule:nonzero;fill:rgb(77.254903%,77.254903%,77.254903%);fill-opacity:1;" d="M 12.601562 6.957031 C 12.613281 10.070312 10.117188 12.605469 7.027344 12.621094 C 3.933594 12.636719 1.414062 10.121094 1.398438 7.007812 C 1.386719 3.890625 3.882812 1.355469 6.976562 1.339844 C 10.066406 1.328125 12.585938 3.839844 12.601562 6.957031 Z M 12.601562 6.957031 "/>
</g>
<g clip-path="url(#clip2)" clip-rule="nonzero">
<path style=" stroke:none;fill-rule:nonzero;fill:rgb(33.725491%,33.725491%,33.725491%);fill-opacity:1;" d="M 9.839844 4.960938 C 9.433594 4.84375 9.011719 4.675781 8.585938 4.507812 C 8.5625 4.398438 8.464844 4.265625 8.273438 4.101562 C 7.996094 3.855469 7.472656 3.863281 7.019531 3.96875 C 6.519531 3.851562 6.027344 3.808594 5.554688 3.925781 C 1.683594 5 3.878906 7.621094 2.457031 10.253906 C 2.65625 10.6875 4.890625 12.761719 7.992188 12.53125 C 7.992188 12.53125 6.914062 9.921875 9.347656 8.667969 C 11.324219 7.648438 12.75 5.761719 9.839844 4.960938 Z M 9.839844 4.960938 "/>
</g>
<path style=" stroke:none;fill-rule:nonzero;fill:rgb(100%,100%,100%);fill-opacity:1;" d="M 7.289062 5.589844 C 7.289062 6.195312 6.804688 6.679688 6.207031 6.679688 C 5.609375 6.679688 5.125 6.195312 5.125 5.589844 C 5.125 4.988281 5.609375 4.5 6.207031 4.5 C 6.804688 4.5 7.289062 4.988281 7.289062 5.589844 Z M 7.289062 5.589844 "/>
<g clip-path="url(#clip3)" clip-rule="nonzero">
<path style=" stroke:none;fill-rule:nonzero;fill:rgb(33.725491%,33.725491%,33.725491%);fill-opacity:1;" d="M 11.195312 7.160156 C 10.316406 7.78125 9.320312 8.253906 7.90625 8.253906 C 7.242188 8.253906 7.109375 7.546875 6.671875 7.894531 C 6.445312 8.074219 5.648438 8.472656 5.015625 8.445312 C 4.375 8.414062 3.359375 8.039062 3.070312 6.679688 C 2.957031 8.039062 2.902344 9.042969 2.394531 10.1875 C 3.636719 12.019531 5.808594 12.929688 7.992188 12.53125 C 7.757812 10.882812 9.191406 9.265625 9.996094 8.4375 C 10.304688 8.125 10.890625 7.613281 11.195312 7.160156 Z M 11.195312 7.160156 "/>
</g>
<path style=" stroke:none;fill-rule:nonzero;fill:rgb(5.098039%,7.058824%,9.019608%);fill-opacity:1;" d="M 6.027344 5.582031 C 6.027344 5.09375 6.3125 4.695312 6.664062 4.695312 C 7.011719 4.695312 7.296875 5.09375 7.296875 5.582031 C 7.296875 6.074219 7.011719 6.472656 6.664062 6.472656 C 6.3125 6.472656 6.027344 6.074219 6.027344 5.582031 Z M 6.027344 5.582031 "/>
<path style=" stroke:none;fill-rule:nonzero;fill:rgb(27.450982%,27.450982%,27.450982%);fill-opacity:1;" d="M 6.917969 3.96875 C 7.261719 4.105469 8.527344 4.527344 9.078125 4.695312 C 8.515625 3.765625 7.667969 3.820312 6.917969 3.96875 Z M 6.917969 3.96875 "/>
<path style=" stroke:none;fill-rule:nonzero;fill:rgb(100%,100%,100%);fill-opacity:1;" d="M 6.664062 5.582031 L 5.898438 5.074219 L 5.898438 6.089844 Z M 6.664062 5.582031 "/>
</g>
</svg>
