<?xml version="1.0" encoding="UTF-8" standalone="no"?>
<!DOCTYPE svg PUBLIC "-//W3C//DTD SVG 1.1//EN" "http://www.w3.org/Graphics/SVG/1.1/DTD/svg11.dtd">
<!-- Created with Vectornator (http://vectornator.io/) -->
<svg height="50.0pt" stroke-miterlimit="10" style="fill-rule:nonzero;clip-rule:evenodd;stroke-linecap:round;stroke-linejoin:round;" version="1.1" viewBox="0 0 50 50" width="50.0pt" xml:space="preserve" xmlns="http://www.w3.org/2000/svg" xmlns:xlink="http://www.w3.org/1999/xlink">
<defs/>
<g id="Untitled">
<path d="M7.39718 17.7388L7.39718 19.554C7.39718 20.2315 7.73586 20.5705 8.41373 20.5705L17.7807 20.5705C18.337 20.5705 18.6275 20.8852 18.6275 21.4904L18.6275 22.507C18.6275 23.0637 18.3855 23.3538 17.8772 23.3538L8.41373 23.3538C7.88365 23.3538 7.56205 23.5622 7.44645 23.9765L7.39718 23.9733L7.39718 25.5567C7.39718 26.2344 7.73586 26.5733 8.41373 26.5733L18.1194 26.5733C18.6275 26.5733 18.8696 26.8637 18.8696 27.4205L18.8696 28.4854C18.8696 29.0903 18.5794 29.3808 18.0227 29.3808L8.41373 29.3808C7.73586 29.3808 7.39718 29.7197 7.39718 30.3973L7.39718 32.2612C7.39718 32.9387 7.73586 33.2776 8.41373 33.2776L20.6606 33.2776C21.4114 33.2776 21.7985 32.9387 21.7985 32.2368L21.7985 31.8014C21.7985 31.2447 22.089 30.9783 22.6699 30.9783L23.1297 30.9783C23.6864 30.9783 23.9527 30.6152 23.9527 29.8648L23.9527 26.8637C23.9527 26.162 23.638 25.7989 23.0327 25.7989L22.476 25.7989C21.9677 25.7989 21.7016 25.5567 21.7016 25.0485L21.7016 24.5645C21.7016 24.0562 21.9676 23.8141 22.476 23.8141L22.7664 23.8141C23.3717 23.8141 23.6866 23.4994 23.6866 22.8458L23.6866 20.3529C23.6866 19.5542 23.3476 19.1672 22.67 19.1672L22.2098 19.1672C21.6535 19.1672 21.363 18.8767 21.363 18.2957L21.363 17.9084C21.363 17.1096 20.9271 16.7222 20.056 16.7222L8.41373 16.7222C7.73586 16.7222 7.39718 17.0612 7.39718 17.7388Z" fill="#d6d2d2" fill-rule="nonzero" opacity="1" stroke="none"/>
<path d="M41.5859 16.7222L39.7706 16.7222C39.0931 16.7222 38.7542 17.0609 38.7542 17.7388L38.7542 27.1057C38.7542 27.6621 38.4394 27.9525 37.8342 27.9525L36.8177 27.9525C36.2609 27.9525 35.9709 27.7107 35.9709 27.2024L35.9709 17.7388C35.9709 17.2087 35.7625 16.8871 35.3482 16.7715L35.3514 16.7222L33.768 16.7222C33.0904 16.7222 32.7515 17.0609 32.7515 17.7388L32.7515 27.4444C32.7515 27.9525 32.461 28.1947 31.9043 28.1947L30.8394 28.1947C30.2346 28.1947 29.9441 27.9045 29.9441 27.3477L29.9441 17.7388C29.9441 17.0609 29.6052 16.7222 28.9276 16.7222L27.0637 16.7222C26.3861 16.7222 26.0472 17.0609 26.0472 17.7388L26.0472 29.9856C26.0472 30.7364 26.3861 31.1236 27.088 31.1236L27.5235 31.1236C28.0802 31.1236 28.3465 31.414 28.3465 31.9949L28.3465 32.4547C28.3465 33.0115 28.7098 33.2778 29.46 33.2778L32.4613 33.2778C33.1631 33.2778 33.5262 32.963 33.5262 32.3578L33.5262 31.801C33.5262 31.2928 33.7683 31.0266 34.2766 31.0266L34.7605 31.0266C35.2688 31.0266 35.5109 31.2926 35.5109 31.801L35.5109 32.0915C35.5109 32.6967 35.8257 33.0116 36.4793 33.0116L38.9723 33.0116C39.771 33.0116 40.158 32.6727 40.158 31.9951L40.158 31.5349C40.158 30.9785 40.4485 30.6881 41.0295 30.6881L41.4167 30.6881C42.2154 30.6881 42.6028 30.2522 42.6028 29.3811L42.6028 17.7388C42.6024 17.0609 42.2635 16.7222 41.5859 16.7222Z" fill="#d6d2d2" fill-rule="nonzero" opacity="1" stroke="none"/>
</g>
</svg>
