<?xml version="1.0" encoding="UTF-8" standalone="no"?>
<!DOCTYPE svg PUBLIC "-//W3C//DTD SVG 1.1//EN" "http://www.w3.org/Graphics/SVG/1.1/DTD/svg11.dtd">
<!-- Created with Vectornator (http://vectornator.io/) -->
<svg height="50.0pt" stroke-miterlimit="10" style="fill-rule:nonzero;clip-rule:evenodd;stroke-linecap:round;stroke-linejoin:round;" version="1.1" viewBox="0 0 50 50" width="50.0pt" xml:space="preserve" xmlns="http://www.w3.org/2000/svg" xmlns:xlink="http://www.w3.org/1999/xlink">
<defs>
<path d="M20.6183 17.0591L24.3504 20.7367L20.6728 24.4688L16.9407 20.7912L20.6183 17.0591Z" id="Fill"/>
<path d="M25.0532 12.7397L28.7731 16.4052L25.1076 20.1251L21.3877 16.4596L25.0532 12.7397Z" id="Fill_2"/>
<path d="M25.0303 21.226L28.6246 24.7677L25.0828 28.362L21.4886 24.8202L25.0303 21.226Z" id="Fill_3"/>
</defs>
<g id="Layer-1">
<g opacity="1">
<mask height="7.40969" id="StrokeMask" maskUnits="userSpaceOnUse" width="7.40969" x="16.9407" y="17.0591">
<rect fill="#000000" height="7.40969" stroke="none" width="7.40969" x="16.9407" y="17.0591"/>
<use fill="#ffffff" fill-rule="evenodd" stroke="none" xlink:href="#Fill"/>
</mask>
<use fill="none" mask="url(#StrokeMask)" stroke="#242424" stroke-linecap="butt" stroke-linejoin="round" stroke-width="1.46708" xlink:href="#Fill"/>
</g>
<path d="M22.1565 20.8085L20.6309 22.3033L19.1346 20.7762L20.6602 19.2813L22.1565 20.8085Z" fill="#242424" fill-opacity="0.976471" fill-rule="nonzero" opacity="1" stroke="none"/>
</g>
<g id="Untitled">
<g opacity="1">
<clipPath clip-rule="nonzero" id="ClipPath">
<path d="M25.7276 20.7105L29.4023 17.0295L29.4023 17.0295L33.0833 20.7042L33.0833 20.7042L29.4086 24.3852L29.4086 24.3852L25.7276 20.7105L25.7276 20.7105Z"/>
</clipPath>
<g clip-path="url(#ClipPath)">
<g opacity="1">
<clipPath clip-rule="nonzero" id="ClipPath_2">
<path d="M25.7276 20.7105L26.7775 19.6588L27.8292 20.7087L26.7793 21.7604L25.7276 20.7105Z"/>
</clipPath>
<g clip-path="url(#ClipPath_2)">
<path d="M25.7276 20.7105L26.2526 20.1846L26.2526 20.1846L26.7784 20.7096L26.7784 20.7096L26.2535 21.2355L26.2535 21.2355L25.7276 20.7105L25.7276 20.7105Z" fill="#242424" fill-rule="nonzero" opacity="1" stroke="none"/>
<path d="M26.7784 20.7096L27.3034 20.1837L27.3034 20.1837L27.8292 20.7087L27.8292 20.7087L27.3043 21.2346L27.3043 21.2346L26.7784 20.7096L26.7784 20.7096Z" fill="#242424" fill-rule="nonzero" opacity="1" stroke="none"/>
</g>
</g>
<g opacity="1">
<clipPath clip-rule="nonzero" id="ClipPath_3">
<path d="M26.7793 21.7604L27.8292 20.7087L28.881 21.7586L27.831 22.8103L26.7793 21.7604Z"/>
</clipPath>
<g clip-path="url(#ClipPath_3)">
<path d="M26.7793 21.7604L27.3043 21.2346L27.3043 21.2346L27.8301 21.7595L27.8301 21.7595L27.3052 22.2854L27.3052 22.2854L26.7793 21.7604L26.7793 21.7604Z" fill="#242424" fill-rule="nonzero" opacity="1" stroke="none"/>
<path d="M27.8301 21.7595L28.3551 21.2337L28.3551 21.2337L28.881 21.7586L28.881 21.7586L28.356 22.2845L28.356 22.2845L27.8301 21.7595L27.8301 21.7595Z" fill="#242424" fill-rule="nonzero" opacity="1" stroke="none"/>
</g>
</g>
<g opacity="1">
<clipPath clip-rule="nonzero" id="ClipPath_4">
<path d="M27.831 22.8103L28.881 21.7586L29.9327 22.8086L28.8827 23.8603L27.831 22.8103Z"/>
</clipPath>
<g clip-path="url(#ClipPath_4)">
<path d="M27.831 22.8103L28.356 22.2845L28.356 22.2845L28.8819 22.8094L28.8819 22.8094L28.3569 23.3353L28.3569 23.3353L27.831 22.8103L27.831 22.8103Z" fill="#242424" fill-rule="nonzero" opacity="1" stroke="none"/>
<path d="M28.8819 22.8094L29.4068 22.2836L29.4068 22.2836L29.9327 22.8086L29.9327 22.8086L29.4077 23.3344L29.4077 23.3344L28.8819 22.8094L28.8819 22.8094Z" fill="#242424" fill-rule="nonzero" opacity="1" stroke="none"/>
</g>
</g>
<g opacity="1">
<clipPath clip-rule="nonzero" id="ClipPath_5">
<path d="M28.8827 23.8603L29.9327 22.8086L30.9844 23.8585L29.9345 24.9102L28.8827 23.8603Z"/>
</clipPath>
<g clip-path="url(#ClipPath_5)">
<path d="M28.8827 23.8603L29.4077 23.3344L29.4077 23.3344L29.9336 23.8594L29.9336 23.8594L29.4086 24.3852L29.4086 24.3852L28.8827 23.8603L28.8827 23.8603Z" fill="#242424" fill-rule="nonzero" opacity="1" stroke="none"/>
<path d="M29.9336 23.8594L30.4585 23.3335L30.4585 23.3335L30.9844 23.8585L30.9844 23.8585L30.4594 24.3843L30.4594 24.3843L29.9336 23.8594L29.9336 23.8594Z" fill="#242424" fill-rule="nonzero" opacity="1" stroke="none"/>
</g>
</g>
<g opacity="1">
<clipPath clip-rule="nonzero" id="ClipPath_6">
<path d="M26.7775 19.6588L27.8275 18.6071L28.8792 19.657L27.8292 20.7087L26.7775 19.6588Z"/>
</clipPath>
<g clip-path="url(#ClipPath_6)">
<path d="M26.7775 19.6588L27.3025 19.1329L27.3025 19.1329L27.8283 19.6579L27.8283 19.6579L27.3034 20.1837L27.3034 20.1837L26.7775 19.6588L26.7775 19.6588Z" fill="#242424" fill-rule="nonzero" opacity="1" stroke="none"/>
<path d="M27.8283 19.6579L28.3533 19.132L28.3533 19.132L28.8792 19.657L28.8792 19.657L28.3542 20.1828L28.3542 20.1828L27.8283 19.6579L27.8283 19.6579Z" fill="#242424" fill-rule="nonzero" opacity="1" stroke="none"/>
</g>
</g>
<g opacity="1">
<clipPath clip-rule="nonzero" id="ClipPath_7">
<path d="M27.8292 20.7087L28.8792 19.657L29.9309 20.7069L28.881 21.7586L27.8292 20.7087Z"/>
</clipPath>
<g clip-path="url(#ClipPath_7)">
<path d="M27.8292 20.7087L28.3542 20.1828L28.3542 20.1828L28.8801 20.7078L28.8801 20.7078L28.3551 21.2337L28.3551 21.2337L27.8292 20.7087L27.8292 20.7087Z" fill="#242424" fill-rule="nonzero" opacity="1" stroke="none"/>
<path d="M28.8801 20.7078L29.405 20.1819L29.405 20.1819L29.9309 20.7069L29.9309 20.7069L29.4059 21.2328L29.4059 21.2328L28.8801 20.7078L28.8801 20.7078Z" fill="#242424" fill-rule="nonzero" opacity="1" stroke="none"/>
</g>
</g>
<g opacity="1">
<clipPath clip-rule="nonzero" id="ClipPath_8">
<path d="M28.881 21.7586L29.9309 20.7069L30.9826 21.7568L29.9327 22.8086L28.881 21.7586Z"/>
</clipPath>
<g clip-path="url(#ClipPath_8)">
<path d="M28.881 21.7586L29.4059 21.2328L29.4059 21.2328L29.9318 21.7577L29.9318 21.7577L29.4068 22.2836L29.4068 22.2836L28.881 21.7586L28.881 21.7586Z" fill="#242424" fill-rule="nonzero" opacity="1" stroke="none"/>
<path d="M29.9318 21.7577L30.4567 21.2319L30.4567 21.2319L30.9826 21.7568L30.9826 21.7568L30.4576 22.2827L30.4576 22.2827L29.9318 21.7577L29.9318 21.7577Z" fill="#242424" fill-rule="nonzero" opacity="1" stroke="none"/>
</g>
</g>
<g opacity="1">
<clipPath clip-rule="nonzero" id="ClipPath_9">
<path d="M29.9327 22.8086L30.9826 21.7568L32.0343 22.8068L30.9844 23.8585L29.9327 22.8086Z"/>
</clipPath>
<g clip-path="url(#ClipPath_9)">
<path d="M29.9327 22.8086L30.4576 22.2827L30.4576 22.2827L30.9835 22.8077L30.9835 22.8077L30.4585 23.3335L30.4585 23.3335L29.9327 22.8086L29.9327 22.8086Z" fill="#242424" fill-rule="nonzero" opacity="1" stroke="none"/>
<path d="M30.9835 22.8077L31.5085 22.2818L31.5085 22.2818L32.0343 22.8068L32.0343 22.8068L31.5094 23.3326L31.5094 23.3326L30.9835 22.8077L30.9835 22.8077Z" fill="#242424" fill-rule="nonzero" opacity="1" stroke="none"/>
</g>
</g>
<g opacity="1">
<clipPath clip-rule="nonzero" id="ClipPath_10">
<path d="M27.8275 18.6071L28.8774 17.5553L29.9291 18.6053L28.8792 19.657L27.8275 18.6071Z"/>
</clipPath>
<g clip-path="url(#ClipPath_10)">
<path d="M27.8275 18.6071L28.3524 18.0812L28.3524 18.0812L28.8783 18.6062L28.8783 18.6062L28.3533 19.132L28.3533 19.132L27.8275 18.6071L27.8275 18.6071Z" fill="#242424" fill-rule="nonzero" opacity="1" stroke="none"/>
<path d="M28.8783 18.6062L29.4032 18.0803L29.4032 18.0803L29.9291 18.6053L29.9291 18.6053L29.4041 19.1311L29.4041 19.1311L28.8783 18.6062L28.8783 18.6062Z" fill="#242424" fill-rule="nonzero" opacity="1" stroke="none"/>
</g>
</g>
<g opacity="1">
<clipPath clip-rule="nonzero" id="ClipPath_11">
<path d="M28.8792 19.657L29.9291 18.6053L30.9808 19.6552L29.9309 20.7069L28.8792 19.657Z"/>
</clipPath>
<g clip-path="url(#ClipPath_11)">
<path d="M28.8792 19.657L29.4041 19.1311L29.4041 19.1311L29.93 19.6561L29.93 19.6561L29.405 20.1819L29.405 20.1819L28.8792 19.657L28.8792 19.657Z" fill="#242424" fill-rule="nonzero" opacity="1" stroke="none"/>
<path d="M29.93 19.6561L30.455 19.1302L30.455 19.1302L30.9808 19.6552L30.9808 19.6552L30.4558 20.1811L30.4558 20.1811L29.93 19.6561L29.93 19.6561Z" fill="#242424" fill-rule="nonzero" opacity="1" stroke="none"/>
</g>
</g>
<g opacity="1">
<clipPath clip-rule="nonzero" id="ClipPath_12">
<path d="M29.9309 20.7069L30.9808 19.6552L32.0325 20.7051L30.9826 21.7568L29.9309 20.7069Z"/>
</clipPath>
<g clip-path="url(#ClipPath_12)">
<path d="M29.9309 20.7069L30.4558 20.1811L30.4558 20.1811L30.9817 20.706L30.9817 20.706L30.4567 21.2319L30.4567 21.2319L29.9309 20.7069L29.9309 20.7069Z" fill="#242424" fill-rule="nonzero" opacity="1" stroke="none"/>
<path d="M30.9817 20.706L31.5067 20.1802L31.5067 20.1802L32.0325 20.7051L32.0325 20.7051L31.5076 21.231L31.5076 21.231L30.9817 20.706L30.9817 20.706Z" fill="#242424" fill-rule="nonzero" opacity="1" stroke="none"/>
</g>
</g>
<g opacity="1">
<clipPath clip-rule="nonzero" id="ClipPath_13">
<path d="M30.9826 21.7568L32.0325 20.7051L33.0842 21.755L32.0343 22.8068L30.9826 21.7568Z"/>
</clipPath>
<g clip-path="url(#ClipPath_13)">
<path d="M30.9826 21.7568L31.5076 21.231L31.5076 21.231L32.0334 21.7559L32.0334 21.7559L31.5085 22.2818L31.5085 22.2818L30.9826 21.7568L30.9826 21.7568Z" fill="#242424" fill-rule="nonzero" opacity="1" stroke="none"/>
<path d="M32.0334 21.7559L32.5584 21.2301L32.5584 21.2301L33.0842 21.755L33.0842 21.755L32.5593 22.2809L32.5593 22.2809L32.0334 21.7559L32.0334 21.7559Z" fill="#242424" fill-rule="nonzero" opacity="1" stroke="none"/>
</g>
</g>
<g opacity="1">
<clipPath clip-rule="nonzero" id="ClipPath_14">
<path d="M28.8774 17.5553L29.9273 16.5036L30.979 17.5536L29.9291 18.6053L28.8774 17.5553Z"/>
</clipPath>
<g clip-path="url(#ClipPath_14)">
<path d="M28.8774 17.5553L29.4023 17.0295L29.4023 17.0295L29.9282 17.5544L29.9282 17.5544L29.4032 18.0803L29.4032 18.0803L28.8774 17.5553L28.8774 17.5553Z" fill="#242424" fill-rule="nonzero" opacity="1" stroke="none"/>
<path d="M29.9282 17.5544L30.4532 17.0286L30.4532 17.0286L30.979 17.5536L30.979 17.5536L30.4541 18.0794L30.4541 18.0794L29.9282 17.5544L29.9282 17.5544Z" fill="#242424" fill-rule="nonzero" opacity="1" stroke="none"/>
</g>
</g>
<g opacity="1">
<clipPath clip-rule="nonzero" id="ClipPath_15">
<path d="M29.9291 18.6053L30.979 17.5536L32.0307 18.6035L30.9808 19.6552L29.9291 18.6053Z"/>
</clipPath>
<g clip-path="url(#ClipPath_15)">
<path d="M29.9291 18.6053L30.4541 18.0794L30.4541 18.0794L30.9799 18.6044L30.9799 18.6044L30.455 19.1302L30.455 19.1302L29.9291 18.6053L29.9291 18.6053Z" fill="#242424" fill-rule="nonzero" opacity="1" stroke="none"/>
<path d="M30.9799 18.6044L31.5049 18.0785L31.5049 18.0785L32.0307 18.6035L32.0307 18.6035L31.5058 19.1293L31.5058 19.1293L30.9799 18.6044L30.9799 18.6044Z" fill="#242424" fill-rule="nonzero" opacity="1" stroke="none"/>
</g>
</g>
<g opacity="1">
<clipPath clip-rule="nonzero" id="ClipPath_16">
<path d="M30.9808 19.6552L32.0307 18.6035L33.0825 19.6534L32.0325 20.7051L30.9808 19.6552Z"/>
</clipPath>
<g clip-path="url(#ClipPath_16)">
<path d="M30.9808 19.6552L31.5058 19.1293L31.5058 19.1293L32.0316 19.6543L32.0316 19.6543L31.5067 20.1802L31.5067 20.1802L30.9808 19.6552L30.9808 19.6552Z" fill="#242424" fill-rule="nonzero" opacity="1" stroke="none"/>
<path d="M32.0316 19.6543L32.5566 19.1284L32.5566 19.1284L33.0825 19.6534L33.0825 19.6534L32.5575 20.1793L32.5575 20.1793L32.0316 19.6543L32.0316 19.6543Z" fill="#242424" fill-rule="nonzero" opacity="1" stroke="none"/>
</g>
</g>
<g opacity="1">
<clipPath clip-rule="nonzero" id="ClipPath_17">
<path d="M32.0325 20.7051L33.0825 19.6534L34.1342 20.7033L33.0842 21.755L32.0325 20.7051Z"/>
</clipPath>
<g clip-path="url(#ClipPath_17)">
<path d="M32.0325 20.7051L32.5575 20.1793L32.5575 20.1793L33.0833 20.7042L33.0833 20.7042L32.5584 21.2301L32.5584 21.2301L32.0325 20.7051L32.0325 20.7051Z" fill="#242424" fill-rule="nonzero" opacity="1" stroke="none"/>
<path d="M32.5575 20.1793L33.0825 19.6534L33.0825 19.6534L33.6083 20.1784L33.6083 20.1784L33.0833 20.7042L33.0833 20.7042L32.5575 20.1793L32.5575 20.1793Z" fill="#ffffff" fill-rule="nonzero" opacity="1" stroke="none"/>
<path d="M32.5584 21.2301L33.0833 20.7042L33.0833 20.7042L33.6092 21.2292L33.6092 21.2292L33.0842 21.755L33.0842 21.755L32.5584 21.2301L32.5584 21.2301Z" fill="#ffffff" fill-rule="nonzero" opacity="1" stroke="none"/>
<path d="M33.0833 20.7042L33.6083 20.1784L33.6083 20.1784L34.1342 20.7033L34.1342 20.7033L33.6092 21.2292L33.6092 21.2292L33.0833 20.7042L33.0833 20.7042Z" fill="#242424" fill-rule="nonzero" opacity="1" stroke="none"/>
</g>
</g>
</g>
</g>
</g>
<g id="Layer-1_2">
<g opacity="1">
<mask height="7.38536" id="StrokeMask_2" maskUnits="userSpaceOnUse" width="7.38536" x="21.3877" y="12.7397">
<rect fill="#000000" height="7.38536" stroke="none" width="7.38536" x="21.3877" y="12.7397"/>
<use fill="#ffffff" fill-rule="evenodd" stroke="none" xlink:href="#Fill_2"/>
</mask>
<use fill="none" mask="url(#StrokeMask_2)" stroke="#242424" stroke-linecap="butt" stroke-linejoin="round" stroke-width="1.46227" xlink:href="#Fill_2"/>
</g>
<path d="M26.5914 16.4485L25.0657 17.9434L23.5694 16.4163L25.0951 14.9214L26.5914 16.4485Z" fill="#242424" fill-opacity="0.976471" fill-rule="nonzero" opacity="1" stroke="none"/>
</g>
<g id="Layer-1_3">
<g opacity="1">
<mask height="7.13602" id="StrokeMask_3" maskUnits="userSpaceOnUse" width="7.13602" x="21.4886" y="21.226">
<rect fill="#000000" height="7.13602" stroke="none" width="7.13602" x="21.4886" y="21.226"/>
<use fill="#ffffff" fill-rule="evenodd" stroke="none" xlink:href="#Fill_3"/>
</mask>
<use fill="none" mask="url(#StrokeMask_3)" stroke="#242424" stroke-linecap="butt" stroke-linejoin="round" stroke-width="1.4129" xlink:href="#Fill_3"/>
</g>
<path d="M26.5914 24.8101L25.0657 26.305L23.5694 24.7779L25.0951 23.283L26.5914 24.8101Z" fill="#242424" fill-opacity="0.976471" fill-rule="nonzero" opacity="1" stroke="none"/>
</g>
<g id="Layer-1_4">
<g opacity="1">
<path d="M30.35 13.9127C32.6291 15.6033 34.2128 17.6964 34.8319 20.4995C34.9639 21.4113 35.0255 22.2965 35.0185 23.2184C35.0181 23.4022 35.0181 23.4022 35.0177 23.5898C35.0168 23.9758 35.0147 24.3618 35.0125 24.7478C35.0116 25.0118 35.0109 25.2757 35.0102 25.5397C35.0083 26.182 35.0054 26.8244 35.0019 27.4667C35.1588 27.464 35.3157 27.4614 35.4774 27.4586C36.0598 27.4499 36.6421 27.4435 37.2246 27.4387C37.4766 27.4361 37.7286 27.4326 37.9806 27.4282C38.343 27.422 38.7052 27.4192 39.0676 27.4169C39.3947 27.4129 39.3947 27.4129 39.7283 27.4088C40.2698 27.4667 40.2698 27.4667 40.5965 27.6975C40.8552 28.0917 40.8387 28.365 40.7795 28.8261C40.3681 29.2376 40.1546 29.2071 39.5932 29.2123C39.4157 29.2113 39.4157 29.2113 39.2346 29.2103C39.109 29.211 38.9835 29.2116 38.8542 29.2123C38.4313 29.214 38.0086 29.2134 37.5857 29.2127C37.2835 29.2134 36.9812 29.2143 36.679 29.2153C35.8564 29.2176 35.0338 29.2177 34.2112 29.2173C33.5253 29.2171 32.8395 29.2179 32.1536 29.2187C30.5361 29.2206 28.9185 29.2207 27.301 29.2196C25.6303 29.2186 23.9596 29.2207 22.2889 29.2243C20.8563 29.2273 19.4237 29.2283 17.991 29.2278C17.1346 29.2275 16.2782 29.2279 15.4218 29.2303C14.6166 29.2324 13.8114 29.2321 13.0062 29.2299C12.7102 29.2295 12.4142 29.23 12.1182 29.2313C11.715 29.2331 11.3119 29.2318 10.9088 29.2296C10.7908 29.2309 10.6729 29.2321 10.5513 29.2334C10.0675 29.2279 9.75232 29.2149 9.34919 28.9343C9.17229 28.6562 9.17229 28.6562 9.19353 28.2208C9.34222 27.8066 9.34222 27.8066 9.85201 27.4667C10.3779 27.4125 10.3779 27.4125 11.017 27.3963C11.1294 27.393 11.2418 27.3897 11.3577 27.3864C11.716 27.3762 12.0744 27.3683 12.4328 27.3605C12.6761 27.354 12.9194 27.3474 13.1627 27.3406C13.7584 27.3243 14.3542 27.31 14.95 27.2968C14.9524 27.117 14.9549 26.9372 14.9575 26.7519C14.9674 26.0754 14.9806 25.399 14.9946 24.7225C15.0002 24.4315 15.0049 24.1405 15.0088 23.8494C15.0558 20.4267 15.7002 17.5987 18.1787 15.0617C21.5294 12.1528 26.5291 11.4178 30.35 13.9127ZM19.708 16.0813C19.5887 16.175 19.4693 16.2688 19.3463 16.3654C17.9791 17.5747 17.1152 19.4032 16.8192 21.1792C16.8192 22.3568 16.8192 23.5345 16.8192 24.7478C22.2026 24.7478 27.5861 24.7478 33.1326 24.7478C33.1625 20.1727 33.1625 20.1727 30.9182 16.5479C27.7041 13.4794 23.1132 13.3659 19.708 16.0813Z" fill="#242424" fill-opacity="0.976471" fill-rule="nonzero" opacity="1" stroke="none"/>
<path d="M15.1199 30.3555C17.6871 30.3516 20.2543 30.3486 22.8215 30.3467C24.0134 30.3458 25.2053 30.3446 26.3972 30.3427C27.5464 30.3408 28.6956 30.3398 29.8448 30.3394C30.2843 30.3391 30.7239 30.3385 31.1634 30.3376C31.7766 30.3363 32.3899 30.3362 33.0031 30.3362C33.1869 30.3356 33.3706 30.335 33.5598 30.3344C33.809 30.3347 33.809 30.3347 34.0632 30.3351C34.2084 30.3349 34.3536 30.3348 34.5032 30.3346C34.8319 30.3555 34.8319 30.3555 35.0019 30.5255C34.9872 31.3776 34.91 32.2261 34.8319 33.0744C34.8149 33.2622 34.7978 33.4499 34.7802 33.6433C34.6159 34.9423 34.2313 36.053 33.1652 36.882C31.8009 37.7035 29.9746 37.6993 28.4396 37.4083C27.3968 37.0493 26.6139 36.439 26.123 35.4535C25.725 34.4735 25.6084 33.4389 25.4857 32.3947C25.0651 32.3106 25.0651 32.3106 24.6361 32.2248C24.5956 32.4955 24.5956 32.4955 24.5544 32.7717C24.2463 34.6951 23.8843 35.944 22.251 37.1309C21.1269 37.7767 19.3212 37.6359 18.0798 37.4143C17.0644 37.0739 16.233 36.4097 15.6934 35.4953C15.4394 34.8957 15.3381 34.3783 15.258 33.7329C15.231 33.5292 15.2041 33.3255 15.1763 33.1156C15.117 32.5194 15.1142 31.929 15.1164 31.3301C15.1169 31.1473 15.1174 30.9645 15.1179 30.7763C15.1186 30.6374 15.1192 30.4986 15.1199 30.3555Z" fill="#242424" fill-opacity="0.976471" fill-rule="nonzero" opacity="1" stroke="none"/>
</g>
</g>
</svg>
