<?xml version="1.0" encoding="UTF-8" standalone="no"?>
<!DOCTYPE svg PUBLIC "-//W3C//DTD SVG 1.1//EN" "http://www.w3.org/Graphics/SVG/1.1/DTD/svg11.dtd">
<!-- Created with Vectornator (http://vectornator.io/) -->
<svg height="50.0pt" stroke-miterlimit="10" style="fill-rule:nonzero;clip-rule:evenodd;stroke-linecap:round;stroke-linejoin:round;" version="1.1" viewBox="0 0 50 50" width="50.0pt" xml:space="preserve" xmlns="http://www.w3.org/2000/svg" xmlns:xlink="http://www.w3.org/1999/xlink">
<defs/>
<g id="Untitled">
<path d="M38.8504 23.6354L38.3804 24.2217L41.2088 25.0446L41.2088 24.8132L39.3828 23.497L38.8504 23.6354Z" fill="#d1d3d3" fill-rule="evenodd" opacity="1" stroke="none"/>
<path d="M37.9829 25.2648L38.7173 25.2376L40.1174 25.1551L41.2089 25.0446L38.3804 24.2218L37.5367 23.9765L37.9829 25.2648Z" fill="#8a8c8c" fill-rule="evenodd" opacity="1" stroke="none"/>
<path d="M38.8504 23.6354L38.3804 24.2217L37.5367 23.9764L38.0389 23.8461L38.8504 23.6354Z" fill="#aba89e" fill-rule="evenodd" opacity="1" stroke="none"/>
<path d="M37.9829 25.2648L33.5653 25.2648L36.0917 24.3389L37.9829 25.2648Z" fill="#8a8c8c" fill-rule="evenodd" opacity="1" stroke="none"/>
<path d="M38.0389 23.8461L37.1437 23.3357L36.8712 23.1802L38.7788 21.9833L39.3829 23.497L38.8504 23.6354L38.0389 23.8461Z" fill="#99999a" fill-rule="evenodd" opacity="1" stroke="none"/>
<path d="M37.0079 23.5522L36.7601 23.8299L36.3901 23.3555L36.3947 23.3518L37.0079 23.5522Z" fill="#ffa400" fill-rule="evenodd" opacity="1" stroke="none"/>
<path d="M36.8712 23.1802L37.1438 23.3357L37.0079 23.5522L36.3947 23.3519L36.6811 23.1456L36.8712 23.1802Z" fill="#ff5000" fill-rule="evenodd" opacity="1" stroke="none"/>
<path d="M38.7788 21.9833L36.8712 23.1802L36.2046 20.8924L38.765 21.9494L38.7788 21.9833Z" fill="#8a8c8c" fill-rule="evenodd" opacity="1" stroke="none"/>
<path d="M36.7601 23.8299L37.0079 23.5522L37.1438 23.3357L38.0389 23.8461L37.5367 23.9765L36.716 23.8793L36.7601 23.8299Z" fill="#3e4543" fill-rule="evenodd" opacity="1" stroke="none"/>
<path d="M36.3901 23.3555L36.7601 23.8299L36.716 23.8793L35.9641 23.6627L36.3901 23.3555Z" fill="#80622d" fill-rule="evenodd" opacity="1" stroke="none"/>
<path d="M36.716 23.8793L37.5367 23.9765L36.1018 24.3352L36.0679 24.3278L36.0669 24.3271L33.4037 23.7319L35.9641 23.6627L36.716 23.8793Z" fill="#d3ccbd" fill-rule="evenodd" opacity="1" stroke="none"/>
<path d="M36.3946 23.3519L36.3901 23.3556L36.1523 23.0499L36.6811 23.1456L36.3946 23.3519Z" fill="#ef7622" fill-rule="evenodd" opacity="1" stroke="none"/>
<path d="M36.1523 23.0499L36.3901 23.3556L35.9641 23.6627L35.9127 23.2421L36.1523 23.0499Z" fill="#d49000" fill-rule="evenodd" opacity="1" stroke="none"/>
<path d="M36.2046 20.8924L36.8712 23.1802L36.6811 23.1456L36.1523 23.0499L35.6768 22.9629L36.133 20.896L36.2046 20.8924Z" fill="#d8d1ca" fill-rule="evenodd" opacity="1" stroke="none"/>
<path d="M36.133 20.896L35.6768 22.9629L34.4962 20.9749L36.133 20.896Z" fill="#bcb9af" fill-rule="evenodd" opacity="1" stroke="none"/>
<path d="M36.1018 24.3352L37.5367 23.9764L37.9829 25.2648L36.0917 24.3389L36.1018 24.3352Z" fill="#d8d1ca" fill-rule="evenodd" opacity="1" stroke="none"/>
<path d="M36.0917 24.3389L33.5652 25.2648L33.5083 25.2648L33.3174 23.7341L33.4037 23.7319L36.0669 24.3271L36.0678 24.3278L36.0917 24.3389Z" fill="#333e48" fill-rule="evenodd" opacity="1" stroke="none"/>
<path d="M33.5083 25.2648L35.7355 27.2012L35.2994 27.5946L35.2774 27.6661L35.2627 27.6742L31.5584 26.1023L33.5083 25.2648Z" fill="#d1d3d3" fill-rule="evenodd" opacity="1" stroke="none"/>
<path d="M34.4962 20.9749L35.6768 22.9629L33.3193 23.7047L34.4962 20.9749Z" fill="#7d868c" fill-rule="evenodd" opacity="1" stroke="none"/>
<path d="M35.2738 27.6786L34.8386 29.087L34.0703 31.1575L31.3841 29.8817L35.2628 27.6742L35.2738 27.6786Z" fill="#555759" fill-rule="evenodd" opacity="1" stroke="none"/>
<path d="M35.2627 27.6742L31.384 29.8817L31.5584 26.1023L35.2627 27.6742Z" fill="#99999a" fill-rule="evenodd" opacity="1" stroke="none"/>
<path d="M33.2357 23.6944L31.0297 23.4145L32.3314 22.37L32.7042 22.0709L34.4962 20.9749L33.3193 23.7046L33.2357 23.6944Z" fill="#5c6670" fill-rule="evenodd" opacity="1" stroke="none"/>
<path d="M34.0703 31.1575L33.9949 31.2452L33.9941 31.2452L29.0403 31.3063L29.0393 31.3063L29.0302 31.2909L28.9999 31.2393L31.3841 29.8817L34.0703 31.1575Z" fill="#d1d3d3" fill-rule="evenodd" opacity="1" stroke="none"/>
<path d="M33.994 31.2452L32.3268 33.1736L30.6863 33.9117L29.0402 31.3063L33.994 31.2452Z" fill="#7d868c" fill-rule="evenodd" opacity="1" stroke="none"/>
<path d="M33.5652 25.2648L37.9828 25.2648L37.1107 25.8821L36.514 26.4986L35.7355 27.2012L33.5083 25.2648L33.5652 25.2648Z" fill="#333e48" fill-rule="evenodd" opacity="1" stroke="none"/>
<path d="M33.3174 23.7341L33.5083 25.2647L31.5584 26.1023L31.0297 23.4145L33.2357 23.6944L33.3146 23.712L33.3174 23.7341Z" fill="#bcb9af" fill-rule="evenodd" opacity="1" stroke="none"/>
<path d="M33.3174 23.7341L33.4037 23.7319L33.3147 23.7121L33.3174 23.7341Z" fill="#383a35" fill-rule="evenodd" opacity="1" stroke="none"/>
<path d="M35.6768 22.9629L36.1524 23.0499L35.9127 23.2421L35.9641 23.6627L33.4037 23.7319L33.3147 23.712L33.2357 23.6944L33.3193 23.7047L35.6768 22.9629Z" fill="#333e48" fill-rule="evenodd" opacity="1" stroke="none"/>
<g opacity="1">
<clipPath clip-rule="evenodd" id="ClipPath">
<path d="M5.37079 5.37322L44.6292 5.37322L44.6292 44.6268L5.37079 44.6268L5.37079 5.37322Z"/>
</clipPath>
<g clip-path="url(#ClipPath)">
<path d="M34.0362 36.0375C34.0703 36.12 34.0014 36.4065 34.0014 36.4065L33.5764 36.83L33.6929 36.461L33.8646 36.1582L33.6589 35.7347L32.6702 35.3929L32.9245 35.7892L33.199 36.4065L32.8896 36.5987L32.4297 37.0782L32.5674 36.6267L32.8896 36.296C32.8896 36.296 32.7042 35.9822 32.6702 35.8717C32.6353 35.7619 32.0386 35.3649 32.0386 35.3649L31.8669 35.1175L32.8097 35.0114L32.8107 35.0114L34.139 35.3104L34.139 35.8717L33.9674 35.5027L33.3698 35.3377L33.8646 35.6515C33.8646 35.6515 34.0014 35.9542 34.0362 36.0375" fill="#333e48" fill-rule="evenodd" opacity="1" stroke="none"/>
<path d="M32.8097 35.0114L31.8669 35.1175L30.2953 34.3241L32.4986 34.9414L32.8097 35.0114Z" fill="#7f7f73" fill-rule="evenodd" opacity="1" stroke="none"/>
<path d="M31.9009 15.9189L32.4297 17.3567L30.3889 21.9649L29.6976 23.525L29.9556 20.9609L30.0988 19.5363L30.2347 18.1877L30.2953 18.2355L30.2723 18.1361L31.9009 15.9189Z" fill="#4f5858" fill-rule="evenodd" opacity="1" stroke="none"/>
<path d="M32.4297 17.3567L31.9009 20.8651L31.0297 23.4145L30.3889 21.9648L32.4297 17.3567Z" fill="#4b4f54" fill-rule="evenodd" opacity="1" stroke="none"/>
<path d="M31.9009 20.8651L32.3314 22.37L31.0297 23.4145L31.9009 20.8651Z" fill="#3e4543" fill-rule="evenodd" opacity="1" stroke="none"/>
<path d="M31.9009 15.9189L30.2723 18.1361L29.8895 16.4817L29.8895 16.481L29.9345 14.4237C30.3981 14.7779 30.6937 15.0122 30.7213 15.0549C30.8717 15.2862 31.9009 15.9189 31.9009 15.9189" fill="#7d868c" fill-rule="evenodd" opacity="1" stroke="none"/>
<path d="M31.8669 35.1175L30.8929 34.9134L29.5608 34.4457L30.2953 34.3241L31.8669 35.1175Z" fill="#d3ccbd" fill-rule="evenodd" opacity="1" stroke="none"/>
<path d="M31.5585 26.1023L31.3841 29.8817L27.8909 29.3735L27.1519 28.1286L31.5135 26.1229L31.5585 26.1023Z" fill="#5c6670" fill-rule="evenodd" opacity="1" stroke="none"/>
<path d="M31.4887 26.089L31.5134 26.1229L27.1519 28.1286L29.3359 26.0699L29.3891 26.0198L31.4887 26.089Z" fill="#5c6670" fill-rule="evenodd" opacity="1" stroke="none"/>
<path d="M31.3841 29.8817L28.9999 31.2393L27.8909 29.3735L31.3841 29.8817Z" fill="#99999a" fill-rule="evenodd" opacity="1" stroke="none"/>
<path d="M30.7892 36.0647L30.9269 35.5417L31.8669 35.1175L32.0386 35.3649L31.1325 35.6794L31.0297 36.0095L31.2014 36.4065L30.7892 36.0647Z" fill="#707c7c" fill-rule="evenodd" opacity="1" stroke="none"/>
<path d="M30.3889 21.9648L31.0297 23.4145L29.6976 23.5249L30.3889 21.9648Z" fill="#5c6670" fill-rule="evenodd" opacity="1" stroke="none"/>
<path d="M29.5278 24.895L29.6976 23.5249L31.0296 23.4145L29.3983 25.9461L29.5278 24.895Z" fill="#3e4543" fill-rule="evenodd" opacity="1" stroke="none"/>
<path d="M30.6863 33.9117L30.2953 34.3241L29.5608 34.4457L28.6492 34.0744L30.6863 33.9117Z" fill="#707c7c" fill-rule="evenodd" opacity="1" stroke="none"/>
<path d="M30.1585 37.722L29.7664 37.1607L29.2175 36.8027L30.7175 37.0635L30.9608 37.2432C30.9608 37.2432 31.2353 37.557 31.2702 37.6948C31.3042 37.8325 31.373 38.1463 31.373 38.2568C31.373 38.3665 30.8241 38.7083 30.8241 38.7083L31.0986 38.3945L30.9269 37.722L30.2264 37.3257C30.2264 37.3257 30.5697 38.0366 30.6037 38.1463C30.6386 38.2568 30.4669 38.5153 30.3292 38.5433C30.197 38.5698 29.7931 38.8549 29.7674 38.8725L30.2953 38.2568L30.1585 37.722Z" fill="#333e48" fill-rule="evenodd" opacity="1" stroke="none"/>
<path d="M30.7175 37.0635L29.2175 36.8027L29.1266 36.1155L29.1349 36.1199L29.5948 36.324L30.3292 36.7755L30.7175 37.0635Z" fill="#707c7c" fill-rule="evenodd" opacity="1" stroke="none"/>
<path d="M30.2347 18.1876L30.0988 19.5363L22.4571 15.5226L20.4044 14.2063L26.5671 16.176L30.1805 18.1456L30.1823 18.1463L30.2347 18.1876Z" fill="#909c9c" fill-rule="evenodd" opacity="1" stroke="none"/>
<path d="M30.1805 18.1456L26.5671 16.176L22.5048 13.9611L20.9194 12.4385L20.2538 11.7667L20.2538 11.3152L20.6448 11.095L22.3533 11.998L30.1805 18.1456Z" fill="#7d868c" fill-rule="evenodd" opacity="1" stroke="none"/>
<path d="M30.0988 19.5363L29.9555 20.9609L23.1914 17.2499L23.1226 17.2352L20.9193 15.9189L20.8165 15.2751L21.1387 15.0822L22.457 15.5226L30.0988 19.5363Z" fill="#7d868c" fill-rule="evenodd" opacity="1" stroke="none"/>
<path d="M29.9345 14.4237L29.8895 16.481L29.8895 16.4817L29.8876 16.5781L22.4791 10.13L29.9345 14.4237Z" fill="#909c9c" fill-rule="evenodd" opacity="1" stroke="none"/>
<path d="M29.9345 14.4237L22.4791 10.13L21.6878 9.07967L21.942 8.79312L22.5599 8.95816C22.5599 8.95816 27.8863 12.8584 29.9345 14.4237" fill="#5c6670" fill-rule="evenodd" opacity="1" stroke="none"/>
<path d="M22.525 10.1919L22.4791 10.13L29.8877 16.5781L29.8895 16.4817L30.2723 18.136L30.2347 18.1877L30.1824 18.1464L30.1805 18.1456L22.3534 11.998L21.0222 10.5057L20.8845 9.97168L21.3793 9.64094L22.525 10.1919Z" fill="#4f5858" fill-rule="evenodd" opacity="1" stroke="none"/>
<path d="M29.6866 23.5198L23.9259 19.2623L23.1566 18.6178L22.76 18.0697L22.761 18.0697L29.9556 20.9609L29.6976 23.5249L29.6866 23.5198Z" fill="#4b4f54" fill-rule="evenodd" opacity="1" stroke="none"/>
<path d="M29.6976 23.525L29.5278 24.895L26.0604 21.9774L29.6866 23.5198L29.6976 23.525Z" fill="#3e4543" fill-rule="evenodd" opacity="1" stroke="none"/>
<path d="M29.6866 23.5198L26.0604 21.9774L24.1453 20.3856L23.5486 19.6585L23.5137 19.1798L23.9259 19.2623L29.6866 23.5198Z" fill="#383a35" fill-rule="evenodd" opacity="1" stroke="none"/>
<path d="M31.4887 26.089L29.3891 26.0198L29.3983 25.9461L31.0297 23.4145L31.5585 26.1023L31.5134 26.1229L31.4887 26.089Z" fill="#555759" fill-rule="evenodd" opacity="1" stroke="none"/>
<path d="M29.3891 26.0198L29.3359 26.0699L29.2395 26.0669L29.3891 26.0198Z" fill="#a3402a" fill-rule="evenodd" opacity="1" stroke="none"/>
<path d="M29.3891 26.0198L29.2395 26.0669L23.1639 25.8791L24.8266 22.8568L29.3891 26.0198Z" fill="#5c6670" fill-rule="evenodd" opacity="1" stroke="none"/>
<path d="M29.3359 26.0699L27.1518 28.1286L24.2371 29.1768L24.0627 29.0487L22.7453 28.9382L22.1826 28.6951L25.8198 27.1431L29.2395 26.0669L29.3359 26.0699Z" fill="#555759" fill-rule="evenodd" opacity="1" stroke="none"/>
<path d="M29.2395 26.0669L25.8198 27.1431L23.1639 25.8799L23.1639 25.8791L29.2395 26.0669Z" fill="#c3c6c8" fill-rule="evenodd" opacity="1" stroke="none"/>
<path d="M28.9981 36.489L28.1177 35.5984L29.1266 36.1155L29.2175 36.8027L28.8264 37.2985L28.7575 37.7772L29.1349 38.3393L28.5858 38.0085L28.4354 37.3648L28.6547 36.9957L28.9981 36.489Z" fill="#3e4543" fill-rule="evenodd" opacity="1" stroke="none"/>
<path d="M29.1257 36.1096L29.1266 36.1155L28.1177 35.5984L28.0231 34.8309L29.1257 36.1096Z" fill="#333e48" fill-rule="evenodd" opacity="1" stroke="none"/>
<path d="M28.6143 34.0759L28.5739 34.07L29.0393 31.3063L29.0403 31.3063L30.6863 33.9117L28.6492 34.0744L28.6208 34.0766L28.6153 34.0759L28.6143 34.0759Z" fill="#333e48" fill-rule="evenodd" opacity="1" stroke="none"/>
<path d="M29.0393 31.3063L28.5739 34.07L22.8821 33.2671L29.0393 31.3063Z" fill="#a0a1a2" fill-rule="evenodd" opacity="1" stroke="none"/>
<path d="M29.0393 31.3063L22.8821 33.2671L26.2329 30.0851L29.0393 31.3063Z" fill="#8a8c8c" fill-rule="evenodd" opacity="1" stroke="none"/>
<path d="M29.0393 31.3063L26.2329 30.0851L27.8909 29.3735L28.9999 31.2393L28.998 31.24L29.0302 31.2909L29.0393 31.3063Z" fill="#5c6670" fill-rule="evenodd" opacity="1" stroke="none"/>
<path d="M28.6208 34.0766L28.6492 34.0744L29.5608 34.4457L28.0231 34.8309L28.6208 34.0766Z" fill="#5c6670" fill-rule="evenodd" opacity="1" stroke="none"/>
<path d="M28.6208 34.0766L28.0231 34.8309L28.1177 35.5984L28.0231 35.5027L27.2887 34.9414L28.6208 34.0766Z" fill="#d3ccbd" fill-rule="evenodd" opacity="1" stroke="none"/>
<path d="M28.6208 34.0766L27.2887 34.9414L26.8637 35.035L25.941 34.0854L28.5731 34.0759L28.6143 34.0759L28.6153 34.0759L28.6208 34.0766Z" fill="#7d868c" fill-rule="evenodd" opacity="1" stroke="none"/>
<path d="M28.5739 34.07L28.573 34.0759L25.941 34.0854L25.9382 34.0854L23.286 34.0943L23.2851 34.0943L22.8821 33.2671L28.5739 34.07Z" fill="#5c6670" fill-rule="evenodd" opacity="1" stroke="none"/>
<path d="M27.1519 28.1286L27.8909 29.3735L26.233 30.0851L27.1519 28.1286Z" fill="#333e48" fill-rule="evenodd" opacity="1" stroke="none"/>
<path d="M26.0861 35.1277L26.8637 35.0349C26.8637 35.0349 24.7972 38.927 24.362 39.78L26.0861 35.1277Z" fill="#555759" fill-rule="evenodd" opacity="1" stroke="none"/>
<path d="M22.5048 13.9611L26.5672 16.176L20.4044 14.2063L20.1161 13.6723L20.2538 13.2871L20.7477 13.2871L22.5599 14.0141L22.5048 13.9611Z" fill="#707c7c" fill-rule="evenodd" opacity="1" stroke="none"/>
<path d="M26.2329 30.085L22.8821 33.2671L23.5137 31.1302L24.2233 29.2144L24.2408 29.2188L26.2329 30.085Z" fill="#333e48" fill-rule="evenodd" opacity="1" stroke="none"/>
<path d="M26.0861 35.1277L24.362 39.78C24.3143 39.8743 24.2868 39.931 24.2831 39.9421C24.2482 40.0519 23.5486 40.5587 23.5486 40.5587L22.8482 40.5859L26.0861 35.1277Z" fill="#7d868c" fill-rule="evenodd" opacity="1" stroke="none"/>
<path d="M25.9382 34.0854L25.941 34.0854L26.8636 35.035L26.086 35.1277L24.5566 35.3104L25.9382 34.0854Z" fill="#5c6670" fill-rule="evenodd" opacity="1" stroke="none"/>
<path d="M25.9382 34.0854L24.5566 35.3104L24.1077 35.0548L23.6165 34.7757L23.2851 34.0951L23.286 34.0943L25.9382 34.0854Z" fill="#8a8c8c" fill-rule="evenodd" opacity="1" stroke="none"/>
<path d="M25.8198 27.1431L22.1826 28.6951L22.1817 28.6951L22.0448 28.6354L21.5372 28.1781L23.1639 25.8799L25.8198 27.1431Z" fill="#7d868c" fill-rule="evenodd" opacity="1" stroke="none"/>
<path d="M24.4198 22.5747L24.8266 22.8568L21.1003 22.613L19.7039 22.5217L19.6314 22.5062L16.4072 19.881L22.6848 21.4153L24.4198 22.5747Z" fill="#bcb9af" fill-rule="evenodd" opacity="1" stroke="none"/>
<path d="M24.5566 35.3104L22.6903 40.7317C22.5406 40.8644 22.323 41.0381 22.2165 41.0381C22.0448 41.0381 21.1736 41.1751 21.1736 41.1751L20.8018 41.1848L24.5566 35.3104Z" fill="#5c6670" fill-rule="evenodd" opacity="1" stroke="none"/>
<path d="M24.5566 35.3104L20.8018 41.1848L19.9866 41.2069L19.3127 41.1479L19.1815 40.9888L24.1077 35.0548L24.5566 35.3104Z" fill="#555759" fill-rule="evenodd" opacity="1" stroke="none"/>
<path d="M24.0554 20.3613L24.4198 22.5748L22.6847 21.4154L19.075 19.003L24.0554 20.3613Z" fill="#5c6670" fill-rule="evenodd" opacity="1" stroke="none"/>
<path d="M24.2408 29.2188L24.2234 29.2144L24.2371 29.1768L27.1519 28.1286L26.2329 30.085L24.2408 29.2188Z" fill="#8a8a8d" fill-rule="evenodd" opacity="1" stroke="none"/>
<path d="M24.1453 20.3856L26.0604 21.9774L29.5278 24.895L29.3983 25.9461L29.3891 26.0198L24.8266 22.8569L24.4198 22.5748L24.0554 20.3613L24.1453 20.3856Z" fill="#555759" fill-rule="evenodd" opacity="1" stroke="none"/>
<path d="M24.1077 35.0548L19.1815 40.9888L18.5784 41.0381L17.81 40.8061L17.5355 40.2831L24.1077 35.0548Z" fill="#8a8c8c" fill-rule="evenodd" opacity="1" stroke="none"/>
<path d="M24.1077 35.0548L17.5355 40.2831L23.2851 34.0951L23.6165 34.7757L24.1077 35.0548Z" fill="#5c6670" fill-rule="evenodd" opacity="1" stroke="none"/>
<path d="M23.286 34.0943L23.2851 34.0951L23.2851 34.0943L23.286 34.0943Z" fill="#7d868c" fill-rule="evenodd" opacity="1" stroke="none"/>
<path d="M23.2851 34.0943L23.2851 34.0951L16.3613 39.3837L19.0043 36.83L22.8821 33.2671L23.2851 34.0943Z" fill="#99999a" fill-rule="evenodd" opacity="1" stroke="none"/>
<path d="M23.2851 34.0951L17.5354 40.2831L16.8699 40.3656L16.2383 40.0519L16.3071 39.4354L16.3594 39.3845L16.3613 39.3838L23.2851 34.0951Z" fill="#7d868c" fill-rule="evenodd" opacity="1" stroke="none"/>
<path d="M24.8265 22.8569L23.1639 25.8791L23.163 25.8791L23.1382 25.8673L21.1002 22.613L24.8265 22.8569Z" fill="#7d868c" fill-rule="evenodd" opacity="1" stroke="none"/>
<path d="M23.163 25.8791L23.1639 25.8791L23.1639 25.8799L21.5372 28.178L21.4821 28.1286L20.4044 28.1567L19.9793 27.9364L19.5193 27.5674L19.176 27.1431L19.2705 27.1129L23.163 25.8791Z" fill="#99999a" fill-rule="evenodd" opacity="1" stroke="none"/>
<path d="M23.1382 25.8673L23.163 25.8791L19.2705 27.1129L20.3446 24.5385L23.1382 25.8673Z" fill="#5c6670" fill-rule="evenodd" opacity="1" stroke="none"/>
<path d="M22.8481 40.5859C22.8481 40.5859 22.782 40.6507 22.6903 40.7317L24.5566 35.3104L26.086 35.1277L22.8481 40.5859Z" fill="#949a90" fill-rule="evenodd" opacity="1" stroke="none"/>
<path d="M22.7104 18.0013L22.6765 17.2079L23.1226 17.2352L23.1915 17.2499L29.9555 20.9609L22.7609 18.0698L22.76 18.0698L22.7104 18.0013Z" fill="#3e4543" fill-rule="evenodd" opacity="1" stroke="none"/>
<path d="M19.075 19.003L22.6847 21.4153L16.4072 19.881L11.2689 17.3295L19.074 19.003L19.075 19.003Z" fill="#d1d3d3" fill-rule="evenodd" opacity="1" stroke="none"/>
<path d="M20.3447 24.5385L20.2566 24.5385L14.7006 24.5385C14.7006 24.5385 12.7378 23.6627 12.7029 23.5795C12.6689 23.497 12.3605 22.963 12.3605 22.963L12.4285 22.605L17.977 23.6119L18.0753 23.6296L20.3447 24.5385Z" fill="#d1d3d3" fill-rule="evenodd" opacity="1" stroke="none"/>
<path d="M20.3447 24.5385L19.2705 27.1129L19.176 27.1431L18.3388 27.0879L17.6732 26.8956L17.2472 26.5258L17.0893 26.0103L20.2566 24.5385L20.3447 24.5385Z" fill="#99999a" fill-rule="evenodd" opacity="1" stroke="none"/>
<path d="M20.2565 24.5385L17.0892 26.0103L17.0755 25.9646L15.2982 25.7716L14.8722 25.2376L14.7006 24.5385L20.2565 24.5385Z" fill="#5c6670" fill-rule="evenodd" opacity="1" stroke="none"/>
<path d="M16.4072 19.881L19.6313 22.5063L19.512 22.4805L11.2415 19.1172L10.0397 18.3312L9.06565 17.3015L8.82518 16.6739L8.99685 16.3712L9.86805 16.7675L11.269 17.3295L16.4072 19.881Z" fill="#333e48" fill-rule="evenodd" opacity="1" stroke="none"/>
<path d="M17.977 23.6119L12.4284 22.6049L10.8568 22.2359L19.3 22.4356L19.512 22.4805L19.6313 22.5063L19.7039 22.5217L17.977 23.6119Z" fill="#5c6670" fill-rule="evenodd" opacity="1" stroke="none"/>
<path d="M17.977 23.6119L19.7039 22.5217L21.1002 22.613L23.1383 25.8673L20.3447 24.5385L18.0753 23.6295L17.977 23.6119Z" fill="#99999a" fill-rule="evenodd" opacity="1" stroke="none"/>
<path d="M19.0741 19.003L11.2689 17.3295L9.45672 15.5226L9.38786 15.0549L9.62839 14.8236L12.4973 16.5634C12.4973 16.5634 16.2383 18.0285 16.4439 18.139C16.6496 18.2487 18.1671 18.7555 18.1671 18.7555L19.0741 19.003Z" fill="#99999a" fill-rule="evenodd" opacity="1" stroke="none"/>
<path d="M19.3 22.4356L11.4645 20.7606L11.5434 20.7708L9.59444 19.9613L8.99684 19.2623L8.79114 18.673L9.0657 18.4417L11.3368 19.1798L11.2414 19.1172L19.512 22.4805L19.3 22.4356Z" fill="#99999a" fill-rule="evenodd" opacity="1" stroke="none"/>
<path d="M11.4636 20.7606L11.4645 20.7606L19.2999 22.4356L10.8568 22.236L10.0746 21.5921L9.80011 20.8372L9.90292 20.5506L11.4636 20.7606Z" fill="#333e48" fill-rule="evenodd" opacity="1" stroke="none"/>
</g>
</g>
</g>
</svg>
