<?xml version="1.0" encoding="UTF-8" standalone="no"?>
<!DOCTYPE svg PUBLIC "-//W3C//DTD SVG 1.1//EN" "http://www.w3.org/Graphics/SVG/1.1/DTD/svg11.dtd">
<!-- Created with Vectornator (http://vectornator.io/) -->
<svg height="50.0pt" stroke-miterlimit="10" style="fill-rule:nonzero;clip-rule:evenodd;stroke-linecap:round;stroke-linejoin:round;" version="1.1" viewBox="0 0 50 50" width="50.0pt" xml:space="preserve" xmlns="http://www.w3.org/2000/svg" xmlns:xlink="http://www.w3.org/1999/xlink">
<defs/>
<g id="Untitled">
<path d="M15.5392 19.5938C15.5392 16.6081 17.9596 14.1877 20.9454 14.1877C23.9311 14.1877 26.3515 16.6081 26.3515 19.5938C26.3515 22.5796 23.9311 25 20.9454 25C17.9596 25 15.5392 22.5796 15.5392 19.5938ZM11.4846 34.5579C11.4846 30.3977 14.855 27.0273 19.0152 27.0273L22.8755 27.0273C27.0358 27.0273 30.4062 30.3977 30.4062 34.5579C30.4062 35.2506 29.8444 35.8123 29.1518 35.8123L12.739 35.8123C12.0463 35.8123 11.4846 35.2506 11.4846 34.5579ZM32.7714 27.3652L32.7714 24.6621L30.0683 24.6621C29.5066 24.6621 29.0546 24.2102 29.0546 23.6485C29.0546 23.0867 29.5066 22.6348 30.0683 22.6348L32.7714 22.6348L32.7714 19.9317C32.7714 19.37 33.2233 18.9181 33.785 18.9181C34.3468 18.9181 34.7987 19.37 34.7987 19.9317L34.7987 22.6348L37.5018 22.6348C38.0635 22.6348 38.5154 23.0867 38.5154 23.6485C38.5154 24.2102 38.0635 24.6621 37.5018 24.6621L34.7987 24.6621L34.7987 27.3652C34.7987 27.9269 34.3468 28.3789 33.785 28.3789C33.2233 28.3789 32.7714 27.9269 32.7714 27.3652Z" fill="#242424" fill-rule="nonzero" opacity="1" stroke="none"/>
</g>
</svg>
