<?xml version="1.0" encoding="UTF-8" standalone="no"?>
<!DOCTYPE svg PUBLIC "-//W3C//DTD SVG 1.1//EN" "http://www.w3.org/Graphics/SVG/1.1/DTD/svg11.dtd">
<!-- Created with Vectornator (http://vectornator.io/) -->
<svg height="50.0pt" stroke-miterlimit="10" style="fill-rule:nonzero;clip-rule:evenodd;stroke-linecap:round;stroke-linejoin:round;" version="1.1" viewBox="0 0 50 50" width="50.0pt" xml:space="preserve" xmlns="http://www.w3.org/2000/svg" xmlns:xlink="http://www.w3.org/1999/xlink">
<defs/>
<g id="Layer-1">
<g opacity="1">
<path d="M36.0409 14.2649C38.185 15.7618 38.185 15.7618 38.6974 16.953C38.4586 16.8694 38.2199 16.7859 37.9739 16.6998C35.6128 15.9262 33.2078 15.2637 30.7876 16.1813C30.9189 16.3126 31.0502 16.4439 31.1855 16.5792C31.2738 16.6687 31.3621 16.7582 31.453 16.8505C31.6536 17.0485 31.8593 17.2415 32.0695 17.4292C34.0648 19.2669 35.0128 21.7248 35.2979 24.3879C35.408 27.5362 34.307 30.2641 32.2707 32.6278C29.6576 35.3724 25.8352 37.5434 21.957 37.6414C17.9424 37.7212 14.9129 36.9493 11.904 34.1749C11.4956 33.737 11.4956 33.737 11.3026 33.1583C11.5374 33.2418 11.7722 33.3254 12.014 33.4115C14.4246 34.2049 16.6955 34.5805 19.2124 34.1229C19.2124 33.9319 19.2124 33.7409 19.2124 33.5441C19.1005 33.4944 18.9886 33.4447 18.8733 33.3934C16.833 32.2844 15.6626 29.8754 14.9681 27.7565C14.1603 24.6382 14.9961 21.5944 16.5416 18.8701C18.584 15.6162 22.2985 13.5886 25.9646 12.7087C29.4027 11.9367 33.0558 12.4067 36.0409 14.2649ZM22.1235 21.9011C21.0817 23.0735 20.8701 24.1088 20.9004 25.6585C21.0061 26.8735 21.6139 27.5428 22.492 28.3353C23.609 29.2551 24.7578 29.2342 26.1575 29.107C27.4186 28.7236 28.2794 27.6342 28.9308 26.5387C29.2272 25.264 29.2095 24.0629 28.5487 22.9116C27.7209 21.7917 26.7796 21.048 25.3858 20.8114C24.1862 20.7449 23.0405 21.1098 22.1235 21.9011Z" fill="#242424" fill-opacity="0.956863" fill-rule="nonzero" opacity="1" stroke="none"/>
</g>
</g>
</svg>
