<?xml version="1.0" encoding="UTF-8"?>
<svg xmlns="http://www.w3.org/2000/svg" xmlns:xlink="http://www.w3.org/1999/xlink" width="15px" height="15px" viewBox="0 0 15 15" version="1.1">
<g id="surface1">
<path style=" stroke:none;fill-rule:nonzero;fill:rgb(83.92157%,82.352942%,82.352942%);fill-opacity:1;" d="M 1.433594 3.285156 C 1.433594 2.453125 2.109375 1.78125 2.9375 1.78125 L 12.0625 1.78125 C 12.890625 1.78125 13.566406 2.453125 13.566406 3.285156 L 13.566406 11.683594 C 13.566406 12.511719 12.890625 13.1875 12.0625 13.1875 L 2.9375 13.1875 C 2.109375 13.1875 1.433594 12.511719 1.433594 11.683594 Z M 1.433594 3.285156 "/>
<path style=" stroke:none;fill-rule:nonzero;fill:rgb(14.117648%,14.117648%,14.117648%);fill-opacity:1;" d="M 4.351562 6.257812 L 6.125 6.257812 L 6.125 7.144531 L 3.460938 7.144531 L 3.460938 2.707031 L 6.125 2.707031 L 6.125 3.59375 L 4.351562 3.59375 L 4.351562 4.480469 L 6.125 4.480469 L 6.125 5.367188 L 4.351562 5.367188 Z M 7.011719 4.480469 L 6.125 4.480469 L 6.125 3.59375 L 7.011719 3.59375 Z M 7.011719 6.257812 L 6.125 6.257812 L 6.125 5.367188 L 7.011719 5.367188 Z M 7.011719 6.257812 "/>
<path style=" stroke:none;fill-rule:nonzero;fill:rgb(14.117648%,14.117648%,14.117648%);fill-opacity:1;" d="M 9.019531 6.257812 L 10.792969 6.257812 L 10.792969 7.144531 L 8.132812 7.144531 L 8.132812 2.707031 L 10.792969 2.707031 L 10.792969 3.59375 L 9.019531 3.59375 L 9.019531 4.480469 L 10.792969 4.480469 L 10.792969 5.367188 L 9.019531 5.367188 Z M 11.683594 4.480469 L 10.792969 4.480469 L 10.792969 3.59375 L 11.683594 3.59375 Z M 11.683594 6.257812 L 10.792969 6.257812 L 10.792969 5.367188 L 11.683594 5.367188 Z M 11.683594 6.257812 "/>
<path style=" stroke:none;fill-rule:nonzero;fill:rgb(14.117648%,14.117648%,14.117648%);fill-opacity:1;" d="M 4.351562 8.742188 L 4.351562 7.855469 L 6.125 7.855469 L 6.125 8.742188 Z M 4.351562 11.40625 L 3.460938 11.40625 L 3.460938 8.742188 L 4.351562 8.742188 Z M 6.125 10.519531 L 6.125 8.742188 L 7.011719 8.742188 L 7.011719 10.519531 Z M 6.125 11.40625 L 5.238281 11.40625 L 5.238281 10.519531 L 6.125 10.519531 Z M 5.238281 11.40625 L 5.238281 12.292969 L 4.351562 12.292969 L 4.351562 11.40625 Z M 6.125 12.292969 L 6.125 11.40625 L 7.011719 11.40625 L 7.011719 12.292969 Z M 6.125 12.292969 "/>
<path style=" stroke:none;fill-rule:nonzero;fill:rgb(14.117648%,14.117648%,14.117648%);fill-opacity:1;" d="M 9.4375 12.292969 L 8.546875 12.292969 L 8.546875 8.742188 L 10.324219 8.742188 L 10.324219 9.632812 L 9.4375 9.632812 Z M 9.4375 12.292969 "/>
</g>
</svg>
