<?xml version="1.0" encoding="UTF-8"?>
<svg xmlns="http://www.w3.org/2000/svg" xmlns:xlink="http://www.w3.org/1999/xlink" width="14px" height="14px" viewBox="0 0 14 14" version="1.1">
<g id="surface1">
<path style=" stroke:none;fill-rule:nonzero;fill:#a8a8a8;fill-opacity:1;" d="M 11.898438 4.898438 L 2.101562 4.898438 C 1.710938 4.898438 1.398438 4.585938 1.398438 4.199219 L 1.398438 2.800781 C 1.398438 2.414062 1.710938 2.101562 2.101562 2.101562 L 11.898438 2.101562 C 12.289062 2.101562 12.601562 2.414062 12.601562 2.800781 L 12.601562 4.199219 C 12.601562 4.585938 12.289062 4.898438 11.898438 4.898438 Z M 10.851562 2.976562 C 10.558594 2.976562 10.324219 3.210938 10.324219 3.5 C 10.324219 3.789062 10.558594 4.023438 10.851562 4.023438 C 11.140625 4.023438 11.375 3.789062 11.375 3.5 C 11.375 3.210938 11.140625 2.976562 10.851562 2.976562 Z M 9.449219 2.976562 C 9.160156 2.976562 8.925781 3.210938 8.925781 3.5 C 8.925781 3.789062 9.160156 4.023438 9.449219 4.023438 C 9.742188 4.023438 9.976562 3.789062 9.976562 3.5 C 9.976562 3.210938 9.742188 2.976562 9.449219 2.976562 Z M 11.898438 8.398438 L 2.101562 8.398438 C 1.710938 8.398438 1.398438 8.085938 1.398438 7.699219 L 1.398438 6.300781 C 1.398438 5.914062 1.710938 5.601562 2.101562 5.601562 L 11.898438 5.601562 C 12.289062 5.601562 12.601562 5.914062 12.601562 6.300781 L 12.601562 7.699219 C 12.601562 8.085938 12.289062 8.398438 11.898438 8.398438 Z M 10.851562 6.476562 C 10.558594 6.476562 10.324219 6.710938 10.324219 7 C 10.324219 7.289062 10.558594 7.523438 10.851562 7.523438 C 11.140625 7.523438 11.375 7.289062 11.375 7 C 11.375 6.710938 11.140625 6.476562 10.851562 6.476562 Z M 9.449219 6.476562 C 9.160156 6.476562 8.925781 6.710938 8.925781 7 C 8.925781 7.289062 9.160156 7.523438 9.449219 7.523438 C 9.742188 7.523438 9.976562 7.289062 9.976562 7 C 9.976562 6.710938 9.742188 6.476562 9.449219 6.476562 Z M 11.898438 11.898438 L 2.101562 11.898438 C 1.710938 11.898438 1.398438 11.585938 1.398438 11.199219 L 1.398438 9.800781 C 1.398438 9.414062 1.710938 9.101562 2.101562 9.101562 L 11.898438 9.101562 C 12.289062 9.101562 12.601562 9.414062 12.601562 9.800781 L 12.601562 11.199219 C 12.601562 11.585938 12.289062 11.898438 11.898438 11.898438 Z M 10.851562 9.976562 C 10.558594 9.976562 10.324219 10.210938 10.324219 10.5 C 10.324219 10.789062 10.558594 11.023438 10.851562 11.023438 C 11.140625 11.023438 11.375 10.789062 11.375 10.5 C 11.375 10.210938 11.140625 9.976562 10.851562 9.976562 Z M 9.449219 9.976562 C 9.160156 9.976562 8.925781 10.210938 8.925781 10.5 C 8.925781 10.789062 9.160156 11.023438 9.449219 11.023438 C 9.742188 11.023438 9.976562 10.789062 9.976562 10.5 C 9.976562 10.210938 9.742188 9.976562 9.449219 9.976562 Z M 9.449219 9.976562 "/>
</g>
</svg>
