<?xml version="1.0" encoding="UTF-8"?>
<svg xmlns="http://www.w3.org/2000/svg" xmlns:xlink="http://www.w3.org/1999/xlink" width="14px" height="14px" viewBox="0 0 14 14" version="1.1">
<g id="surface1">
<path style=" stroke:none;fill-rule:nonzero;fill:#a8a8a8;fill-opacity:1;" d="M 12.363281 10.054688 L 9.800781 7.492188 C 9.296875 6.988281 8.539062 6.890625 7.933594 7.191406 L 5.601562 4.859375 L 5.601562 3.5 L 2.800781 1.398438 L 1.402344 2.800781 L 3.5 5.597656 L 4.859375 5.597656 L 7.191406 7.929688 C 6.894531 8.539062 6.988281 9.292969 7.496094 9.800781 L 10.058594 12.359375 C 10.375 12.679688 10.890625 12.679688 11.210938 12.359375 L 12.363281 11.207031 C 12.679688 10.890625 12.679688 10.371094 12.363281 10.054688 Z M 8.65625 6.320312 C 9.277344 6.320312 9.859375 6.5625 10.296875 7 L 10.71875 7.425781 C 11.066406 7.273438 11.394531 7.0625 11.675781 6.777344 C 12.488281 5.96875 12.765625 4.824219 12.507812 3.789062 C 12.457031 3.589844 12.210938 3.523438 12.066406 3.667969 L 10.441406 5.296875 L 8.953125 5.046875 L 8.707031 3.5625 L 10.335938 1.933594 C 10.480469 1.789062 10.410156 1.542969 10.210938 1.492188 C 9.171875 1.238281 8.03125 1.511719 7.222656 2.324219 C 6.597656 2.945312 6.304688 3.769531 6.320312 4.589844 L 8.117188 6.386719 C 8.292969 6.34375 8.476562 6.320312 8.65625 6.320312 Z M 6.382812 8.113281 L 5.144531 6.875 L 1.808594 10.210938 C 1.261719 10.757812 1.261719 11.644531 1.808594 12.191406 C 2.355469 12.738281 3.242188 12.738281 3.789062 12.191406 L 6.492188 9.488281 C 6.328125 9.050781 6.277344 8.578125 6.382812 8.113281 Z M 2.800781 11.722656 C 2.511719 11.722656 2.277344 11.488281 2.277344 11.199219 C 2.277344 10.910156 2.511719 10.675781 2.800781 10.675781 C 3.089844 10.675781 3.324219 10.910156 3.324219 11.199219 C 3.324219 11.488281 3.089844 11.722656 2.800781 11.722656 Z M 2.800781 11.722656 "/>
</g>
</svg>
